<?xml version="1.0" encoding="utf-8"?>
<!-- Generator: Adobe Illustrator 18.0.0, SVG Export Plug-In . SVG Version: 6.00 Build 0)  -->
<!DOCTYPE svg PUBLIC "-//W3C//DTD SVG 1.1//EN" "http://www.w3.org/Graphics/SVG/1.1/DTD/svg11.dtd">
<svg version="1.1" id="Layer_1" xmlns="http://www.w3.org/2000/svg" xmlns:xlink="http://www.w3.org/1999/xlink" x="0px" y="0px"
	 viewBox="0 0 288 500" enable-background="new 0 0 288 500" xml:space="preserve">
<g>
	<defs>
		<rect id="SVGID_1_" x="16.3" y="5.9" width="254.7" height="488.7"/>
	</defs>
	<clipPath id="SVGID_2_">
		<use xlink:href="#SVGID_1_"  overflow="visible"/>
	</clipPath>
	<path clip-path="url(#SVGID_2_)" fill="#ED2D32" d="M261.1,389.9h-16.8c-4.6,0-8.4,3.7-8.4,8.3v7.2v10.7c0,4.6-3.8,8.3-8.4,8.3
		h-25.3v3.6h43.2h15.6c4.6,0,8.4-3.7,8.4-8.3v-21.5C269.5,393.6,265.7,389.9,261.1,389.9"/>
	<path clip-path="url(#SVGID_2_)" fill="#FFEB00" d="M271,128.1c0,110.6-127.3,157.3-127.3,157.3s-127.3-46-127.3-157.3
		c0-67.5,57-122.2,127.3-122.2C214,5.9,271,60.6,271,128.1"/>
	<path clip-path="url(#SVGID_2_)" fill="#ED2D32" d="M143.7,5.9C214,5.9,271,60.6,271,128.1c0,110.6-127.3,157.3-127.3,157.3V5.9z"
		/>
	<path clip-path="url(#SVGID_2_)" fill="#ED2D32" d="M65,148.2L91.2,164l26.2-15.9l26.2,15.9v-38.5l-26.2-15.9l-26.2,15.9L65,109.7
		l-26.2,15.9l-21.5-13c-0.7,5.1-1,10.2-1,15.5c0,8.2,0.7,16,2,23.5L38.8,164L65,148.2z"/>
	<path clip-path="url(#SVGID_2_)" fill="#FFEB00" d="M270,112.6l-21.5,13l-26.2-15.9l-26.2,15.9l-26.2-15.9l-26.2,15.9V164
		l26.2-15.9l26.2,15.9l26.2-15.9l26.2,15.9l20.5-12.4c1.3-7.5,2-15.4,2-23.6C271,122.8,270.7,117.7,270,112.6"/>
	<path clip-path="url(#SVGID_2_)" fill="#ED2D32" d="M67.5,473.2c-1.8,0-3.6-2.5-3.6-9.1c0-9.5,2.8-24,2.8-38h0.7h0.7
		c0,14.1,2.8,28.5,2.8,38C71,470.8,69.3,473.2,67.5,473.2"/>
	<path clip-path="url(#SVGID_2_)" fill="#ED2D32" d="M67.5,378.8c-1.8,0-3.6,2.5-3.6,9.2c0,9.5,2.8,23.9,2.8,38h0.7h0.7
		c0-14.1,2.8-28.5,2.8-38C71,381.3,69.3,378.8,67.5,378.8"/>
	<path clip-path="url(#SVGID_2_)" fill="#ED2D32" d="M199.1,449.4c0,3.7-3.1,6.8-6.8,6.8H95c-3.7,0-6.8-3-6.8-6.8v-57.1
		c0-3.7,3.1-6.8,6.8-6.8h97.4c3.7,0,6.8,3.1,6.8,6.8V449.4z"/>
	<path clip-path="url(#SVGID_2_)" fill="#FFEB00" d="M143.7,385.5H95c-3.7,0-6.8,3.1-6.8,6.8v57.1c0,3.7,3.1,6.8,6.8,6.8h48.7V385.5
		z"/>
	<path clip-path="url(#SVGID_2_)" fill="#FFEB00" d="M63.3,426.5c0,4.2-0.4,7.6-3.6,7.6c-3.2,0-7.9-3.4-7.9-7.6
		c0-4.2,4.7-7.6,7.9-7.6C62.8,418.9,63.3,422.3,63.3,426.5"/>
	<path clip-path="url(#SVGID_2_)" fill="#FFEB00" d="M260.3,407.3c0,4.6-3.8,8.4-8.4,8.4c-4.6,0-8.4-3.8-8.4-8.4
		c0-4.6,3.8-8.4,8.4-8.4C256.5,398.9,260.3,402.7,260.3,407.3"/>
	<path clip-path="url(#SVGID_2_)" fill="#FFEB00" d="M169.4,456.1c0,14.1-11.5,25.6-25.7,25.6c-14.2,0-25.7-11.5-25.7-25.6
		c0-14.1,11.5-25.6,25.7-25.6C157.9,430.6,169.4,442,169.4,456.1"/>
	<path clip-path="url(#SVGID_2_)" fill="#ED2D32" d="M180.3,456.1h-2c0,9.5-3.9,18.1-10.1,24.3c-6.3,6.2-14.9,10.1-24.5,10.1
		c-9.5,0-18.2-3.9-24.4-10.1c-6.3-6.2-10.1-14.8-10.1-24.3c0-9.5,3.9-18.1,10.1-24.3c6.3-6.2,14.9-10.1,24.4-10.1
		c9.6,0,18.2,3.8,24.5,10.1c6.3,6.2,10.1,14.8,10.1,24.3H180.3h2.1c0-21.2-17.3-38.5-38.7-38.5c-21.3,0-38.7,17.2-38.7,38.5
		c0,21.3,17.3,38.5,38.7,38.5c21.4,0,38.7-17.2,38.7-38.5H180.3z"/>
	<path clip-path="url(#SVGID_2_)" fill="#ED2D32" d="M143.7,377l1.8-1L40.9,199.7l-1.8,1l-0.7,1.9c0.2,0.1,39.9,15,105.3,15
		c65.4,0,104.1-15,104.3-15l-0.8-1.9l-1.8-1L141.9,376L143.7,377l1.8-1L143.7,377l1.8,1L249,201.8c0.4-0.7,0.3-1.7-0.2-2.4
		c-0.6-0.6-1.5-0.9-2.3-0.6l0,0c-1,0.4-39.1,14.7-102.8,14.7c-32.4,0-58.4-3.7-76.3-7.4c-8.9-1.8-15.9-3.7-20.5-5.1
		c-2.3-0.7-4.1-1.3-5.3-1.7c-0.6-0.2-1-0.4-1.3-0.5c-0.1-0.1-0.3-0.1-0.3-0.1l-0.1,0l0,0c-0.8-0.3-1.7-0.1-2.3,0.6
		c-0.6,0.7-0.6,1.6-0.2,2.3L141.9,378c0.4,0.6,1,1,1.8,1c0.7,0,1.4-0.4,1.8-1L143.7,377z"/>
	<path clip-path="url(#SVGID_2_)" fill="#ED2D32" d="M74.2,211.3l67.6,166.5c0.4,1,1.6,1.5,2.6,1.1c1-0.4,1.5-1.6,1.1-2.6L78,209.8
		c-0.4-1-1.6-1.6-2.6-1.1C74.3,209.1,73.8,210.2,74.2,211.3"/>
	<path clip-path="url(#SVGID_2_)" fill="#ED2D32" d="M111.7,215l30,162.3c0.2,1.1,1.3,1.8,2.4,1.6c1.1-0.2,1.9-1.3,1.7-2.4
		l-30-162.3c-0.2-1.1-1.3-1.8-2.4-1.6C112.2,212.9,111.5,213.9,111.7,215"/>
	<path clip-path="url(#SVGID_2_)" fill="#ED2D32" d="M171.7,214.3l-30,162.3c-0.2,1.1,0.5,2.2,1.6,2.4c1.1,0.2,2.2-0.5,2.4-1.6
		L175.7,215c0.2-1.1-0.5-2.2-1.6-2.4C173,212.5,171.9,213.2,171.7,214.3"/>
	<path clip-path="url(#SVGID_2_)" fill="#ED2D32" d="M209.6,209.8l-67.8,166.5c-0.4,1,0.1,2.2,1.1,2.6c1,0.4,2.2-0.1,2.6-1.1
		l67.8-166.5c0.4-1-0.1-2.2-1.1-2.6C211.2,208.2,210,208.7,209.6,209.8"/>
</g>
<rect x="71.7" y="424" fill="#ED2D32" width="13.1" height="4.4"/>
</svg>
