<?xml version="1.0" encoding="utf-8"?>
<!-- Generator: Adobe Illustrator 18.0.0, SVG Export Plug-In . SVG Version: 6.00 Build 0)  -->
<!DOCTYPE svg PUBLIC "-//W3C//DTD SVG 1.1//EN" "http://www.w3.org/Graphics/SVG/1.1/DTD/svg11.dtd">
<svg version="1.1" id="Layer_1" xmlns="http://www.w3.org/2000/svg" xmlns:xlink="http://www.w3.org/1999/xlink" x="0px" y="0px"
	 viewBox="574.3 936.1 280 280" enable-background="new 574.3 936.1 280 280" xml:space="preserve">
<polyline fill="#D9E86B" points="854.3,1216.1 574.3,1216.1 574.3,936.1 854.3,936.1 854.3,1216.1 "/>
<polyline fill="#FFEB00" points="750.5,1008.5 750.6,1008.7 750.5,1008.5 "/>
<polyline fill="#FFEB00" points="763.7,1026.2 763.7,1026.4 763.7,1026.2 "/>
<polyline fill="#FFEB00" points="750.7,1009.9 750.8,1010.2 750.7,1009.9 "/>
<path fill="#FFEB00" d="M763.7,1026.5c0,0.3-0.1,0.6-0.1,0.8C763.6,1027,763.6,1026.7,763.7,1026.5"/>
<polyline fill="#FFEB00" points="750.6,1008.7 750.6,1009 750.6,1008.7 "/>
<path fill="#FFEB00" d="M762.4,1031.7c-0.1,0.2-0.1,0.4-0.2,0.5C762.3,1032,762.3,1031.8,762.4,1031.7"/>
<polyline fill="#FFEB00" points="750.7,1009.6 750.7,1009.9 750.7,1009.6 "/>
<polyline fill="#FFEB00" points="750.5,1008.2 750.5,1008.4 750.5,1008.2 "/>
<path fill="#FFEB00" d="M762.6,1031.1c-0.1,0.2-0.1,0.4-0.2,0.5C762.5,1031.4,762.6,1031.3,762.6,1031.1"/>
<polyline fill="#FFEB00" points="762.2,1032.3 762.1,1032.5 762.2,1032.3 "/>
<path fill="#FFEB00" d="M750.8,1013.4c0,0.2,0,0.4,0,0.6C750.8,1013.8,750.8,1013.6,750.8,1013.4"/>
<polyline fill="#FFEB00" points="750.8,1010.8 750.8,1011.1 750.8,1010.8 "/>
<polyline fill="#FFEB00" points="750.8,1010.2 750.8,1010.5 750.8,1010.2 "/>
<polyline fill="#FFEB00" points="750.9,1012.8 750.8,1013.1 750.9,1012.8 "/>
<polyline fill="#FFEB00" points="750.8,1013.1 750.8,1013.4 750.8,1013.1 "/>
<polyline fill="#FFEB00" points="750.8,1014.3 750.8,1014.6 750.8,1014.3 "/>
<polyline fill="#FFEB00" points="750.8,1014 750.8,1014.3 750.8,1014 "/>
<path fill="#FFEB00" d="M763.8,1025.6c0,0.2,0,0.4-0.1,0.6C763.7,1026,763.7,1025.8,763.8,1025.6"/>
<polyline fill="#FFEB00" points="750.8,1010.5 750.8,1010.8 750.8,1010.5 "/>
<path fill="#FFEB00" d="M762.8,1030.5c-0.1,0.2-0.1,0.4-0.2,0.6C762.7,1030.9,762.8,1030.7,762.8,1030.5"/>
<polyline fill="#FFEB00" points="761.3,1034.2 761.2,1034.4 761.3,1034.2 "/>
<polyline fill="#FFEB00" points="761.5,1033.9 761.3,1034.2 761.5,1033.9 "/>
<polyline fill="#FFEB00" points="761.6,1033.6 761.5,1033.9 761.6,1033.6 "/>
<polyline fill="#FFEB00" points="750.6,1009 750.6,1009.3 750.6,1009 "/>
<polyline fill="#FFEB00" points="762,1032.8 761.9,1033.1 762,1032.8 "/>
<polyline fill="#FFEB00" points="761.9,1033.1 761.7,1033.3 761.9,1033.1 "/>
<path fill="#FFEB00" d="M750,1006.5c0.1,0.5,0.2,0.9,0.4,1.4C750.3,1007.4,750.2,1006.9,750,1006.5"/>
<polyline fill="#FFEB00" points="762.1,1032.5 762,1032.8 762.1,1032.5 "/>
<polyline fill="#FFEB00" points="750.4,1007.9 750.4,1008.2 750.4,1007.9 "/>
<polyline fill="#FFEB00" points="761.7,1033.4 761.6,1033.6 761.7,1033.4 "/>
<polyline fill="#FFEB00" points="750.6,1009.3 750.7,1009.6 750.6,1009.3 "/>
<path fill="#F58533" d="M750.8,1010.5L750.8,1010.5L750.8,1010.5z"/>
<path fill="#F58533" d="M750.8,1011.1L750.8,1011.1L750.8,1011.1z"/>
<path fill="#F58533" d="M750.7,1009.6L750.7,1009.6L750.7,1009.6z"/>
<path fill="#F58533" d="M750.6,1009L750.6,1009L750.6,1009z"/>
<path fill="#F58533" d="M750.6,1009.3L750.6,1009.3L750.6,1009.3z"/>
<path fill="#F58533" d="M750.6,1008.7L750.6,1008.7L750.6,1008.7z"/>
<path fill="#F58533" d="M750.8,1010.2L750.8,1010.2L750.8,1010.2z"/>
<path fill="#F58533" d="M750.8,1010.8L750.8,1010.8L750.8,1010.8z"/>
<path fill="#F58533" d="M750.7,1009.9L750.7,1009.9L750.7,1009.9z"/>
<path fill="#F58533" d="M750.4,1007.9L750.4,1007.9L750.4,1007.9z"/>
<path fill="#F58533" d="M750.5,1008.4L750.5,1008.4L750.5,1008.4z"/>
<path fill="#F58533" d="M750.4,1008.2L750.4,1008.2L750.4,1008.2z"/>
<path fill="#F58533" d="M763.5,1027.3L763.5,1027.3L763.5,1027.3z"/>
<path fill="#F58533" d="M750.8,1013.1L750.8,1013.1L750.8,1013.1z"/>
<path fill="#F58533" d="M763.7,1026.4L763.7,1026.4L763.7,1026.4z"/>
<path fill="#F58533" d="M750.8,1013.4L750.8,1013.4L750.8,1013.4z"/>
<path fill="#F58533" d="M750.9,1012.8L750.9,1012.8L750.9,1012.8z"/>
<path fill="#F58533" d="M750.8,1014L750.8,1014L750.8,1014z"/>
<path fill="#F58533" d="M750.8,1014.3L750.8,1014.3L750.8,1014.3z"/>
<path fill="#F58533" d="M763.7,1026.1L763.7,1026.1L763.7,1026.1z"/>
<path fill="#F58533" d="M750.8,1014.6L750.8,1014.6L750.8,1014.6z"/>
<path fill="#F58533" d="M761.6,1033.6L761.6,1033.6L761.6,1033.6z"/>
<path fill="#F58533" d="M761.5,1033.9L761.5,1033.9L761.5,1033.9z"/>
<path fill="#F58533" d="M761.7,1033.3L761.7,1033.3L761.7,1033.3z"/>
<path fill="#F58533" d="M761.2,1034.5L761.2,1034.5L761.2,1034.5z"/>
<path fill="#F58533" d="M761.3,1034.2L761.3,1034.2L761.3,1034.2z"/>
<path fill="#F58533" d="M761.9,1033.1L761.9,1033.1L761.9,1033.1z"/>
<path fill="#F58533" d="M762.4,1031.6L762.4,1031.6L762.4,1031.6z"/>
<path fill="#F58533" d="M762.8,1030.4L762.8,1030.4L762.8,1030.4z"/>
<path fill="#F58533" d="M762.6,1031.1L762.6,1031.1L762.6,1031.1z"/>
<path fill="#F58533" d="M762.2,1032.2L762.2,1032.2L762.2,1032.2z"/>
<path fill="#F58533" d="M762,1032.8L762,1032.8L762,1032.8z"/>
<polyline fill="#FFEB00" points="750.5,1008.5 750.6,1008.7 750.5,1008.5 "/>
<polyline fill="#FFEB00" points="763.7,1026.2 763.7,1026.4 763.7,1026.2 "/>
<polyline fill="#FFEB00" points="750.7,1009.9 750.8,1010.2 750.7,1009.9 "/>
<path fill="#FFEB00" d="M763.7,1026.5c0,0.3-0.1,0.6-0.1,0.8C763.6,1027,763.6,1026.7,763.7,1026.5"/>
<polyline fill="#FFEB00" points="750.6,1008.7 750.6,1009 750.6,1008.7 "/>
<path fill="#FFEB00" d="M762.4,1031.7c-0.1,0.2-0.1,0.4-0.2,0.5C762.3,1032,762.3,1031.8,762.4,1031.7"/>
<polyline fill="#FFEB00" points="750.7,1009.6 750.7,1009.9 750.7,1009.6 "/>
<polyline fill="#FFEB00" points="750.5,1008.2 750.5,1008.4 750.5,1008.2 "/>
<path fill="#FFEB00" d="M762.6,1031.1c-0.1,0.2-0.1,0.4-0.2,0.5C762.5,1031.4,762.6,1031.3,762.6,1031.1"/>
<polyline fill="#FFEB00" points="762.2,1032.3 762.1,1032.5 762.2,1032.3 "/>
<path fill="#FFEB00" d="M750.8,1013.4c0,0.2,0,0.4,0,0.6C750.8,1013.8,750.8,1013.6,750.8,1013.4"/>
<polyline fill="#FFEB00" points="750.8,1010.8 750.8,1011.1 750.8,1010.8 "/>
<polyline fill="#FFEB00" points="750.8,1010.2 750.8,1010.5 750.8,1010.2 "/>
<polyline fill="#FFEB00" points="750.9,1012.8 750.8,1013.1 750.9,1012.8 "/>
<polyline fill="#FFEB00" points="750.8,1013.1 750.8,1013.4 750.8,1013.1 "/>
<polyline fill="#FFEB00" points="750.8,1014.3 750.8,1014.6 750.8,1014.3 "/>
<polyline fill="#FFEB00" points="750.8,1014 750.8,1014.3 750.8,1014 "/>
<path fill="#FFEB00" d="M763.8,1025.6c0,0.2,0,0.4-0.1,0.6C763.7,1026,763.7,1025.8,763.8,1025.6"/>
<polyline fill="#FFEB00" points="750.8,1010.5 750.8,1010.8 750.8,1010.5 "/>
<path fill="#FFEB00" d="M762.8,1030.5c-0.1,0.2-0.1,0.4-0.2,0.6C762.7,1030.9,762.8,1030.7,762.8,1030.5"/>
<polyline fill="#FFEB00" points="761.3,1034.2 761.2,1034.4 761.3,1034.2 "/>
<polyline fill="#FFEB00" points="761.5,1033.9 761.3,1034.2 761.5,1033.9 "/>
<polyline fill="#FFEB00" points="761.6,1033.6 761.5,1033.9 761.6,1033.6 "/>
<polyline fill="#FFEB00" points="750.6,1009 750.6,1009.3 750.6,1009 "/>
<polyline fill="#FFEB00" points="762,1032.8 761.9,1033.1 762,1032.8 "/>
<polyline fill="#FFEB00" points="761.9,1033.1 761.7,1033.3 761.9,1033.1 "/>
<path fill="#FFEB00" d="M750,1006.5c0.1,0.5,0.2,0.9,0.4,1.4C750.3,1007.4,750.2,1006.9,750,1006.5"/>
<polyline fill="#FFEB00" points="762.1,1032.5 762,1032.8 762.1,1032.5 "/>
<polyline fill="#FFEB00" points="750.4,1007.9 750.4,1008.2 750.4,1007.9 "/>
<polyline fill="#FFEB00" points="761.7,1033.4 761.6,1033.6 761.7,1033.4 "/>
<polyline fill="#FFEB00" points="750.6,1009.3 750.7,1009.6 750.6,1009.3 "/>
<path fill="#F58533" d="M750.8,1010.5L750.8,1010.5L750.8,1010.5z"/>
<path fill="#F58533" d="M750.8,1011.1L750.8,1011.1L750.8,1011.1z"/>
<path fill="#F58533" d="M750.7,1009.6L750.7,1009.6L750.7,1009.6z"/>
<path fill="#F58533" d="M750.6,1009L750.6,1009L750.6,1009z"/>
<path fill="#F58533" d="M750.6,1009.3L750.6,1009.3L750.6,1009.3z"/>
<path fill="#F58533" d="M750.6,1008.7L750.6,1008.7L750.6,1008.7z"/>
<path fill="#F58533" d="M750.8,1010.2L750.8,1010.2L750.8,1010.2z"/>
<path fill="#F58533" d="M750.8,1010.8L750.8,1010.8L750.8,1010.8z"/>
<path fill="#F58533" d="M750.7,1009.9L750.7,1009.9L750.7,1009.9z"/>
<path fill="#F58533" d="M750.4,1007.9L750.4,1007.9L750.4,1007.9z"/>
<path fill="#F58533" d="M750.5,1008.4L750.5,1008.4L750.5,1008.4z"/>
<path fill="#F58533" d="M750.4,1008.2L750.4,1008.2L750.4,1008.2z"/>
<path fill="#F58533" d="M763.5,1027.3L763.5,1027.3L763.5,1027.3z"/>
<path fill="#F58533" d="M750.8,1013.1L750.8,1013.1L750.8,1013.1z"/>
<path fill="#F58533" d="M763.7,1026.4L763.7,1026.4L763.7,1026.4z"/>
<path fill="#F58533" d="M750.8,1013.4L750.8,1013.4L750.8,1013.4z"/>
<path fill="#F58533" d="M750.9,1012.8L750.9,1012.8L750.9,1012.8z"/>
<path fill="#F58533" d="M750.8,1014L750.8,1014L750.8,1014z"/>
<path fill="#F58533" d="M750.8,1014.3L750.8,1014.3L750.8,1014.3z"/>
<path fill="#F58533" d="M763.7,1026.1L763.7,1026.1L763.7,1026.1z"/>
<path fill="#F58533" d="M750.8,1014.6L750.8,1014.6L750.8,1014.6z"/>
<path fill="#F58533" d="M761.6,1033.6L761.6,1033.6L761.6,1033.6z"/>
<path fill="#F58533" d="M761.5,1033.9L761.5,1033.9L761.5,1033.9z"/>
<path fill="#F58533" d="M761.7,1033.3L761.7,1033.3L761.7,1033.3z"/>
<path fill="#F58533" d="M761.2,1034.5L761.2,1034.5L761.2,1034.5z"/>
<path fill="#F58533" d="M761.3,1034.2L761.3,1034.2L761.3,1034.2z"/>
<path fill="#F58533" d="M761.9,1033.1L761.9,1033.1L761.9,1033.1z"/>
<path fill="#F58533" d="M762.4,1031.6L762.4,1031.6L762.4,1031.6z"/>
<path fill="#F58533" d="M762.8,1030.4L762.8,1030.4L762.8,1030.4z"/>
<path fill="#F58533" d="M762.6,1031.1L762.6,1031.1L762.6,1031.1z"/>
<path fill="#F58533" d="M762.2,1032.2L762.2,1032.2L762.2,1032.2z"/>
<path fill="#F58533" d="M762,1032.8L762,1032.8L762,1032.8z"/>
<path fill="#148AA8" d="M711.7,1023.7c0,20.1-23.5,28.7-23.5,28.7s-23.5-8.4-23.5-28.7c0-12.3,10.5-22.3,23.5-22.3
	C701.2,1001.5,711.7,1011.4,711.7,1023.7"/>
<path fill="#F59C1E" d="M688.2,1001.5c13,0,23.5,10,23.5,22.3c0,20.1-23.5,28.7-23.5,28.7V1001.5L688.2,1001.5z"/>
<polyline fill="#FFEB00" points="698.4,1008.9 698.4,1009.1 698.4,1008.9 "/>
<polyline fill="#FFEB00" points="711.6,1026.6 711.5,1026.8 711.6,1026.6 "/>
<polyline fill="#FFEB00" points="698.6,1010.3 698.6,1010.6 698.6,1010.3 "/>
<path fill="#FFEB00" d="M711.5,1026.9c0,0.3-0.1,0.6-0.1,0.8C711.4,1027.4,711.5,1027.1,711.5,1026.9"/>
<polyline fill="#FFEB00" points="698.4,1009.1 698.5,1009.4 698.4,1009.1 "/>
<path fill="#FFEB00" d="M710.3,1032.1c-0.1,0.2-0.1,0.4-0.2,0.5C710.1,1032.4,710.2,1032.3,710.3,1032.1"/>
<polyline fill="#FFEB00" points="698.5,1010 698.6,1010.3 698.5,1010 "/>
<polyline fill="#FFEB00" points="698.3,1008.6 698.4,1008.8 698.3,1008.6 "/>
<path fill="#FFEB00" d="M710.5,1031.5c-0.1,0.2-0.1,0.4-0.2,0.5C710.3,1031.8,710.4,1031.7,710.5,1031.5"/>
<polyline fill="#FFEB00" points="710,1032.7 709.9,1032.9 710,1032.7 "/>
<path fill="#FFEB00" d="M698.7,1013.8c0,0.2,0,0.4,0,0.6C698.7,1014.2,698.7,1014,698.7,1013.8"/>
<polyline fill="#FFEB00" points="698.7,1011.2 698.7,1011.5 698.7,1011.2 "/>
<polyline fill="#FFEB00" points="698.6,1010.6 698.6,1010.9 698.6,1010.6 "/>
<polyline fill="#FFEB00" points="698.7,1013.2 698.7,1013.5 698.7,1013.2 "/>
<polyline fill="#FFEB00" points="698.7,1013.6 698.7,1013.8 698.7,1013.6 "/>
<polyline fill="#FFEB00" points="698.6,1014.7 698.6,1015 698.6,1014.7 "/>
<polyline fill="#FFEB00" points="698.7,1014.4 698.6,1014.7 698.7,1014.4 "/>
<path fill="#FFEB00" d="M711.6,1026c0,0.2,0,0.4-0.1,0.6C711.6,1026.4,711.6,1026.2,711.6,1026"/>
<polyline fill="#FFEB00" points="698.6,1010.9 698.7,1011.2 698.6,1010.9 "/>
<path fill="#FFEB00" d="M710.7,1030.9c-0.1,0.2-0.1,0.4-0.2,0.6C710.5,1031.3,710.6,1031.1,710.7,1030.9"/>
<polyline fill="#FFEB00" points="709.2,1034.6 709.1,1034.8 709.2,1034.6 "/>
<polyline fill="#FFEB00" points="709.3,1034.3 709.2,1034.6 709.3,1034.3 "/>
<polyline fill="#FFEB00" points="709.5,1034 709.3,1034.3 709.5,1034 "/>
<polyline fill="#FFEB00" points="698.5,1009.4 698.5,1009.7 698.5,1009.4 "/>
<polyline fill="#FFEB00" points="709.8,1033.2 709.7,1033.5 709.8,1033.2 "/>
<polyline fill="#FFEB00" points="709.7,1033.5 709.6,1033.7 709.7,1033.5 "/>
<path fill="#FFEB00" d="M697.9,1006.9c0.1,0.5,0.2,0.9,0.4,1.4C698.1,1007.8,698,1007.3,697.9,1006.9"/>
<polyline fill="#FFEB00" points="709.9,1032.9 709.8,1033.2 709.9,1032.9 "/>
<polyline fill="#FFEB00" points="698.2,1008.3 698.3,1008.6 698.2,1008.3 "/>
<polyline fill="#FFEB00" points="709.6,1033.8 709.5,1034 709.6,1033.8 "/>
<polyline fill="#FFEB00" points="698.5,1009.7 698.5,1010 698.5,1009.7 "/>
<path fill="#F58533" d="M698.6,1010.9L698.6,1010.9L698.6,1010.9z"/>
<path fill="#F58533" d="M698.7,1011.5L698.7,1011.5L698.7,1011.5z"/>
<path fill="#F58533" d="M698.5,1010L698.5,1010L698.5,1010z"/>
<path fill="#F58533" d="M698.5,1009.4L698.5,1009.4L698.5,1009.4z"/>
<path fill="#F58533" d="M698.5,1009.7L698.5,1009.7L698.5,1009.7z"/>
<path fill="#F58533" d="M698.4,1009.1L698.4,1009.1L698.4,1009.1z"/>
<path fill="#F58533" d="M698.6,1010.6L698.6,1010.6L698.6,1010.6z"/>
<path fill="#F58533" d="M698.7,1011.2L698.7,1011.2L698.7,1011.2z"/>
<path fill="#F58533" d="M698.6,1010.3L698.6,1010.3L698.6,1010.3z"/>
<path fill="#F58533" d="M698.2,1008.3L698.2,1008.3L698.2,1008.3z"/>
<path fill="#F58533" d="M698.4,1008.8L698.4,1008.8L698.4,1008.8z"/>
<path fill="#F58533" d="M698.3,1008.6L698.3,1008.6L698.3,1008.6z"/>
<path fill="#F58533" d="M711.4,1027.7L711.4,1027.7L711.4,1027.7z"/>
<path fill="#F58533" d="M698.7,1013.5L698.7,1013.5L698.7,1013.5z"/>
<path fill="#F58533" d="M711.5,1026.8L711.5,1026.8L711.5,1026.8z"/>
<path fill="#F58533" d="M698.7,1013.8L698.7,1013.8L698.7,1013.8z"/>
<path fill="#F58533" d="M698.7,1013.2L698.7,1013.2L698.7,1013.2z"/>
<path fill="#F58533" d="M698.7,1014.4L698.7,1014.4L698.7,1014.4z"/>
<path fill="#F58533" d="M698.6,1014.7L698.6,1014.7L698.6,1014.7z"/>
<path fill="#F58533" d="M711.6,1026.6L711.6,1026.6L711.6,1026.6z"/>
<path fill="#F58533" d="M698.6,1015L698.6,1015L698.6,1015z"/>
<path fill="#F58533" d="M709.5,1034L709.5,1034L709.5,1034z"/>
<path fill="#F58533" d="M709.3,1034.3L709.3,1034.3L709.3,1034.3z"/>
<path fill="#F58533" d="M709.6,1033.7L709.6,1033.7L709.6,1033.7z"/>
<path fill="#F58533" d="M709,1034.9L709,1034.9L709,1034.9z"/>
<path fill="#F58533" d="M709.2,1034.6L709.2,1034.6L709.2,1034.6z"/>
<path fill="#F58533" d="M709.7,1033.5L709.7,1033.5L709.7,1033.5z"/>
<path fill="#F58533" d="M710.3,1032L710.3,1032L710.3,1032z"/>
<path fill="#F58533" d="M710.7,1030.8L710.7,1030.8L710.7,1030.8z"/>
<path fill="#F58533" d="M710.5,1031.5L710.5,1031.5L710.5,1031.5z"/>
<path fill="#F58533" d="M710.1,1032.6L710.1,1032.6L710.1,1032.6z"/>
<path fill="#F58533" d="M709.8,1033.2L709.8,1033.2L709.8,1033.2z"/>
<path fill="#F59C1E" d="M668.6,1033.5l19.1,90.1c0.1,0.2,0.3,0.4,0.5,0.3c0.2-0.1,0.4-0.3,0.4-0.5l-19.1-90.1c0-0.2-0.3-0.4-0.5-0.3
	C668.7,1033,668.5,1033.2,668.6,1033.5"/>
<polyline fill="#148AA8" points="706.9,1033.3 687.7,1123.4 688.6,1123.6 707.8,1033.5 "/>
<polyline fill="#148AA8" points="696.7,1033.4 687.7,1123.5 688.6,1123.6 697.6,1033.4 "/>
<path fill="#F59C1E" d="M678.7,1033.4l9,90.1c0,0.2,0.2,0.4,0.5,0.4c0.3,0,0.4-0.2,0.4-0.5l-9-90.1c0-0.2-0.2-0.4-0.5-0.4
	C678.9,1033,678.7,1033.2,678.7,1033.4"/>
<path fill="#F59C1E" d="M666.2,1032.3c0.7,1.9,1.6,3.6,2.7,5.2l8.7-3.1l10.5,3.7v-6.2l-10.4-3.7L666.2,1032.3L666.2,1032.3z"/>
<path fill="#148AA8" d="M710.2,1032.3c-0.7,1.9-1.6,3.6-2.7,5.2l-8.9-3.1l-10.6,3.7v-6.2l10.6-3.7L710.2,1032.3L710.2,1032.3z"/>
<path fill="#148AA8" d="M763.9,1023.3c0,20.1-23.5,28.7-23.5,28.7s-23.5-8.4-23.5-28.7c0-12.3,10.5-22.3,23.5-22.3
	C753.3,1001.1,763.9,1011,763.9,1023.3"/>
<path fill="#F59C1E" d="M740.3,1001.1c13,0,23.5,10,23.5,22.3c0,20.1-23.5,28.7-23.5,28.7V1001.1L740.3,1001.1z"/>
<path fill="#F59C1E" d="M720.7,1033.1l19.1,90.1c0.1,0.2,0.3,0.4,0.5,0.3c0.2,0,0.4-0.3,0.4-0.5l-19.1-90.1
	c-0.1-0.2-0.3-0.4-0.5-0.3C720.9,1032.6,720.7,1032.8,720.7,1033.1"/>
<polyline fill="#148AA8" points="759,1032.9 739.9,1123 740.8,1123.2 759.9,1033.1 "/>
<polyline fill="#148AA8" points="748.9,1032.9 739.9,1123.1 740.8,1123.2 749.8,1033 "/>
<path fill="#F59C1E" d="M730.9,1033l9,90.1c0,0.2,0.2,0.4,0.5,0.4c0.3,0,0.4-0.2,0.4-0.5l-9-90.1c0-0.2-0.2-0.4-0.5-0.4
	C731,1032.6,730.9,1032.8,730.9,1033"/>
<path fill="#F59C1E" d="M718.3,1031.8c0.7,1.9,1.6,3.6,2.7,5.2l8.8-3.1l10.5,3.7v-6.2l-10.5-3.7L718.3,1031.8L718.3,1031.8z"/>
<path fill="#148AA8" d="M762.3,1031.8c-0.7,1.9-1.6,3.6-2.7,5.2l-8.8-3.1l-10.5,3.7v-6.2l10.5-3.7L762.3,1031.8L762.3,1031.8z"/>
<path fill="#F59C1E" d="M714.6,1120.1c-19.9,0-29.6,3-29.6,13.9c0,10.8,9.7,13.9,29.6,13.9c19.9,0,29.6-3,29.6-13.9
	C744.2,1123.1,734.5,1120.1,714.6,1120.1L714.6,1120.1z"/>
<path fill="#148AA8" d="M714.6,1121c-14.5,0-22.1,1.6-22.1,7.4c0,7.4,7.6,7.4,22.1,7.4c14.5,0,22.1,0,22.1-7.4
	C736.7,1122.5,729.1,1121,714.6,1121L714.6,1121z"/>
<path fill="#B9D32D" d="M714.6,1169.2c-14.8,0-26.7-1.4-26.7-3c0-1.7,12-3,26.7-3c14.8,0,26.7,1.4,26.7,3
	C741.3,1167.8,729.3,1169.2,714.6,1169.2"/>
</svg>
