<?xml version="1.0" encoding="utf-8"?>
<!-- Generator: Adobe Illustrator 18.1.1, SVG Export Plug-In . SVG Version: 6.00 Build 0)  -->
<!DOCTYPE svg PUBLIC "-//W3C//DTD SVG 1.1//EN" "http://www.w3.org/Graphics/SVG/1.1/DTD/svg11.dtd">
<svg version="1.1" id="Layer_1" xmlns="http://www.w3.org/2000/svg" xmlns:xlink="http://www.w3.org/1999/xlink" x="0px" y="0px"
	 viewBox="0 0 841.7 392.4" enable-background="new 0 0 841.7 392.4" xml:space="preserve">
<rect x="-0.2" y="196.1" fill="#ED3033" width="841.9" height="196.2"/>
<g>
	<defs>
		<rect id="SVGID_1_" x="-0.2" y="0" width="841.9" height="392.4"/>
	</defs>
	<clipPath id="SVGID_2_">
		<use xlink:href="#SVGID_1_"  overflow="visible"/>
	</clipPath>
	<path clip-path="url(#SVGID_2_)" fill="#422D87" d="M731.1,310.2h-4c-1.1,0-2,0.9-2,2v1.7v2.5c0,1.1-0.9,2-2,2h-6v0.8h10.3h3.7
		c1.1,0,2-0.9,2-2v-5.1C733.1,311.1,732.2,310.2,731.1,310.2"/>
	<path clip-path="url(#SVGID_2_)" fill="#FEEA00" d="M733.4,248c0,26.3-30.3,37.4-30.3,37.4s-30.3-10.9-30.3-37.4
		c0-16,13.6-29,30.3-29C719.9,218.9,733.4,232,733.4,248"/>
	<path clip-path="url(#SVGID_2_)" fill="#422D87" d="M703.1,218.9c16.7,0,30.3,13,30.3,29c0,26.3-30.3,37.4-30.3,37.4V218.9z"/>
	<path clip-path="url(#SVGID_2_)" fill="#422D87" d="M684.4,252.8l6.2,3.8l6.2-3.8l6.2,3.8v-9.1l-6.2-3.8l-6.2,3.8l-6.2-3.8
		l-6.2,3.8l-5.1-3.1c-0.2,1.2-0.2,2.4-0.2,3.7c0,1.9,0.2,3.8,0.5,5.6l4.9,3L684.4,252.8z"/>
	<path clip-path="url(#SVGID_2_)" fill="#FEEA00" d="M733.2,244.3l-5.1,3.1l-6.2-3.8l-6.2,3.8l-6.2-3.8l-6.2,3.8v9.1l6.2-3.8
		l6.2,3.8l6.2-3.8l6.2,3.8l4.9-2.9c0.3-1.8,0.5-3.7,0.5-5.6C733.4,246.7,733.3,245.5,733.2,244.3"/>
	<path clip-path="url(#SVGID_2_)" fill="#422D87" d="M685,330.1c-0.4,0-0.8-0.6-0.8-2.2c0-2.3,0.7-5.7,0.7-9h0.2h0.2
		c0,3.3,0.7,6.8,0.7,9C685.9,329.5,685.5,330.1,685,330.1"/>
	<path clip-path="url(#SVGID_2_)" fill="#422D87" d="M685,307.6c-0.4,0-0.8,0.6-0.8,2.2c0,2.3,0.7,5.7,0.7,9h0.2h0.2
		c0-3.4,0.7-6.8,0.7-9C685.9,308.2,685.5,307.6,685,307.6"/>
	<path clip-path="url(#SVGID_2_)" fill="#422D87" d="M716.3,324.4c0,0.9-0.7,1.6-1.6,1.6h-23.2c-0.9,0-1.6-0.7-1.6-1.6v-13.6
		c0-0.9,0.7-1.6,1.6-1.6h23.2c0.9,0,1.6,0.7,1.6,1.6V324.4z"/>
	<path clip-path="url(#SVGID_2_)" fill="#FEEA00" d="M703.1,309.2h-11.6c-0.9,0-1.6,0.7-1.6,1.6v13.6c0,0.9,0.7,1.6,1.6,1.6h11.6
		V309.2z"/>
	<path clip-path="url(#SVGID_2_)" fill="#FEEA00" d="M684,319c0,1-0.1,1.8-0.9,1.8c-0.8,0-1.9-0.8-1.9-1.8s1.1-1.8,1.9-1.8
		C683.9,317.1,684,318,684,319"/>
	<path clip-path="url(#SVGID_2_)" fill="#FEEA00" d="M730.9,314.4c0,1.1-0.9,2-2,2c-1.1,0-2-0.9-2-2c0-1.1,0.9-2,2-2
		C730,312.4,730.9,313.3,730.9,314.4"/>
	<path clip-path="url(#SVGID_2_)" fill="#FEEA00" d="M709.3,326c0,3.4-2.7,6.1-6.1,6.1c-3.4,0-6.1-2.7-6.1-6.1
		c0-3.4,2.7-6.1,6.1-6.1C706.5,319.9,709.3,322.6,709.3,326"/>
	<path clip-path="url(#SVGID_2_)" fill="#422D87" d="M711.9,326h-0.5c0,2.3-0.9,4.3-2.4,5.8c-1.5,1.5-3.5,2.4-5.8,2.4
		c-2.3,0-4.3-0.9-5.8-2.4c-1.5-1.5-2.4-3.5-2.4-5.8c0-2.3,0.9-4.3,2.4-5.8c1.5-1.5,3.5-2.4,5.8-2.4c2.3,0,4.3,0.9,5.8,2.4
		c1.5,1.5,2.4,3.5,2.4,5.8H711.9h0.5c0-5-4.1-9.1-9.2-9.1c-5.1,0-9.2,4.1-9.2,9.1c0,5.1,4.1,9.1,9.2,9.1c5.1,0,9.2-4.1,9.2-9.1
		H711.9z"/>
	<path clip-path="url(#SVGID_2_)" fill="#422D87" d="M703.2,307.2l0.4-0.2L678.7,265l-0.4,0.2l-0.2,0.5c0,0,9.5,3.6,25,3.6
		c15.5,0,24.8-3.6,24.8-3.6l-0.2-0.5l-0.4-0.2l-24.6,41.9L703.2,307.2l0.4-0.2L703.2,307.2l0.4,0.2l24.6-41.9
		c0.1-0.2,0.1-0.4-0.1-0.6c-0.1-0.2-0.4-0.2-0.5-0.1l0,0c-0.2,0.1-9.3,3.5-24.4,3.5c-7.7,0-13.9-0.9-18.1-1.8
		c-2.1-0.4-3.8-0.9-4.9-1.2c-0.6-0.2-1-0.3-1.3-0.4c-0.1,0-0.2-0.1-0.3-0.1c0,0-0.1,0-0.1,0l0,0l0,0c-0.2-0.1-0.4,0-0.5,0.1
		c-0.1,0.2-0.2,0.4,0,0.6l24.9,41.9c0.1,0.1,0.2,0.2,0.4,0.2c0.2,0,0.3-0.1,0.4-0.2L703.2,307.2z"/>
	<path clip-path="url(#SVGID_2_)" fill="#422D87" d="M686.6,267.8l16.1,39.6c0.1,0.2,0.4,0.4,0.6,0.3c0.2-0.1,0.4-0.4,0.3-0.6
		l-16.1-39.6c-0.1-0.3-0.4-0.4-0.6-0.3C686.7,267.3,686.5,267.5,686.6,267.8"/>
	<path clip-path="url(#SVGID_2_)" fill="#422D87" d="M695.5,268.7l7.1,38.6c0,0.3,0.3,0.4,0.6,0.4c0.3,0,0.4-0.3,0.4-0.6l-7.1-38.6
		c0-0.3-0.3-0.4-0.6-0.4C695.7,268.2,695.5,268.4,695.5,268.7"/>
	<path clip-path="url(#SVGID_2_)" fill="#422D87" d="M709.8,268.5l-7.1,38.6c0,0.3,0.1,0.5,0.4,0.6c0.3,0.1,0.5-0.1,0.6-0.4
		l7.1-38.6c0-0.3-0.1-0.5-0.4-0.6C710.1,268.1,709.9,268.2,709.8,268.5"/>
	<path clip-path="url(#SVGID_2_)" fill="#422D87" d="M718.8,267.4L702.7,307c-0.1,0.2,0,0.5,0.3,0.6c0.2,0.1,0.5,0,0.6-0.3
		l16.1-39.6c0.1-0.2,0-0.5-0.3-0.6C719.2,267,718.9,267.2,718.8,267.4"/>
</g>
<rect x="686" y="318.4" fill="#422D87" width="3.1" height="1"/>
<g>
	<defs>
		<rect id="SVGID_3_" x="-0.2" y="0" width="841.9" height="392.4"/>
	</defs>
	<clipPath id="SVGID_4_">
		<use xlink:href="#SVGID_3_"  overflow="visible"/>
	</clipPath>
	<path clip-path="url(#SVGID_4_)" fill="#FEEA00" d="M88.1,300.9l-5.5,9.6h-1.1l-5.4-9.5c0,0-0.1-0.1-0.1-0.1
		c-1.1-0.9-2.1-2-3.1-3.2l8,14h2.4l8.2-14.4C90.5,298.8,89.3,300,88.1,300.9"/>
	<path clip-path="url(#SVGID_4_)" fill="#FEEA00" d="M91.4,312.2h-1.3c-0.4,0-0.8,0.4-0.8,0.8v1.1c0,0.4-0.4,0.8-0.8,0.8h-0.8v1h2.5
		h1.2c0.4,0,0.8-0.4,0.8-0.8V313C92.2,312.5,91.9,312.2,91.4,312.2"/>
	<path clip-path="url(#SVGID_4_)" fill="#FEEA00" d="M86.8,318.3v-4.8c0-0.3-0.3-0.6-0.6-0.6H78c0,0-0.1,0-0.1,0
		c-0.3,0.1-0.4,0.3-0.4,0.6v2.5v1.9v0.4c0,0.3,0.2,0.5,0.4,0.5h0.6c0,0,0.2,0,0.2-0.2c0.1-1.8,1.6-3.3,3.5-3.3
		c0.4,0,0.8,0.1,1.1,0.2c0,0,0,0,0,0c1.3,0.4,2.2,1.6,2.3,3c0,0.2,0.2,0.2,0.2,0.2h0.6C86.7,318.8,86.8,318.6,86.8,318.3"/>
	<path clip-path="url(#SVGID_4_)" fill="#FEEA00" d="M77.4,318.3c0,0.3,0.2,0.5,0.4,0.5h0C77.6,318.8,77.4,318.6,77.4,318.3"/>
	<path clip-path="url(#SVGID_4_)" fill="#FEEA00" d="M83.4,317.1c-0.4-0.3-0.8-0.4-1.3-0.4c-1.2,0-2.2,1-2.2,2.2
		c0,1.2,1,2.2,2.2,2.2c1.2,0,2.2-1,2.2-2.2C84.3,318.1,83.9,317.5,83.4,317.1"/>
	<path clip-path="url(#SVGID_4_)" fill="#FEEA00" d="M78.4,290.3l3.7,2.2h0l3.7-2.2l3.7,2.2l3.5-2.1c-0.4-5-3.8-9.9-10.9-9.9
		s-10.5,5.3-10.8,9.9l3.5,2.1L78.4,290.3z"/>
	<path clip-path="url(#SVGID_4_)" fill="#FEEA00" d="M89.5,294.4l-3.7-2.2l-3.7,2.2h0h0h0l-3.7-2.2l-3.7,2.2l-3.6-2.2
		c0.1,1.4,0.5,2.7,1,3.9v0c0.3,0.8,0.8,1.5,1.2,2.1c0.9,1.3,2,2.4,3.1,3.3c2.1,1.7,4.1,2.7,5.1,3.1c0.3,0.1,0.5,0.2,0.5,0.2v0
		c0,0,0,0,0,0c0,0,0,0,0,0v0c0.1,0,0.3-0.1,0.5-0.2c1-0.4,3.1-1.5,5.1-3.1c1.1-0.9,2.2-2,3.1-3.3c0.5-0.7,0.9-1.4,1.2-2.1v0
		c0.5-1.2,0.9-2.5,1-3.9L89.5,294.4z"/>
	<path clip-path="url(#SVGID_4_)" fill="#FEEA00" d="M76,310.5c-0.5,0-0.8,0.4-0.8,0.9c0,0.1,0,0.2,0,0.3l0.5,2.7
		c-0.1,0-0.1,0-0.2,0.1c-0.4,0.2-0.7,0.7-0.7,1.2c0,0.5,0.3,1,0.7,1.2c0,0,0.1,0,0.2,0.1l-0.5,2.7c0,0.1,0,0.2,0,0.3
		c0,0.5,0.4,0.9,0.8,0.9c0.1,0,0.2,0,0.2-0.3v-3.7v-2.2v-3.7C76.3,310.5,76.1,310.5,76,310.5"/>
	<path clip-path="url(#SVGID_4_)" fill="#FEEA00" d="M319.4,292.2l-5.7,10.1h-1.2l-5.7-10c0,0-0.1-0.1-0.1-0.1
		c-1.1-0.9-2.3-2.1-3.2-3.4l8.4,14.7h2.5l8.6-15.1C321.9,289.9,320.7,291.2,319.4,292.2"/>
	<path clip-path="url(#SVGID_4_)" fill="#FEEA00" d="M322.9,304h-1.4c-0.5,0-0.8,0.4-0.8,0.8v1.2c0,0.5-0.4,0.8-0.8,0.8H319v1.1h2.6
		h1.2c0.5,0,0.8-0.4,0.8-0.8v-2.3C323.7,304.4,323.3,304,322.9,304"/>
	<path clip-path="url(#SVGID_4_)" fill="#FEEA00" d="M318,310.5v-5.1c0-0.3-0.3-0.6-0.6-0.6h-8.7c0,0-0.1,0-0.1,0
		c-0.3,0.1-0.5,0.3-0.5,0.6v2.7v2v0.4c0,0.3,0.2,0.5,0.4,0.6h0.6c0,0,0.2,0,0.2-0.2c0.1-1.9,1.7-3.4,3.6-3.4c0.4,0,0.8,0.1,1.2,0.2
		c0,0,0,0,0,0c1.4,0.5,2.3,1.7,2.5,3.2c0,0.3,0.3,0.3,0.3,0.3h0.6C317.9,311,318,310.7,318,310.5"/>
	<path clip-path="url(#SVGID_4_)" fill="#FEEA00" d="M308.1,310.5c0,0.3,0.2,0.6,0.4,0.6h0C308.3,310.9,308.1,310.7,308.1,310.5"/>
	<path clip-path="url(#SVGID_4_)" fill="#FEEA00" d="M314.4,309.2c-0.4-0.3-0.9-0.5-1.4-0.5c-1.3,0-2.3,1-2.3,2.3
		c0,1.2,1,2.3,2.3,2.3c1.3,0,2.3-1,2.3-2.3C315.3,310.3,315,309.6,314.4,309.2"/>
	<path clip-path="url(#SVGID_4_)" fill="#FEEA00" d="M309.2,281l3.9,2.3h0l3.9-2.3l3.9,2.3l3.6-2.2c-0.4-5.3-4-10.4-11.4-10.4
		c-7.4,0-11.1,5.5-11.4,10.4l3.6,2.2L309.2,281z"/>
	<path clip-path="url(#SVGID_4_)" fill="#FEEA00" d="M320.9,285.3L317,283l-3.9,2.3h0h0h0l-3.9-2.3l-3.9,2.3l-3.8-2.3
		c0.1,1.5,0.5,2.9,1,4.1v0c0.4,0.8,0.8,1.6,1.3,2.3c1,1.4,2.1,2.5,3.3,3.5c2.2,1.8,4.4,2.8,5.4,3.3c0.3,0.1,0.5,0.2,0.6,0.2v0
		c0,0,0,0,0,0c0,0,0,0,0,0v0c0.1,0,0.3-0.1,0.6-0.2c1-0.5,3.2-1.5,5.4-3.3c1.2-1,2.3-2.1,3.3-3.5c0.5-0.7,0.9-1.4,1.3-2.3v0
		c0.5-1.2,0.9-2.6,1-4.1L320.9,285.3z"/>
	<path clip-path="url(#SVGID_4_)" fill="#FEEA00" d="M306.7,302.2c-0.5,0-0.9,0.4-0.9,0.9c0,0.1,0,0.2,0,0.3l0.5,2.8
		c-0.1,0-0.1,0-0.2,0.1c-0.5,0.3-0.8,0.7-0.8,1.3c0,0.6,0.3,1,0.8,1.3c0,0,0.1,0,0.2,0.1l-0.5,2.8c0,0.1,0,0.2,0,0.3
		c0,0.5,0.4,0.9,0.9,0.9c0.1,0,0.3,0,0.3-0.3v-3.9v-2.4v-3.9C307,302.3,306.8,302.2,306.7,302.2"/>
	<path clip-path="url(#SVGID_4_)" fill="#FEEA00" d="M114.6,298.6v3.7c0.2,0.4,0.7,0.7,1.5,0.7c1,0,2.1-0.7,2.1-2.1
		c0-1.3-0.9-2.1-2.1-2.3H114.6z M114.6,298c1.4,0,3.2-0.2,3.2-1.9c0-1.3-1.1-1.9-3.2-1.9V298z M111.9,302.9l1.2-0.3v-8l-1.2-0.4
		v-0.5l3.4,0c2.5,0,3.9,0.7,3.9,2.2c0,1.5-1.4,2.1-2.8,2.3v0c1.7,0.1,3.3,0.8,3.3,2.5c0,1.7-1.6,2.8-4.2,2.7l-3.6-0.1V302.9z"/>
</g>
<polygon fill="#FEEA00" points="132.7,302.7 133.9,300.7 134.3,300.7 133.8,303.4 127.8,303.4 127.8,302.9 128.8,302.6 128.8,296.5 
	127.8,296.2 127.8,295.7 131.3,295.7 131.3,296.2 130.1,296.5 130.1,302.7 "/>
<polygon fill="#FEEA00" points="146.8,302.7 148,300.7 148.4,300.7 147.9,303.4 141.9,303.4 141.9,302.9 142.9,302.6 142.9,296.5 
	141.9,296.2 141.9,295.7 145.5,295.7 145.5,296.2 144.2,296.5 144.2,302.7 "/>
<g>
	<defs>
		<rect id="SVGID_5_" x="-0.2" y="0" width="841.9" height="392.4"/>
	</defs>
	<clipPath id="SVGID_6_">
		<use xlink:href="#SVGID_5_"  overflow="visible"/>
	</clipPath>
	<path clip-path="url(#SVGID_6_)" fill="#FEEA00" d="M162.7,299.9c0-2.1-1.1-3.9-2.8-3.9c-1.4,0-2.3,1.2-2.3,3
		c0,1.7,0.8,3.9,2.9,3.9C161.7,303,162.7,302,162.7,299.9 M164.1,299.5c0,2.4-1.6,4.2-3.9,4.2c-2.3,0-4-1.6-4-4c0-2.4,1.6-4.2,4-4.2
		C162.5,295.5,164.1,297.1,164.1,299.5"/>
	<path clip-path="url(#SVGID_6_)" fill="#FEEA00" d="M178,299.9c0-2.1-1.1-3.9-2.8-3.9c-1.4,0-2.3,1.2-2.3,3c0,1.7,0.8,3.9,2.9,3.9
		C177,303,178,302,178,299.9 M179.4,299.5c0,2.4-1.6,4.2-3.9,4.2c-2.3,0-4-1.6-4-4c0-2.4,1.6-4.2,4-4.2
		C177.8,295.5,179.4,297.1,179.4,299.5"/>
</g>
<polygon fill="#FEEA00" points="194.2,303.5 188.9,297.5 188.9,302.5 190.2,302.9 190.2,303.4 187.1,303.4 187.1,302.9 188.1,302.6 
	188.1,296.6 187.1,296.2 187.1,295.7 189,295.7 193.9,301.2 193.9,296.6 192.5,296.2 192.5,295.7 195.6,295.7 195.6,296.2 
	194.6,296.5 194.6,302.2 194.6,303.4 "/>
<g>
	<defs>
		<rect id="SVGID_7_" x="-0.2" y="0" width="841.9" height="392.4"/>
	</defs>
	<clipPath id="SVGID_8_">
		<use xlink:href="#SVGID_7_"  overflow="visible"/>
	</clipPath>
	<path clip-path="url(#SVGID_8_)" fill="#FEEA00" d="M288,331.1v2.4c0.1,0.3,0.5,0.5,1,0.5c0.7,0,1.4-0.5,1.4-1.4
		c0-0.8-0.6-1.3-1.4-1.5H288z M288,330.7c0.9,0,2.1-0.2,2.1-1.3c0-0.9-0.7-1.2-2.1-1.2V330.7z M286.3,333.9l0.8-0.2v-5.2l-0.8-0.2
		V328l2.2,0c1.7,0,2.5,0.5,2.5,1.4c0,1-0.9,1.4-1.8,1.5v0c1.1,0.1,2.1,0.5,2.1,1.6c0,1.1-1,1.8-2.7,1.8l-2.3,0V333.9z"/>
</g>
<polygon fill="#FEEA00" points="299.8,333.8 300.5,332.5 300.8,332.5 300.5,334.2 296.6,334.2 296.6,333.9 297.3,333.7 297.3,329.8 
	296.6,329.6 296.6,329.3 298.9,329.3 298.9,329.6 298.1,329.8 298.1,333.8 "/>
<polygon fill="#FEEA00" points="309,333.8 309.7,332.5 310,332.5 309.7,334.2 305.8,334.2 305.8,333.9 306.4,333.7 306.4,329.8 
	305.8,329.6 305.8,329.3 308.1,329.3 308.1,329.6 307.3,329.8 307.3,333.8 "/>
<g>
	<defs>
		<rect id="SVGID_9_" x="-0.2" y="0" width="841.9" height="392.4"/>
	</defs>
	<clipPath id="SVGID_10_">
		<use xlink:href="#SVGID_9_"  overflow="visible"/>
	</clipPath>
	<path clip-path="url(#SVGID_10_)" fill="#FEEA00" d="M319.2,332c0-1.4-0.7-2.5-1.8-2.5c-0.9,0-1.5,0.8-1.5,2c0,1.1,0.5,2.5,1.8,2.5
		C318.6,334,319.2,333.4,319.2,332 M320.2,331.7c0,1.5-1.1,2.7-2.6,2.7c-1.5,0-2.6-1-2.6-2.6c0-1.5,1.1-2.7,2.6-2.7
		C319.1,329.1,320.2,330.2,320.2,331.7"/>
	<path clip-path="url(#SVGID_10_)" fill="#FEEA00" d="M329.2,332c0-1.4-0.7-2.5-1.8-2.5c-0.9,0-1.5,0.8-1.5,2c0,1.1,0.5,2.5,1.8,2.5
		C328.5,334,329.2,333.4,329.2,332 M330.1,331.7c0,1.5-1.1,2.7-2.6,2.7c-1.5,0-2.6-1-2.6-2.6c0-1.5,1.1-2.7,2.6-2.7
		C329.1,329.1,330.1,330.2,330.1,331.7"/>
</g>
<polygon fill="#FEEA00" points="339.7,334.3 336.2,330.4 336.2,333.7 337.1,333.9 337.1,334.2 335.1,334.2 335.1,333.9 335.8,333.7 
	335.8,329.9 335.1,329.6 335.1,329.3 336.3,329.3 339.5,332.8 339.5,329.9 338.6,329.6 338.6,329.3 340.6,329.3 340.6,329.6 
	340,329.8 340,333.4 340,334.2 "/>
<g>
	<defs>
		<rect id="SVGID_11_" x="-0.2" y="0" width="841.9" height="392.4"/>
	</defs>
	<clipPath id="SVGID_12_">
		<use xlink:href="#SVGID_11_"  overflow="visible"/>
	</clipPath>
	<path clip-path="url(#SVGID_12_)" fill="#422D87" d="M493,303.3c0,0.7-0.6,1.3-1.3,1.3c-0.7,0-1.3-0.6-1.3-1.3
		c0-0.7,0.6-1.3,1.3-1.3C492.4,302.1,493,302.6,493,303.3"/>
</g>
<polygon fill="#422D87" points="491.7,310.9 490.4,303.3 493,303.3 "/>
<g>
	<defs>
		<rect id="SVGID_13_" x="-0.2" y="0" width="841.9" height="392.4"/>
	</defs>
	<clipPath id="SVGID_14_">
		<use xlink:href="#SVGID_13_"  overflow="visible"/>
	</clipPath>
	<path clip-path="url(#SVGID_14_)" fill="#422D87" d="M493,316.9c0-0.7-0.6-1.3-1.3-1.3c-0.7,0-1.3,0.6-1.3,1.3
		c0,0.7,0.6,1.3,1.3,1.3C492.4,318.2,493,317.6,493,316.9"/>
</g>
<polygon fill="#422D87" points="491.7,309.3 490.4,316.9 493,316.9 "/>
<g>
	<defs>
		<rect id="SVGID_15_" x="-0.2" y="0" width="841.9" height="392.4"/>
	</defs>
	<clipPath id="SVGID_16_">
		<use xlink:href="#SVGID_15_"  overflow="visible"/>
	</clipPath>
	<path clip-path="url(#SVGID_16_)" fill="#FEEA00" d="M492.1,308.5c-0.9,0-1.6,0.7-1.6,1.6c0,0.9,0.7,1.6,1.6,1.6
		c0.2-0.5,0.3-1.1,0.3-1.6C492.4,309.6,492.3,309.1,492.1,308.5"/>
	<path clip-path="url(#SVGID_16_)" fill="#FEEA00" d="M501.4,303.8c-0.5,0-0.9-0.4-0.9-0.9v-24.1c0-0.5,0.4-0.9,0.9-0.9
		c0.5,0,0.9,0.4,0.9,0.9V303C502.3,303.4,501.9,303.8,501.4,303.8"/>
	<path clip-path="url(#SVGID_16_)" fill="#FEEA00" d="M510.9,287l-8.6,15.2h-1.8l-8.5-15c-0.1-0.1-0.1-0.1-0.2-0.2
		c-1.7-1.4-3.4-3.1-4.8-5l12.6,22.1h3.8l12.9-22.7C514.6,283.6,512.8,285.4,510.9,287"/>
	<path clip-path="url(#SVGID_16_)" fill="#422D87" d="M516.1,304.7H514c-0.7,0-1.2,0.6-1.2,1.2v1.8c0,0.7-0.6,1.2-1.2,1.2h-1.3v1.6
		h3.9h1.9c0.7,0,1.2-0.6,1.2-1.2v-3.4C517.3,305.3,516.8,304.7,516.1,304.7"/>
	<path clip-path="url(#SVGID_16_)" fill="#FEEA00" d="M508.8,314.4v-7.6c0-0.5-0.4-0.9-0.9-0.9h-13c-0.1,0-0.1,0-0.2,0
		c-0.4,0.1-0.7,0.5-0.7,0.9v4v3v0.7c0,0.4,0.3,0.7,0.7,0.8h0.9c0,0,0.3,0,0.3-0.3c0.2-2.9,2.6-5.1,5.5-5.1c0.6,0,1.2,0.1,1.7,0.3
		c0,0,0,0,0,0c2,0.7,3.5,2.6,3.7,4.8c0,0.4,0.4,0.4,0.4,0.4h1C508.6,315.2,508.8,314.8,508.8,314.4"/>
	<path clip-path="url(#SVGID_16_)" fill="#FEEA00" d="M493.9,314.4c0,0.4,0.3,0.8,0.6,0.8h0C494.2,315.1,493.9,314.8,493.9,314.4"/>
	<path clip-path="url(#SVGID_16_)" fill="#422D87" d="M503.4,312.5c-0.6-0.4-1.3-0.7-2.1-0.7c-1.9,0-3.4,1.5-3.4,3.4
		c0,1.9,1.5,3.4,3.4,3.4s3.4-1.5,3.4-3.4C504.8,314.1,504.2,313.1,503.4,312.5"/>
	<path clip-path="url(#SVGID_16_)" fill="#FEEA00" d="M519,271.7c0,15.3-17.6,21.8-17.6,21.8s-17.6-6.4-17.6-21.8
		c0-9.3,7.9-16.9,17.6-16.9C511.1,254.8,519,262.3,519,271.7"/>
	<path clip-path="url(#SVGID_16_)" fill="#422D87" d="M501.3,254.8c9.7,0,17.6,7.6,17.6,16.9c0,13.1-13,19.8-16.7,21.4
		c-0.8-0.3-1-1.7-1-2.4V254.8z"/>
</g>
<g>
	<defs>
		<path id="SVGID_17_" d="M483.7,271.7c0,15.4,17.6,21.8,17.6,21.8S519,287,519,271.7c0-9.3-7.9-16.9-17.6-16.9
			C491.6,254.8,483.7,262.3,483.7,271.7"/>
	</defs>
	<clipPath id="SVGID_18_">
		<use xlink:href="#SVGID_17_"  overflow="visible"/>
	</clipPath>
	<polyline clip-path="url(#SVGID_18_)" fill="#422D87" points="501.8,271.6 495.9,268 490,271.6 483.4,267.6 481.3,271.1 
		483.1,272.2 490,276.4 495.9,272.8 501.8,276.4 	"/>
	<polyline clip-path="url(#SVGID_18_)" fill="#FEEA00" points="501.9,271.6 507.8,268 513.6,271.6 520.2,267.6 522.3,271.1 
		520.6,272.2 513.6,276.4 507.8,272.8 501.9,276.4 	"/>
</g>
<g>
	<defs>
		<rect id="SVGID_19_" x="-0.2" y="0" width="841.9" height="392.4"/>
	</defs>
	<clipPath id="SVGID_20_">
		<use xlink:href="#SVGID_19_"  overflow="visible"/>
	</clipPath>
	<path clip-path="url(#SVGID_20_)" fill="#FEEA00" d="M476.2,336.4v2.4c0.1,0.3,0.5,0.5,1,0.5c0.7,0,1.4-0.5,1.4-1.4
		c0-0.9-0.6-1.4-1.4-1.5H476.2z M476.2,336c0.9,0,2.1-0.2,2.1-1.3c0-0.9-0.7-1.3-2.1-1.2V336z M474.5,339.3l0.8-0.2v-5.3l-0.8-0.3
		v-0.3l2.2,0c1.7,0,2.6,0.5,2.6,1.5c0,1-0.9,1.4-1.9,1.5v0c1.1,0.1,2.2,0.5,2.2,1.7c0,1.1-1,1.9-2.8,1.8l-2.4,0V339.3z"/>
</g>
<polygon fill="#FEEA00" points="488.3,339.2 489.1,337.8 489.4,337.8 489.1,339.6 485,339.6 485,339.3 485.7,339.1 485.7,335.1 
	485,334.9 485,334.5 487.4,334.5 487.4,334.9 486.6,335 486.6,339.2 "/>
<polygon fill="#FEEA00" points="497.8,339.2 498.5,337.8 498.8,337.8 498.5,339.6 494.5,339.6 494.5,339.3 495.1,339.1 495.1,335.1 
	494.5,334.9 494.5,334.5 496.8,334.5 496.8,334.9 496,335 496,339.2 "/>
<g>
	<defs>
		<rect id="SVGID_21_" x="-0.2" y="0" width="841.9" height="392.4"/>
	</defs>
	<clipPath id="SVGID_22_">
		<use xlink:href="#SVGID_21_"  overflow="visible"/>
	</clipPath>
	<path clip-path="url(#SVGID_22_)" fill="#FEEA00" d="M508.3,337.3c0-1.4-0.7-2.6-1.9-2.6c-1,0-1.5,0.8-1.5,2c0,1.1,0.5,2.6,1.9,2.6
		C507.7,339.4,508.3,338.7,508.3,337.3 M509.3,337c0,1.6-1.1,2.8-2.6,2.8c-1.6,0-2.6-1.1-2.6-2.6c0-1.6,1.1-2.8,2.6-2.8
		C508.2,334.4,509.3,335.5,509.3,337"/>
	<path clip-path="url(#SVGID_22_)" fill="#FEEA00" d="M518.5,337.3c0-1.4-0.7-2.6-1.9-2.6c-1,0-1.5,0.8-1.5,2c0,1.1,0.5,2.6,1.9,2.6
		C517.9,339.4,518.5,338.7,518.5,337.3 M519.5,337c0,1.6-1.1,2.8-2.6,2.8c-1.6,0-2.6-1.1-2.6-2.6c0-1.6,1.1-2.8,2.6-2.8
		C518.4,334.4,519.5,335.5,519.5,337"/>
</g>
<polygon fill="#FEEA00" points="529.4,339.7 525.8,335.7 525.8,339 526.7,339.3 526.7,339.6 524.6,339.6 524.6,339.3 525.3,339.1 
	525.3,335.1 524.6,334.9 524.6,334.5 525.9,334.5 529.1,338.2 529.1,335.1 528.2,334.8 528.2,334.5 530.3,334.5 530.3,334.9 
	529.6,335.1 529.6,338.8 529.6,339.6 "/>
<g>
	<defs>
		<rect id="SVGID_23_" x="-0.2" y="0" width="841.9" height="392.4"/>
	</defs>
	<clipPath id="SVGID_24_">
		<use xlink:href="#SVGID_23_"  overflow="visible"/>
	</clipPath>
	<path clip-path="url(#SVGID_24_)" fill="#FEEA00" d="M670.2,358.9v3.1c0.2,0.3,0.6,0.6,1.3,0.6c0.9,0,1.8-0.6,1.8-1.8
		c0-1.1-0.8-1.7-1.8-1.9H670.2z M670.2,358.4c1.1,0,2.7-0.2,2.7-1.6c0-1.1-0.9-1.6-2.7-1.6V358.4z M668,362.6l1-0.3v-6.8l-1-0.3
		v-0.4l2.8,0c2.2,0,3.3,0.6,3.3,1.9c0,1.3-1.1,1.8-2.4,1.9v0c1.4,0.1,2.8,0.7,2.8,2.1c0,1.4-1.3,2.4-3.5,2.3l-3,0V362.6z"/>
</g>
<polygon fill="#FEEA00" points="685.6,362.4 686.6,360.7 686.9,360.7 686.5,363 681.4,363 681.4,362.5 682.3,362.3 682.3,357.2 
	681.4,356.9 681.4,356.5 684.4,356.5 684.4,356.9 683.4,357.1 683.4,362.4 "/>
<polygon fill="#FEEA00" points="697.6,362.4 698.5,360.7 698.9,360.7 698.5,363 693.4,363 693.4,362.5 694.2,362.3 694.2,357.2 
	693.4,356.9 693.4,356.5 696.4,356.5 696.4,356.9 695.3,357.1 695.3,362.4 "/>
<g>
	<defs>
		<rect id="SVGID_25_" x="-0.2" y="0" width="841.9" height="392.4"/>
	</defs>
	<clipPath id="SVGID_26_">
		<use xlink:href="#SVGID_25_"  overflow="visible"/>
	</clipPath>
	<path clip-path="url(#SVGID_26_)" fill="#FEEA00" d="M711,360c0-1.8-0.9-3.3-2.4-3.3c-1.2,0-1.9,1-1.9,2.6c0,1.4,0.7,3.3,2.4,3.3
		C710.1,362.7,711,361.8,711,360 M712.2,359.7c0,2-1.4,3.5-3.3,3.5c-2,0-3.4-1.3-3.4-3.4c0-2,1.4-3.5,3.4-3.5
		C710.8,356.3,712.2,357.7,712.2,359.7"/>
	<path clip-path="url(#SVGID_26_)" fill="#FEEA00" d="M723.9,360c0-1.8-0.9-3.3-2.4-3.3c-1.2,0-1.9,1-1.9,2.6c0,1.4,0.7,3.3,2.4,3.3
		C723.1,362.7,723.9,361.8,723.9,360 M725.1,359.7c0,2-1.4,3.5-3.3,3.5c-2,0-3.4-1.3-3.4-3.4c0-2,1.4-3.5,3.4-3.5
		C723.8,356.3,725.1,357.7,725.1,359.7"/>
</g>
<polygon fill="#FEEA00" points="737.7,363.1 733.1,358 733.1,362.2 734.2,362.6 734.2,363 731.6,363 731.6,362.5 732.5,362.3 
	732.5,357.3 731.6,356.9 731.6,356.5 733.2,356.5 737.3,361.1 737.3,357.3 736.2,356.9 736.2,356.5 738.8,356.5 738.8,356.9 
	738,357.2 738,361.9 738,362.9 "/>
<rect x="0" y="0" fill="#422D87" width="841.5" height="196.1"/>
<g>
	<defs>
		<rect id="SVGID_27_" x="-0.2" y="0" width="841.9" height="392.4"/>
	</defs>
	<clipPath id="SVGID_28_">
		<use xlink:href="#SVGID_27_"  overflow="visible"/>
	</clipPath>
	<path clip-path="url(#SVGID_28_)" fill="#ED3033" d="M730.9,114h-4c-1.1,0-2,0.9-2,2v1.7v2.5c0,1.1-0.9,2-2,2h-6v0.8h10.3h3.7
		c1.1,0,2-0.9,2-2V116C732.9,114.9,732,114,730.9,114"/>
	<path clip-path="url(#SVGID_28_)" fill="#FEEA00" d="M733.3,51.8c0,26.3-30.3,37.4-30.3,37.4s-30.3-10.9-30.3-37.4
		c0-16,13.5-29,30.3-29C719.7,22.8,733.3,35.8,733.3,51.8"/>
	<path clip-path="url(#SVGID_28_)" fill="#ED3033" d="M703,22.8c16.7,0,30.3,13,30.3,29c0,26.3-30.3,37.4-30.3,37.4V22.8z"/>
	<path clip-path="url(#SVGID_28_)" fill="#ED3033" d="M684.3,56.6l6.2,3.8l6.2-3.8l6.2,3.8v-9.1l-6.2-3.8l-6.2,3.8l-6.2-3.8
		l-6.2,3.8l-5.1-3.1c-0.2,1.2-0.2,2.4-0.2,3.7c0,1.9,0.2,3.8,0.5,5.6l4.9,3L684.3,56.6z"/>
	<path clip-path="url(#SVGID_28_)" fill="#FEEA00" d="M733,48.1l-5.1,3.1l-6.2-3.8l-6.2,3.8l-6.2-3.8l-6.2,3.8v9.1l6.2-3.8l6.2,3.8
		l6.2-3.8l6.2,3.8l4.9-2.9c0.3-1.8,0.5-3.7,0.5-5.6C733.3,50.6,733.2,49.4,733,48.1"/>
	<path clip-path="url(#SVGID_28_)" fill="#ED3033" d="M684.9,133.9c-0.4,0-0.8-0.6-0.8-2.2c0-2.3,0.7-5.7,0.7-9h0.2h0.2
		c0,3.3,0.7,6.8,0.7,9C685.7,133.3,685.3,133.9,684.9,133.9"/>
	<path clip-path="url(#SVGID_28_)" fill="#ED3033" d="M684.9,111.4c-0.4,0-0.8,0.6-0.8,2.2c0,2.3,0.7,5.7,0.7,9h0.2h0.2
		c0-3.3,0.7-6.8,0.7-9C685.7,112,685.3,111.4,684.9,111.4"/>
	<path clip-path="url(#SVGID_28_)" fill="#ED3033" d="M716.2,128.2c0,0.9-0.7,1.6-1.6,1.6h-23.1c-0.9,0-1.6-0.7-1.6-1.6v-13.6
		c0-0.9,0.7-1.6,1.6-1.6h23.1c0.9,0,1.6,0.7,1.6,1.6V128.2z"/>
	<path clip-path="url(#SVGID_28_)" fill="#FEEA00" d="M703,113h-11.6c-0.9,0-1.6,0.7-1.6,1.6v13.6c0,0.9,0.7,1.6,1.6,1.6H703V113z"
		/>
	<path clip-path="url(#SVGID_28_)" fill="#FEEA00" d="M683.9,122.8c0,1-0.1,1.8-0.9,1.8c-0.8,0-1.9-0.8-1.9-1.8c0-1,1.1-1.8,1.9-1.8
		C683.8,120.9,683.9,121.8,683.9,122.8"/>
	<path clip-path="url(#SVGID_28_)" fill="#FEEA00" d="M730.7,118.2c0,1.1-0.9,2-2,2c-1.1,0-2-0.9-2-2c0-1.1,0.9-2,2-2
		C729.8,116.2,730.7,117.1,730.7,118.2"/>
	<path clip-path="url(#SVGID_28_)" fill="#FEEA00" d="M709.1,129.8c0,3.4-2.7,6.1-6.1,6.1c-3.4,0-6.1-2.7-6.1-6.1
		c0-3.4,2.7-6.1,6.1-6.1C706.4,123.7,709.1,126.4,709.1,129.8"/>
	<path clip-path="url(#SVGID_28_)" fill="#ED3033" d="M711.7,129.8h-0.5c0,2.3-0.9,4.3-2.4,5.8c-1.5,1.5-3.5,2.4-5.8,2.4
		c-2.3,0-4.3-0.9-5.8-2.4c-1.5-1.5-2.4-3.5-2.4-5.8c0-2.3,0.9-4.3,2.4-5.8c1.5-1.5,3.5-2.4,5.8-2.4c2.3,0,4.3,0.9,5.8,2.4
		c1.5,1.5,2.4,3.5,2.4,5.8H711.7h0.5c0-5-4.1-9.1-9.2-9.1c-5.1,0-9.2,4.1-9.2,9.1c0,5.1,4.1,9.1,9.2,9.1c5.1,0,9.2-4.1,9.2-9.1
		H711.7z"/>
	<path clip-path="url(#SVGID_28_)" fill="#ED3033" d="M703,111l0.4-0.2l-24.9-41.9l-0.4,0.2l-0.2,0.5c0,0,9.5,3.6,25,3.6
		c15.5,0,24.7-3.6,24.8-3.6l-0.2-0.4l-0.4-0.2l-24.6,41.9L703,111l0.4-0.2L703,111l0.4,0.2l24.6-41.9c0.1-0.2,0.1-0.4-0.1-0.6
		c-0.1-0.2-0.4-0.2-0.5-0.1l0,0c-0.2,0.1-9.3,3.5-24.4,3.5c-7.7,0-13.9-0.9-18.1-1.8c-2.1-0.4-3.8-0.9-4.9-1.2
		c-0.6-0.2-1-0.3-1.3-0.4c-0.1,0-0.2-0.1-0.3-0.1c0,0-0.1,0-0.1,0l0,0l0,0c-0.2-0.1-0.4,0-0.5,0.1c-0.1,0.2-0.2,0.4,0,0.6l24.9,41.9
		c0.1,0.1,0.2,0.2,0.4,0.2c0.2,0,0.3-0.1,0.4-0.2L703,111z"/>
	<path clip-path="url(#SVGID_28_)" fill="#ED3033" d="M686.5,71.6l16.1,39.6c0.1,0.2,0.4,0.4,0.6,0.3c0.2-0.1,0.4-0.4,0.3-0.6
		l-16.1-39.6c-0.1-0.2-0.4-0.4-0.6-0.3C686.5,71.1,686.4,71.4,686.5,71.6"/>
	<path clip-path="url(#SVGID_28_)" fill="#ED3033" d="M695.4,72.5l7.1,38.6c0,0.3,0.3,0.4,0.6,0.4c0.3,0,0.4-0.3,0.4-0.6l-7.1-38.6
		c0-0.3-0.3-0.4-0.6-0.4C695.5,72,695.4,72.2,695.4,72.5"/>
	<path clip-path="url(#SVGID_28_)" fill="#ED3033" d="M709.7,72.3l-7.1,38.6c0,0.3,0.1,0.5,0.4,0.6c0.3,0,0.5-0.1,0.6-0.4l7.1-38.6
		c0-0.3-0.1-0.5-0.4-0.6C710,71.9,709.7,72.1,709.7,72.3"/>
	<path clip-path="url(#SVGID_28_)" fill="#ED3033" d="M718.7,71.2l-16.1,39.6c-0.1,0.2,0,0.5,0.3,0.6c0.2,0.1,0.5,0,0.6-0.3
		l16.1-39.6c0.1-0.2,0-0.5-0.3-0.6C719.1,70.9,718.8,71,718.7,71.2"/>
</g>
<rect x="685.9" y="122.2" fill="#ED3033" width="3.1" height="1"/>
<g>
	<defs>
		<rect id="SVGID_29_" x="-0.2" y="0" width="841.9" height="392.4"/>
	</defs>
	<clipPath id="SVGID_30_">
		<use xlink:href="#SVGID_29_"  overflow="visible"/>
	</clipPath>
	<path clip-path="url(#SVGID_30_)" fill="#FEEA00" d="M88.3,104.7l-5.5,9.6h-1.1l-5.4-9.5c0,0-0.1-0.1-0.1-0.1
		c-1.1-0.9-2.1-1.9-3.1-3.2l8,14h2.4l8.2-14.4C90.7,102.6,89.5,103.8,88.3,104.7"/>
	<path clip-path="url(#SVGID_30_)" fill="#FEEA00" d="M91.6,116h-1.3c-0.4,0-0.8,0.4-0.8,0.8v1.1c0,0.4-0.4,0.8-0.8,0.8h-0.8v1h2.5
		h1.2c0.4,0,0.8-0.4,0.8-0.8v-2.1C92.4,116.3,92,116,91.6,116"/>
	<path clip-path="url(#SVGID_30_)" fill="#FEEA00" d="M87,122.1v-4.8c0-0.3-0.3-0.6-0.6-0.6h-8.2c0,0-0.1,0-0.1,0
		c-0.3,0.1-0.4,0.3-0.4,0.6v2.5v1.9v0.4c0,0.3,0.2,0.5,0.4,0.5h0.6c0,0,0.2,0,0.2-0.2c0.1-1.8,1.6-3.3,3.5-3.3
		c0.4,0,0.8,0.1,1.1,0.2c0,0,0,0,0,0c1.3,0.4,2.2,1.6,2.3,3c0,0.2,0.2,0.2,0.2,0.2h0.6C86.9,122.6,87,122.4,87,122.1"/>
	<path clip-path="url(#SVGID_30_)" fill="#FEEA00" d="M77.6,122.1c0,0.3,0.2,0.5,0.4,0.5h0C77.7,122.6,77.6,122.4,77.6,122.1"/>
	<path clip-path="url(#SVGID_30_)" fill="#FEEA00" d="M83.6,120.9c-0.4-0.3-0.8-0.4-1.3-0.4c-1.2,0-2.2,1-2.2,2.2
		c0,1.2,1,2.2,2.2,2.2s2.2-1,2.2-2.2C84.4,121.9,84.1,121.3,83.6,120.9"/>
	<path clip-path="url(#SVGID_30_)" fill="#FEEA00" d="M78.6,94.1l3.7,2.2h0l3.7-2.2l3.7,2.2l3.5-2.1c-0.4-5-3.8-9.9-10.9-9.9
		c-7.1,0-10.5,5.3-10.8,9.9l3.5,2.1L78.6,94.1z"/>
	<path clip-path="url(#SVGID_30_)" fill="#FEEA00" d="M89.7,98.2L86,96l-3.7,2.2h0h0h0L78.5,96l-3.7,2.2L71.2,96
		c0.1,1.4,0.5,2.7,1,3.9v0c0.3,0.8,0.8,1.5,1.2,2.1c0.9,1.3,2,2.4,3.1,3.3c2.1,1.7,4.1,2.7,5.1,3.1c0.3,0.1,0.5,0.2,0.5,0.2v0
		c0,0,0,0,0,0c0,0,0,0,0,0v0c0.1,0,0.3-0.1,0.5-0.2c1-0.4,3.1-1.4,5.1-3.1c1.1-0.9,2.2-2,3.1-3.3c0.5-0.7,0.9-1.4,1.2-2.1v0
		c0.5-1.2,0.9-2.5,1-3.9L89.7,98.2z"/>
	<path clip-path="url(#SVGID_30_)" fill="#FEEA00" d="M76.2,114.3c-0.5,0-0.8,0.4-0.8,0.9c0,0.1,0,0.2,0,0.3l0.5,2.7
		c-0.1,0-0.1,0-0.2,0.1c-0.4,0.2-0.7,0.7-0.7,1.2c0,0.5,0.3,1,0.7,1.2c0,0,0.1,0,0.2,0.1l-0.5,2.7c0,0.1,0,0.2,0,0.3
		c0,0.5,0.4,0.9,0.8,0.9c0.1,0,0.2,0,0.2-0.3v-3.7v-2.2v-3.7C76.4,114.3,76.3,114.3,76.2,114.3"/>
	<path clip-path="url(#SVGID_30_)" fill="#FEEA00" d="M319.5,96l-5.7,10.1h-1.2l-5.7-10c0,0-0.1-0.1-0.1-0.1
		c-1.1-0.9-2.3-2.1-3.2-3.4l8.4,14.7h2.5l8.6-15.1C321.9,93.7,320.7,95,319.5,96"/>
	<path clip-path="url(#SVGID_30_)" fill="#FEEA00" d="M322.9,107.8h-1.4c-0.5,0-0.8,0.4-0.8,0.8v1.2c0,0.5-0.4,0.8-0.8,0.8h-0.8v1.1
		h2.6h1.2c0.5,0,0.8-0.4,0.8-0.8v-2.3C323.8,108.2,323.4,107.8,322.9,107.8"/>
	<path clip-path="url(#SVGID_30_)" fill="#FEEA00" d="M318.1,114.3v-5.1c0-0.3-0.3-0.6-0.6-0.6h-8.7c0,0-0.1,0-0.1,0
		c-0.3,0.1-0.5,0.3-0.5,0.6v2.7v2v0.4c0,0.3,0.2,0.5,0.4,0.6h0.6c0,0,0.2,0,0.2-0.2c0.1-1.9,1.7-3.4,3.6-3.4c0.4,0,0.8,0.1,1.2,0.2
		c0,0,0,0,0,0c1.4,0.5,2.3,1.7,2.5,3.2c0,0.3,0.3,0.3,0.3,0.3h0.6C318,114.8,318.1,114.5,318.1,114.3"/>
	<path clip-path="url(#SVGID_30_)" fill="#FEEA00" d="M308.2,114.3c0,0.3,0.2,0.6,0.4,0.6h0C308.4,114.8,308.2,114.5,308.2,114.3"/>
	<path clip-path="url(#SVGID_30_)" fill="#FEEA00" d="M314.5,113c-0.4-0.3-0.9-0.5-1.4-0.5c-1.3,0-2.3,1-2.3,2.3
		c0,1.2,1,2.3,2.3,2.3c1.3,0,2.3-1,2.3-2.3C315.4,114.1,315,113.4,314.5,113"/>
	<path clip-path="url(#SVGID_30_)" fill="#FEEA00" d="M309.2,84.9l3.9,2.3h0l3.9-2.3l3.9,2.3l3.6-2.2c-0.4-5.3-4-10.4-11.4-10.4
		c-7.4,0-11.1,5.5-11.4,10.4l3.6,2.2L309.2,84.9z"/>
	<path clip-path="url(#SVGID_30_)" fill="#FEEA00" d="M320.9,89.1l-3.9-2.3l-3.9,2.3h0h0h0l-3.9-2.3l-3.9,2.3l-3.8-2.3
		c0.1,1.5,0.5,2.9,1,4.1v0c0.4,0.8,0.8,1.6,1.3,2.3c1,1.4,2.1,2.5,3.3,3.5c2.2,1.8,4.4,2.8,5.4,3.3c0.3,0.1,0.5,0.2,0.6,0.2v0
		c0,0,0,0,0,0c0,0,0,0,0,0v0c0.1,0,0.3-0.1,0.6-0.2c1-0.5,3.2-1.5,5.4-3.3c1.2-1,2.3-2.1,3.3-3.5c0.5-0.7,0.9-1.4,1.3-2.3v0
		c0.5-1.2,0.9-2.6,1-4.1L320.9,89.1z"/>
	<path clip-path="url(#SVGID_30_)" fill="#FEEA00" d="M306.7,106.1c-0.5,0-0.9,0.4-0.9,0.9c0,0.1,0,0.2,0,0.3l0.5,2.8
		c-0.1,0-0.1,0-0.2,0.1c-0.5,0.3-0.8,0.7-0.8,1.3c0,0.6,0.3,1,0.8,1.3c0,0,0.1,0,0.2,0.1l-0.5,2.8c0,0.1,0,0.2,0,0.3
		c0,0.5,0.4,0.9,0.9,0.9c0.1,0,0.3,0,0.3-0.3v-3.8v-2.4v-3.9C307,106.1,306.8,106.1,306.7,106.1"/>
	<path clip-path="url(#SVGID_30_)" fill="#FEEA00" d="M114.7,102.4v3.7c0.2,0.4,0.7,0.7,1.5,0.7c1,0,2.1-0.7,2.1-2.1
		c0-1.3-0.9-2.1-2.1-2.3H114.7z M114.7,101.8c1.4,0,3.2-0.2,3.2-1.9c0-1.3-1.1-1.9-3.2-1.9V101.8z M112.1,106.7l1.2-0.3v-8l-1.2-0.4
		v-0.5l3.4,0c2.5,0,3.9,0.7,3.9,2.2c0,1.5-1.4,2.1-2.8,2.3v0c1.7,0.1,3.3,0.8,3.3,2.5c0,1.7-1.6,2.8-4.2,2.7l-3.6-0.1V106.7z"/>
</g>
<polygon fill="#FEEA00" points="132.9,106.5 134,104.5 134.4,104.5 134,107.2 127.9,107.2 127.9,106.7 128.9,106.4 128.9,100.3 
	127.9,100 127.9,99.5 131.5,99.5 131.5,100 130.2,100.3 130.2,106.5 "/>
<polygon fill="#FEEA00" points="147,106.5 148.1,104.5 148.6,104.5 148.1,107.2 142,107.2 142,106.7 143,106.4 143,100.3 142,100 
	142,99.5 145.6,99.5 145.6,100 144.3,100.3 144.3,106.5 "/>
<g>
	<defs>
		<rect id="SVGID_31_" x="-0.2" y="0" width="841.9" height="392.4"/>
	</defs>
	<clipPath id="SVGID_32_">
		<use xlink:href="#SVGID_31_"  overflow="visible"/>
	</clipPath>
	<path clip-path="url(#SVGID_32_)" fill="#FEEA00" d="M162.8,103.7c0-2.1-1.1-3.9-2.8-3.9c-1.4,0-2.3,1.2-2.3,3
		c0,1.7,0.8,3.9,2.9,3.9C161.8,106.8,162.8,105.8,162.8,103.7 M164.2,103.3c0,2.4-1.6,4.1-3.9,4.1c-2.3,0-4-1.6-4-4
		c0-2.4,1.6-4.2,4-4.2C162.6,99.3,164.2,100.9,164.2,103.3"/>
	<path clip-path="url(#SVGID_32_)" fill="#FEEA00" d="M178.1,103.7c0-2.1-1.1-3.9-2.8-3.9c-1.4,0-2.3,1.2-2.3,3
		c0,1.7,0.8,3.9,2.9,3.9C177.1,106.8,178.1,105.8,178.1,103.7 M179.6,103.3c0,2.4-1.6,4.1-3.9,4.1c-2.3,0-4-1.6-4-4
		c0-2.4,1.6-4.2,4-4.2C177.9,99.3,179.6,100.9,179.6,103.3"/>
</g>
<polygon fill="#FEEA00" points="194.3,107.3 189,101.3 189,106.3 190.3,106.7 190.3,107.2 187.2,107.2 187.2,106.7 188.2,106.4 
	188.2,100.5 187.2,100 187.2,99.5 189.1,99.5 194,105 194,100.5 192.6,100 192.6,99.5 195.7,99.5 195.7,100 194.7,100.3 194.7,106 
	194.7,107.2 "/>
<g>
	<defs>
		<rect id="SVGID_33_" x="-0.2" y="0" width="841.9" height="392.4"/>
	</defs>
	<clipPath id="SVGID_34_">
		<use xlink:href="#SVGID_33_"  overflow="visible"/>
	</clipPath>
	<path clip-path="url(#SVGID_34_)" fill="#FEEA00" d="M288.1,134.9v2.4c0.1,0.3,0.5,0.5,1,0.5c0.7,0,1.4-0.5,1.4-1.4
		c0-0.8-0.6-1.3-1.4-1.5H288.1z M288.1,134.5c0.9,0,2.1-0.2,2.1-1.3c0-0.9-0.7-1.2-2.1-1.2V134.5z M286.4,137.7l0.8-0.2v-5.2
		l-0.8-0.2v-0.3l2.2,0c1.6,0,2.5,0.5,2.5,1.4c0,1-0.9,1.4-1.8,1.5v0c1.1,0.1,2.1,0.5,2.1,1.6c0,1.1-1,1.8-2.7,1.8l-2.3,0V137.7z"/>
</g>
<polygon fill="#FEEA00" points="299.9,137.6 300.6,136.3 300.9,136.3 300.6,138 296.6,138 296.6,137.7 297.3,137.5 297.3,133.6 
	296.6,133.4 296.6,133.1 299,133.1 299,133.4 298.1,133.6 298.1,137.6 "/>
<polygon fill="#FEEA00" points="309,137.6 309.8,136.3 310,136.3 309.7,138 305.8,138 305.8,137.7 306.5,137.5 306.5,133.6 
	305.8,133.4 305.8,133.1 308.1,133.1 308.1,133.4 307.3,133.6 307.3,137.6 "/>
<g>
	<defs>
		<rect id="SVGID_35_" x="-0.2" y="0" width="841.9" height="392.4"/>
	</defs>
	<clipPath id="SVGID_36_">
		<use xlink:href="#SVGID_35_"  overflow="visible"/>
	</clipPath>
	<path clip-path="url(#SVGID_36_)" fill="#FEEA00" d="M319.3,135.8c0-1.4-0.7-2.5-1.8-2.5c-0.9,0-1.5,0.8-1.5,2
		c0,1.1,0.5,2.5,1.8,2.5C318.7,137.8,319.3,137.1,319.3,135.8 M320.2,135.5c0,1.5-1.1,2.7-2.6,2.7c-1.5,0-2.6-1-2.6-2.6
		c0-1.5,1.1-2.7,2.6-2.7C319.2,132.9,320.2,134,320.2,135.5"/>
	<path clip-path="url(#SVGID_36_)" fill="#FEEA00" d="M329.2,135.8c0-1.4-0.7-2.5-1.8-2.5c-0.9,0-1.5,0.8-1.5,2
		c0,1.1,0.5,2.5,1.8,2.5C328.6,137.8,329.2,137.1,329.2,135.8 M330.2,135.5c0,1.5-1.1,2.7-2.6,2.7c-1.5,0-2.6-1-2.6-2.6
		c0-1.5,1.1-2.7,2.6-2.7C329.1,132.9,330.2,134,330.2,135.5"/>
</g>
<polygon fill="#FEEA00" points="339.8,138.1 336.3,134.2 336.3,137.4 337.1,137.7 337.1,138 335.1,138 335.1,137.7 335.8,137.5 
	335.8,133.7 335.1,133.4 335.1,133.1 336.4,133.1 339.5,136.6 339.5,133.7 338.7,133.4 338.7,133.1 340.6,133.1 340.6,133.4 
	340,133.6 340,137.2 340,138 "/>
<g>
	<defs>
		<rect id="SVGID_37_" x="-0.2" y="0" width="841.9" height="392.4"/>
	</defs>
	<clipPath id="SVGID_38_">
		<use xlink:href="#SVGID_37_"  overflow="visible"/>
	</clipPath>
	<path clip-path="url(#SVGID_38_)" fill="#ED3033" d="M492.9,107.1c0,0.7-0.6,1.3-1.3,1.3c-0.7,0-1.3-0.6-1.3-1.3
		c0-0.7,0.6-1.3,1.3-1.3C492.4,105.9,492.9,106.4,492.9,107.1"/>
</g>
<polygon fill="#ED3033" points="491.7,114.7 490.4,107.1 492.9,107.1 "/>
<g>
	<path fill="#ED3033" d="M492.9,120.7c0-0.7-0.6-1.3-1.3-1.3c-0.7,0-1.3,0.6-1.3,1.3c0,0.7,0.6,1.3,1.3,1.3
		C492.4,122,492.9,121.4,492.9,120.7"/>
</g>
<polygon fill="#ED3033" points="491.7,113.1 490.4,120.7 492.9,120.7 "/>
<g>
	<path fill="#FEEA00" d="M492.1,112.4c-0.9,0-1.6,0.7-1.6,1.6c0,0.9,0.7,1.6,1.6,1.6c0.2-0.5,0.3-1.1,0.3-1.6
		C492.3,113.4,492.3,112.9,492.1,112.4"/>
	<path fill="#FEEA00" d="M501.4,107.6c-0.5,0-0.9-0.4-0.9-0.9V82.7c0-0.5,0.4-0.9,0.9-0.9c0.5,0,0.9,0.4,0.9,0.9v24.1
		C502.2,107.2,501.8,107.6,501.4,107.6"/>
	<path fill="#FEEA00" d="M510.8,90.8l-8.6,15.2h-1.8l-8.5-15c-0.1-0.1-0.1-0.1-0.2-0.2c-1.7-1.4-3.4-3.1-4.8-5l12.6,22.1h3.8
		l12.9-22.7C514.6,87.4,512.7,89.2,510.8,90.8"/>
	<path fill="#ED3033" d="M516,108.5H514c-0.7,0-1.2,0.6-1.2,1.2v1.8c0,0.7-0.6,1.2-1.2,1.2h-1.3v1.6h3.9h1.9c0.7,0,1.2-0.6,1.2-1.2
		v-3.4C517.3,109.1,516.7,108.5,516,108.5"/>
	<path fill="#FEEA00" d="M508.7,118.2v-7.6c0-0.5-0.4-0.9-0.9-0.9h-13c-0.1,0-0.1,0-0.2,0c-0.4,0.1-0.7,0.5-0.7,0.9v4v3v0.7
		c0,0.4,0.3,0.7,0.7,0.8h0.9c0,0,0.3,0,0.3-0.3c0.2-2.9,2.6-5.1,5.5-5.1c0.6,0,1.2,0.1,1.7,0.3c0,0,0,0,0,0c2,0.7,3.5,2.6,3.7,4.8
		c0,0.4,0.4,0.4,0.4,0.4h1C508.6,119,508.7,118.6,508.7,118.2"/>
	<path fill="#FEEA00" d="M493.9,118.2c0,0.4,0.3,0.8,0.6,0.8h0C494.2,118.9,493.9,118.6,493.9,118.2"/>
	<path fill="#ED3033" d="M503.3,116.3c-0.6-0.4-1.3-0.7-2-0.7c-1.9,0-3.4,1.5-3.4,3.4c0,1.9,1.5,3.4,3.4,3.4s3.4-1.5,3.4-3.4
		C504.7,117.9,504.2,116.9,503.3,116.3"/>
	<path fill="#FEEA00" d="M518.9,75.5c0,15.3-17.6,21.8-17.6,21.8s-17.6-6.4-17.6-21.8c0-9.3,7.9-16.9,17.6-16.9
		C511,58.6,518.9,66.2,518.9,75.5"/>
	<path fill="#ED3033" d="M501.3,58.6c9.7,0,17.6,7.6,17.6,16.9c0,13.1-13,19.8-16.7,21.4c-0.8-0.3-1-1.7-1-2.4V58.6z"/>
</g>
<g>
	<defs>
		<path id="SVGID_39_" d="M483.7,75.5c0,15.4,17.6,21.8,17.6,21.8s17.6-6.5,17.6-21.8c0-9.3-7.9-16.9-17.6-16.9
			C491.6,58.6,483.7,66.2,483.7,75.5"/>
	</defs>
	<clipPath id="SVGID_40_">
		<use xlink:href="#SVGID_39_"  overflow="visible"/>
	</clipPath>
	<polyline clip-path="url(#SVGID_40_)" fill="#ED3033" points="501.3,75.7 495.4,72.1 489.6,75.7 483,71.7 480.9,75.2 482.6,76.3 
		489.6,80.4 495.4,76.9 501.3,80.4 	"/>
	<polyline clip-path="url(#SVGID_40_)" fill="#FEEA00" points="501.4,75.7 507.2,72.1 513.1,75.7 519.7,71.7 521.8,75.2 520,76.3 
		513.1,80.4 507.2,76.9 501.4,80.4 	"/>
</g>
<g>
	<path fill="#FEEA00" d="M476.2,140.2v2.4c0.1,0.3,0.5,0.5,1,0.5c0.7,0,1.4-0.5,1.4-1.4c0-0.9-0.6-1.4-1.4-1.5H476.2z M476.2,139.8
		c0.9,0,2.1-0.2,2.1-1.3c0-0.9-0.7-1.3-2.1-1.2V139.8z M474.4,143.1l0.8-0.2v-5.3l-0.8-0.3V137l2.2,0c1.7,0,2.6,0.5,2.6,1.5
		c0,1-0.9,1.4-1.9,1.5v0c1.1,0.1,2.2,0.5,2.2,1.7c0,1.1-1,1.9-2.8,1.8l-2.4,0V143.1z"/>
</g>
<polygon fill="#FEEA00" points="488.3,143 489.1,141.6 489.4,141.6 489,143.4 485,143.4 485,143.1 485.7,142.9 485.7,138.8 
	485,138.6 485,138.3 487.4,138.3 487.4,138.6 486.5,138.8 486.5,143 "/>
<polygon fill="#FEEA00" points="497.7,143 498.5,141.6 498.8,141.6 498.5,143.4 494.4,143.4 494.4,143.1 495.1,142.9 495.1,138.8 
	494.4,138.6 494.4,138.3 496.8,138.3 496.8,138.6 496,138.8 496,143 "/>
<g>
	<path fill="#FEEA00" d="M508.3,141.1c0-1.4-0.7-2.6-1.9-2.6c-1,0-1.5,0.8-1.5,2c0,1.1,0.5,2.6,1.9,2.6
		C507.6,143.2,508.3,142.5,508.3,141.1 M509.2,140.8c0,1.6-1.1,2.8-2.6,2.8c-1.6,0-2.6-1.1-2.6-2.6c0-1.6,1.1-2.8,2.6-2.8
		C508.2,138.2,509.2,139.2,509.2,140.8"/>
	<path fill="#FEEA00" d="M518.5,141.1c0-1.4-0.7-2.6-1.9-2.6c-1,0-1.5,0.8-1.5,2c0,1.1,0.5,2.6,1.9,2.6
		C517.8,143.2,518.5,142.5,518.5,141.1 M519.4,140.8c0,1.6-1.1,2.8-2.6,2.8c-1.6,0-2.6-1.1-2.6-2.6c0-1.6,1.1-2.8,2.6-2.8
		C518.4,138.2,519.4,139.2,519.4,140.8"/>
</g>
<polygon fill="#FEEA00" points="529.3,143.5 525.7,139.5 525.7,142.8 526.6,143.1 526.6,143.4 524.6,143.4 524.6,143.1 525.3,142.9 
	525.3,138.9 524.5,138.6 524.5,138.3 525.8,138.3 529.1,142 529.1,138.9 528.2,138.6 528.2,138.3 530.2,138.3 530.2,138.6 
	529.5,138.8 529.5,142.6 529.6,143.4 "/>
<g>
	<path fill="#FEEA00" d="M670.1,162.7v3.1c0.2,0.3,0.6,0.6,1.3,0.6c0.9,0,1.8-0.6,1.8-1.8c0-1.1-0.8-1.7-1.8-1.9H670.1z
		 M670.1,162.2c1.1,0,2.7-0.2,2.7-1.6c0-1.1-0.9-1.6-2.7-1.6V162.2z M667.9,166.3l1-0.3v-6.8l-1-0.3v-0.4l2.8,0
		c2.2,0,3.3,0.6,3.3,1.9c0,1.3-1.1,1.8-2.4,1.9v0c1.4,0.1,2.8,0.7,2.8,2.1c0,1.4-1.3,2.4-3.5,2.3l-3-0.1V166.3z"/>
</g>
<polygon fill="#FEEA00" points="685.5,166.2 686.4,164.5 686.8,164.5 686.4,166.7 681.3,166.7 681.3,166.3 682.1,166.1 682.1,160.9 
	681.3,160.7 681.3,160.3 684.3,160.3 684.3,160.7 683.2,160.9 683.2,166.2 "/>
<polygon fill="#FEEA00" points="697.4,166.2 698.4,164.5 698.8,164.5 698.4,166.7 693.2,166.7 693.2,166.3 694.1,166.1 694.1,160.9 
	693.2,160.7 693.2,160.3 696.2,160.3 696.2,160.7 695.2,160.9 695.2,166.2 "/>
<g>
	<path fill="#FEEA00" d="M710.8,163.8c0-1.8-0.9-3.3-2.4-3.3c-1.2,0-1.9,1-1.9,2.6c0,1.4,0.7,3.3,2.4,3.3
		C710,166.5,710.8,165.6,710.8,163.8 M712,163.5c0,2-1.4,3.5-3.3,3.5c-2,0-3.3-1.3-3.3-3.4c0-2,1.4-3.5,3.3-3.5
		C710.6,160.1,712,161.4,712,163.5"/>
	<path fill="#FEEA00" d="M723.8,163.8c0-1.8-0.9-3.3-2.4-3.3c-1.2,0-1.9,1-1.9,2.6c0,1.4,0.7,3.3,2.4,3.3
		C722.9,166.5,723.8,165.6,723.8,163.8 M725,163.5c0,2-1.4,3.5-3.3,3.5c-2,0-3.3-1.3-3.3-3.4c0-2,1.4-3.5,3.3-3.5
		C723.6,160.1,725,161.4,725,163.5"/>
</g>
<polygon fill="#FEEA00" points="737.5,166.8 733,161.8 733,166 734.1,166.3 734.1,166.7 731.5,166.7 731.5,166.3 732.3,166.1 
	732.3,161 731.4,160.7 731.4,160.3 733.1,160.3 737.2,164.9 737.2,161 736.1,160.7 736.1,160.3 738.7,160.3 738.7,160.7 
	737.8,160.9 737.8,165.7 737.8,166.7 "/>
</svg>
