<?xml version="1.0" encoding="utf-8"?>
<!-- Generator: Adobe Illustrator 18.0.0, SVG Export Plug-In . SVG Version: 6.00 Build 0)  -->
<!DOCTYPE svg PUBLIC "-//W3C//DTD SVG 1.1//EN" "http://www.w3.org/Graphics/SVG/1.1/DTD/svg11.dtd">
<svg version="1.1" id="Layer_1" xmlns="http://www.w3.org/2000/svg" xmlns:xlink="http://www.w3.org/1999/xlink" x="0px" y="0px"
	 viewBox="287.8 628.6 280 280" enable-background="new 287.8 628.6 280 280" xml:space="preserve">
<polyline fill="#ED2D32" points="567.8,908.6 287.8,908.6 287.8,628.6 567.8,628.6 567.8,908.6 "/>
<path fill="#FFEB1A" d="M385.3,858.8c-1,0-2.1-1.5-2.1-5.4c0-5.6,1.7-14.1,1.7-22.4h0.4h0.4c0,8.3,1.7,16.8,1.7,22.4
	C387.4,857.4,386.4,858.8,385.3,858.8"/>
<path fill="#FFEB1A" d="M385.3,803.3c-1,0-2.1,1.4-2.1,5.4c0,5.6,1.7,14.1,1.7,22.4h0.4h0.4c0-8.3,1.7-16.8,1.7-22.4
	C387.4,804.8,386.4,803.3,385.3,803.3"/>
<path fill="#FCBD30" d="M382,827.1c-2.1,0-5.8,1.3-5.8,4c0,2.7,3.7,4,5.8,4c1,0,1.4-0.7,1.4-4S383.1,827.1,382,827.1"/>
<path fill="#CF3534" d="M415.3,875.7C415.3,875.7,415.3,875.7,415.3,875.7c-8.4,0-15.9-0.3-21.4-0.9c-2.7-0.3-4.9-0.6-6.4-1
	c-0.7-0.2-1.3-0.4-1.6-0.5c-0.1,0-0.1-0.1-0.2-0.1c0.1-0.1,0.3-0.2,0.6-0.3c0.8-0.3,2.2-0.6,4-0.9c5.4-0.8,14.6-1.4,25-1.4
	c0,0,0,0,0,0v-0.6l0,0v0.6c8.3,0,15.9,0.3,21.4,0.9c2.7,0.3,4.9,0.6,6.4,1c0.7,0.2,1.3,0.4,1.6,0.5c0.1,0,0.1,0.1,0.2,0.1
	c-0.1,0.1-0.3,0.2-0.6,0.3c-0.8,0.3-2.2,0.6-4,0.9C435,875.2,425.8,875.7,415.3,875.7"/>
<path fill="#ED2D32" d="M415.3,876.9c-6.9,0-13.2-0.2-18.3-0.6c-5.1-0.4-8.9-0.9-10.9-1.6c-0.6-0.2-1-0.4-1.3-0.7
	c-0.2-0.2-0.3-0.4-0.3-0.7c0-0.3,0.2-0.6,0.3-0.7c0.2-0.2,0.4-0.3,0.6-0.4c0.5-0.2,1.1-0.4,1.9-0.6c1.6-0.4,3.8-0.7,6.6-1
	c5.5-0.6,13.1-0.9,21.5-0.9v0.6v0.6c0,0,0,0,0,0c-10.4,0-19.6,0.5-25,1.4c-1.8,0.3-3.2,0.6-4,0.9c-0.3,0.1-0.5,0.2-0.6,0.3
	c0,0,0.1,0.1,0.2,0.1c0.3,0.2,0.9,0.4,1.6,0.5c1.5,0.4,3.7,0.7,6.4,1c5.5,0.6,13,0.9,21.3,0.9c0,0,0,0,0,0c10.4,0,19.6-0.5,25-1.4
	c1.8-0.3,3.2-0.6,4-0.9c0.3-0.1,0.5-0.2,0.6-0.3c0,0-0.1-0.1-0.2-0.1c-0.3-0.2-0.9-0.4-1.6-0.5c-1.5-0.4-3.7-0.7-6.4-1
	c-5.5-0.6-13-0.9-21.4-0.9v-0.6v-0.6c6.9,0,13.2,0.2,18.3,0.6c5.1,0.4,8.9,0.9,10.9,1.6c0.6,0.2,1,0.4,1.3,0.7
	c0.2,0.2,0.3,0.4,0.3,0.7c0,0.3-0.2,0.6-0.3,0.7c-0.2,0.2-0.4,0.3-0.6,0.4c-0.5,0.2-1.1,0.4-1.9,0.6c-1.6,0.4-3.8,0.7-6.6,1
	C431.3,876.6,423.7,876.9,415.3,876.9 M385.6,873.3L385.6,873.3"/>
<path fill="#FFEB1A" d="M470.8,812.5h-8.9c-1.8,0-3.3,1.4-3.3,3.2v7.3v4.1c0,1.8-1.5,3.2-3.3,3.2h-4.7v1.4h11.7h8.4
	c1.8,0,3.3-1.4,3.3-3.2v-12.8C474.1,813.9,472.6,812.5,470.8,812.5"/>
<polygon fill="#FFEB1A" points="391.7,830.3 387,830.3 387,831.7 391.7,831.7 "/>
<path fill="#FCBD30" d="M447.6,705.7c0,21.8-25.5,31.1-25.5,31.1s-25.5-9.1-25.5-31.1c0-13.3,11.4-24.1,25.5-24.1
	S447.6,692.4,447.6,705.7"/>
<path fill="#FFEB00" d="M422.1,681.6c14.1,0,25.5,10.8,25.5,24.1c0,21.8-25.5,31.1-25.5,31.1V681.6L422.1,681.6z"/>
<polyline fill="#FFEB1A" points="447.2,701.5 447.2,701.8 447.2,701.5 "/>
<polyline fill="#FFEB1A" points="447.4,708.8 447.4,709 447.4,708.8 "/>
<polyline fill="#FFEB1A" points="447.4,703 447.5,703.3 447.4,703 "/>
<path fill="#FFEB1A" d="M447.4,709.1c0,0.3-0.1,0.6-0.1,0.9C447.3,709.7,447.3,709.4,447.4,709.1"/>
<polyline fill="#FFEB1A" points="447.3,701.8 447.3,702.1 447.3,701.8 "/>
<path fill="#FFEB1A" d="M446,714.7c-0.1,0.2-0.1,0.4-0.2,0.6C445.9,715.1,445.9,714.9,446,714.7"/>
<polyline fill="#FFEB1A" points="447.4,702.7 447.4,703 447.4,702.7 "/>
<polyline fill="#FFEB1A" points="447.1,701.2 447.2,701.5 447.1,701.2 "/>
<path fill="#FFEB1A" d="M446.2,714.1c-0.1,0.2-0.1,0.4-0.2,0.6C446.1,714.5,446.2,714.3,446.2,714.1"/>
<polyline fill="#FFEB1A" points="445.8,715.4 445.7,715.6 445.8,715.4 "/>
<path fill="#FFEB1A" d="M447.6,706.9c0,0.2,0,0.4,0,0.6C447.5,707.3,447.5,707.1,447.6,706.9"/>
<path fill="#FFEB1A" d="M447.5,704c0,0.1,0,0.2,0,0.3C447.5,704.2,447.5,704.1,447.5,704"/>
<polyline fill="#FFEB1A" points="447.5,703.4 447.5,703.7 447.5,703.4 "/>
<polyline fill="#FFEB1A" points="447.6,706.2 447.6,706.5 447.6,706.2 "/>
<polyline fill="#FFEB1A" points="447.6,706.6 447.6,706.8 447.6,706.6 "/>
<polyline fill="#FFEB1A" points="447.5,707.8 447.5,708.1 447.5,707.8 "/>
<polyline fill="#FFEB1A" points="447.5,707.5 447.5,707.8 447.5,707.5 "/>
<path fill="#FFEB1A" d="M447.5,708.1c0,0.2,0,0.4-0.1,0.6C447.4,708.5,447.5,708.3,447.5,708.1"/>
<polyline fill="#FFEB1A" points="447.5,703.7 447.5,704 447.5,703.7 "/>
<path fill="#FFEB1A" d="M446.4,713.4c-0.1,0.2-0.1,0.4-0.2,0.6C446.3,713.8,446.4,713.6,446.4,713.4"/>
<polyline fill="#FFEB1A" points="444.8,717.5 444.7,717.7 444.8,717.5 "/>
<polyline fill="#FFEB1A" points="445,717.2 444.8,717.5 445,717.2 "/>
<polyline fill="#FFEB1A" points="445.1,716.9 445,717.1 445.1,716.9 "/>
<polyline fill="#FFEB1A" points="447.3,702.1 447.3,702.4 447.3,702.1 "/>
<polyline fill="#FFEB1A" points="445.5,716 445.4,716.3 445.5,716 "/>
<polyline fill="#FFEB1A" points="445.4,716.3 445.3,716.5 445.4,716.3 "/>
<path fill="#FFEB1A" d="M446.7,699.3c0.1,0.5,0.3,1,0.4,1.5C447,700.3,446.8,699.8,446.7,699.3"/>
<polyline fill="#FFEB1A" points="445.7,715.6 445.5,715.9 445.7,715.6 "/>
<polyline fill="#FFEB1A" points="447.1,700.9 447.1,701.2 447.1,700.9 "/>
<polyline fill="#FFEB1A" points="445.3,716.6 445.1,716.9 445.3,716.6 "/>
<polyline fill="#FFEB1A" points="447.3,702.4 447.4,702.7 447.3,702.4 "/>
<path fill="#F58536" d="M447.5,703.7L447.5,703.7L447.5,703.7z"/>
<path fill="#F58536" d="M447.5,704.3L447.5,704.3L447.5,704.3z"/>
<path fill="#F58536" d="M447.4,702.7L447.4,702.7L447.4,702.7z"/>
<path fill="#F58536" d="M447.3,702.1L447.3,702.1L447.3,702.1z"/>
<path fill="#F58536" d="M447.3,702.4L447.3,702.4L447.3,702.4z"/>
<path fill="#F58536" d="M447.2,701.8L447.2,701.8L447.2,701.8z"/>
<path fill="#F58536" d="M447.5,703.4L447.5,703.4L447.5,703.4z"/>
<path fill="#F58536" d="M447.5,704L447.5,704L447.5,704z"/>
<path fill="#F58536" d="M447.4,703L447.4,703L447.4,703z"/>
<path fill="#F58536" d="M447.1,700.9L447.1,700.9L447.1,700.9z"/>
<path fill="#F58536" d="M397.5,699.3c-0.5,1.6-0.7,3.3-0.8,5h25.5v-5H397.5L397.5,699.3z"/>
<path fill="#F58536" d="M447.2,701.5L447.2,701.5L447.2,701.5z"/>
<path fill="#F58536" d="M447.1,701.2L447.1,701.2L447.1,701.2z"/>
<path fill="#FCBD30" d="M447.5,704.3c0-0.1,0-0.2,0-0.3v0l0-0.3l0,0l0-0.3l0,0l0-0.3v0l0-0.3l0,0l0-0.3l0,0l0-0.3v0l-0.1-0.3l0,0
	l0-0.3l0,0l-0.1-0.3l0,0l-0.1-0.3l0,0c-0.1-0.5-0.2-1-0.4-1.5h-24.6v5H447.5L447.5,704.3z"/>
<path fill="#F58536" d="M396.6,706.2c0,1.7,0.2,3.4,0.5,5h25v-5H396.6L396.6,706.2z"/>
<path fill="#F58536" d="M447.2,710L447.2,710L447.2,710z"/>
<path fill="#F58536" d="M447.6,706.5L447.6,706.5L447.6,706.5z"/>
<path fill="#F58536" d="M447.4,709L447.4,709L447.4,709z"/>
<path fill="#F58536" d="M447.6,706.8L447.6,706.8L447.6,706.8z"/>
<path fill="#F58536" d="M447.6,706.2L447.6,706.2L447.6,706.2z"/>
<path fill="#F58536" d="M447.5,707.5L447.5,707.5L447.5,707.5z"/>
<path fill="#F58536" d="M447.5,707.8L447.5,707.8L447.5,707.8z"/>
<path fill="#F58536" d="M447.4,708.7L447.4,708.7L447.4,708.7z"/>
<path fill="#F58536" d="M447.5,708.1L447.5,708.1L447.5,708.1z"/>
<path fill="#FCBD30" d="M447.2,710L447.2,710c0-0.3,0.1-0.6,0.1-0.9l0,0l0-0.3l0,0c0-0.2,0-0.4,0.1-0.6v0l0-0.3l0-0.1l0-0.3l0,0
	c0-0.2,0-0.4,0-0.6l0-0.1l0-0.2v-0.1l0-0.3v0h-25.5v5H447C447.1,710.8,447.2,710.4,447.2,710"/>
<path fill="#F58536" d="M397.6,713.1c0.5,1.8,1.2,3.4,2,5h22.5v-5H397.6L397.6,713.1z"/>
<path fill="#F58536" d="M445.1,716.9L445.1,716.9L445.1,716.9z"/>
<path fill="#F58536" d="M445,717.1L445,717.1L445,717.1z"/>
<path fill="#F58536" d="M445.3,716.5L445.3,716.5L445.3,716.5z"/>
<path fill="#F58536" d="M444.7,717.8L444.7,717.8L444.7,717.8z"/>
<path fill="#F58536" d="M444.8,717.5L444.8,717.5L444.8,717.5z"/>
<path fill="#F58536" d="M445.4,716.3L445.4,716.3L445.4,716.3z"/>
<path fill="#F58536" d="M446,714.7L446,714.7L446,714.7z"/>
<path fill="#F58536" d="M446.5,713.4L446.5,713.4L446.5,713.4z"/>
<path fill="#F58536" d="M446.2,714.1L446.2,714.1L446.2,714.1z"/>
<path fill="#F58536" d="M445.8,715.3L445.8,715.3L445.8,715.3z"/>
<path fill="#F58536" d="M445.5,715.9L445.5,715.9L445.5,715.9z"/>
<path fill="#FCBD30" d="M444.8,717.5L444.8,717.5l0.1-0.3l0-0.1l0.1-0.3l0,0l0.1-0.3l0-0.1l0.1-0.3v0l0.1-0.3l0-0.1l0.1-0.3l0,0
	l0.1-0.3l0-0.1c0.1-0.2,0.1-0.4,0.2-0.6l0,0c0.1-0.2,0.1-0.4,0.2-0.6l0,0c0.1-0.2,0.1-0.4,0.2-0.6l0,0l0.1-0.3h-24.5v5h22.5l0.1-0.3
	l0-0.1L444.8,717.5"/>
<path fill="#F58536" d="M400.9,716.3l20.7,97.7c0.1,0.3,0.3,0.4,0.6,0.4c0.3-0.1,0.4-0.3,0.4-0.6l-20.7-97.7
	c-0.1-0.3-0.3-0.4-0.6-0.4C401,715.7,400.8,716,400.9,716.3"/>
<polyline fill="#FCBD2B" points="442.3,716.1 421.6,813.8 422.6,814 443.3,716.3 "/>
<polyline fill="#FCBD2B" points="431.3,716.1 421.6,813.8 422.6,813.9 432.3,716.2 "/>
<path fill="#F58536" d="M411.8,716.2l9.7,97.7c0,0.3,0.3,0.5,0.5,0.4c0.3,0,0.5-0.3,0.4-0.5l-9.7-97.7c0-0.3-0.3-0.5-0.5-0.4
	C412,715.7,411.8,715.9,411.8,716.2"/>
<path fill="#FFEB1A" d="M448.7,843c0,2.2-1.8,3.9-4,3.9h-47.3c-2.2,0-4-1.8-4-3.9v-22.4c0-2.2,1.8-3.9,4-3.9h47.3c2.2,0,4,1.8,4,3.9
	V843L448.7,843z"/>
<path fill="#FFFFFF" d="M410.6,827c0,2.8-2.3,5-5.1,5s-5.1-2.3-5.1-5c0-2.8,2.3-5,5.1-5S410.6,824.2,410.6,827"/>
<path fill="#FCBD30" d="M410.6,827h-0.5c0,0.6-0.1,1.2-0.4,1.8c-0.4,0.8-0.9,1.5-1.7,2c-0.7,0.5-1.6,0.8-2.6,0.8
	c-0.6,0-1.3-0.1-1.8-0.4c-0.8-0.3-1.5-0.9-2-1.7c-0.5-0.7-0.8-1.6-0.8-2.5c0-0.6,0.1-1.2,0.4-1.8c0.4-0.8,0.9-1.5,1.7-2
	c0.7-0.5,1.6-0.8,2.6-0.8c0.6,0,1.3,0.1,1.8,0.4c0.8,0.3,1.5,0.9,2,1.6c0.5,0.7,0.8,1.6,0.8,2.5H410.6h0.5c0-0.8-0.2-1.5-0.4-2.1
	c-0.4-1-1.1-1.8-2-2.4c-0.9-0.6-2-0.9-3.1-0.9c-0.8,0-1.5,0.2-2.2,0.4c-1,0.4-1.9,1.1-2.5,2c-0.6,0.9-1,1.9-1,3.1
	c0,0.8,0.2,1.5,0.4,2.1c0.4,1,1.1,1.8,2,2.4c0.9,0.6,2,0.9,3.1,0.9c0.8,0,1.5-0.2,2.2-0.4c1-0.4,1.9-1.1,2.5-2c0.6-0.9,1-1.9,1-3.1
	L410.6,827L410.6,827z"/>
<path fill="#FCBD30" d="M393.4,836.9v6.1c0,2.2,1.8,3.9,4,3.9h47.3c2.2,0,4-1.8,4-3.9v-6.1H393.4L393.4,836.9z"/>
</svg>
