<?xml version="1.0" encoding="utf-8"?>
<!-- Generator: Adobe Illustrator 18.1.1, SVG Export Plug-In . SVG Version: 6.00 Build 0)  -->
<!DOCTYPE svg PUBLIC "-//W3C//DTD SVG 1.1//EN" "http://www.w3.org/Graphics/SVG/1.1/DTD/svg11.dtd">
<svg version="1.1" id="Layer_1" xmlns="http://www.w3.org/2000/svg" xmlns:xlink="http://www.w3.org/1999/xlink" x="0px" y="0px"
	 viewBox="0 0 841.7 392.4" enable-background="new 0 0 841.7 392.4" xml:space="preserve">
<rect x="0.1" y="196.9" fill="#020202" width="841.9" height="196.1"/>
<g>
	<defs>
		<rect id="SVGID_1_" x="0" y="0.6" width="842.1" height="392.4"/>
	</defs>
	<clipPath id="SVGID_2_">
		<use xlink:href="#SVGID_1_"  overflow="visible"/>
	</clipPath>
	<path clip-path="url(#SVGID_2_)" fill="#FFFFFF" d="M87.8,301.6l-5.5,9.6h-1.1l-5.4-9.5c0,0-0.1-0.1-0.1-0.1
		c-1.1-0.9-2.1-1.9-3.1-3.2l8,14h2.4l8.2-14.4C90.1,299.5,88.9,300.7,87.8,301.6"/>
	<path clip-path="url(#SVGID_2_)" fill="#FFFFFF" d="M91.1,312.9h-1.3c-0.4,0-0.8,0.4-0.8,0.8v1.1c0,0.4-0.4,0.8-0.8,0.8h-0.8v1h2.5
		h1.2c0.4,0,0.8-0.4,0.8-0.8v-2.1C91.8,313.2,91.5,312.9,91.1,312.9"/>
	<path clip-path="url(#SVGID_2_)" fill="#FFFFFF" d="M86.4,319v-4.8c0-0.3-0.3-0.6-0.6-0.6h-8.2c0,0-0.1,0-0.1,0
		c-0.3,0.1-0.4,0.3-0.4,0.6v2.5v1.9v0.4c0,0.3,0.2,0.5,0.4,0.5H78c0,0,0.2,0,0.2-0.2c0.1-1.8,1.6-3.3,3.5-3.3c0.4,0,0.8,0.1,1.1,0.2
		c0,0,0,0,0,0c1.3,0.4,2.2,1.6,2.3,3c0,0.2,0.2,0.2,0.2,0.2H86C86.3,319.6,86.4,319.3,86.4,319"/>
	<path clip-path="url(#SVGID_2_)" fill="#FFFFFF" d="M77,319c0,0.3,0.2,0.5,0.4,0.5h0C77.2,319.5,77,319.3,77,319"/>
	<path clip-path="url(#SVGID_2_)" fill="#FFFFFF" d="M83,317.8c-0.4-0.3-0.8-0.4-1.3-0.4c-1.2,0-2.2,1-2.2,2.2c0,1.2,1,2.2,2.2,2.2
		c1.2,0,2.2-1,2.2-2.2C83.9,318.8,83.5,318.2,83,317.8"/>
	<path clip-path="url(#SVGID_2_)" fill="#FFFFFF" d="M78,291l3.7,2.2h0l3.7-2.2l3.7,2.2l3.5-2.1c-0.4-5-3.8-9.9-10.9-9.9
		c-7.1,0-10.5,5.3-10.8,9.9l3.5,2.1L78,291z"/>
	<path clip-path="url(#SVGID_2_)" fill="#FFFFFF" d="M89.1,295.1l-3.7-2.2l-3.7,2.2h0h0h0l-3.7-2.2l-3.7,2.2l-3.6-2.2
		c0.1,1.4,0.5,2.7,1,3.9v0c0.3,0.8,0.8,1.5,1.2,2.1c0.9,1.3,2,2.4,3.1,3.3c2.1,1.7,4.1,2.7,5.1,3.1c0.3,0.1,0.5,0.2,0.5,0.2v0
		c0,0,0,0,0,0c0,0,0,0,0,0v0c0.1,0,0.3-0.1,0.5-0.2c1-0.4,3.1-1.4,5.1-3.1c1.1-0.9,2.2-2,3.1-3.3c0.5-0.7,0.9-1.4,1.2-2.1v0
		c0.5-1.2,0.9-2.5,1-3.9L89.1,295.1z"/>
	<path clip-path="url(#SVGID_2_)" fill="#FFFFFF" d="M75.6,311.2c-0.5,0-0.8,0.4-0.8,0.9c0,0.1,0,0.2,0,0.3l0.5,2.7
		c-0.1,0-0.1,0-0.2,0.1c-0.4,0.2-0.7,0.7-0.7,1.2c0,0.5,0.3,1,0.7,1.2c0,0,0.1,0,0.2,0.1l-0.5,2.7c0,0.1,0,0.2,0,0.3
		c0,0.5,0.4,0.9,0.8,0.9c0.1,0,0.2,0,0.2-0.3v-3.7v-2.2v-3.7C75.9,311.2,75.7,311.2,75.6,311.2"/>
	<path clip-path="url(#SVGID_2_)" fill="#FFFFFF" d="M319,292.9l-5.7,10.1h-1.2l-5.7-10c0,0-0.1-0.1-0.1-0.1
		c-1.1-0.9-2.3-2.1-3.2-3.4l8.4,14.7h2.5l8.6-15.1C321.5,290.7,320.3,291.9,319,292.9"/>
	<path clip-path="url(#SVGID_2_)" fill="#FFFFFF" d="M322.5,304.7h-1.4c-0.5,0-0.8,0.4-0.8,0.8v1.2c0,0.5-0.4,0.8-0.8,0.8h-0.8v1.1
		h2.6h1.2c0.5,0,0.8-0.4,0.8-0.8v-2.3C323.3,305.1,323,304.7,322.5,304.7"/>
	<path clip-path="url(#SVGID_2_)" fill="#FFFFFF" d="M317.6,311.2v-5.1c0-0.3-0.3-0.6-0.6-0.6h-8.7c0,0-0.1,0-0.1,0
		c-0.3,0.1-0.5,0.3-0.5,0.6v2.7v2v0.5c0,0.3,0.2,0.5,0.4,0.6h0.6c0,0,0.2,0,0.2-0.2c0.1-1.9,1.7-3.4,3.6-3.4c0.4,0,0.8,0.1,1.2,0.2
		c0,0,0,0,0,0c1.4,0.5,2.3,1.7,2.5,3.2c0,0.3,0.3,0.3,0.3,0.3h0.6C317.5,311.7,317.6,311.4,317.6,311.2"/>
	<path clip-path="url(#SVGID_2_)" fill="#FFFFFF" d="M307.7,311.2c0,0.3,0.2,0.6,0.4,0.6h0C307.9,311.7,307.7,311.4,307.7,311.2"/>
	<path clip-path="url(#SVGID_2_)" fill="#FFFFFF" d="M314.1,309.9c-0.4-0.3-0.9-0.5-1.4-0.5c-1.3,0-2.3,1-2.3,2.3
		c0,1.2,1,2.3,2.3,2.3c1.3,0,2.3-1,2.3-2.3C315,311,314.6,310.3,314.1,309.9"/>
	<path clip-path="url(#SVGID_2_)" fill="#FFFFFF" d="M308.8,281.8l3.9,2.3h0l3.9-2.3l3.9,2.3l3.6-2.2c-0.4-5.3-4-10.4-11.4-10.4
		c-7.4,0-11.1,5.5-11.4,10.4l3.6,2.2L308.8,281.8z"/>
	<path clip-path="url(#SVGID_2_)" fill="#FFFFFF" d="M320.5,286l-3.9-2.3l-3.9,2.3h0h0h0l-3.9-2.3l-3.9,2.3l-3.8-2.3
		c0.1,1.5,0.5,2.9,1,4.1v0c0.4,0.8,0.8,1.6,1.3,2.3c1,1.4,2.1,2.5,3.3,3.5c2.2,1.8,4.4,2.8,5.4,3.3c0.3,0.1,0.5,0.2,0.6,0.2v0
		c0,0,0,0,0,0c0,0,0,0,0,0v0c0.1,0,0.3-0.1,0.6-0.2c1-0.5,3.2-1.5,5.4-3.3c1.2-1,2.3-2.1,3.3-3.5c0.5-0.7,0.9-1.5,1.3-2.3v0
		c0.5-1.2,0.9-2.6,1-4.1L320.5,286z"/>
	<path clip-path="url(#SVGID_2_)" fill="#FFFFFF" d="M306.3,303c-0.5,0-0.9,0.4-0.9,0.9c0,0.1,0,0.2,0,0.3l0.5,2.8
		c-0.1,0-0.1,0-0.2,0.1c-0.5,0.3-0.8,0.7-0.8,1.3c0,0.6,0.3,1,0.8,1.3c0,0,0.1,0,0.2,0.1l-0.5,2.8c0,0.1,0,0.2,0,0.3
		c0,0.5,0.4,0.9,0.9,0.9c0.1,0,0.3,0,0.3-0.3v-3.8v-2.4v-3.9C306.6,303,306.4,303,306.3,303"/>
	<path clip-path="url(#SVGID_2_)" fill="#FFFFFF" d="M114.2,299.3v3.7c0.2,0.4,0.7,0.7,1.5,0.7c1,0,2.1-0.7,2.1-2.1
		c0-1.3-0.9-2.1-2.1-2.3H114.2z M114.2,298.7c1.4,0,3.2-0.2,3.2-1.9c0-1.3-1.1-1.9-3.2-1.9V298.7z M111.5,303.6l1.2-0.3v-8l-1.2-0.4
		v-0.5l3.4,0c2.5,0,3.9,0.7,3.9,2.2c0,1.5-1.4,2.1-2.8,2.3v0c1.7,0.1,3.3,0.8,3.3,2.5c0,1.7-1.6,2.8-4.2,2.7l-3.6-0.1V303.6z"/>
</g>
<polygon fill="#FFFFFF" points="132.3,303.5 133.5,301.4 133.9,301.4 133.4,304.1 127.4,304.1 127.4,303.6 128.4,303.3 128.4,297.2 
	127.4,296.9 127.4,296.4 131,296.4 131,296.9 129.7,297.2 129.7,303.5 "/>
<polygon fill="#FFFFFF" points="146.5,303.5 147.6,301.4 148,301.4 147.6,304.1 141.5,304.1 141.5,303.6 142.5,303.3 142.5,297.2 
	141.5,296.9 141.5,296.4 145.1,296.4 145.1,296.9 143.8,297.2 143.8,303.5 "/>
<g>
	<defs>
		<rect id="SVGID_3_" x="0" y="0.6" width="842.1" height="392.4"/>
	</defs>
	<clipPath id="SVGID_4_">
		<use xlink:href="#SVGID_3_"  overflow="visible"/>
	</clipPath>
	<path clip-path="url(#SVGID_4_)" fill="#FFFFFF" d="M162.3,300.7c0-2.1-1.1-3.9-2.8-3.9c-1.4,0-2.3,1.2-2.3,3
		c0,1.7,0.8,3.9,2.9,3.9C161.3,303.8,162.3,302.7,162.3,300.7 M163.7,300.2c0,2.4-1.6,4.1-3.9,4.1c-2.3,0-4-1.6-4-4
		c0-2.4,1.6-4.2,4-4.2C162.1,296.2,163.7,297.8,163.7,300.2"/>
	<path clip-path="url(#SVGID_4_)" fill="#FFFFFF" d="M177.6,300.7c0-2.1-1.1-3.9-2.8-3.9c-1.4,0-2.3,1.2-2.3,3
		c0,1.7,0.8,3.9,2.9,3.9C176.6,303.8,177.6,302.7,177.6,300.7 M179.1,300.2c0,2.4-1.6,4.1-3.9,4.1c-2.3,0-4-1.6-4-4
		c0-2.4,1.6-4.2,4-4.2C177.4,296.2,179.1,297.8,179.1,300.2"/>
</g>
<polygon fill="#FFFFFF" points="193.8,304.2 188.5,298.3 188.5,303.2 189.8,303.6 189.8,304.1 186.7,304.1 186.7,303.6 187.7,303.3 
	187.7,297.4 186.7,296.9 186.7,296.4 188.6,296.4 193.5,301.9 193.5,297.4 192.1,296.9 192.1,296.4 195.2,296.4 195.2,296.9 
	194.2,297.2 194.2,302.9 194.2,304.1 "/>
<g>
	<defs>
		<rect id="SVGID_5_" x="0" y="0.6" width="842.1" height="392.4"/>
	</defs>
	<clipPath id="SVGID_6_">
		<use xlink:href="#SVGID_5_"  overflow="visible"/>
	</clipPath>
	<path clip-path="url(#SVGID_6_)" fill="#FFFFFF" d="M287.6,331.8v2.4c0.1,0.3,0.5,0.5,1,0.5c0.7,0,1.4-0.5,1.4-1.4
		c0-0.8-0.6-1.3-1.4-1.5H287.6z M287.6,331.4c0.9,0,2.1-0.2,2.1-1.3c0-0.9-0.7-1.2-2.1-1.2V331.4z M285.9,334.6l0.8-0.2v-5.2
		l-0.8-0.2v-0.3l2.2,0c1.7,0,2.5,0.5,2.5,1.4c0,1-0.9,1.4-1.8,1.5v0c1.1,0.1,2.1,0.5,2.1,1.6c0,1.1-1,1.8-2.7,1.8l-2.3,0V334.6z"/>
</g>
<polygon fill="#FFFFFF" points="299.4,334.5 300.1,333.2 300.4,333.2 300.1,334.9 296.2,334.9 296.2,334.6 296.9,334.4 296.9,330.5 
	296.2,330.3 296.2,330 298.5,330 298.5,330.3 297.7,330.5 297.7,334.5 "/>
<polygon fill="#FFFFFF" points="308.6,334.5 309.3,333.2 309.6,333.2 309.3,334.9 305.4,334.9 305.4,334.6 306,334.4 306,330.5 
	305.4,330.3 305.4,330 307.7,330 307.7,330.3 306.9,330.5 306.9,334.5 "/>
<g>
	<defs>
		<rect id="SVGID_7_" x="0" y="0.6" width="842.1" height="392.4"/>
	</defs>
	<clipPath id="SVGID_8_">
		<use xlink:href="#SVGID_7_"  overflow="visible"/>
	</clipPath>
	<path clip-path="url(#SVGID_8_)" fill="#FFFFFF" d="M318.9,332.7c0-1.4-0.7-2.5-1.8-2.5c-0.9,0-1.5,0.8-1.5,2
		c0,1.1,0.5,2.5,1.8,2.5C318.2,334.7,318.9,334.1,318.9,332.7 M319.8,332.4c0,1.5-1.1,2.7-2.6,2.7c-1.5,0-2.6-1-2.6-2.6
		c0-1.5,1.1-2.7,2.6-2.7C318.7,329.8,319.8,330.9,319.8,332.4"/>
	<path clip-path="url(#SVGID_8_)" fill="#FFFFFF" d="M328.8,332.7c0-1.4-0.7-2.5-1.8-2.5c-0.9,0-1.5,0.8-1.5,2
		c0,1.1,0.5,2.5,1.8,2.5C328.2,334.7,328.8,334.1,328.8,332.7 M329.7,332.4c0,1.5-1.1,2.7-2.6,2.7c-1.5,0-2.6-1-2.6-2.6
		c0-1.5,1.1-2.7,2.6-2.7C328.7,329.8,329.7,330.9,329.7,332.4"/>
</g>
<polygon fill="#FFFFFF" points="339.3,335 335.9,331.1 335.9,334.4 336.7,334.6 336.7,334.9 334.7,334.9 334.7,334.6 335.4,334.4 
	335.4,330.6 334.7,330.3 334.7,330 336,330 339.1,333.5 339.1,330.6 338.2,330.3 338.2,330 340.2,330 340.2,330.3 339.6,330.5 
	339.6,334.1 339.6,334.9 "/>
<g>
	<defs>
		<rect id="SVGID_9_" x="0" y="0.6" width="842.1" height="392.4"/>
	</defs>
	<clipPath id="SVGID_10_">
		<use xlink:href="#SVGID_9_"  overflow="visible"/>
	</clipPath>
	<path clip-path="url(#SVGID_10_)" fill="#FFFFFF" d="M475.9,337.1v2.4c0.1,0.3,0.5,0.5,1,0.5c0.7,0,1.4-0.5,1.4-1.4
		c0-0.9-0.6-1.4-1.4-1.5H475.9z M475.9,336.7c0.9,0,2.1-0.2,2.1-1.3c0-0.9-0.7-1.3-2.1-1.2V336.7z M474.1,340l0.8-0.2v-5.3l-0.8-0.3
		v-0.3l2.2,0c1.7,0,2.6,0.5,2.6,1.5c0,1-0.9,1.4-1.9,1.5v0c1.1,0.1,2.2,0.5,2.2,1.7c0,1.1-1,1.9-2.8,1.8l-2.4,0V340z"/>
</g>
<polygon fill="#FFFFFF" points="488,339.9 488.7,338.5 489,338.5 488.7,340.3 484.6,340.3 484.6,340 485.3,339.8 485.3,335.8 
	484.6,335.6 484.6,335.2 487,335.2 487,335.6 486.2,335.7 486.2,339.9 "/>
<polygon fill="#FFFFFF" points="497.4,339.9 498.1,338.5 498.4,338.5 498.1,340.3 494.1,340.3 494.1,340 494.8,339.8 494.8,335.8 
	494.1,335.6 494.1,335.2 496.5,335.2 496.5,335.6 495.6,335.7 495.6,339.9 "/>
<g>
	<defs>
		<rect id="SVGID_11_" x="0" y="0.6" width="842.1" height="392.4"/>
	</defs>
	<clipPath id="SVGID_12_">
		<use xlink:href="#SVGID_11_"  overflow="visible"/>
	</clipPath>
	<path clip-path="url(#SVGID_12_)" fill="#FFFFFF" d="M507.9,338c0-1.4-0.7-2.6-1.9-2.6c-1,0-1.5,0.8-1.5,2c0,1.1,0.5,2.6,1.9,2.6
		C507.3,340.1,507.9,339.4,507.9,338 M508.9,337.7c0,1.6-1.1,2.8-2.6,2.8c-1.6,0-2.6-1.1-2.6-2.6c0-1.6,1.1-2.8,2.6-2.8
		C507.8,335.1,508.9,336.2,508.9,337.7"/>
	<path clip-path="url(#SVGID_12_)" fill="#FFFFFF" d="M518.2,338c0-1.4-0.7-2.6-1.9-2.6c-1,0-1.5,0.8-1.5,2c0,1.1,0.5,2.6,1.9,2.6
		C517.5,340.1,518.2,339.4,518.2,338 M519.1,337.7c0,1.6-1.1,2.8-2.6,2.8c-1.6,0-2.6-1.1-2.6-2.6c0-1.6,1.1-2.8,2.6-2.8
		C518,335.1,519.1,336.2,519.1,337.7"/>
</g>
<polygon fill="#FFFFFF" points="529,340.4 525.4,336.4 525.4,339.7 526.3,340 526.3,340.3 524.2,340.3 524.2,340 524.9,339.8 
	524.9,335.8 524.2,335.6 524.2,335.2 525.5,335.2 528.7,338.9 528.7,335.8 527.9,335.5 527.9,335.2 529.9,335.2 529.9,335.6 
	529.2,335.8 529.2,339.5 529.2,340.3 "/>
<g>
	<defs>
		<rect id="SVGID_13_" x="0" y="0.6" width="842.1" height="392.4"/>
	</defs>
	<clipPath id="SVGID_14_">
		<use xlink:href="#SVGID_13_"  overflow="visible"/>
	</clipPath>
	<path clip-path="url(#SVGID_14_)" fill="#FFFFFF" d="M669.9,359.6v3.1c0.2,0.3,0.6,0.6,1.3,0.6c0.9,0,1.8-0.6,1.8-1.8
		c0-1.1-0.8-1.7-1.8-1.9H669.9z M669.9,359.1c1.1,0,2.7-0.2,2.7-1.6c0-1.1-0.9-1.6-2.7-1.6V359.1z M667.6,363.2l1-0.3v-6.8l-1-0.3
		v-0.4l2.8,0c2.2,0,3.3,0.6,3.3,1.9c0,1.3-1.1,1.8-2.4,1.9v0c1.4,0.1,2.8,0.7,2.8,2.1c0,1.4-1.3,2.4-3.5,2.3l-3,0V363.2z"/>
</g>
<polygon fill="#FFFFFF" points="685.2,363.1 686.2,361.4 686.6,361.4 686.1,363.6 681,363.6 681,363.2 681.9,363 681.9,357.8 
	681,357.6 681,357.2 684,357.2 684,357.6 683,357.8 683,363.1 "/>
<polygon fill="#FFFFFF" points="697.2,363.1 698.1,361.4 698.5,361.4 698.1,363.6 693,363.6 693,363.2 693.8,363 693.8,357.8 
	693,357.6 693,357.2 696,357.2 696,357.6 694.9,357.8 694.9,363.1 "/>
<g>
	<defs>
		<rect id="SVGID_15_" x="0" y="0.6" width="842.1" height="392.4"/>
	</defs>
	<clipPath id="SVGID_16_">
		<use xlink:href="#SVGID_15_"  overflow="visible"/>
	</clipPath>
	<path clip-path="url(#SVGID_16_)" fill="#FFFFFF" d="M710.6,360.7c0-1.8-0.9-3.3-2.4-3.3c-1.2,0-1.9,1-1.9,2.6
		c0,1.4,0.7,3.3,2.4,3.3C709.7,363.4,710.6,362.5,710.6,360.7 M711.8,360.4c0,2-1.4,3.5-3.3,3.5c-2,0-3.4-1.3-3.4-3.3
		c0-2,1.4-3.5,3.4-3.5C710.4,357,711.8,358.3,711.8,360.4"/>
	<path clip-path="url(#SVGID_16_)" fill="#FFFFFF" d="M723.5,360.7c0-1.8-0.9-3.3-2.4-3.3c-1.2,0-1.9,1-1.9,2.6
		c0,1.4,0.7,3.3,2.4,3.3C722.7,363.4,723.5,362.5,723.5,360.7 M724.8,360.4c0,2-1.4,3.5-3.3,3.5c-2,0-3.4-1.3-3.4-3.3
		c0-2,1.4-3.5,3.4-3.5C723.4,357,724.8,358.3,724.8,360.4"/>
</g>
<polygon fill="#FFFFFF" points="737.3,363.8 732.7,358.7 732.7,362.9 733.8,363.2 733.8,363.6 731.2,363.6 731.2,363.2 732.1,363 
	732.1,358 731.2,357.6 731.2,357.2 732.9,357.2 737,361.8 737,358 735.8,357.6 735.8,357.2 738.4,357.2 738.4,357.6 737.6,357.8 
	737.6,362.6 737.6,363.6 "/>
<g>
	<defs>
		<rect id="SVGID_17_" x="0" y="0.6" width="842.1" height="392.4"/>
	</defs>
	<clipPath id="SVGID_18_">
		<use xlink:href="#SVGID_17_"  overflow="visible"/>
	</clipPath>
	<path clip-path="url(#SVGID_18_)" fill="#FFFFFF" d="M721.7,253.5l-6.2,3.8l-6.2-3.8l-6.2,3.8v28.9c0,0,0.2-0.1,0.5-0.2
		c0.3-0.1,0.6-0.3,1.1-0.5c0.5-0.2,1.2-0.5,1.9-0.9c0.7-0.3,1.4-0.7,2.3-1.2c7.9-4.2,21.3-13.6,24-29.1l-4.9,2.9L721.7,253.5z"/>
	<path clip-path="url(#SVGID_18_)" fill="#FFFFFF" d="M709.2,244.4l6.2,3.8l6.2-3.8l6.2,3.8l5.1-3.1c-1.9-14.3-14.6-25.4-30-25.4
		v28.4L709.2,244.4z"/>
	<path clip-path="url(#SVGID_18_)" fill="#FFFFFF" d="M684.1,253.6l6.3,3.8l6.3-3.8l6.3,3.8v-9.2l-6.3-3.8l-6.3,3.8l-6.3-3.8
		l-6.3,3.8l-5.2-3.1c-0.2,3.2-0.1,7.2,0.2,9.4l4.9,3L684.1,253.6z"/>
	<path clip-path="url(#SVGID_18_)" fill="#FFFFFF" d="M703,307.9l0.4-0.2l-24.9-41.9l-0.4,0.2l-0.2,0.5c0,0,9.5,3.6,25,3.6
		c15.5,0,24.8-3.6,24.8-3.6l-0.2-0.5l-0.4-0.2l-24.6,41.9L703,307.9l0.4-0.2L703,307.9l0.4,0.2l24.6-41.9c0.1-0.2,0.1-0.4,0-0.6
		c-0.1-0.2-0.4-0.2-0.5-0.1l0,0c-0.2,0.1-9.3,3.5-24.4,3.5c-7.7,0-13.9-0.9-18.1-1.8c-2.1-0.4-3.8-0.9-4.9-1.2
		c-0.6-0.2-1-0.3-1.3-0.4c-0.1-0.1-0.2-0.1-0.3-0.1c0,0-0.1,0-0.1,0l0,0l0,0c-0.2-0.1-0.4,0-0.5,0.1c-0.1,0.2-0.2,0.4,0,0.6
		l24.9,41.9c0.1,0.1,0.2,0.2,0.4,0.2c0.2,0,0.3-0.1,0.4-0.2L703,307.9z"/>
	<path clip-path="url(#SVGID_18_)" fill="#FFFFFF" d="M686.5,268.5l16.1,39.6c0.1,0.2,0.4,0.4,0.6,0.3c0.2-0.1,0.4-0.4,0.3-0.6
		l-16.1-39.6c-0.1-0.2-0.4-0.4-0.6-0.3C686.5,268,686.4,268.3,686.5,268.5"/>
	<path clip-path="url(#SVGID_18_)" fill="#FFFFFF" d="M695.4,269.4l7.1,38.6c0,0.3,0.3,0.4,0.6,0.4c0.3,0,0.4-0.3,0.4-0.6l-7.1-38.6
		c0-0.3-0.3-0.4-0.6-0.4C695.5,268.9,695.3,269.2,695.4,269.4"/>
	<path clip-path="url(#SVGID_18_)" fill="#FFFFFF" d="M709.7,269.3l-7.1,38.6c0,0.3,0.1,0.5,0.4,0.6c0.3,0.1,0.5-0.1,0.6-0.4
		l7.1-38.6c0-0.3-0.1-0.5-0.4-0.6C710,268.8,709.7,269,709.7,269.3"/>
	<path clip-path="url(#SVGID_18_)" fill="#FFFFFF" d="M718.7,268.2l-16.1,39.6c-0.1,0.2,0,0.5,0.3,0.6c0.2,0.1,0.5,0,0.6-0.3
		l16.1-39.6c0.1-0.2,0-0.5-0.3-0.6C719,267.8,718.8,267.9,718.7,268.2"/>
	<path clip-path="url(#SVGID_18_)" fill="#FFFFFF" d="M728.9,317c-1.1,0-2-0.9-2-2c0-1.1,0.9-2,2-2c1.1,0,2,0.9,2,2
		C730.9,316.1,730,317,728.9,317 M730.9,311h-4c-1.1,0-2,0.9-2,2v1.7v2.5c0,1.1-0.9,2-2,2h-6v0.8h10.3h3.7c1.1,0,2-0.9,2-2V313
		C732.9,311.9,732,311,730.9,311"/>
	<path clip-path="url(#SVGID_18_)" fill="#FFFFFF" d="M714.6,310h-10.4c0,0,0,0,0,0h-12.7c-0.7,0-1.3,0.6-1.3,1.3v13.9
		c0,0.7,0.6,1.3,1.3,1.3h3c0-0.4,0-0.7,0.1-1.1h-3.1c-0.1,0-0.3-0.1-0.3-0.3v-13.9c0-0.1,0.1-0.2,0.3-0.2H703v7.1
		c4.8,0,8.6,3.9,8.6,8.6h2.9c0.9,0,1.6-0.7,1.6-1.6v-13.6C716.2,310.7,715.5,310,714.6,310"/>
	<path clip-path="url(#SVGID_18_)" fill="#FFFFFF" d="M684.9,330.8c-0.4,0-0.8-0.6-0.8-2.2c0-2.3,0.7-5.7,0.7-9h0.2h0.2
		c0,3.3,0.7,6.8,0.7,9C685.7,330.2,685.3,330.8,684.9,330.8"/>
	<path clip-path="url(#SVGID_18_)" fill="#FFFFFF" d="M684.9,308.4c-0.4,0-0.8,0.6-0.8,2.2c0,2.3,0.7,5.7,0.7,9h0.2h0.2
		c0-3.3,0.7-6.8,0.7-9C685.7,309,685.3,308.4,684.9,308.4"/>
	<path clip-path="url(#SVGID_18_)" fill="#FFFFFF" d="M683.9,319.7c0,1-0.1,1.8-0.9,1.8c-0.8,0-1.9-0.8-1.9-1.8c0-1,1.1-1.8,1.9-1.8
		C683.8,317.9,683.9,318.7,683.9,319.7"/>
	<path clip-path="url(#SVGID_18_)" fill="#FFFFFF" d="M709.1,326.7c0,3.4-2.7,6.1-6.1,6.1c-3.4,0-6.1-2.7-6.1-6.1
		c0-3.4,2.7-6.1,6.1-6.1C706.4,320.7,709.1,323.4,709.1,326.7"/>
	<path clip-path="url(#SVGID_18_)" fill="#FFFFFF" d="M711.7,326.7h-0.5c0,2.3-0.9,4.3-2.4,5.8c-1.5,1.5-3.5,2.4-5.8,2.4
		c-2.3,0-4.3-0.9-5.8-2.4c-1.5-1.5-2.4-3.5-2.4-5.8c0-2.3,0.9-4.3,2.4-5.8c1.5-1.5,3.5-2.4,5.8-2.4c2.3,0,4.3,0.9,5.8,2.4
		c1.5,1.5,2.4,3.5,2.4,5.8H711.7h0.5c0-5-4.1-9.1-9.2-9.1s-9.2,4.1-9.2,9.1c0,5.1,4.1,9.1,9.2,9.1s9.2-4.1,9.2-9.1H711.7z"/>
</g>
<rect x="685.9" y="319.1" fill="#FFFFFF" width="3.1" height="1"/>
<g>
	<defs>
		<rect id="SVGID_19_" x="0" y="0.6" width="842.1" height="392.4"/>
	</defs>
	<clipPath id="SVGID_20_">
		<use xlink:href="#SVGID_19_"  overflow="visible"/>
	</clipPath>
	<path clip-path="url(#SVGID_20_)" fill="#FFFFFF" d="M702.9,285.2c-0.3-0.1-25.3-9.4-29-30.9c0-0.3-0.3-0.5-0.6-0.4
		c-0.3,0.1-0.5,0.3-0.4,0.6c3.8,22.1,29.4,31.6,29.7,31.7c0.1,0,0.1,0,0.2,0c0.2,0,0.4-0.1,0.5-0.4
		C703.3,285.6,703.2,285.3,702.9,285.2"/>
	<path clip-path="url(#SVGID_20_)" fill="#FFFFFF" d="M702.7,219.7c-15.2,0-28.2,10.9-30.1,25.4c0,0.3,0.2,0.6,0.5,0.6
		c0,0,0,0,0.1,0c0.3,0,0.5-0.2,0.5-0.5c1.8-14,14.3-24.5,29-24.5c0.3,0,0.5-0.2,0.5-0.5C703.3,220,703,219.7,702.7,219.7"/>
	<path clip-path="url(#SVGID_20_)" fill="#FFFFFF" d="M733,244.6c0-0.3-0.3-0.5-0.6-0.5c-0.3,0-0.5,0.3-0.5,0.6
		c0.2,1.5,0.3,2.8,0.3,4c0,1.5-0.1,3-0.3,4.4c0,0.2-0.2,0.7-0.3,1.2c-0.1,0.4-0.2,0.8-0.2,0.9c-0.1,0.3,0.1,0.6,0.4,0.6
		c0,0,0.1,0,0.1,0c0.3,0,0.5-0.2,0.5-0.4c0-0.2,0.1-0.5,0.2-0.9c0.1-0.6,0.2-1,0.3-1.3c0.2-1.5,0.3-3,0.3-4.6
		C733.3,247.5,733.2,246.2,733,244.6"/>
	<path clip-path="url(#SVGID_20_)" fill="#FFFFFF" d="M515.9,305h-2.1c-0.7,0-1.3,0.6-1.3,1.3v1.8c0,0.7-0.6,1.3-1.3,1.3h-1.7v1.7
		h4.4h1.9c0.7,0,1.3-0.6,1.3-1.3v-3.5C517.2,305.5,516.7,305,515.9,305"/>
	<path clip-path="url(#SVGID_20_)" fill="#FFFFFF" d="M491,311.9c0.3,0.2,1,0.3,1,0.3v-4c0,0-0.7,0.1-1,0.3c-0.6,0.3-1,1-1,1.7
		C490,310.9,490.4,311.6,491,311.9"/>
	<path clip-path="url(#SVGID_20_)" fill="#FFFFFF" d="M492,313l-0.7-0.2l-0.8,4.5c0,0.1-0.1,0.2-0.1,0.4c0,0.7,0.5,1.2,1.1,1.2
		c0.6,0,1.1-0.5,1.1-1.2c0-0.1,0-0.2-0.1-0.4L492,313z"/>
	<path clip-path="url(#SVGID_20_)" fill="#FFFFFF" d="M491.7,301.6c-0.6,0-1.1,0.5-1.1,1.2c0,0.1,0,0.2,0.1,0.4l0.8,4.5l0.7-0.2
		l0.7-4.3c0-0.1,0.1-0.2,0.1-0.4C492.8,302.1,492.3,301.6,491.7,301.6"/>
	<path clip-path="url(#SVGID_20_)" fill="#FFFFFF" d="M507.6,306.2h-13.4c-0.1,0-0.1,0-0.2,0c-0.1,0-0.2,0.1-0.3,0.1
		c-0.3,0.2-0.4,0.5-0.4,0.8v4.1v3v0.7c0,0.4,0.3,0.8,0.7,0.9h2c0-2.7,2.2-5,5-5c0.6,0,1.1,0.1,1.6,0.3c0,0,0,0,0,0
		c1.9,0.7,3.3,2.4,3.3,4.5c0,0.1,0,0.1,0,0.2h2.1c0.4-0.1,0.6-0.5,0.6-0.9v-7.9C508.5,306.6,508.1,306.2,507.6,306.2"/>
	<path clip-path="url(#SVGID_20_)" fill="#FFFFFF" d="M503,313c-0.6-0.4-1.3-0.7-2.1-0.7c-2,0-3.6,1.6-3.6,3.5c0,2,1.6,3.5,3.6,3.5
		c2,0,3.6-1.6,3.6-3.5C504.5,314.7,503.9,313.6,503,313"/>
	<path clip-path="url(#SVGID_20_)" fill="#FFFFFF" d="M517.7,273.2C517.7,273,517.7,273,517.7,273.2 M517.7,273.5
		C517.7,273.5,517.7,273.5,517.7,273.5C517.7,273.5,517.7,273.5,517.7,273.5 M511.4,277.6l-5.4-3.2c0,0-5.5,3.2-5.5,3.2l0,0
		c0,0.3,0,0.6,0,0.9v14.6c-7.7-3.1-15.1-9.7-16.2-18.3l5.2,3.1l5.7-3.4c1.8,1.1,3.5,2.1,5.3,3.2v-5.7l0,0l-5.3-3.2l-5.7,3.4l-4.9-3
		c1.6-7.2,8.2-12.5,15.9-12.7v15.4c1.8-1.1,3.6-2.2,5.4-3.3l5.5,3.3l5.7-3.4c0.5,1.7,0.7,3.6,0.5,5.4
		C515.5,275.1,513.5,276.3,511.4,277.6 M501.9,302.7v-8.9c2.7-1.2,5.4-2.7,7.8-4.7L501.9,302.7z M499.9,302.8l-7.7-13.5
		c2.4,1.9,5.1,3.4,7.8,4.5v8.9H499.9z M517.8,268l-0.1-0.3c-2.2-7-8.8-11.9-16.4-12v0h-0.9v0c-8,0.2-14.9,5.6-16.7,13.1
		c0,0-0.1,0.6-0.2,0.9c-0.3,1.7-0.3,3.8-0.2,4.5l0,0c0.3,3.5,1.6,6.8,3.6,9.6l12.1,21h3.6l12.7-21.9c-0.1,0.1-0.4,0.6-0.6,0.9
		c1.9-2.8,3.3-6,3.7-9.6l0,0c0-0.3,0-0.8,0-0.8C518.5,271.6,518.3,269.7,517.8,268"/>
	<path clip-path="url(#SVGID_20_)" fill="#020202" d="M87.8,105.5l-5.5,9.6h-1.1l-5.4-9.5c0,0-0.1-0.1-0.1-0.1
		c-1.1-0.9-2.1-1.9-3.1-3.2l8,14h2.4l8.2-14.4C90.1,103.4,88.9,104.5,87.8,105.5"/>
	<path clip-path="url(#SVGID_20_)" fill="#020202" d="M91.1,116.7h-1.3c-0.4,0-0.8,0.4-0.8,0.8v1.1c0,0.4-0.4,0.8-0.8,0.8h-0.8v1
		h2.5h1.2c0.4,0,0.8-0.4,0.8-0.8v-2.1C91.8,117.1,91.5,116.7,91.1,116.7"/>
	<path clip-path="url(#SVGID_20_)" fill="#020202" d="M86.4,122.9V118c0-0.3-0.3-0.6-0.6-0.6h-8.2c0,0-0.1,0-0.1,0
		c-0.3,0.1-0.4,0.3-0.4,0.6v2.5v1.9v0.4c0,0.3,0.2,0.5,0.4,0.5H78c0,0,0.2,0,0.2-0.2c0.1-1.8,1.6-3.3,3.5-3.3c0.4,0,0.8,0.1,1.1,0.2
		c0,0,0,0,0,0c1.3,0.4,2.2,1.6,2.3,3c0,0.2,0.2,0.2,0.2,0.2H86C86.3,123.4,86.4,123.1,86.4,122.9"/>
	<path clip-path="url(#SVGID_20_)" fill="#020202" d="M77,122.9c0,0.3,0.2,0.5,0.4,0.5h0C77.2,123.3,77,123.1,77,122.9"/>
	<path clip-path="url(#SVGID_20_)" fill="#020202" d="M83,121.7c-0.4-0.3-0.8-0.4-1.3-0.4c-1.2,0-2.2,1-2.2,2.2c0,1.2,1,2.2,2.2,2.2
		c1.2,0,2.2-1,2.2-2.2C83.9,122.7,83.5,122.1,83,121.7"/>
	<path clip-path="url(#SVGID_20_)" fill="#020202" d="M78,94.9l3.7,2.2h0l3.7-2.2l3.7,2.2l3.5-2.1c-0.4-5-3.8-9.9-10.9-9.9
		c-7.1,0-10.5,5.3-10.8,9.9l3.5,2.1L78,94.9z"/>
	<path clip-path="url(#SVGID_20_)" fill="#020202" d="M89.1,99l-3.7-2.2L81.7,99h0h0h0L78,96.8L74.3,99l-3.6-2.2
		c0.1,1.4,0.5,2.7,1,3.9v0c0.3,0.8,0.8,1.5,1.2,2.1c0.9,1.3,2,2.4,3.1,3.3c2.1,1.7,4.1,2.7,5.1,3.1c0.3,0.1,0.5,0.2,0.5,0.2v0
		c0,0,0,0,0,0c0,0,0,0,0,0v0c0.1,0,0.3-0.1,0.5-0.2c1-0.4,3.1-1.4,5.1-3.1c1.1-0.9,2.2-2,3.1-3.3c0.5-0.7,0.9-1.4,1.2-2.1v0
		c0.5-1.2,0.9-2.5,1-3.9L89.1,99z"/>
	<path clip-path="url(#SVGID_20_)" fill="#020202" d="M75.6,115.1c-0.5,0-0.8,0.4-0.8,0.9c0,0.1,0,0.2,0,0.3l0.5,2.7
		c-0.1,0-0.1,0-0.2,0.1c-0.4,0.2-0.7,0.7-0.7,1.2c0,0.5,0.3,1,0.7,1.2c0,0,0.1,0,0.2,0.1l-0.5,2.7c0,0.1,0,0.2,0,0.3
		c0,0.5,0.4,0.9,0.8,0.9c0.1,0,0.2,0,0.2-0.3v-3.7v-2.2v-3.7C75.9,115.1,75.7,115.1,75.6,115.1"/>
	<path clip-path="url(#SVGID_20_)" fill="#020202" d="M319,96.8l-5.7,10.1h-1.2l-5.7-10c0,0-0.1-0.1-0.1-0.1c-1.1-0.9-2.3-2-3.2-3.4
		l8.4,14.7h2.5l8.6-15.1C321.5,94.5,320.3,95.8,319,96.8"/>
	<path clip-path="url(#SVGID_20_)" fill="#020202" d="M322.5,108.6h-1.4c-0.5,0-0.8,0.4-0.8,0.8v1.2c0,0.5-0.4,0.8-0.8,0.8h-0.8v1.1
		h2.6h1.2c0.5,0,0.8-0.4,0.8-0.8v-2.3C323.3,108.9,323,108.6,322.5,108.6"/>
	<path clip-path="url(#SVGID_20_)" fill="#020202" d="M317.6,115V110c0-0.3-0.3-0.6-0.6-0.6h-8.7c0,0-0.1,0-0.1,0
		c-0.3,0.1-0.5,0.3-0.5,0.6v2.7v2v0.4c0,0.3,0.2,0.5,0.4,0.6h0.6c0,0,0.2,0,0.2-0.2c0.1-1.9,1.7-3.4,3.6-3.4c0.4,0,0.8,0.1,1.2,0.2
		c0,0,0,0,0,0c1.4,0.5,2.3,1.7,2.5,3.2c0,0.3,0.3,0.3,0.3,0.3h0.6C317.5,115.6,317.6,115.3,317.6,115"/>
	<path clip-path="url(#SVGID_20_)" fill="#020202" d="M307.7,115c0,0.3,0.2,0.6,0.4,0.6h0C307.9,115.5,307.7,115.3,307.7,115"/>
	<path clip-path="url(#SVGID_20_)" fill="#020202" d="M314.1,113.8c-0.4-0.3-0.9-0.5-1.4-0.5c-1.3,0-2.3,1-2.3,2.3
		c0,1.2,1,2.3,2.3,2.3c1.3,0,2.3-1,2.3-2.3C315,114.9,314.6,114.2,314.1,113.8"/>
	<path clip-path="url(#SVGID_20_)" fill="#020202" d="M308.8,85.6l3.9,2.3h0l3.9-2.3l3.9,2.3l3.6-2.2c-0.4-5.3-4-10.4-11.4-10.4
		c-7.4,0-11.1,5.5-11.4,10.4l3.6,2.2L308.8,85.6z"/>
	<path clip-path="url(#SVGID_20_)" fill="#020202" d="M320.5,89.9l-3.9-2.3l-3.9,2.3h0h0h0l-3.9-2.3l-3.9,2.3l-3.8-2.3
		c0.1,1.5,0.5,2.9,1,4.1v0c0.4,0.8,0.8,1.6,1.3,2.3c1,1.4,2.1,2.5,3.3,3.5c2.2,1.8,4.4,2.8,5.4,3.3c0.3,0.1,0.5,0.2,0.6,0.2v0
		c0,0,0,0,0,0c0,0,0,0,0,0v0c0.1,0,0.3-0.1,0.6-0.2c1-0.5,3.2-1.5,5.4-3.3c1.2-1,2.3-2.1,3.3-3.5c0.5-0.7,0.9-1.5,1.3-2.3v0
		c0.5-1.2,0.9-2.6,1-4.1L320.5,89.9z"/>
	<path clip-path="url(#SVGID_20_)" fill="#020202" d="M306.3,106.8c-0.5,0-0.9,0.4-0.9,0.9c0,0.1,0,0.2,0,0.3l0.5,2.8
		c-0.1,0-0.1,0-0.2,0.1c-0.5,0.3-0.8,0.7-0.8,1.3c0,0.6,0.3,1,0.8,1.3c0,0,0.1,0,0.2,0.1l-0.5,2.8c0,0.1,0,0.2,0,0.3
		c0,0.5,0.4,0.9,0.9,0.9c0.1,0,0.3,0,0.3-0.3v-3.8V111v-3.9C306.6,106.9,306.4,106.8,306.3,106.8"/>
	<path clip-path="url(#SVGID_20_)" fill="#020202" d="M114.2,103.1v3.7c0.2,0.4,0.7,0.7,1.5,0.7c1,0,2.1-0.7,2.1-2.1
		c0-1.3-0.9-2.1-2.1-2.3H114.2z M114.2,102.5c1.4,0,3.2-0.2,3.2-1.9c0-1.3-1.1-1.9-3.2-1.9V102.5z M111.5,107.5l1.2-0.3v-8l-1.2-0.4
		v-0.5l3.4,0c2.5,0,3.9,0.7,3.9,2.2c0,1.5-1.4,2.1-2.8,2.3v0c1.7,0.1,3.3,0.8,3.3,2.5c0,1.7-1.6,2.8-4.2,2.7l-3.6-0.1V107.5z"/>
</g>
<polygon fill="#020202" points="132.3,107.3 133.5,105.3 133.9,105.3 133.4,108 127.4,108 127.4,107.5 128.4,107.2 128.4,101.1 
	127.4,100.8 127.4,100.3 131,100.3 131,100.8 129.7,101.1 129.7,107.3 "/>
<polygon fill="#020202" points="146.5,107.3 147.6,105.3 148,105.3 147.6,108 141.5,108 141.5,107.5 142.5,107.2 142.5,101.1 
	141.5,100.8 141.5,100.3 145.1,100.3 145.1,100.8 143.8,101.1 143.8,107.3 "/>
<g>
	<defs>
		<rect id="SVGID_21_" x="0" y="0.6" width="842.1" height="392.4"/>
	</defs>
	<clipPath id="SVGID_22_">
		<use xlink:href="#SVGID_21_"  overflow="visible"/>
	</clipPath>
	<path clip-path="url(#SVGID_22_)" fill="#020202" d="M162.3,104.5c0-2.1-1.1-3.9-2.8-3.9c-1.4,0-2.3,1.2-2.3,3
		c0,1.7,0.8,3.9,2.9,3.9C161.3,107.6,162.3,106.6,162.3,104.5 M163.7,104.1c0,2.4-1.6,4.1-3.9,4.1c-2.3,0-4-1.6-4-4
		c0-2.4,1.6-4.2,4-4.2C162.1,100.1,163.7,101.7,163.7,104.1"/>
	<path clip-path="url(#SVGID_22_)" fill="#020202" d="M177.6,104.5c0-2.1-1.1-3.9-2.8-3.9c-1.4,0-2.3,1.2-2.3,3
		c0,1.7,0.8,3.9,2.9,3.9C176.6,107.6,177.6,106.6,177.6,104.5 M179.1,104.1c0,2.4-1.6,4.1-3.9,4.1c-2.3,0-4-1.6-4-4
		c0-2.4,1.6-4.2,4-4.2C177.4,100.1,179.1,101.7,179.1,104.1"/>
</g>
<polygon fill="#020202" points="193.8,108.1 188.5,102.1 188.5,107.1 189.8,107.5 189.8,108 186.7,108 186.7,107.5 187.7,107.2 
	187.7,101.2 186.7,100.8 186.7,100.3 188.6,100.3 193.5,105.8 193.5,101.2 192.1,100.8 192.1,100.3 195.2,100.3 195.2,100.8 
	194.2,101.1 194.2,106.7 194.2,107.9 "/>
<g>
	<defs>
		<rect id="SVGID_23_" x="0" y="0.6" width="842.1" height="392.4"/>
	</defs>
	<clipPath id="SVGID_24_">
		<use xlink:href="#SVGID_23_"  overflow="visible"/>
	</clipPath>
	<path clip-path="url(#SVGID_24_)" fill="#020202" d="M287.6,135.7v2.4c0.1,0.3,0.5,0.5,1,0.5c0.7,0,1.4-0.5,1.4-1.4
		c0-0.8-0.6-1.3-1.4-1.5H287.6z M287.6,135.3c0.9,0,2.1-0.2,2.1-1.3c0-0.9-0.7-1.2-2.1-1.2V135.3z M285.9,138.5l0.8-0.2v-5.2
		l-0.8-0.2v-0.3l2.2,0c1.7,0,2.5,0.5,2.5,1.4c0,1-0.9,1.4-1.8,1.5v0c1.1,0.1,2.1,0.5,2.1,1.6c0,1.1-1,1.8-2.7,1.8l-2.3,0V138.5z"/>
</g>
<polygon fill="#020202" points="299.4,138.4 300.1,137.1 300.4,137.1 300.1,138.8 296.2,138.8 296.2,138.5 296.9,138.3 296.9,134.4 
	296.2,134.2 296.2,133.8 298.5,133.8 298.5,134.2 297.7,134.3 297.7,138.4 "/>
<polygon fill="#020202" points="308.6,138.4 309.3,137.1 309.6,137.1 309.3,138.8 305.4,138.8 305.4,138.5 306,138.3 306,134.4 
	305.4,134.2 305.4,133.8 307.7,133.8 307.7,134.2 306.9,134.3 306.9,138.4 "/>
<g>
	<defs>
		<rect id="SVGID_25_" x="0" y="0.6" width="842.1" height="392.4"/>
	</defs>
	<clipPath id="SVGID_26_">
		<use xlink:href="#SVGID_25_"  overflow="visible"/>
	</clipPath>
	<path clip-path="url(#SVGID_26_)" fill="#020202" d="M318.9,136.6c0-1.4-0.7-2.5-1.8-2.5c-0.9,0-1.5,0.8-1.5,2
		c0,1.1,0.5,2.5,1.8,2.5C318.2,138.6,318.9,137.9,318.9,136.6 M319.8,136.3c0,1.5-1.1,2.7-2.6,2.7c-1.5,0-2.6-1-2.6-2.6
		c0-1.5,1.1-2.7,2.6-2.7C318.7,133.7,319.8,134.7,319.8,136.3"/>
	<path clip-path="url(#SVGID_26_)" fill="#020202" d="M328.8,136.6c0-1.4-0.7-2.5-1.8-2.5c-0.9,0-1.5,0.8-1.5,2
		c0,1.1,0.5,2.5,1.8,2.5C328.2,138.6,328.8,137.9,328.8,136.6 M329.7,136.3c0,1.5-1.1,2.7-2.6,2.7c-1.5,0-2.6-1-2.6-2.6
		c0-1.5,1.1-2.7,2.6-2.7C328.7,133.7,329.7,134.7,329.7,136.3"/>
</g>
<polygon fill="#020202" points="339.3,138.9 335.9,135 335.9,138.2 336.7,138.5 336.7,138.8 334.7,138.8 334.7,138.5 335.4,138.3 
	335.4,134.4 334.7,134.2 334.7,133.8 336,133.8 339.1,137.4 339.1,134.4 338.2,134.1 338.2,133.8 340.2,133.8 340.2,134.2 
	339.6,134.4 339.6,138 339.6,138.8 "/>
<g>
	<defs>
		<rect id="SVGID_27_" x="0" y="0.6" width="842.1" height="392.4"/>
	</defs>
	<clipPath id="SVGID_28_">
		<use xlink:href="#SVGID_27_"  overflow="visible"/>
	</clipPath>
	<path clip-path="url(#SVGID_28_)" fill="#020202" d="M475.9,141v2.4c0.1,0.3,0.5,0.5,1,0.5c0.7,0,1.4-0.5,1.4-1.4
		c0-0.9-0.6-1.4-1.4-1.5H475.9z M475.9,140.6c0.9,0,2.1-0.2,2.1-1.3c0-0.9-0.7-1.3-2.1-1.2V140.6z M474.1,143.9l0.8-0.2v-5.3
		l-0.8-0.3v-0.3l2.2,0c1.7,0,2.6,0.5,2.6,1.5c0,1-0.9,1.4-1.9,1.5v0c1.1,0.1,2.2,0.5,2.2,1.7c0,1.1-1,1.9-2.8,1.8l-2.4,0V143.9z"/>
</g>
<polygon fill="#020202" points="488,143.8 488.7,142.4 489,142.4 488.7,144.2 484.6,144.2 484.6,143.9 485.3,143.7 485.3,139.6 
	484.6,139.4 484.6,139.1 487,139.1 487,139.4 486.2,139.6 486.2,143.8 "/>
<polygon fill="#020202" points="497.4,143.8 498.1,142.4 498.4,142.4 498.1,144.2 494.1,144.2 494.1,143.9 494.8,143.7 494.8,139.6 
	494.1,139.4 494.1,139.1 496.5,139.1 496.5,139.4 495.6,139.6 495.6,143.8 "/>
<g>
	<defs>
		<rect id="SVGID_29_" x="0" y="0.6" width="842.1" height="392.4"/>
	</defs>
	<clipPath id="SVGID_30_">
		<use xlink:href="#SVGID_29_"  overflow="visible"/>
	</clipPath>
	<path clip-path="url(#SVGID_30_)" fill="#020202" d="M507.9,141.9c0-1.4-0.7-2.6-1.9-2.6c-1,0-1.5,0.8-1.5,2c0,1.1,0.5,2.6,1.9,2.6
		C507.3,144,507.9,143.3,507.9,141.9 M508.9,141.6c0,1.6-1.1,2.8-2.6,2.8c-1.6,0-2.6-1.1-2.6-2.6c0-1.6,1.1-2.8,2.6-2.8
		C507.8,139,508.9,140,508.9,141.6"/>
	<path clip-path="url(#SVGID_30_)" fill="#020202" d="M518.2,141.9c0-1.4-0.7-2.6-1.9-2.6c-1,0-1.5,0.8-1.5,2c0,1.1,0.5,2.6,1.9,2.6
		C517.5,144,518.2,143.3,518.2,141.9 M519.1,141.6c0,1.6-1.1,2.8-2.6,2.8c-1.6,0-2.6-1.1-2.6-2.6c0-1.6,1.1-2.8,2.6-2.8
		C518,139,519.1,140,519.1,141.6"/>
</g>
<polygon fill="#020202" points="529,144.3 525.4,140.3 525.4,143.6 526.3,143.9 526.3,144.2 524.2,144.2 524.2,143.9 524.9,143.7 
	524.9,139.7 524.2,139.4 524.2,139.1 525.5,139.1 528.7,142.7 528.7,139.7 527.9,139.4 527.9,139.1 529.9,139.1 529.9,139.4 
	529.2,139.6 529.2,143.4 529.2,144.2 "/>
<g>
	<defs>
		<rect id="SVGID_31_" x="0" y="0.6" width="842.1" height="392.4"/>
	</defs>
	<clipPath id="SVGID_32_">
		<use xlink:href="#SVGID_31_"  overflow="visible"/>
	</clipPath>
	<path clip-path="url(#SVGID_32_)" fill="#020202" d="M669.9,163.4v3.1c0.2,0.3,0.6,0.6,1.3,0.6c0.9,0,1.8-0.6,1.8-1.8
		c0-1.1-0.8-1.7-1.8-1.9H669.9z M669.9,162.9c1.1,0,2.7-0.2,2.7-1.6c0-1.1-0.9-1.6-2.7-1.6V162.9z M667.6,167.1l1-0.3V160l-1-0.3
		v-0.4l2.8,0c2.2,0,3.3,0.6,3.3,1.9c0,1.3-1.1,1.8-2.4,1.9v0c1.4,0.1,2.8,0.7,2.8,2.1c0,1.4-1.3,2.4-3.5,2.3l-3-0.1V167.1z"/>
</g>
<polygon fill="#020202" points="685.2,167 686.2,165.2 686.6,165.2 686.1,167.5 681,167.5 681,167.1 681.9,166.9 681.9,161.7 
	681,161.4 681,161 684,161 684,161.4 683,161.7 683,167 "/>
<polygon fill="#020202" points="697.2,167 698.1,165.2 698.5,165.2 698.1,167.5 693,167.5 693,167.1 693.8,166.9 693.8,161.7 
	693,161.4 693,161 696,161 696,161.4 694.9,161.7 694.9,167 "/>
<g>
	<defs>
		<rect id="SVGID_33_" x="0" y="0.6" width="842.1" height="392.4"/>
	</defs>
	<clipPath id="SVGID_34_">
		<use xlink:href="#SVGID_33_"  overflow="visible"/>
	</clipPath>
	<path clip-path="url(#SVGID_34_)" fill="#020202" d="M710.6,164.6c0-1.8-0.9-3.3-2.4-3.3c-1.2,0-1.9,1-1.9,2.6
		c0,1.4,0.7,3.3,2.4,3.3C709.7,167.2,710.6,166.4,710.6,164.6 M711.8,164.2c0,2-1.4,3.5-3.3,3.5c-2,0-3.4-1.3-3.4-3.3
		c0-2,1.4-3.5,3.4-3.5C710.4,160.9,711.8,162.2,711.8,164.2"/>
	<path clip-path="url(#SVGID_34_)" fill="#020202" d="M723.5,164.6c0-1.8-0.9-3.3-2.4-3.3c-1.2,0-1.9,1-1.9,2.6
		c0,1.4,0.7,3.3,2.4,3.3C722.7,167.2,723.5,166.4,723.5,164.6 M724.8,164.2c0,2-1.4,3.5-3.3,3.5c-2,0-3.4-1.3-3.4-3.3
		c0-2,1.4-3.5,3.4-3.5C723.4,160.9,724.8,162.2,724.8,164.2"/>
</g>
<polygon fill="#020202" points="737.3,167.6 732.7,162.6 732.7,166.8 733.8,167.1 733.8,167.5 731.2,167.5 731.2,167.1 732.1,166.9 
	732.1,161.8 731.2,161.4 731.2,161 732.9,161 737,165.6 737,161.8 735.8,161.4 735.8,161 738.4,161 738.4,161.4 737.6,161.7 
	737.6,166.5 737.6,167.5 "/>
<g>
	<defs>
		<rect id="SVGID_35_" x="0" y="0.6" width="842.1" height="392.4"/>
	</defs>
	<clipPath id="SVGID_36_">
		<use xlink:href="#SVGID_35_"  overflow="visible"/>
	</clipPath>
	<path clip-path="url(#SVGID_36_)" fill="#020202" d="M721.7,57.4l-6.2,3.8l-6.2-3.8l-6.2,3.8V90c0,0,0.2-0.1,0.5-0.2
		c0.3-0.1,0.6-0.3,1.1-0.5c0.5-0.2,1.2-0.5,1.9-0.9c0.7-0.3,1.4-0.7,2.3-1.2c7.9-4.2,21.3-13.6,24-29.1l-4.9,2.9L721.7,57.4z"/>
	<path clip-path="url(#SVGID_36_)" fill="#020202" d="M709.2,48.3l6.2,3.8l6.2-3.8l6.2,3.8L733,49c-1.9-14.3-14.6-25.4-30-25.4V52
		L709.2,48.3z"/>
	<path clip-path="url(#SVGID_36_)" fill="#020202" d="M684.1,57.4l6.3,3.8l6.3-3.8l6.3,3.8V52l-6.3-3.8l-6.3,3.8l-6.3-3.8l-6.3,3.8
		l-5.2-3.1c-0.2,3.2-0.1,7.2,0.2,9.4l4.9,3L684.1,57.4z"/>
	<path clip-path="url(#SVGID_36_)" fill="#020202" d="M703,111.8l0.4-0.2l-24.9-41.9l-0.4,0.2l-0.2,0.5c0,0,9.5,3.6,25,3.6
		c15.5,0,24.8-3.6,24.8-3.6l-0.2-0.5l-0.4-0.2l-24.6,41.9L703,111.8l0.4-0.2L703,111.8l0.4,0.2L728,70.2c0.1-0.2,0.1-0.4,0-0.6
		c-0.1-0.2-0.4-0.2-0.5-0.1l0,0c-0.2,0.1-9.3,3.5-24.4,3.5c-7.7,0-13.9-0.9-18.1-1.8c-2.1-0.4-3.8-0.9-4.9-1.2
		c-0.6-0.2-1-0.3-1.3-0.4c-0.1-0.1-0.2-0.1-0.3-0.1c0,0-0.1,0-0.1,0l0,0l0,0c-0.2-0.1-0.4,0-0.5,0.1c-0.1,0.2-0.2,0.4,0,0.6
		l24.9,41.9c0.1,0.1,0.2,0.2,0.4,0.2c0.2,0,0.3-0.1,0.4-0.2L703,111.8z"/>
	<path clip-path="url(#SVGID_36_)" fill="#020202" d="M686.5,72.4l16.1,39.6c0.1,0.2,0.4,0.4,0.6,0.3c0.2-0.1,0.4-0.4,0.3-0.6
		l-16.1-39.6c-0.1-0.2-0.4-0.4-0.6-0.3C686.5,71.9,686.4,72.2,686.5,72.4"/>
	<path clip-path="url(#SVGID_36_)" fill="#020202" d="M695.4,73.3l7.1,38.6c0,0.3,0.3,0.4,0.6,0.4c0.3,0,0.4-0.3,0.4-0.6l-7.1-38.6
		c0-0.3-0.3-0.4-0.6-0.4C695.5,72.8,695.3,73,695.4,73.3"/>
	<path clip-path="url(#SVGID_36_)" fill="#020202" d="M709.7,73.1l-7.1,38.6c0,0.3,0.1,0.5,0.4,0.6c0.3,0.1,0.5-0.1,0.6-0.4
		l7.1-38.6c0-0.3-0.1-0.5-0.4-0.6C710,72.7,709.7,72.9,709.7,73.1"/>
	<path clip-path="url(#SVGID_36_)" fill="#020202" d="M718.7,72.1l-16.1,39.6c-0.1,0.2,0,0.5,0.3,0.6c0.2,0.1,0.5,0,0.6-0.3
		l16.1-39.6c0.1-0.2,0-0.5-0.3-0.6C719,71.7,718.8,71.8,718.7,72.1"/>
	<path clip-path="url(#SVGID_36_)" fill="#020202" d="M728.9,120.8c-1.1,0-2-0.9-2-2c0-1.1,0.9-2,2-2c1.1,0,2,0.9,2,2
		C730.9,119.9,730,120.8,728.9,120.8 M730.9,114.9h-4c-1.1,0-2,0.9-2,2v1.7v2.5c0,1.1-0.9,2-2,2h-6v0.8h10.3h3.7c1.1,0,2-0.9,2-2
		v-5.1C732.9,115.7,732,114.9,730.9,114.9"/>
	<path clip-path="url(#SVGID_36_)" fill="#020202" d="M714.6,113.8h-10.4c0,0,0,0,0,0h-12.7c-0.7,0-1.3,0.6-1.3,1.3V129
		c0,0.7,0.6,1.3,1.3,1.3h3c0-0.4,0-0.7,0.1-1.1h-3.1c-0.1,0-0.3-0.1-0.3-0.3v-13.9c0-0.1,0.1-0.2,0.3-0.2H703v7.1
		c4.8,0,8.6,3.9,8.6,8.6h2.9c0.9,0,1.6-0.7,1.6-1.6v-13.6C716.2,114.6,715.5,113.8,714.6,113.8"/>
	<path clip-path="url(#SVGID_36_)" fill="#020202" d="M684.9,134.7c-0.4,0-0.8-0.6-0.8-2.2c0-2.3,0.7-5.7,0.7-9h0.2h0.2
		c0,3.3,0.7,6.8,0.7,9C685.7,134.1,685.3,134.7,684.9,134.7"/>
	<path clip-path="url(#SVGID_36_)" fill="#020202" d="M684.9,112.2c-0.4,0-0.8,0.6-0.8,2.2c0,2.3,0.7,5.7,0.7,9h0.2h0.2
		c0-3.3,0.7-6.8,0.7-9C685.7,112.8,685.3,112.2,684.9,112.2"/>
	<path clip-path="url(#SVGID_36_)" fill="#020202" d="M683.9,123.6c0,1-0.1,1.8-0.9,1.8c-0.8,0-1.9-0.8-1.9-1.8c0-1,1.1-1.8,1.9-1.8
		C683.8,121.8,683.9,122.6,683.9,123.6"/>
	<path clip-path="url(#SVGID_36_)" fill="#020202" d="M709.1,130.6c0,3.4-2.7,6.1-6.1,6.1c-3.4,0-6.1-2.7-6.1-6.1
		c0-3.4,2.7-6.1,6.1-6.1C706.4,124.5,709.1,127.3,709.1,130.6"/>
	<path clip-path="url(#SVGID_36_)" fill="#020202" d="M711.7,130.6h-0.5c0,2.3-0.9,4.3-2.4,5.8c-1.5,1.5-3.5,2.4-5.8,2.4
		c-2.3,0-4.3-0.9-5.8-2.4c-1.5-1.5-2.4-3.5-2.4-5.8c0-2.3,0.9-4.3,2.4-5.8c1.5-1.5,3.5-2.4,5.8-2.4c2.3,0,4.3,0.9,5.8,2.4
		c1.5,1.5,2.4,3.5,2.4,5.8H711.7h0.5c0-5-4.1-9.1-9.2-9.1s-9.2,4.1-9.2,9.1c0,5.1,4.1,9.1,9.2,9.1s9.2-4.1,9.2-9.1H711.7z"/>
</g>
<rect x="685.9" y="123" fill="#020202" width="3.1" height="1"/>
<g>
	<path fill="#020202" d="M702.9,89c-0.3-0.1-25.3-9.4-29-30.9c0-0.3-0.3-0.5-0.6-0.4c-0.3,0.1-0.5,0.3-0.4,0.6
		c3.8,22.1,29.4,31.6,29.7,31.7c0.1,0,0.1,0,0.2,0c0.2,0,0.4-0.1,0.5-0.4C703.3,89.4,703.2,89.1,702.9,89"/>
	<path fill="#020202" d="M702.7,23.6c-15.2,0-28.2,10.9-30.1,25.4c0,0.3,0.2,0.6,0.5,0.6c0,0,0,0,0.1,0c0.3,0,0.5-0.2,0.5-0.5
		c1.8-14,14.3-24.5,29-24.5c0.3,0,0.5-0.2,0.5-0.5C703.3,23.8,703,23.6,702.7,23.6"/>
	<path fill="#020202" d="M733,48.5c0-0.3-0.3-0.5-0.6-0.5c-0.3,0-0.5,0.3-0.5,0.6c0.2,1.5,0.3,2.8,0.3,4c0,1.5-0.1,3-0.3,4.4
		c0,0.2-0.2,0.7-0.3,1.2c-0.1,0.4-0.2,0.8-0.2,0.9c-0.1,0.3,0.1,0.6,0.4,0.6c0,0,0.1,0,0.1,0c0.3,0,0.5-0.2,0.5-0.4
		c0-0.2,0.1-0.5,0.2-0.9c0.1-0.6,0.2-1,0.3-1.3c0.2-1.5,0.3-3,0.3-4.6C733.3,51.4,733.2,50.1,733,48.5"/>
	<path fill="#020202" d="M515.9,108.8h-2.1c-0.7,0-1.3,0.6-1.3,1.3v1.8c0,0.7-0.6,1.3-1.3,1.3h-1.7v1.7h4.4h1.9
		c0.7,0,1.3-0.6,1.3-1.3v-3.5C517.2,109.4,516.7,108.8,515.9,108.8"/>
	<path fill="#020202" d="M491,115.8c0.3,0.2,1,0.3,1,0.3v-4c0,0-0.7,0.1-1,0.3c-0.6,0.3-1,1-1,1.7C490,114.8,490.4,115.4,491,115.8"
		/>
	<path fill="#020202" d="M492,116.8l-0.7-0.2l-0.8,4.5c0,0.1-0.1,0.2-0.1,0.4c0,0.7,0.5,1.2,1.1,1.2c0.6,0,1.1-0.5,1.1-1.2
		c0-0.1,0-0.2-0.1-0.4L492,116.8z"/>
	<path fill="#020202" d="M491.7,105.4c-0.6,0-1.1,0.5-1.1,1.2c0,0.1,0,0.2,0.1,0.4l0.8,4.5l0.7-0.2l0.7-4.3c0-0.1,0.1-0.2,0.1-0.4
		C492.8,106,492.3,105.4,491.7,105.4"/>
	<path fill="#020202" d="M507.6,110h-13.4c-0.1,0-0.1,0-0.2,0c-0.1,0-0.2,0.1-0.3,0.1c-0.3,0.2-0.4,0.5-0.4,0.8v4.1v3v0.7
		c0,0.4,0.3,0.8,0.7,0.9h2c0-2.7,2.2-5,5-5c0.6,0,1.1,0.1,1.6,0.3c0,0,0,0,0,0c1.9,0.7,3.3,2.4,3.3,4.5c0,0.1,0,0.1,0,0.2h2.1
		c0.4-0.1,0.6-0.5,0.6-0.9V111C508.5,110.4,508.1,110,507.6,110"/>
	<path fill="#020202" d="M503,116.9c-0.6-0.4-1.3-0.7-2.1-0.7c-2,0-3.6,1.6-3.6,3.5c0,2,1.6,3.5,3.6,3.5c2,0,3.6-1.6,3.6-3.5
		C504.5,118.5,503.9,117.5,503,116.9"/>
	<path fill="#020202" d="M517.7,77.1C517.7,76.9,517.7,76.8,517.7,77.1 M517.7,77.3C517.7,77.3,517.7,77.4,517.7,77.3
		C517.7,77.4,517.7,77.3,517.7,77.3 M511.4,81.5l-5.4-3.2c0,0-5.5,3.2-5.5,3.2l0,0c0,0.3,0,0.6,0,0.9v14.6
		c-7.7-3.1-15.1-9.7-16.2-18.3l5.2,3.1l5.7-3.4c1.8,1.1,3.5,2.1,5.3,3.2v-5.7l0,0l-5.3-3.2l-5.7,3.4l-4.9-3
		c1.6-7.2,8.2-12.5,15.9-12.7v15.4c1.8-1.1,3.6-2.2,5.4-3.3l5.5,3.3l5.7-3.4c0.5,1.7,0.7,3.6,0.5,5.4
		C515.5,78.9,513.5,80.2,511.4,81.5 M501.9,106.6v-8.9c2.7-1.2,5.4-2.7,7.8-4.7L501.9,106.6z M499.9,106.6l-7.7-13.5
		c2.4,1.9,5.1,3.4,7.8,4.5v8.9H499.9z M517.8,71.9l-0.1-0.3c-2.2-7-8.8-11.9-16.4-12v0h-0.9v0c-8,0.2-14.9,5.6-16.7,13.1
		c0,0-0.1,0.6-0.2,0.9c-0.3,1.7-0.3,3.8-0.2,4.5l0,0c0.3,3.5,1.6,6.8,3.6,9.6l12.1,21h3.6l12.7-21.9c-0.1,0.1-0.4,0.6-0.6,0.9
		c1.9-2.8,3.3-6,3.7-9.6l0,0c0-0.3,0-0.8,0-0.8C518.5,75.4,518.3,73.5,517.8,71.9"/>
	<rect x="0.1" y="0.7" fill="none" width="841.9" height="196.1"/>
</g>
</svg>
