<?xml version="1.0" encoding="utf-8"?>
<!-- Generator: Adobe Illustrator 18.0.0, SVG Export Plug-In . SVG Version: 6.00 Build 0)  -->
<!DOCTYPE svg PUBLIC "-//W3C//DTD SVG 1.1//EN" "http://www.w3.org/Graphics/SVG/1.1/DTD/svg11.dtd">
<svg version="1.1" id="Layer_1" xmlns="http://www.w3.org/2000/svg" xmlns:xlink="http://www.w3.org/1999/xlink" x="0px" y="0px"
	 viewBox="287.8 936.1 280 280" enable-background="new 287.8 936.1 280 280" xml:space="preserve">
<polyline fill="#17A666" points="567.8,1216.1 286.8,1216.1 286.8,936.1 567.8,936.1 567.8,1216.1 "/>
<path fill="#FFEB00" d="M381.8,1047.8c0-1.8,2.6-3.6,9.5-3.6c9.8,0,24.8,2.9,39.4,2.9v0.7v0.7c-14.6,0-29.5,2.9-39.4,2.9
	C384.4,1051.4,381.8,1049.6,381.8,1047.8"/>
<path fill="#FFEB00" d="M479.6,1047.8c0-1.8-2.6-3.6-9.5-3.6c-9.8,0-24.8,2.9-39.4,2.9v0.7v0.7c14.6,0,29.5,2.9,39.4,2.9
	C477.1,1051.4,479.6,1049.6,479.6,1047.8"/>
<polygon fill="#FFEB00" points="429.3,1053.3 429.3,1050 432.2,1050 432.2,1053.3 "/>
<path fill="#F59C1E" d="M430.7,1033.5c-4.8,0-7.1,6.2-7.1,9.8c0,1.7,1.2,2.4,7.1,2.4V1033.5L430.7,1033.5z"/>
<path fill="#F59C1E" d="M437.8,1043.2c0-3.5-2.3-9.8-7.1-9.8v12.2C436.6,1045.6,437.8,1045,437.8,1043.2"/>
<path fill="#F59C1E" d="M472.4,1079.8l0-0.2c0-0.2,0-0.3,0-0.5l0-0.1c0-0.2,0-0.4,0-0.6l0-0.1c0-0.1,0-0.3,0-0.4l0-0.1
	c0-0.2,0-0.4,0-0.5l0-0.1c0-0.2,0-0.3,0-0.5l0-0.1c0-0.2,0-0.3,0-0.5l0,0c0-0.2,0-0.3,0-0.5l0-0.1c0-0.1,0-0.3,0-0.4l0-0.1
	c0-0.2,0-0.3,0-0.5l0-0.1c0-0.1,0-0.3,0-0.4l0-0.1c0-0.2,0-0.3-0.1-0.5l0,0c0-0.1,0-0.3-0.1-0.4l0-0.1c0-0.1,0-0.3-0.1-0.4l0-0.1
	c0-0.2-0.1-0.3-0.1-0.5l0-0.1c0-0.1,0-0.2-0.1-0.4l0-0.1c0-0.1-0.1-0.3-0.1-0.4l0-0.1c0-0.1-0.1-0.2-0.1-0.4l0-0.1
	c0-0.1-0.1-0.3-0.1-0.4l0,0c0-0.1-0.1-0.3-0.1-0.4l0-0.1c0-0.1-0.1-0.2-0.1-0.3l0-0.1c0-0.1-0.1-0.3-0.1-0.4l0-0.1l-0.1-0.3l0-0.1
	c0-0.1-0.1-0.3-0.1-0.4l0-0.1c0-0.1-0.1-0.2-0.1-0.3l0-0.1c0-0.1-0.1-0.2-0.2-0.3l0,0c-0.1-0.1-0.1-0.2-0.2-0.4l0-0.1l-0.1-0.3
	l0-0.1c-0.1-0.1-0.1-0.2-0.2-0.3l0-0.1l-0.2-0.3l0-0.1c-0.1-0.1-0.1-0.2-0.2-0.3l0,0l-0.2-0.3l-0.1-0.1l-0.2-0.3l0,0l-0.2-0.3
	l-0.1-0.1l-0.2-0.2l-0.1-0.1l-0.3-0.3l-0.1-0.1l-0.2-0.2l-0.1-0.1l-0.3-0.3l0,0l-0.3-0.3l-0.1-0.1l-0.3-0.2l0,0l-0.3-0.3l-0.1-0.1
	l-0.3-0.2l-0.1-0.1c-0.1-0.1-0.2-0.2-0.3-0.2l-0.1,0l-0.3-0.2l-0.1-0.1c-0.1-0.1-0.2-0.2-0.3-0.2l0,0c-0.1-0.1-0.2-0.1-0.4-0.2
	l-0.1-0.1l-0.3-0.2l-0.1,0c-0.1-0.1-0.2-0.1-0.4-0.2l-0.1,0l-0.3-0.2l-0.1-0.1c-0.1-0.1-0.3-0.1-0.4-0.2l-0.1,0
	c-0.1-0.1-0.2-0.1-0.4-0.2l-0.1-0.1c-0.1-0.1-0.3-0.1-0.4-0.2l0,0c-0.1-0.1-0.3-0.1-0.4-0.2l-0.1,0c-0.1,0-0.2-0.1-0.4-0.1l-0.1,0
	c-0.2-0.1-0.3-0.1-0.5-0.2l-0.1,0c-0.1,0-0.3-0.1-0.4-0.1l-0.1,0c-0.2-0.1-0.3-0.1-0.5-0.2l0,0c-0.2,0-0.3-0.1-0.5-0.1l-0.1,0
	c-0.1,0-0.3-0.1-0.4-0.1l-0.1,0c-0.2,0-0.3-0.1-0.5-0.1l-0.1,0c-0.1,0-0.3-0.1-0.4-0.1l-0.1,0c-0.2,0-0.4-0.1-0.5-0.1l-0.1,0
	c-0.2,0-0.3-0.1-0.5-0.1l-0.2,0c-0.2,0-0.4-0.1-0.6-0.1l0,0c-5.7-1.1-13.1-1.6-22.7-1.6c-33.1,0-40.2,5.5-40.2,25.2
	s7.1,25.2,40.2,25.2s40.2-5.5,40.2-25.2C472.4,1080.2,472.4,1080,472.4,1079.8"/>
<path fill="#FFEB00" d="M433.4,1055.2c-0.9,0-1.8,0-2.7,0c-3.2,0-17.7,0-22.8,1.9c0.1,20.5,1.9,21.5,22.8,21.5c0.9,0,1.8,0,2.7,0
	c18.8,0,20.4-1,20.4-22C448.7,1055.6,441.9,1055.2,433.4,1055.2"/>
<g>
	<defs>
		<path id="SVGID_1_" d="M430.7,1153c-14.8,0-26.7-1.4-26.7-3s12-3,26.7-3c14.8,0,26.7,1.4,26.7,3
			C457.5,1151.7,445.5,1153,430.7,1153"/>
	</defs>
	<clipPath id="SVGID_2_">
		<use xlink:href="#SVGID_1_"  overflow="visible"/>
	</clipPath>
	<rect x="404" y="1147" clip-path="url(#SVGID_2_)" fill="#0C8947" width="53.5" height="6.1"/>
</g>
<path fill="#FFEB00" d="M444.7,1114.3c-9.3,4.9-12,0.7-12.5-6.7h-1.5v5.3c0,13,7.8,21.2,17.4,21.2c10.5,0,13.9-6.8,13.9-12.3
	C462.1,1112.9,454.4,1109.2,444.7,1114.3L444.7,1114.3z"/>
</svg>
