<?xml version="1.0" encoding="utf-8"?>
<!-- Generator: Adobe Illustrator 18.0.0, SVG Export Plug-In . SVG Version: 6.00 Build 0)  -->
<!DOCTYPE svg PUBLIC "-//W3C//DTD SVG 1.1//EN" "http://www.w3.org/Graphics/SVG/1.1/DTD/svg11.dtd">
<svg version="1.1" id="Layer_1" xmlns="http://www.w3.org/2000/svg" xmlns:xlink="http://www.w3.org/1999/xlink" x="0px" y="0px"
	 viewBox="-0.2 628.6 280 280" enable-background="new -0.2 628.6 280 280" xml:space="preserve">
<polygon fill="#3C0091" points="-0.2,908.6 279.8,908.6 279.8,628.6 -0.2,628.6 "/>
<path fill="#006B87" d="M173.7,701c-10-10.6-23-16.4-36.7-16.4c-0.5,0-1,0.4-1,1v49.8c0,0.5,0.4,1,1,1c10.9,0,28.9,3.5,30.9,5.2
	c0.4,0.3,0.9,0.3,1.3,0c2.2-1.9,5.9-3,9.9-3c4,0,7.8,1.2,10,3.1c0.2,0.2,0.4,0.2,0.6,0.2c0.1,0,0.3,0,0.4-0.1
	c0.4-0.2,0.6-0.5,0.5-0.9C189.6,725.6,183.6,711.5,173.7,701L173.7,701z"/>
<path fill="#006B87" d="M189.3,739.6c-0.4-0.2-0.9-0.1-1.2,0.3l-41.6,75.9c-0.2,0.4-0.1,0.9,0.3,1.2c0.1,0.1,0.3,0.1,0.4,0.1
	c0.3,0,0.6-0.2,0.8-0.4l41.6-75.9C189.8,740.4,189.7,739.8,189.3,739.6L189.3,739.6z"/>
<path fill="#006B87" d="M168,739.5c-0.4-0.2-0.9,0.1-1.1,0.5l-26,75.3c-0.2,0.4,0.1,0.9,0.5,1.1l0.3,0c0.4,0,0.7-0.2,0.8-0.6
	l26-75.3C168.7,740.2,168.5,739.7,168,739.5L168,739.5z"/>
<path fill="#006B87" d="M106.5,740.6c-0.2-0.4-0.6-0.7-1.1-0.5c-0.4,0.2-0.7,0.6-0.5,1.1l26,75.3c0.1,0.4,0.5,0.6,0.8,0.6l0.3,0
	c0.4-0.2,0.7-0.6,0.5-1.1L106.5,740.6L106.5,740.6z"/>
<path fill="#006B87" d="M85.6,740c-0.2-0.4-0.7-0.6-1.2-0.3c-0.4,0.2-0.6,0.7-0.3,1.2l41.6,75.9c0.2,0.3,0.4,0.4,0.8,0.4
	c0.1,0,0.3,0,0.4-0.1c0.4-0.2,0.6-0.7,0.3-1.2L85.6,740L85.6,740z"/>
<path fill="#43A1BA" d="M136.9,684.6c-13.7,0-26.8,5.8-36.7,16.4c-9.9,10.5-15.9,24.6-16.8,39.8c0,0.4,0.2,0.8,0.5,0.9
	c0.1,0.1,0.3,0.1,0.4,0.1c0.2,0,0.5-0.1,0.6-0.2c2.2-1.9,5.9-3.1,10-3.1c4,0,7.7,1.1,9.9,3c0.4,0.3,0.9,0.3,1.3,0
	c1.9-1.7,20-5.2,30.9-5.2c0.5,0,1-0.4,1-1v-49.8C137.9,685.1,137.5,684.6,136.9,684.6L136.9,684.6z"/>
<path fill="#006B87" d="M99.2,852c-1.1,0-2.2-1.6-2.2-5.9c0-6.1,1.8-15.3,1.8-24.3h0.5h0.4c0,9,1.8,18.2,1.8,24.3
	C101.5,850.4,100.3,852,99.2,852"/>
<path fill="#006B87" d="M99.2,791.7c-1.1,0-2.2,1.6-2.2,5.9c0,6.1,1.8,15.3,1.8,24.3h0.5h0.4c0-9,1.8-18.2,1.8-24.3
	C101.5,793.3,100.3,791.7,99.2,791.7"/>
<path fill="#148AA8" d="M95.7,826.3c0,0-7.7-0.5-7.7-4.5c0-4.1,7.7-4.5,7.7-4.5V826.3L95.7,826.3z"/>
<path fill="#148AA8" d="M136.4,806.7c-36.4,0-35.3,15.2-35.3,15.2s-1.1,15.2,35.3,15.2c36.4,0,35.3-15.2,35.3-15.2
	S172.8,806.7,136.4,806.7L136.4,806.7z"/>
<path fill="#006B87" d="M171.7,821.9h-35.3h-35.3c0,0-1.1,15.2,35.3,15.2C172.8,837.1,171.7,821.9,171.7,821.9L171.7,821.9z"/>
<path fill="#FFFFFF" d="M120.9,815.9c-3.6,0-6.6,3-6.6,6.6c0,3.6,2.9,6.6,6.6,6.6s6.6-3,6.6-6.6
	C127.5,818.8,124.6,815.9,120.9,815.9L120.9,815.9z"/>
<path fill="#148AA8" d="M120.9,830c-4.2,0-7.6-3.4-7.6-7.6c0-4.2,3.4-7.6,7.6-7.6s7.6,3.4,7.6,7.6C128.5,826.7,125.1,830,120.9,830
	L120.9,830z M120.9,816.9c-3.1,0-5.6,2.5-5.6,5.6c0,3.1,2.5,5.6,5.6,5.6c3.1,0,5.6-2.5,5.6-5.6C126.6,819.4,124,816.9,120.9,816.9
	L120.9,816.9z"/>
<path fill="#148AA8" d="M159.5,701.2c-6.1-10.7-14.1-16.6-22.5-16.6l-0.1,0c-8.4,0-16.4,5.9-22.5,16.6c-5.9,10.4-9.5,24.5-10.1,39.7
	c0,0.3,0.1,0.6,0.4,0.8c0.2,0.1,0.4,0.2,0.6,0.2l0.3,0c14.9-4.8,26-5.5,31.4-5.5l0.1,0c9.4,0,20,1.8,31.3,5.5c0.3,0.1,0.6,0,0.9-0.2
	c0.2-0.2,0.4-0.5,0.4-0.8C169,725.7,165.4,711.6,159.5,701.2L159.5,701.2z"/>
</svg>
