<?xml version="1.0" encoding="utf-8"?>
<!-- Generator: Adobe Illustrator 18.0.0, SVG Export Plug-In . SVG Version: 6.00 Build 0)  -->
<!DOCTYPE svg PUBLIC "-//W3C//DTD SVG 1.1//EN" "http://www.w3.org/Graphics/SVG/1.1/DTD/svg11.dtd">
<svg version="1.1" id="Layer_1" xmlns="http://www.w3.org/2000/svg" xmlns:xlink="http://www.w3.org/1999/xlink" x="0px" y="0px"
	 viewBox="-0.2 9.3 280 280" enable-background="new -0.2 9.3 280 280" xml:space="preserve">
<polygon fill="#D0E8EE" points="-0.2,289.3 279.8,289.3 279.8,9.3 -0.2,9.3 "/>
<path fill="#FAA63D" d="M178.5,215.1c0,5.9-5.2,10.6-13.4,10.6c-6,0-3.9,0-9.5,0c0-0.1,0-0.9,0-0.9s3,0,4.3,0c5.8,0,9.5-1.3,6.1-7.6
	c-3.2-5.9-0.9-10.6,4.8-10.6C174.2,206.6,178.5,208.8,178.5,215.1L178.5,215.1z"/>
<path fill="#F59C1E" d="M193.1,122.3c0,48.6-56.8,69.2-56.8,69.2s-56.8-20.2-56.8-69.2c0-29.7,25.4-53.7,56.8-53.7
	C167.6,68.6,193.1,92.6,193.1,122.3L193.1,122.3z"/>
<path fill="#FFEB00" d="M136.2,68.6c31.4,0,56.8,24.1,56.8,53.7c0,48.6-56.8,69.2-56.8,69.2L136.2,68.6L136.2,68.6z"/>
<path fill="#F58533" d="M101.1,131.2l11.7,7l11.7-7l11.7,7v-16.9l-11.7-7l-11.7,7l-11.7-7l-11.7,7l-9.6-5.7
	c-0.3,2.2-0.5,4.5-0.5,6.8c0,3.6,0.3,7.1,0.9,10.4l9.2,5.5L101.1,131.2L101.1,131.2z"/>
<path fill="#FCBD2E" d="M192.6,115.5l-9.6,5.7l-11.7-7l-11.7,7l-11.7-7l-11.7,7v16.9l11.7-7l11.7,7l11.7-7l11.7,7l9.1-5.5
	c0.6-3.3,0.9-6.8,0.9-10.4C193.1,120,192.9,117.7,192.6,115.5L192.6,115.5z"/>
<polygon fill="#F58533" points="140.1,212.2 138.4,211.9 144.9,160.2 146.6,160.5 "/>
<polygon fill="#F58533" points="148.5,213.4 146.9,212.9 162.5,160.1 164.2,160.6 "/>
<polygon fill="#ED2D32" points="131.9,212.2 125.4,160.5 127.1,160.2 133.6,211.9 "/>
<polygon fill="#ED2D32" points="123.5,213.4 107.8,160.6 109.5,160.1 125.1,212.9 "/>
<path fill="#F58533" d="M181.4,160.6h-45.7c-0.5,0-0.9-0.4-0.9-0.9c0-0.5,0.4-0.9,0.9-0.9h45.7c0.5,0,0.9,0.4,0.9,0.9
	C182.3,160.2,181.9,160.6,181.4,160.6L181.4,160.6z"/>
<polygon fill="#F05447" points="136.2,160.6 91.3,160.6 91.3,158.9 136.2,158.9 "/>
<path fill="#ED2D32" d="M124.6,160.6H91.3c-0.5,0-0.9-0.4-0.9-0.9c0-0.5,0.4-0.9,0.9-0.9h33.3c0.5,0,0.9,0.4,0.9,0.9
	C125.5,160.2,125.1,160.6,124.6,160.6L124.6,160.6z"/>
<path fill="#ED2D32" d="M135.7,210.3c-14.7,0-21.8,3-21.8,13.6c0,10.6,7.2,13.6,21.8,13.6c14.7,0,21.8-3,21.8-13.6
	C157.5,213.3,150.4,210.3,135.7,210.3L135.7,210.3z"/>
<path fill="#F58533" d="M135.9,210.3c0,0,0,0-0.7,0v27.2c0.7,0,0.5,0,0.5,0c14.7,0,22-2.9,22-13.5
	C157.7,213.3,150.6,210.3,135.9,210.3L135.9,210.3z"/>
<path fill="#FFFFFF" d="M141.8,224.3c0,3.3-2.7,6-6.1,6c-3.4,0-6.1-2.7-6.1-6c0-3.3,2.7-6,6.1-6
	C139.1,218.2,141.8,220.9,141.8,224.3L141.8,224.3z"/>
<path fill="#FCBD2E" d="M135.7,231c-3.8,0-6.8-3-6.8-6.7s3.1-6.7,6.8-6.7c3.8,0,6.8,3,6.8,6.7C142.5,228,139.5,231,135.7,231
	L135.7,231z M135.7,218.9c-3,0-5.4,2.4-5.4,5.3c0,2.9,2.4,5.3,5.4,5.3c3,0,5.4-2.4,5.4-5.3S138.7,218.9,135.7,218.9L135.7,218.9z"/>
</svg>
