<?xml version="1.0" encoding="utf-8"?>
<!-- Generator: Adobe Illustrator 18.0.0, SVG Export Plug-In . SVG Version: 6.00 Build 0)  -->
<!DOCTYPE svg PUBLIC "-//W3C//DTD SVG 1.1//EN" "http://www.w3.org/Graphics/SVG/1.1/DTD/svg11.dtd">
<svg version="1.1" id="Layer_1" xmlns="http://www.w3.org/2000/svg" xmlns:xlink="http://www.w3.org/1999/xlink" x="0px" y="0px"
	 viewBox="574.3 628.6 280 280" enable-background="new 574.3 628.6 280 280" xml:space="preserve">
<polygon fill="#FFEB00" points="854.3,908.6 574.3,908.6 574.3,628.6 854.3,628.6 "/>
<path fill="#148AA8" d="M707.8,853.9c52.1,0,50.5-15.5,50.5-15.5s1.6-15.5-50.5-15.5"/>
<path fill="#148AA8" d="M707.8,853.9c-52.1,0-50.5-15.5-50.5-15.5s-1.6-15.5,50.5-15.5"/>
<path fill="#006B87" d="M707.8,853.9c52.1,0,50.5-15.5,50.5-15.5h-50.5"/>
<path fill="#006B87" d="M707.8,853.9c-52.1,0-50.5-15.5-50.5-15.5h50.5"/>
<path fill="#FFFFFF" d="M692,838.4c0,2.6-2.1,4.6-4.7,4.6c-2.6,0-4.7-2.1-4.7-4.6c0-2.6,2.1-4.6,4.7-4.6
	C689.9,833.7,692,835.8,692,838.4"/>
<path fill="#FFFFFF" d="M712.9,838.4c0,2.6-2.1,4.6-4.7,4.6c-2.6,0-4.7-2.1-4.7-4.6c0-2.6,2.1-4.6,4.7-4.6
	C710.8,833.7,712.9,835.8,712.9,838.4"/>
<path fill="#FFFFFF" d="M733.8,838.4c0,2.6-2.1,4.6-4.7,4.6c-2.6,0-4.7-2.1-4.7-4.6c0-2.6,2.1-4.6,4.7-4.6
	C731.7,833.7,733.8,835.8,733.8,838.4"/>
<path fill="#5BADC2" d="M759.9,734.7c0,44.3-51.8,63-51.8,63s-51.8-18.4-51.8-63c0-27,23.2-48.9,51.8-48.9
	C736.7,685.8,759.9,707.7,759.9,734.7"/>
<path fill="#148AA8" d="M707.8,685.8c28.6,0,51.8,21.9,51.8,48.9c0,44.3-51.8,63-51.8,63V685.8L707.8,685.8z"/>
<path fill="#148AA8" d="M682.4,734.7c0,44.6,25.7,63,25.7,63v-112C693.9,685.8,682.4,707.7,682.4,734.7"/>
<path fill="#148AA8" d="M733.8,734.7c0-27-11.5-48.9-25.7-48.9v112C708.1,797.8,733.8,779,733.8,734.7"/>
<polyline fill="#FFEB1A" points="669,755 669.1,755 669,755 "/>
<path fill="#0078A6" d="M708.6,819.9l9.3-51.1c0.1-0.4-0.2-0.9-0.7-0.9c-0.5-0.1-0.9,0.2-1,0.7l-9.3,51.1c-0.1,0.4,0.2,0.9,0.7,0.9
	C708.1,820.7,708.5,820.4,708.6,819.9"/>
<path fill="#0078A6" d="M708.5,820.1l25.3-51.1c0.2-0.4,0-0.9-0.4-1.1c-0.4-0.2-0.9,0-1.1,0.4L707,819.4c-0.2,0.4,0,0.9,0.4,1.1
	C707.8,820.7,708.3,820.5,708.5,820.1"/>
<path fill="#0078A6" d="M708.6,819.6l-8.5-51.1c-0.1-0.4-0.5-0.7-1-0.7c-0.5,0.1-0.8,0.5-0.7,0.9l8.5,51.1c0.1,0.4,0.5,0.7,1,0.7
	C708.4,820.5,708.7,820.1,708.6,819.6"/>
<path fill="#0078A6" d="M708.5,819.4L684,768.3c-0.2-0.4-0.7-0.6-1.1-0.4c-0.4,0.2-0.6,0.7-0.4,1.1l24.5,51.1
	c0.2,0.4,0.7,0.6,1.1,0.4C708.5,820.3,708.7,819.8,708.5,819.4"/>
<path fill="#0078A6" d="M708.4,769.4h40.8c0.5,0,0.8-0.4,0.8-0.8c0-0.4-0.4-0.8-0.8-0.8h-40.8c-0.5,0-0.8,0.4-0.8,0.8
	C707.5,769.1,707.9,769.4,708.4,769.4"/>
<path fill="#0078A6" d="M667.5,769.4h40.9c0.5,0,0.8-0.4,0.8-0.8c0-0.4-0.4-0.8-0.8-0.8h-40.9c-0.5,0-0.8,0.4-0.8,0.8
	C666.7,769.1,667,769.4,667.5,769.4"/>
<path fill="#006B87" d="M759.9,838.4c0,0,5.9,8,19,8l-5.5-8.3L759.9,838.4L759.9,838.4z"/>
<path fill="#148AA8" d="M759.9,838.4c0,0,5.9-8.5,19-8.5l-5.5,8.3L759.9,838.4L759.9,838.4z"/>
<path fill="#007D94" d="M708.1,685.8c0.1,0,0.2,0,0.4,0c28.3,0.4,51.1,22.1,51.1,48.9c0,13.2-4.6,24.2-11.1,33.1h0.4
	c6.5-8.9,11.1-19.8,11.1-33.1C759.9,707.7,736.7,685.8,708.1,685.8 M747.6,769.4h-0.4c-7.1,9.1-16.1,15.9-23.7,20.5l-0.2,0.3
	C731,785.6,740.3,778.8,747.6,769.4 M720.9,791.5c-3,1.7-5.7,3.1-7.8,4.1l0,0.2c2.1-1,4.7-2.3,7.7-4L720.9,791.5L720.9,791.5z
	 M711.2,796.4c-1.2,0.5-2.1,0.9-2.7,1.1c-0.2,0.2-0.4,0.3-0.4,0.3s1.1-0.4,3-1.2L711.2,796.4L711.2,796.4z"/>
<path fill="#006B87" d="M708.5,685.8c14,0.4,25.3,22.1,25.3,48.9c0,13.2-2.3,24.2-5.5,33.1h20.1c6.5-8.9,11.1-19.8,11.1-33.1
	C759.5,707.9,736.7,686.2,708.5,685.8 M747.2,769.4h-13.6l-10.2,20.5C731.1,785.3,740.1,778.5,747.2,769.4 M731.8,769.4h-4.1
	c-4.3,11.1-10,18.7-14.2,23.3l-0.5,2.9c2.2-1,4.8-2.4,7.8-4.1L731.8,769.4L731.8,769.4z M711.5,794.8c-1.4,1.4-2.5,2.3-3,2.7
	c0.6-0.2,1.5-0.6,2.7-1.1L711.5,794.8L711.5,794.8z"/>
<path fill="#007D94" d="M708.1,685.8v82h0.2h20c3.2-8.9,5.5-19.8,5.5-33.1c0-26.8-11.3-48.6-25.3-48.9
	C708.4,685.8,708.2,685.8,708.1,685.8 M727.7,769.4h-9.9l-4.2,23.3C717.7,788.2,723.4,780.5,727.7,769.4 M716.1,769.4h-7.7h-0.2
	v28.4c0,0,0.1-0.1,0.4-0.3c0.5-0.4,1.6-1.3,3-2.7L716.1,769.4L716.1,769.4z"/>
<path fill="#006187" d="M717.8,769.4h-1.7l-4.6,25.4l-0.3,1.5l0,0.2c0.5-0.2,1.2-0.5,1.8-0.8l0-0.2l0.5-2.9L717.8,769.4L717.8,769.4
	z"/>
<path fill="#006187" d="M733.6,769.4h-1.8l-10.9,22.1l-0.1,0.3c0.8-0.5,1.7-1,2.6-1.5l0.2-0.3L733.6,769.4L733.6,769.4z"/>
<path fill="#006187" d="M748.8,767.8h-0.4h-20.1h-20c0.5,0,0.8,0.4,0.8,0.8c0,0.4-0.4,0.8-0.8,0.8h7.7h1.7h9.9h4.1h1.8h13.6h0.4
	C748,768.9,748.4,768.3,748.8,767.8"/>
<path fill="#006187" d="M708.4,767.8h-0.2v1.6h0.2c0.5,0,0.8-0.4,0.8-0.8C709.2,768.2,708.8,767.8,708.4,767.8"/>
</svg>
