<?xml version="1.0" encoding="utf-8"?>
<!-- Generator: Adobe Illustrator 18.0.0, SVG Export Plug-In . SVG Version: 6.00 Build 0)  -->
<!DOCTYPE svg PUBLIC "-//W3C//DTD SVG 1.1//EN" "http://www.w3.org/Graphics/SVG/1.1/DTD/svg11.dtd">
<svg version="1.1" id="Layer_1" xmlns="http://www.w3.org/2000/svg" xmlns:xlink="http://www.w3.org/1999/xlink" x="0px" y="0px"
	 viewBox="0 0 557 155.2" enable-background="new 0 0 557 155.2" xml:space="preserve">
<rect x="228.3" y="-0.8" fill="#3C0091" width="100.4" height="155.2"/>
<g>
	<defs>
		<rect id="SVGID_1_" y="-1.1" width="557" height="155.5"/>
	</defs>
	<clipPath id="SVGID_2_">
		<use xlink:href="#SVGID_1_"  overflow="visible"/>
	</clipPath>
	<path clip-path="url(#SVGID_2_)" fill="#ED2D32" d="M234.1,33.5c0.4,0.3,0.8,0.5,1.3,0.5c0.8,0,1.2-0.5,1.2-1.6v-4.5h0.9v4.5
		c0,1.6-0.7,2.4-2,2.4c-0.6,0-1-0.2-1.3-0.4V33.5z"/>
	<path clip-path="url(#SVGID_2_)" fill="#ED2D32" d="M240.8,30.4c-0.9,0-1.4,0.8-1.4,1.8c0,1.1,0.5,1.8,1.4,1.8
		c0.9,0,1.4-0.8,1.4-1.8C242.2,31.2,241.7,30.4,240.8,30.4 M240.8,34.8c-1.4,0-2.3-1.1-2.3-2.6c0-1.5,0.9-2.6,2.3-2.6
		c1.3,0,2.3,1.1,2.3,2.6C243,33.7,242.1,34.8,240.8,34.8"/>
	<path clip-path="url(#SVGID_2_)" fill="#ED2D32" d="M244.2,27.5h0.8v2.9c0.3-0.4,0.8-0.7,1.4-0.7c1.1,0,1.7,0.7,1.7,1.8v3.2h-0.8
		v-3.1c0-0.7-0.3-1.2-1.1-1.2c-0.6,0-1.1,0.4-1.3,0.9v3.3h-0.8V27.5z"/>
	<path clip-path="url(#SVGID_2_)" fill="#ED2D32" d="M249.6,29.8h0.8v0.6c0.3-0.4,0.8-0.7,1.4-0.7c1.1,0,1.7,0.7,1.7,1.8v3.2h-0.8
		v-3.1c0-0.7-0.3-1.2-1.1-1.2c-0.6,0-1.1,0.4-1.3,0.9v3.3h-0.8V29.8z"/>
	<path clip-path="url(#SVGID_2_)" fill="#ED2D32" d="M261.9,33.5v-1.6h-1.5v-0.7h2.3v2.7c-0.7,0.7-1.5,1-2.4,1
		c-1.9,0-3.2-1.4-3.2-3.5c0-2.1,1.4-3.5,3.3-3.5c0.8,0,1.5,0.2,2,0.6v0.9c-0.6-0.5-1.2-0.8-2-0.8c-1.4,0-2.4,1.1-2.4,2.7
		c0,1.6,0.9,2.7,2.3,2.7C260.9,34,261.4,33.9,261.9,33.5"/>
	<path clip-path="url(#SVGID_2_)" fill="#ED2D32" d="M266.5,30.6c-0.1-0.1-0.3-0.1-0.6-0.1c-0.5,0-1,0.3-1.1,0.9v3.3H264v-4.9h0.8
		v0.6c0.2-0.4,0.7-0.7,1.2-0.7c0.2,0,0.4,0,0.5,0.1V30.6z"/>
	<path clip-path="url(#SVGID_2_)" fill="#ED2D32" d="M267.9,31.7h2.5c0-0.7-0.4-1.3-1.2-1.3C268.6,30.4,268.1,30.8,267.9,31.7
		 M267.9,32.4c0,1.1,0.8,1.7,1.6,1.7c0.6,0,1-0.1,1.4-0.5v0.8c-0.4,0.3-0.9,0.4-1.5,0.4c-1.4,0-2.4-1-2.4-2.5c0-1.5,0.9-2.6,2.2-2.6
		c1.3,0,2,1,2,2.4v0.3H267.9z"/>
	<path clip-path="url(#SVGID_2_)" fill="#ED2D32" d="M272.9,31.7h2.5c0-0.7-0.4-1.3-1.2-1.3C273.6,30.4,273.1,30.8,272.9,31.7
		 M272.9,32.4c0,1.1,0.8,1.7,1.6,1.7c0.6,0,1-0.1,1.4-0.5v0.8c-0.4,0.3-0.9,0.4-1.5,0.4c-1.4,0-2.4-1-2.4-2.5c0-1.5,0.9-2.6,2.2-2.6
		c1.3,0,2,1,2,2.4v0.3H272.9z"/>
	<path clip-path="url(#SVGID_2_)" fill="#ED2D32" d="M277.4,29.8h0.8v0.6c0.3-0.4,0.8-0.7,1.4-0.7c1.1,0,1.7,0.7,1.7,1.8v3.2h-0.8
		v-3.1c0-0.7-0.3-1.2-1.1-1.2c-0.6,0-1.1,0.4-1.3,0.9v3.3h-0.8V29.8z"/>
</g>
<polygon fill="#ED2D32" points="234.2,44.2 249.1,44.2 249.1,48.6 244.2,48.6 244.2,60.7 239,60.7 239,48.6 234.2,48.6 "/>
<polygon fill="#ED2D32" points="265.3,44.2 265.3,60.7 260.1,60.7 260.1,54.6 254.8,54.6 254.8,60.7 249.6,60.7 249.6,44.2 
	254.8,44.2 254.8,50.1 260.1,50.1 260.1,44.2 "/>
<polygon fill="#ED2D32" points="279.4,44.2 279.4,48.6 272.1,48.6 272.1,50.2 278.8,50.2 278.8,54.5 272.1,54.5 272.1,56.2 
	279.4,56.2 279.4,60.7 267,60.7 267,44.2 "/>
<polygon fill="#ED2D32" points="234.7,81.9 234.7,65.5 246.9,65.5 246.9,70 239.8,70 239.8,72.3 246.2,72.3 246.2,76.6 239.8,76.6 
	239.8,81.9 "/>
<path fill="#ED2D32" d="M253.3,75.3h2.7l-1.4-3.8L253.3,75.3z M257.5,65.5l6.2,16.4h-5.2l-0.9-2.4h-5.8l-0.9,2.4h-5.1l6.2-16.4
	H257.5z"/>
<g>
	<defs>
		<rect id="SVGID_3_" y="-1.1" width="557" height="155.5"/>
	</defs>
	<clipPath id="SVGID_4_">
		<use xlink:href="#SVGID_3_"  overflow="visible"/>
	</clipPath>
	<path clip-path="url(#SVGID_4_)" fill="#ED2D32" d="M263.3,75.1v-9.6h5.2v9.2c0,1.8,0.9,2.9,2.3,2.9c1.4,0,2.3-1,2.3-2.9v-9.2h5.2
		v9.6c0,4.5-2.9,7.1-7.5,7.1C266.2,82.2,263.3,79.6,263.3,75.1"/>
</g>
<polygon fill="#ED2D32" points="279.9,65.5 285.1,65.5 285.1,77.5 292.2,77.5 292.2,81.9 279.9,81.9 "/>
<polygon fill="#ED2D32" points="290,65.5 304.9,65.5 304.9,69.9 300.1,69.9 300.1,81.9 294.9,81.9 294.9,69.9 290,69.9 "/>
<rect x="234.7" y="86.7" fill="#ED2D32" width="5.2" height="16.4"/>
<polygon fill="#ED2D32" points="256.9,103.2 252.6,103.2 246.6,95 246.6,103.2 241.6,103.2 241.6,86.7 246.5,86.7 251.9,94.4 
	251.9,86.7 256.9,86.7 "/>
<g>
	<defs>
		<rect id="SVGID_5_" y="-1.1" width="557" height="155.5"/>
	</defs>
	<clipPath id="SVGID_6_">
		<use xlink:href="#SVGID_5_"  overflow="visible"/>
	</clipPath>
	<path clip-path="url(#SVGID_6_)" fill="#ED2D32" d="M270.9,91c-1.8,0-3.1,1.5-3.1,4c0,2.5,1.2,4,3.1,4c1.8,0,3.1-1.5,3.1-4
		C274,92.5,272.7,91,270.9,91 M270.9,103.4c-4.9,0-8.3-3.6-8.3-8.5c0-4.9,3.3-8.5,8.3-8.5c4.9,0,8.3,3.6,8.3,8.5
		C279.2,99.9,275.8,103.4,270.9,103.4"/>
	<path clip-path="url(#SVGID_6_)" fill="#ED2D32" d="M280,96.4v-9.6h5.2v9.2c0,1.8,0.9,2.9,2.3,2.9c1.4,0,2.3-1,2.3-2.9v-9.2h5.2
		v9.6c0,4.5-2.9,7.1-7.5,7.1C282.9,103.4,280,100.9,280,96.4"/>
	<path clip-path="url(#SVGID_6_)" fill="#ED2D32" d="M301.8,94.4h2.2c1.3,0,1.8-0.7,1.8-1.7c0-1-0.5-1.7-1.8-1.7h-2.2V94.4z
		 M301.8,98.5v4.7h-5.1V86.7h8c3.6,0,6.2,2.2,6.2,6c0,2.3-1.1,4-2.8,5l3.4,5.5h-5.7l-2.8-4.7H301.8z"/>
	<path clip-path="url(#SVGID_6_)" fill="#ED2D32" d="M234.5,118.8c1.4,0.9,3.5,1.6,5.3,1.6c1.1,0,2.2-0.1,2.2-0.9
		c0-0.5-0.3-0.6-0.9-0.8l-2.5-0.6c-3.1-0.8-4.6-2.3-4.6-5c0-3.5,2.9-5.4,6.6-5.4c2.4,0,4,0.5,5.4,1.2v4.6c-1.6-1-3.2-1.6-5.1-1.6
		c-1,0-1.7,0.2-1.7,0.7c0,0.5,0.3,0.7,0.9,0.8l2.4,0.6c3.3,0.9,4.8,2.6,4.8,5.2c0,3.9-3.3,5.4-7.2,5.4c-2.2,0-4.2-0.6-5.5-1.3V118.8
		z"/>
</g>
<polygon fill="#ED2D32" points="246.8,108 261.7,108 261.7,112.4 256.8,112.4 256.8,124.4 251.7,124.4 251.7,112.4 246.8,112.4 "/>
<path fill="#ED2D32" d="M267,117.8h2.7l-1.4-3.8L267,117.8z M271.1,108l6.2,16.4h-5.2l-0.9-2.4h-5.8l-0.9,2.4h-5.1l6.2-16.4H271.1z"
	/>
<g>
	<defs>
		<rect id="SVGID_7_" y="-1.1" width="557" height="155.5"/>
	</defs>
	<clipPath id="SVGID_8_">
		<use xlink:href="#SVGID_7_"  overflow="visible"/>
	</clipPath>
	<path clip-path="url(#SVGID_8_)" fill="#ED2D32" d="M282.9,115.6h2.2c1.3,0,1.8-0.7,1.8-1.7c0-1-0.5-1.7-1.8-1.7h-2.2V115.6z
		 M282.9,119.7v4.7h-5.1V108h8c3.6,0,6.2,2.2,6.2,6c0,2.3-1.1,4-2.8,5l3.4,5.5h-5.7l-2.8-4.7H282.9z"/>
	<path clip-path="url(#SVGID_8_)" fill="#ED2D32" d="M293,118.8c1.4,0.9,3.5,1.6,5.3,1.6c1.1,0,2.2-0.1,2.2-0.9
		c0-0.5-0.3-0.6-0.9-0.8l-2.5-0.6c-3.1-0.8-4.6-2.3-4.6-5c0-3.5,2.9-5.4,6.6-5.4c2.4,0,4,0.5,5.4,1.2v4.6c-1.6-1-3.2-1.6-5.1-1.6
		c-1,0-1.7,0.2-1.7,0.7c0,0.5,0.3,0.7,0.9,0.8l2.4,0.6c3.3,0.9,4.8,2.6,4.8,5.2c0,3.9-3.3,5.4-7.2,5.4c-2.2,0-4.2-0.6-5.5-1.3V118.8
		z"/>
</g>
<rect x="0" y="-0.8" fill="#ED2D32" width="100.4" height="155.2"/>
<g>
	<defs>
		<rect id="SVGID_9_" y="-1.1" width="557" height="155.5"/>
	</defs>
	<clipPath id="SVGID_10_">
		<use xlink:href="#SVGID_9_"  overflow="visible"/>
	</clipPath>
	<path clip-path="url(#SVGID_10_)" fill="#3C0091" d="M8.8,44.5H7.2v2.5h1.6c0.9,0,1.4-0.5,1.4-1.3C10.2,45,9.7,44.5,8.8,44.5
		 M7.2,47.8v2.7H6.3v-6.8h2.5c1.4,0,2.3,0.7,2.3,2c0,1.3-0.9,2-2.3,2H7.2z"/>
	<path clip-path="url(#SVGID_10_)" fill="#3C0091" d="M14.7,48.8c-0.1-0.4-0.6-0.6-1.1-0.6c-0.6,0-1.2,0.3-1.2,0.9
		c0,0.6,0.6,0.9,1.2,0.9c0.5,0,1-0.2,1.1-0.6V48.8z M14.7,47.3c0-0.6-0.5-1-1.2-1c-0.5,0-1,0.2-1.4,0.4V46c0.3-0.2,0.9-0.4,1.5-0.4
		c1.2,0,1.9,0.6,1.9,1.7v3.3h-0.8v-0.4c-0.2,0.2-0.7,0.5-1.3,0.5c-1,0-1.8-0.6-1.8-1.6c0-0.9,0.8-1.5,1.9-1.5c0.5,0,1,0.2,1.2,0.4
		V47.3z"/>
	<path clip-path="url(#SVGID_10_)" fill="#3C0091" d="M20.9,50.6H20v-0.6c-0.3,0.4-0.8,0.7-1.4,0.7c-1.1,0-1.7-0.7-1.7-1.8v-3.2h0.8
		v3.1c0,0.7,0.3,1.2,1.1,1.2c0.6,0,1.1-0.4,1.2-0.9v-3.3h0.8V50.6z"/>
</g>
<rect x="22.4" y="43.4" fill="#3C0091" width="0.8" height="7.2"/>
<path fill="#3C0091" d="M28.6,47.8h2.2l-1.1-2.9L28.6,47.8z M30.1,43.8l2.7,6.8h-0.9l-0.8-2h-2.8l-0.8,2h-0.9l2.7-6.8H30.1z"/>
<g>
	<defs>
		<rect id="SVGID_11_" y="-1.1" width="557" height="155.5"/>
	</defs>
	<clipPath id="SVGID_12_">
		<use xlink:href="#SVGID_11_"  overflow="visible"/>
	</clipPath>
	<path clip-path="url(#SVGID_12_)" fill="#3C0091" d="M37.6,50.6h-0.8v-0.6c-0.3,0.4-0.8,0.7-1.4,0.7c-1.1,0-1.7-0.7-1.7-1.8v-3.2
		h0.8v3.1c0,0.7,0.3,1.2,1.1,1.2c0.6,0,1.1-0.4,1.2-0.9v-3.3h0.8V50.6z"/>
	<path clip-path="url(#SVGID_12_)" fill="#3C0091" d="M38.7,49.3c0.5,0.4,1,0.7,1.6,0.7c0.5,0,1-0.2,1-0.7c0-0.4-0.3-0.6-0.7-0.7
		L40,48.3c-0.7-0.2-1.2-0.6-1.2-1.4c0-0.9,0.8-1.4,1.7-1.4c0.6,0,1.1,0.2,1.5,0.4v0.9c-0.4-0.3-0.9-0.6-1.5-0.6
		c-0.5,0-0.9,0.2-0.9,0.6c0,0.4,0.3,0.5,0.7,0.7l0.8,0.3c0.7,0.3,1.2,0.7,1.2,1.4c0,0.9-0.8,1.4-1.8,1.4c-0.6,0-1.3-0.2-1.6-0.5
		V49.3z"/>
</g>
<polygon fill="#3C0091" points="44.7,50.6 43.9,50.6 43.9,46.4 42.9,46.4 42.9,45.6 43.9,45.6 43.9,44.4 44.7,44.4 44.7,45.6 
	45.9,45.6 45.9,46.4 44.7,46.4 "/>
<g>
	<defs>
		<rect id="SVGID_13_" y="-1.1" width="557" height="155.5"/>
	</defs>
	<clipPath id="SVGID_14_">
		<use xlink:href="#SVGID_13_"  overflow="visible"/>
	</clipPath>
	<path clip-path="url(#SVGID_14_)" fill="#3C0091" d="M47.3,47.6h2.5c0-0.7-0.4-1.3-1.2-1.3C48,46.3,47.5,46.7,47.3,47.6 M47.3,48.3
		c0,1.1,0.8,1.7,1.6,1.7c0.6,0,1-0.1,1.4-0.5v0.8c-0.4,0.3-0.9,0.4-1.5,0.4c-1.4,0-2.4-1-2.4-2.5c0-1.5,0.9-2.6,2.2-2.6
		c1.3,0,2,1,2,2.4v0.3H47.3z"/>
	<path clip-path="url(#SVGID_14_)" fill="#3C0091" d="M54.3,46.5c-0.1-0.1-0.3-0.1-0.6-0.1c-0.5,0-1,0.3-1.1,0.9v3.3h-0.8v-4.9h0.8
		v0.6c0.2-0.4,0.7-0.7,1.2-0.7c0.2,0,0.4,0,0.5,0.1V46.5z"/>
</g>
<polygon fill="#3C0091" points="15.2,73 11.5,68.4 11.5,76.6 6.4,76.6 6.4,60.1 11.2,60.1 15.2,65.7 19.3,60.1 24.1,60.1 24.1,76.6 
	19,76.6 19,68.4 15.3,73 "/>
<g>
	<defs>
		<rect id="SVGID_15_" y="-1.1" width="557" height="155.5"/>
	</defs>
	<clipPath id="SVGID_16_">
		<use xlink:href="#SVGID_15_"  overflow="visible"/>
	</clipPath>
	<path clip-path="url(#SVGID_16_)" fill="#3C0091" d="M33.4,64.4c-1.8,0-3.1,1.5-3.1,4c0,2.5,1.2,4,3.1,4c1.8,0,3.1-1.5,3.1-4
		C36.5,65.9,35.3,64.4,33.4,64.4 M33.4,76.8c-4.9,0-8.3-3.6-8.3-8.5c0-4.9,3.3-8.5,8.3-8.5s8.3,3.6,8.3,8.5
		C41.7,73.2,38.4,76.8,33.4,76.8"/>
	<path clip-path="url(#SVGID_16_)" fill="#3C0091" d="M50.3,64.4c-1.8,0-3.1,1.5-3.1,4c0,2.5,1.2,4,3.1,4c1.8,0,3.1-1.5,3.1-4
		C53.4,65.9,52.2,64.4,50.3,64.4 M50.3,76.8c-4.9,0-8.3-3.6-8.3-8.5c0-4.9,3.3-8.5,8.3-8.5s8.3,3.6,8.3,8.5
		C58.7,73.2,55.3,76.8,50.3,76.8"/>
</g>
<polygon fill="#3C0091" points="75,76.6 70.7,76.6 64.7,68.3 64.7,76.6 59.7,76.6 59.7,60.1 64.6,60.1 70,67.8 70,60.1 75,60.1 "/>
<g>
	<defs>
		<rect id="SVGID_17_" y="-1.1" width="557" height="155.5"/>
	</defs>
	<clipPath id="SVGID_18_">
		<use xlink:href="#SVGID_17_"  overflow="visible"/>
	</clipPath>
	<path clip-path="url(#SVGID_18_)" fill="#3C0091" d="M13.4,85.7h-1.9V89h1.9c1.3,0,1.9-0.6,1.9-1.7C15.3,86.3,14.7,85.7,13.4,85.7
		 M11.5,93.3v4.5H6.4V81.4h7.7c3.6,0,6.2,2.1,6.2,6c0,3.8-2.5,6-6.2,6H11.5z"/>
</g>
<path fill="#3C0091" d="M26.3,91.2H29l-1.4-3.8L26.3,91.2z M30.5,81.4l6.2,16.4h-5.2l-0.9-2.4h-5.8l-0.9,2.4h-5.1l6.2-16.4H30.5z"/>
<polygon fill="#3C0091" points="37.1,81.4 42.3,81.4 42.3,93.4 49.3,93.4 49.3,97.8 37.1,97.8 "/>
<path fill="#3C0091" d="M57.1,91.2h2.7l-1.4-3.8L57.1,91.2z M61.2,81.4l6.2,16.4h-5.2l-0.9-2.4h-5.8l-0.9,2.4h-5.1l6.2-16.4H61.2z"
	/>
<g>
	<defs>
		<rect id="SVGID_19_" y="-1.1" width="557" height="155.5"/>
	</defs>
	<clipPath id="SVGID_20_">
		<use xlink:href="#SVGID_19_"  overflow="visible"/>
	</clipPath>
	<path clip-path="url(#SVGID_20_)" fill="#3C0091" d="M75.2,81.1c1.7,0,3,0.3,4.1,1V87c-1.1-0.7-2.4-1-3.5-1c-2.5,0-4.1,1.3-4.1,3.7
		c0,2.4,1.6,3.6,4.1,3.6c1.2,0,2.4-0.3,3.5-1v4.9c-1,0.6-2.4,1-4.1,1c-5.3,0-8.7-3.3-8.7-8.5C66.4,84.4,69.9,81.1,75.2,81.1"/>
</g>
<polygon fill="#3C0091" points="93.2,81.4 93.2,85.8 86,85.8 86,87.3 92.6,87.3 92.6,91.6 86,91.6 86,93.4 93.2,93.4 93.2,97.8 
	80.9,97.8 80.9,81.4 "/>
<rect x="456.6" y="-0.8" fill="#17A666" width="100.4" height="155.2"/>
<g>
	<defs>
		<rect id="SVGID_21_" y="-1.1" width="557" height="155.5"/>
	</defs>
	<clipPath id="SVGID_22_">
		<use xlink:href="#SVGID_21_"  overflow="visible"/>
	</clipPath>
	<path clip-path="url(#SVGID_22_)" fill="#D9E86B" d="M462.4,49.4c0.4,0.3,0.8,0.5,1.3,0.5c0.8,0,1.2-0.5,1.2-1.6v-4.5h0.9v4.5
		c0,1.6-0.7,2.4-2,2.4c-0.6,0-1-0.2-1.3-0.4V49.4z"/>
	<path clip-path="url(#SVGID_22_)" fill="#D9E86B" d="M469.1,46.3c-0.9,0-1.4,0.8-1.4,1.8c0,1.1,0.5,1.8,1.4,1.8
		c0.9,0,1.4-0.8,1.4-1.8C470.5,47,470,46.3,469.1,46.3 M469.1,50.7c-1.4,0-2.3-1.1-2.3-2.6c0-1.5,0.9-2.6,2.3-2.6
		c1.3,0,2.3,1.1,2.3,2.6C471.3,49.6,470.4,50.7,469.1,50.7"/>
	<path clip-path="url(#SVGID_22_)" fill="#D9E86B" d="M472.5,43.4h0.8v2.9c0.3-0.4,0.8-0.7,1.4-0.7c1.1,0,1.7,0.7,1.7,1.8v3.2h-0.8
		v-3.1c0-0.7-0.3-1.2-1.1-1.2c-0.6,0-1.1,0.4-1.2,0.9v3.3h-0.8V43.4z"/>
	<path clip-path="url(#SVGID_22_)" fill="#D9E86B" d="M477.9,45.6h0.8v0.6c0.3-0.4,0.8-0.7,1.4-0.7c1.1,0,1.7,0.7,1.7,1.8v3.2h-0.8
		v-3.1c0-0.7-0.3-1.2-1.1-1.2c-0.6,0-1.1,0.4-1.3,0.9v3.3h-0.8V45.6z"/>
	<path clip-path="url(#SVGID_22_)" fill="#D9E86B" d="M490.2,49.4v-1.6h-1.5V47h2.3v2.7c-0.7,0.7-1.5,1-2.4,1
		c-1.9,0-3.2-1.4-3.2-3.5c0-2.1,1.4-3.5,3.3-3.5c0.8,0,1.5,0.2,2,0.6v0.9c-0.6-0.5-1.2-0.8-2-0.8c-1.4,0-2.4,1.1-2.4,2.7
		c0,1.6,0.9,2.7,2.3,2.7C489.2,49.9,489.7,49.7,490.2,49.4"/>
	<path clip-path="url(#SVGID_22_)" fill="#D9E86B" d="M494.8,46.5c-0.1-0.1-0.3-0.1-0.6-0.1c-0.5,0-1,0.3-1.1,0.9v3.3h-0.8v-4.9h0.8
		v0.6c0.2-0.4,0.7-0.7,1.2-0.7c0.2,0,0.4,0,0.5,0.1V46.5z"/>
	<path clip-path="url(#SVGID_22_)" fill="#D9E86B" d="M496.7,50.6h-0.8v-4.9h0.8V50.6z M496.3,44.7c-0.3,0-0.5-0.2-0.5-0.5
		c0-0.3,0.2-0.5,0.5-0.5c0.3,0,0.5,0.2,0.5,0.5C496.8,44.5,496.6,44.7,496.3,44.7"/>
	<path clip-path="url(#SVGID_22_)" fill="#D9E86B" d="M497.9,49.3c0.5,0.4,1,0.7,1.6,0.7c0.5,0,1-0.2,1-0.7c0-0.4-0.3-0.6-0.7-0.7
		l-0.7-0.2c-0.7-0.2-1.2-0.6-1.2-1.4c0-0.9,0.8-1.4,1.7-1.4c0.6,0,1.1,0.2,1.5,0.4v0.9c-0.4-0.3-0.9-0.6-1.5-0.6
		c-0.5,0-0.9,0.2-0.9,0.6c0,0.4,0.3,0.5,0.7,0.7l0.8,0.3c0.7,0.3,1.2,0.7,1.2,1.4c0,0.9-0.8,1.4-1.8,1.4c-0.6,0-1.3-0.2-1.6-0.5
		V49.3z"/>
	<path clip-path="url(#SVGID_22_)" fill="#D9E86B" d="M502.5,43.4h0.8v2.9c0.3-0.4,0.8-0.7,1.4-0.7c1.1,0,1.7,0.7,1.7,1.8v3.2h-0.8
		v-3.1c0-0.7-0.3-1.2-1.1-1.2c-0.6,0-1.1,0.4-1.3,0.9v3.3h-0.8V43.4z"/>
	<path clip-path="url(#SVGID_22_)" fill="#D9E86B" d="M510.7,48.8c-0.1-0.4-0.6-0.6-1.1-0.6c-0.6,0-1.2,0.3-1.2,0.9
		c0,0.6,0.6,0.9,1.2,0.9c0.5,0,1-0.2,1.1-0.6V48.8z M510.7,47.3c0-0.6-0.5-1-1.2-1c-0.5,0-1,0.2-1.4,0.4V46c0.3-0.2,0.9-0.4,1.5-0.4
		c1.2,0,1.9,0.6,1.9,1.7v3.3h-0.8v-0.4c-0.2,0.2-0.7,0.5-1.3,0.5c-1,0-1.8-0.6-1.8-1.6c0-0.9,0.8-1.5,1.9-1.5c0.5,0,1,0.2,1.2,0.4
		V47.3z"/>
	<path clip-path="url(#SVGID_22_)" fill="#D9E86B" d="M517.9,45.6c1,0,1.5,0.7,1.5,1.8v3.3h-0.8v-3.1c0-0.7-0.3-1.1-0.9-1.1
		c-0.5,0-0.9,0.3-1.1,0.9v3.4h-0.8v-3.1c0-0.7-0.3-1.1-0.9-1.1c-0.5,0-0.9,0.3-1.1,0.9v3.4h-0.8v-4.9h0.8v0.6
		c0.2-0.4,0.7-0.7,1.3-0.7c0.6,0,1.1,0.3,1.3,0.8C516.7,45.9,517.2,45.6,517.9,45.6"/>
	<path clip-path="url(#SVGID_22_)" fill="#D9E86B" d="M462.6,68.9c1,0.6,2.5,1.2,3.9,1.2c0.8,0,1.6-0.1,1.6-0.6
		c0-0.4-0.2-0.5-0.6-0.6l-1.8-0.5c-2.2-0.6-3.3-1.7-3.3-3.6c0-2.5,2.1-3.9,4.8-3.9c1.8,0,2.9,0.3,3.9,0.9V65
		c-1.1-0.7-2.3-1.1-3.7-1.1c-0.7,0-1.3,0.1-1.3,0.5c0,0.3,0.3,0.5,0.7,0.6l1.7,0.5c2.4,0.7,3.4,1.9,3.4,3.7c0,2.8-2.4,3.9-5.2,3.9
		c-1.6,0-3.1-0.4-4-0.9V68.9z"/>
</g>
<polygon fill="#D9E86B" points="479.7,61 483.6,61 479.3,69 479.3,72.9 475.5,72.9 475.5,69 471.3,61 475.4,61 477.5,65.3 "/>
<g>
	<defs>
		<rect id="SVGID_23_" y="-1.1" width="557" height="155.5"/>
	</defs>
	<clipPath id="SVGID_24_">
		<use xlink:href="#SVGID_23_"  overflow="visible"/>
	</clipPath>
	<path clip-path="url(#SVGID_24_)" fill="#D9E86B" d="M489,60.8c1.2,0,2.2,0.3,2.9,0.7v3.5c-0.8-0.5-1.7-0.8-2.6-0.8
		c-1.8,0-2.9,0.9-2.9,2.7c0,1.7,1.1,2.6,2.9,2.6c0.9,0,1.7-0.2,2.6-0.7v3.5c-0.8,0.4-1.7,0.7-2.9,0.7c-3.8,0-6.3-2.4-6.3-6.1
		C482.7,63.3,485.2,60.8,489,60.8"/>
</g>
<path fill="#D9E86B" d="M497.6,68.2h2l-1-2.7L497.6,68.2z M500.6,61l4.5,11.9h-3.8l-0.6-1.7h-4.2l-0.6,1.7h-3.7l4.5-11.9H500.6z"/>
<polygon fill="#D9E86B" points="511.7,70.4 509.1,67 509.1,72.9 505.4,72.9 505.4,61 508.9,61 511.8,65.1 514.7,61 518.2,61 
	518.2,72.9 514.5,72.9 514.5,67 511.8,70.4 "/>
<g>
	<defs>
		<rect id="SVGID_25_" y="-1.1" width="557" height="155.5"/>
	</defs>
	<clipPath id="SVGID_26_">
		<use xlink:href="#SVGID_25_"  overflow="visible"/>
	</clipPath>
	<path clip-path="url(#SVGID_26_)" fill="#D9E86B" d="M525,64.1c-1.3,0-2.2,1.1-2.2,2.9c0,1.8,0.9,2.9,2.2,2.9
		c1.3,0,2.2-1.1,2.2-2.9C527.2,65.2,526.3,64.1,525,64.1 M525,73.1c-3.6,0-6-2.6-6-6.1c0-3.6,2.4-6.1,6-6.1c3.6,0,6,2.6,6,6.1
		C531,70.5,528.5,73.1,525,73.1"/>
	<path clip-path="url(#SVGID_26_)" fill="#D9E86B" d="M535.5,66.6h1.6c1,0,1.3-0.5,1.3-1.2c0-0.7-0.4-1.2-1.3-1.2h-1.6V66.6z
		 M535.5,69.5v3.4h-3.7V61h5.8c2.6,0,4.5,1.6,4.5,4.3c0,1.7-0.8,2.9-2,3.6l2.5,4h-4.1l-2-3.4H535.5z"/>
</g>
<polygon fill="#D9E86B" points="551.9,61 551.9,64.2 546.7,64.2 546.7,65.3 551.5,65.3 551.5,68.4 546.7,68.4 546.7,69.7 
	551.9,69.7 551.9,72.9 543,72.9 543,61 "/>
<g>
	<defs>
		<rect id="SVGID_27_" y="-1.1" width="557" height="155.5"/>
	</defs>
	<clipPath id="SVGID_28_">
		<use xlink:href="#SVGID_27_"  overflow="visible"/>
	</clipPath>
	<path clip-path="url(#SVGID_28_)" fill="#D9E86B" d="M466.4,83.2h1.6c1,0,1.3-0.5,1.3-1.2c0-0.7-0.4-1.2-1.3-1.2h-1.6V83.2z
		 M466.4,86.2v3.4h-3.7V77.7h5.8c2.6,0,4.5,1.6,4.5,4.3c0,1.7-0.8,2.9-2,3.6l2.5,4h-4.1l-2-3.4H466.4z"/>
	<path clip-path="url(#SVGID_28_)" fill="#D9E86B" d="M479.3,80.8c-1.3,0-2.2,1.1-2.2,2.9c0,1.8,0.9,2.9,2.2,2.9
		c1.3,0,2.2-1.1,2.2-2.9C481.6,81.8,480.7,80.8,479.3,80.8 M479.3,89.8c-3.6,0-6-2.6-6-6.1c0-3.6,2.4-6.1,6-6.1c3.6,0,6,2.6,6,6.1
		C485.3,87.2,482.9,89.8,479.3,89.8"/>
</g>
<polygon fill="#D9E86B" points="494.6,77.7 496.1,83.6 497.5,77.7 501.3,77.7 498.1,89.6 494.7,89.6 493.1,83.5 491.5,89.6 
	488.1,89.6 484.9,77.7 488.8,77.7 490.2,83.6 491.8,77.7 "/>
<rect x="114.1" y="-0.8" fill="#D9E86B" width="100.4" height="155.2"/>
<polygon fill="#F59C1E" points="124.8,33.5 124.8,34.2 121.3,34.2 121.3,36.4 124.5,36.4 124.5,37.2 121.3,37.2 121.3,39.5 
	124.8,39.5 124.8,40.3 120.5,40.3 120.5,33.5 "/>
<g>
	<defs>
		<rect id="SVGID_29_" y="-1.1" width="557" height="155.5"/>
	</defs>
	<clipPath id="SVGID_30_">
		<use xlink:href="#SVGID_29_"  overflow="visible"/>
	</clipPath>
	<path clip-path="url(#SVGID_30_)" fill="#F59C1E" d="M129.3,36.8c-0.3-0.5-0.7-0.8-1.3-0.8c-0.9,0-1.5,0.8-1.5,1.8
		c0,1,0.6,1.8,1.5,1.8c0.5,0,1-0.3,1.3-0.8V36.8z M129.3,39.7c-0.2,0.4-0.8,0.7-1.4,0.7c-1.4,0-2.2-1.2-2.2-2.6
		c0-1.4,0.8-2.6,2.2-2.6c0.6,0,1.1,0.3,1.4,0.7v-2.9h0.8v7.2h-0.8V39.7z"/>
</g>
<polygon fill="#F59C1E" points="135.7,39.1 136.8,35.3 137.6,35.3 136.2,40.3 135.4,40.3 134.3,36.5 133.3,40.3 132.5,40.3 
	131,35.3 131.9,35.3 133,39.1 134,35.3 134.7,35.3 "/>
<g>
	<defs>
		<rect id="SVGID_31_" y="-1.1" width="557" height="155.5"/>
	</defs>
	<clipPath id="SVGID_32_">
		<use xlink:href="#SVGID_31_"  overflow="visible"/>
	</clipPath>
	<path clip-path="url(#SVGID_32_)" fill="#F59C1E" d="M141.3,38.5c-0.1-0.4-0.6-0.6-1.1-0.6c-0.6,0-1.2,0.3-1.2,0.9
		c0,0.6,0.6,0.9,1.2,0.9c0.5,0,1-0.2,1.1-0.6V38.5z M141.3,37c0-0.6-0.5-1-1.2-1c-0.5,0-1,0.2-1.4,0.4v-0.8c0.3-0.2,0.9-0.4,1.5-0.4
		c1.2,0,1.8,0.6,1.8,1.7v3.3h-0.8v-0.4c-0.2,0.2-0.7,0.5-1.3,0.5c-1,0-1.8-0.6-1.8-1.6c0-0.9,0.8-1.5,1.9-1.5c0.5,0,1,0.2,1.2,0.4
		V37z"/>
	<path clip-path="url(#SVGID_32_)" fill="#F59C1E" d="M146,36.2c-0.1-0.1-0.3-0.1-0.6-0.1c-0.5,0-1,0.3-1.1,0.9v3.3h-0.8v-4.9h0.8
		V36c0.2-0.4,0.7-0.7,1.2-0.7c0.2,0,0.4,0,0.5,0.1V36.2z"/>
	<path clip-path="url(#SVGID_32_)" fill="#F59C1E" d="M150.1,36.8c-0.3-0.5-0.7-0.8-1.3-0.8c-0.9,0-1.5,0.8-1.5,1.8
		c0,1,0.6,1.8,1.5,1.8c0.5,0,1-0.3,1.3-0.8V36.8z M150.1,39.7c-0.2,0.4-0.8,0.7-1.4,0.7c-1.4,0-2.2-1.2-2.2-2.6
		c0-1.4,0.8-2.6,2.2-2.6c0.6,0,1.1,0.3,1.4,0.7v-2.9h0.8v7.2h-0.8V39.7z"/>
	<path clip-path="url(#SVGID_32_)" fill="#F59C1E" d="M157.5,34.2h-1.6v2.5h1.6c0.9,0,1.4-0.5,1.4-1.3
		C158.9,34.7,158.4,34.2,157.5,34.2 M155.8,37.5v2.7H155v-6.8h2.5c1.4,0,2.3,0.7,2.3,2c0,1.3-0.9,2-2.3,2H155.8z"/>
	<path clip-path="url(#SVGID_32_)" fill="#F59C1E" d="M160.4,39.1c0.3,0,0.6,0.3,0.6,0.6c0,0.3-0.3,0.6-0.6,0.6
		c-0.3,0-0.6-0.3-0.6-0.6C159.8,39.4,160,39.1,160.4,39.1"/>
	<path clip-path="url(#SVGID_32_)" fill="#F59C1E" d="M164.1,39.1c0.4,0.3,0.8,0.5,1.3,0.5c0.8,0,1.2-0.5,1.2-1.6v-4.5h0.9V38
		c0,1.6-0.7,2.4-2,2.4c-0.6,0-1-0.2-1.3-0.4V39.1z"/>
	<path clip-path="url(#SVGID_32_)" fill="#F59C1E" d="M170.7,36c-0.9,0-1.4,0.8-1.4,1.8c0,1.1,0.5,1.8,1.4,1.8
		c0.9,0,1.4-0.8,1.4-1.8C172.1,36.7,171.6,36,170.7,36 M170.7,40.4c-1.4,0-2.3-1.1-2.3-2.6c0-1.5,0.9-2.6,2.3-2.6
		c1.3,0,2.3,1.1,2.3,2.6C173,39.3,172.1,40.4,170.7,40.4"/>
	<path clip-path="url(#SVGID_32_)" fill="#F59C1E" d="M174.1,35.3h0.8V36c0.3-0.4,0.8-0.7,1.4-0.7c1.1,0,1.7,0.7,1.7,1.8v3.2h-0.8
		v-3.1c0-0.7-0.3-1.2-1.1-1.2c-0.6,0-1.1,0.4-1.2,0.9v3.3h-0.8V35.3z"/>
	<path clip-path="url(#SVGID_32_)" fill="#F59C1E" d="M180,37.3h2.5c0-0.7-0.4-1.3-1.2-1.3C180.7,36,180.2,36.4,180,37.3 M180,37.9
		c0,1.1,0.8,1.7,1.6,1.7c0.6,0,1-0.1,1.4-0.5v0.8c-0.4,0.3-0.9,0.4-1.5,0.4c-1.4,0-2.4-1-2.4-2.5c0-1.5,0.9-2.6,2.2-2.6
		c1.3,0,2,1,2,2.4v0.3H180z"/>
	<path clip-path="url(#SVGID_32_)" fill="#F59C1E" d="M184.3,39c0.5,0.4,1,0.7,1.6,0.7c0.5,0,1-0.2,1-0.7c0-0.4-0.3-0.6-0.7-0.7
		l-0.7-0.2c-0.7-0.2-1.2-0.6-1.2-1.4c0-0.9,0.8-1.4,1.7-1.4c0.6,0,1.1,0.2,1.5,0.4v0.9c-0.4-0.3-0.9-0.6-1.5-0.6
		c-0.5,0-0.9,0.2-0.9,0.6c0,0.4,0.3,0.5,0.7,0.7l0.8,0.3c0.7,0.3,1.2,0.7,1.2,1.4c0,0.9-0.8,1.4-1.8,1.4c-0.6,0-1.3-0.2-1.6-0.5V39z
		"/>
</g>
<polygon fill="#F59C1E" points="120,49.8 134.9,49.8 134.9,54.2 130.1,54.2 130.1,66.3 124.9,66.3 124.9,54.2 120,54.2 "/>
<polygon fill="#F59C1E" points="151.1,49.8 151.1,66.3 145.9,66.3 145.9,60.1 140.7,60.1 140.7,66.3 135.5,66.3 135.5,49.8 
	140.7,49.8 140.7,55.7 145.9,55.7 145.9,49.8 "/>
<polygon fill="#F59C1E" points="165.2,49.8 165.2,54.2 158,54.2 158,55.8 164.6,55.8 164.6,60.1 158,60.1 158,61.8 165.2,61.8 
	165.2,66.3 152.9,66.3 152.9,49.8 "/>
<polygon fill="#F59C1E" points="125.7,77.9 130.2,71.1 136.1,71.1 130.9,78.9 136.3,87.5 130.3,87.5 125.7,80.2 125.7,87.5 
	120.5,87.5 120.5,71.1 125.7,71.1 "/>
<polygon fill="#F59C1E" points="152,87.5 147.7,87.5 141.7,79.3 141.7,87.5 136.7,87.5 136.7,71.1 141.6,71.1 147,78.7 147,71.1 
	152,71.1 "/>
<g>
	<defs>
		<rect id="SVGID_33_" y="-1.1" width="557" height="155.5"/>
	</defs>
	<clipPath id="SVGID_34_">
		<use xlink:href="#SVGID_33_"  overflow="visible"/>
	</clipPath>
	<path clip-path="url(#SVGID_34_)" fill="#F59C1E" d="M161.3,75.3c-1.8,0-3.1,1.5-3.1,4c0,2.5,1.2,4,3.1,4c1.8,0,3.1-1.5,3.1-4
		C164.4,76.8,163.2,75.3,161.3,75.3 M161.3,87.8c-4.9,0-8.3-3.6-8.3-8.5c0-4.9,3.3-8.5,8.3-8.5c4.9,0,8.3,3.6,8.3,8.5
		C169.6,84.2,166.3,87.8,161.3,87.8"/>
</g>
<polygon fill="#F59C1E" points="182.3,71.1 184.5,79.3 186.4,71.1 191.7,71.1 187.3,87.5 182.6,87.5 180.4,79.1 178.1,87.5 
	173.4,87.5 169,71.1 174.4,71.1 176.3,79.3 178.5,71.1 "/>
<polygon fill="#F59C1E" points="207.4,87.5 203.1,87.5 197.1,79.3 197.1,87.5 192.1,87.5 192.1,71.1 196.9,71.1 202.4,78.7 
	202.4,71.1 207.4,71.1 "/>
<polygon fill="#F59C1E" points="133,92.3 135.1,100.6 137,92.3 142.3,92.3 137.9,108.8 133.2,108.8 131,100.3 128.7,108.8 
	124,108.8 119.7,92.3 125,92.3 126.9,100.6 129.1,92.3 "/>
<g>
	<defs>
		<rect id="SVGID_35_" y="-1.1" width="557" height="155.5"/>
	</defs>
	<clipPath id="SVGID_36_">
		<use xlink:href="#SVGID_35_"  overflow="visible"/>
	</clipPath>
	<path clip-path="url(#SVGID_36_)" fill="#F59C1E" d="M150,96.6c-1.8,0-3.1,1.5-3.1,4c0,2.5,1.2,4,3.1,4c1.8,0,3.1-1.5,3.1-4
		C153.1,98.1,151.8,96.6,150,96.6 M150,109c-4.9,0-8.3-3.6-8.3-8.5c0-4.9,3.3-8.5,8.3-8.5c4.9,0,8.3,3.6,8.3,8.5
		C158.3,105.4,154.9,109,150,109"/>
	<path clip-path="url(#SVGID_36_)" fill="#F59C1E" d="M164.5,100h2.2c1.3,0,1.8-0.7,1.8-1.7c0-1-0.5-1.7-1.8-1.7h-2.2V100z
		 M164.5,104v4.7h-5.1V92.3h8c3.6,0,6.2,2.2,6.2,6c0,2.3-1.1,4-2.8,5l3.4,5.5h-5.7l-2.8-4.7H164.5z"/>
</g>
<polygon fill="#F59C1E" points="174.8,92.3 180,92.3 180,104.3 187.1,104.3 187.1,108.8 174.8,108.8 "/>
<g>
	<defs>
		<rect id="SVGID_37_" y="-1.1" width="557" height="155.5"/>
	</defs>
	<clipPath id="SVGID_38_">
		<use xlink:href="#SVGID_37_"  overflow="visible"/>
	</clipPath>
	<path clip-path="url(#SVGID_38_)" fill="#F59C1E" d="M194.1,104.3c2.3,0,3.6-1.5,3.6-3.8c0-2.3-1.3-3.8-3.6-3.8h-1.3v7.6H194.1z
		 M187.7,92.3h6.6c5.3,0,8.5,3.2,8.5,8.2c0,5-3.1,8.2-8.5,8.2h-6.6V92.3z"/>
</g>
<rect x="341.9" y="-1.1" fill="#FFEB00" width="101.1" height="155.5"/>
<g>
	<defs>
		<rect id="SVGID_39_" y="-1.1" width="557" height="155.5"/>
	</defs>
	<clipPath id="SVGID_40_">
		<use xlink:href="#SVGID_39_"  overflow="visible"/>
	</clipPath>
	<path clip-path="url(#SVGID_40_)" fill="#F59C1E" d="M350.3,49.6c1.5,0,2.4-1,2.4-2.6c0-1.6-0.9-2.6-2.4-2.6H349v5.2H350.3z
		 M348.2,43.7h2.2c2,0,3.3,1.3,3.3,3.4c0,2.1-1.3,3.4-3.3,3.4h-2.2V43.7z"/>
	<path clip-path="url(#SVGID_40_)" fill="#F59C1E" d="M356.7,46.2c-0.9,0-1.4,0.8-1.4,1.8c0,1.1,0.5,1.8,1.4,1.8
		c0.9,0,1.4-0.8,1.4-1.8C358.1,46.9,357.6,46.2,356.7,46.2 M356.7,50.5c-1.3,0-2.3-1-2.3-2.6s0.9-2.6,2.3-2.6c1.3,0,2.3,1.1,2.3,2.6
		S358.1,50.5,356.7,50.5"/>
	<path clip-path="url(#SVGID_40_)" fill="#F59C1E" d="M360.1,45.5h0.8v0.6c0.3-0.4,0.8-0.7,1.4-0.7c1.1,0,1.7,0.7,1.7,1.8v3.2h-0.8
		v-3.1c0-0.7-0.3-1.2-1.1-1.2c-0.6,0-1.1,0.4-1.2,0.9v3.3h-0.8V45.5z"/>
	<path clip-path="url(#SVGID_40_)" fill="#F59C1E" d="M365.5,45.5h0.8v0.6c0.3-0.4,0.8-0.7,1.4-0.7c1.1,0,1.7,0.7,1.7,1.8v3.2h-0.8
		v-3.1c0-0.7-0.3-1.2-1.1-1.2c-0.6,0-1.1,0.4-1.2,0.9v3.3h-0.8V45.5z"/>
	<path clip-path="url(#SVGID_40_)" fill="#F59C1E" d="M373.7,48.7c-0.1-0.4-0.6-0.6-1.1-0.6c-0.6,0-1.2,0.3-1.2,0.9
		c0,0.6,0.6,0.9,1.2,0.9c0.5,0,1-0.2,1.1-0.6V48.7z M373.7,47.2c0-0.6-0.5-1-1.2-1c-0.5,0-1,0.2-1.4,0.4v-0.8
		c0.3-0.2,0.9-0.4,1.5-0.4c1.2,0,1.8,0.6,1.8,1.7v3.3h-0.8v-0.4c-0.2,0.2-0.7,0.5-1.3,0.5c-1,0-1.8-0.6-1.8-1.6
		c0-0.9,0.8-1.5,1.9-1.5c0.5,0,1,0.2,1.2,0.4V47.2z"/>
</g>
<polygon fill="#F59C1E" points="377.9,43.7 383.5,43.7 383.5,44.4 381.1,44.4 381.1,50.4 380.3,50.4 380.3,44.4 377.9,44.4 "/>
<g>
	<defs>
		<rect id="SVGID_41_" y="-1.1" width="557" height="155.5"/>
	</defs>
	<clipPath id="SVGID_42_">
		<use xlink:href="#SVGID_41_"  overflow="visible"/>
	</clipPath>
	<path clip-path="url(#SVGID_42_)" fill="#F59C1E" d="M386.5,48.7c-0.1-0.4-0.6-0.6-1.1-0.6c-0.6,0-1.2,0.3-1.2,0.9
		c0,0.6,0.6,0.9,1.2,0.9c0.5,0,1-0.2,1.1-0.6V48.7z M386.5,47.2c0-0.6-0.5-1-1.2-1c-0.5,0-1,0.2-1.4,0.4v-0.8
		c0.3-0.2,0.9-0.4,1.5-0.4c1.2,0,1.8,0.6,1.8,1.7v3.3h-0.8v-0.4c-0.2,0.2-0.7,0.5-1.3,0.5c-1,0-1.8-0.6-1.8-1.6
		c0-0.9,0.8-1.5,1.9-1.5c0.5,0,1,0.2,1.2,0.4V47.2z"/>
	<path clip-path="url(#SVGID_42_)" fill="#F59C1E" d="M391.2,46.4c-0.1-0.1-0.3-0.1-0.6-0.1c-0.5,0-1,0.3-1.1,0.9v3.3h-0.8v-4.9h0.8
		v0.6c0.2-0.4,0.7-0.7,1.2-0.7c0.2,0,0.4,0,0.5,0.1V46.4z"/>
</g>
<polygon fill="#F59C1E" points="393.6,50.4 392.8,50.4 392.8,46.2 391.8,46.2 391.8,45.5 392.8,45.5 392.8,44.2 393.6,44.2 
	393.6,45.5 394.8,45.5 394.8,46.2 393.6,46.2 "/>
<polygon fill="#F59C1E" points="397.1,50.4 396.3,50.4 396.3,46.2 395.3,46.2 395.3,45.5 396.3,45.5 396.3,44.2 397.1,44.2 
	397.1,45.5 398.3,45.5 398.3,46.2 397.1,46.2 "/>
<polygon fill="#F59C1E" points="347.6,62.6 357.9,62.6 357.9,65.6 354.5,65.6 354.5,73.9 350.9,73.9 350.9,65.6 347.6,65.6 "/>
<polygon fill="#F59C1E" points="369.1,62.6 369.1,73.9 365.5,73.9 365.5,69.7 361.9,69.7 361.9,73.9 358.3,73.9 358.3,62.6 
	361.9,62.6 361.9,66.7 365.5,66.7 365.5,62.6 "/>
<polygon fill="#F59C1E" points="378.8,62.6 378.8,65.6 373.8,65.6 373.8,66.7 378.4,66.7 378.4,69.6 373.8,69.6 373.8,70.8 
	378.8,70.8 378.8,73.9 370.3,73.9 370.3,62.6 "/>
<g>
	<defs>
		<rect id="SVGID_43_" y="-1.1" width="557" height="155.5"/>
	</defs>
	<clipPath id="SVGID_44_">
		<use xlink:href="#SVGID_43_"  overflow="visible"/>
	</clipPath>
	<path clip-path="url(#SVGID_44_)" fill="#F59C1E" d="M354.7,86.5v-0.5h-1.3v-2.8h4.4v5.3c-1.2,1-2.6,1.4-4.2,1.4
		c-3.6,0-5.9-2.4-5.9-5.8c0-3.6,2.5-5.9,6.3-5.9c1.2,0,2.5,0.3,3.3,0.8v3.4c-0.8-0.5-1.9-0.9-3.3-0.9c-1.6,0-2.7,0.9-2.7,2.6
		c0,1.6,1.1,2.6,2.5,2.6C354.1,86.8,354.5,86.7,354.7,86.5"/>
	<path clip-path="url(#SVGID_44_)" fill="#F59C1E" d="M364,81.4c-1.3,0-2.1,1-2.1,2.7s0.8,2.7,2.1,2.7c1.3,0,2.1-1,2.1-2.7
		S365.3,81.4,364,81.4 M364,89.9c-3.4,0-5.7-2.5-5.7-5.8c0-3.4,2.3-5.8,5.7-5.8c3.4,0,5.7,2.5,5.7,5.8
		C369.8,87.5,367.4,89.9,364,89.9"/>
</g>
<polygon fill="#F59C1E" points="370.5,78.4 374.1,78.4 374.1,86.7 379,86.7 379,89.8 370.5,89.8 "/>
<g>
	<defs>
		<rect id="SVGID_45_" y="-1.1" width="557" height="155.5"/>
	</defs>
	<clipPath id="SVGID_46_">
		<use xlink:href="#SVGID_45_"  overflow="visible"/>
	</clipPath>
	<path clip-path="url(#SVGID_46_)" fill="#F59C1E" d="M383.9,86.7c1.6,0,2.5-1,2.5-2.6c0-1.6-0.9-2.6-2.5-2.6H383v5.2H383.9z
		 M379.5,78.4h4.6c3.7,0,5.8,2.2,5.8,5.7c0,3.4-2.2,5.7-5.8,5.7h-4.6V78.4z"/>
</g>
<polygon fill="#F59C1E" points="390.6,89.8 390.6,78.4 399,78.4 399,81.5 394.2,81.5 394.2,83.1 398.6,83.1 398.6,86.1 394.2,86.1 
	394.2,89.8 "/>
<rect x="400" y="78.4" fill="#F59C1E" width="3.6" height="11.3"/>
<polygon fill="#F59C1E" points="415.3,89.8 412.3,89.8 408.2,84.1 408.2,89.8 404.8,89.8 404.8,78.4 408.1,78.4 411.8,83.7 
	411.8,78.4 415.3,78.4 "/>
<g>
	<defs>
		<rect id="SVGID_47_" y="-1.1" width="557" height="155.5"/>
	</defs>
	<clipPath id="SVGID_48_">
		<use xlink:href="#SVGID_47_"  overflow="visible"/>
	</clipPath>
	<path clip-path="url(#SVGID_48_)" fill="#F59C1E" d="M422.1,78.3c1.1,0,2.1,0.2,2.8,0.7v3.4c-0.8-0.5-1.6-0.7-2.4-0.7
		c-1.7,0-2.8,0.9-2.8,2.5c0,1.6,1.1,2.5,2.8,2.5c0.8,0,1.7-0.2,2.4-0.7v3.4c-0.7,0.4-1.7,0.7-2.8,0.7c-3.6,0-6-2.3-6-5.8
		S418.4,78.3,422.1,78.3"/>
</g>
<polygon fill="#F59C1E" points="436.8,78.4 436.8,89.8 433.2,89.8 433.2,85.6 429.6,85.6 429.6,89.8 426,89.8 426,78.4 429.6,78.4 
	429.6,82.5 433.2,82.5 433.2,78.4 "/>
</svg>
