<?xml version="1.0" encoding="utf-8"?>
<!-- Generator: Adobe Illustrator 18.0.0, SVG Export Plug-In . SVG Version: 6.00 Build 0)  -->
<!DOCTYPE svg PUBLIC "-//W3C//DTD SVG 1.1//EN" "http://www.w3.org/Graphics/SVG/1.1/DTD/svg11.dtd">
<svg version="1.1" xmlns="http://www.w3.org/2000/svg" xmlns:xlink="http://www.w3.org/1999/xlink" x="0px" y="0px"
	 viewBox="0 0 653 653" enable-background="new 0 0 653 653" xml:space="preserve">
<g id="Layer_1">
	<rect x="-1" y="-0.8" fill="#ED2D32" width="654" height="653.9"/>
	<g>
		<defs>
			<rect id="SVGID_7_" x="232.2" y="135.1" width="188.6" height="384.1"/>
		</defs>
		<clipPath id="SVGID_2_">
			<use xlink:href="#SVGID_7_"  overflow="visible"/>
		</clipPath>
		<path clip-path="url(#SVGID_2_)" fill="#3C0091" d="M400.2,378.2h-10.6c-2.9,0-5.3,2.4-5.3,5.3v4.6v6.8c0,2.9-2.4,5.3-5.3,5.3h-16
			v2.3h27.4h9.9c2.9,0,5.3-2.4,5.3-5.3v-13.6C405.5,380.6,403.1,378.2,400.2,378.2"/>
		<path clip-path="url(#SVGID_2_)" fill="#FFEB00" d="M406.4,212.4c0,70-80.6,99.6-80.6,99.6s-80.6-29.1-80.6-99.6
			c0-42.7,36.1-77.4,80.6-77.4C370.3,135.1,406.4,169.7,406.4,212.4"/>
		<path clip-path="url(#SVGID_2_)" fill="#3C0091" d="M325.8,135.1c44.5,0,80.6,34.6,80.6,77.4c0,70-80.6,99.6-80.6,99.6V135.1z"/>
		<path clip-path="url(#SVGID_2_)" fill="#3C0091" d="M276,225.2l16.6,10l16.6-10l16.6,10v-24.4l-16.6-10l-16.6,10l-16.6-10
			l-16.6,10l-13.6-8.2c-0.4,3.2-0.6,6.5-0.6,9.8c0,5.2,0.4,10.2,1.2,14.9l13,7.9L276,225.2z"/>
		<path clip-path="url(#SVGID_2_)" fill="#FFEB00" d="M405.8,202.6l-13.6,8.2l-16.6-10l-16.6,10l-16.6-10l-16.6,10v24.4l16.6-10
			l16.6,10l16.6-10l16.6,10l13-7.8c0.8-4.8,1.3-9.7,1.3-14.9C406.4,209.1,406.2,205.8,405.8,202.6"/>
		<path clip-path="url(#SVGID_2_)" fill="#3C0091" d="M277.6,431c-1.1,0-2.2-1.6-2.2-5.8c0-6,1.8-15.2,1.8-24.1h0.4h0.4
			c0,8.9,1.8,18.1,1.8,24.1C279.8,429.4,278.7,431,277.6,431"/>
		<path clip-path="url(#SVGID_2_)" fill="#3C0091" d="M277.6,371.2c-1.1,0-2.2,1.6-2.2,5.8c0,6,1.8,15.2,1.8,24.1h0.4h0.4
			c0-8.9,1.8-18.1,1.8-24.1C279.8,372.8,278.7,371.2,277.6,371.2"/>
		<path clip-path="url(#SVGID_2_)" fill="#3C0091" d="M360.9,415.9c0,2.4-1.9,4.3-4.3,4.3H295c-2.4,0-4.3-1.9-4.3-4.3v-36.2
			c0-2.4,1.9-4.3,4.3-4.3h61.7c2.4,0,4.3,1.9,4.3,4.3V415.9z"/>
		<path clip-path="url(#SVGID_2_)" fill="#FFEB00" d="M325.8,375.5H295c-2.4,0-4.3,1.9-4.3,4.3v36.2c0,2.4,1.9,4.3,4.3,4.3h30.8
			V375.5z"/>
		<path clip-path="url(#SVGID_2_)" fill="#FFEB00" d="M274.9,401.4c0,2.7-0.3,4.8-2.3,4.8c-2,0-5-2.2-5-4.8c0-2.7,3-4.8,5-4.8
			C274.6,396.6,274.9,398.7,274.9,401.4"/>
		<path clip-path="url(#SVGID_2_)" fill="#FFEB00" d="M399.7,389.3c0,2.9-2.4,5.3-5.3,5.3c-2.9,0-5.3-2.4-5.3-5.3
			c0-2.9,2.4-5.3,5.3-5.3C397.3,384,399.7,386.3,399.7,389.3"/>
		<path clip-path="url(#SVGID_2_)" fill="#FFEB00" d="M342.1,420.2c0,9-7.3,16.2-16.3,16.2c-9,0-16.3-7.3-16.3-16.2
			c0-8.9,7.3-16.2,16.3-16.2C334.8,404,342.1,411.2,342.1,420.2"/>
		<path clip-path="url(#SVGID_2_)" fill="#3C0091" d="M349,420.2h-1.3c0,6-2.5,11.5-6.4,15.4c-4,3.9-9.4,6.4-15.5,6.4
			c-6,0-11.5-2.4-15.5-6.4c-4-3.9-6.4-9.4-6.4-15.4c0-6,2.5-11.5,6.4-15.4c4-3.9,9.4-6.4,15.5-6.4c6.1,0,11.5,2.4,15.5,6.4
			c4,4,6.4,9.4,6.4,15.4H349h1.3c0-13.4-11-24.4-24.5-24.4c-13.5,0-24.5,10.9-24.5,24.4c0,13.5,11,24.4,24.5,24.4
			c13.5,0,24.5-10.9,24.5-24.4H349z"/>
		<path clip-path="url(#SVGID_2_)" fill="#3C0091" d="M325.8,370.1l1.1-0.7l-66.2-111.6l-1.1,0.7l-0.5,1.2c0.1,0,25.3,9.5,66.7,9.5
			c41.4,0,65.9-9.5,66.1-9.5l-0.5-1.2l-1.1-0.7l-65.6,111.6L325.8,370.1l1.1-0.7L325.8,370.1l1.1,0.6l65.6-111.6
			c0.3-0.5,0.2-1.1-0.1-1.5c-0.4-0.4-0.9-0.6-1.4-0.4l0,0c-0.6,0.2-24.7,9.3-65.1,9.3c-20.5,0-37-2.3-48.3-4.7
			c-5.7-1.2-10-2.3-13-3.2c-1.5-0.4-2.6-0.8-3.4-1.1c-0.4-0.1-0.7-0.2-0.8-0.3c-0.1,0-0.2-0.1-0.2-0.1l-0.1,0l0,0
			c-0.5-0.2-1.1,0-1.4,0.4c-0.4,0.4-0.4,1-0.1,1.5l66.2,111.6c0.2,0.4,0.7,0.6,1.1,0.6c0.5,0,0.9-0.3,1.1-0.6L325.8,370.1z"/>
		<path clip-path="url(#SVGID_2_)" fill="#3C0091" d="M281.8,265.1l42.8,105.4c0.3,0.6,1,1,1.7,0.7c0.7-0.3,1-1,0.7-1.7l-42.8-105.4
			c-0.3-0.7-1-1-1.7-0.7C281.9,263.7,281.5,264.5,281.8,265.1"/>
		<path clip-path="url(#SVGID_2_)" fill="#3C0091" d="M305.5,267.5l19,102.8c0.1,0.7,0.8,1.2,1.5,1c0.7-0.1,1.2-0.8,1-1.5l-19-102.8
			c-0.1-0.7-0.8-1.2-1.5-1C305.9,266.1,305.4,266.8,305.5,267.5"/>
		<path clip-path="url(#SVGID_2_)" fill="#3C0091" d="M343.6,267l-19,102.8c-0.1,0.7,0.3,1.4,1,1.5c0.7,0.1,1.4-0.3,1.5-1l19-102.8
			c0.1-0.7-0.3-1.4-1-1.5C344.4,265.9,343.7,266.3,343.6,267"/>
		<path clip-path="url(#SVGID_2_)" fill="#3C0091" d="M367.6,264.2l-42.9,105.4c-0.3,0.7,0.1,1.4,0.7,1.7c0.7,0.3,1.4-0.1,1.7-0.7
			L370,265.1c0.3-0.6-0.1-1.4-0.7-1.7C368.6,263.2,367.8,263.5,367.6,264.2"/>
	</g>
	<polyline fill="#3C0091" points="288.5,403 288.5,400.2 280.2,400.2 280.2,403 	"/>
	<g>
		<defs>
			<rect id="SVGID_9_" x="232.2" y="108.4" width="188.6" height="384.1"/>
		</defs>
		<clipPath id="SVGID_4_">
			<use xlink:href="#SVGID_9_"  overflow="visible"/>
		</clipPath>
		<path clip-path="url(#SVGID_4_)" fill="#FFEB00" d="M238.2,481.1v8.2c0.4,0.9,1.6,1.6,3.4,1.6c2.3,0,4.7-1.6,4.7-4.7
			c0-2.9-2.1-4.6-4.8-5.1H238.2z M238.2,479.8c3.1,0,7.2-0.5,7.2-4.4c0-3-2.5-4.3-7.2-4.2V479.8z M232.2,490.9l2.8-0.8v-18l-2.8-0.9
			v-1l7.6-0.1c5.7-0.1,8.8,1.6,8.8,5c0,3.5-3,4.8-6.3,5.1v0.1c3.8,0.2,7.4,1.8,7.4,5.7c0,3.8-3.5,6.3-9.4,6.2l-8-0.1V490.9z"/>
	</g>
	<polygon fill="#FFEB00" points="267.9,474.7 267.9,475.8 270.2,476.5 270.2,490.2 267.9,490.8 267.9,492 281.6,492 282.6,485.9 
		281.6,485.9 279.1,490.5 273.1,490.5 273.1,476.5 275.9,475.8 275.9,474.7 	"/>
	<polygon fill="#FFEB00" points="299.7,474.7 299.7,475.8 302,476.5 302,490.2 299.7,490.8 299.7,492 313.4,492 314.5,485.9 
		313.5,485.9 310.9,490.5 305,490.5 305,476.5 307.8,475.8 307.8,474.7 	"/>
	<g>
		<defs>
			<rect id="SVGID_11_" x="232.2" y="108.4" width="188.6" height="384.1"/>
		</defs>
		<clipPath id="SVGID_6_">
			<use xlink:href="#SVGID_11_"  overflow="visible"/>
		</clipPath>
		<path clip-path="url(#SVGID_6_)" fill="#FFEB00" d="M346.6,484.2c0-4.8-2.5-8.7-6.3-8.7c-3.2,0-5.1,2.8-5.1,6.9
			c0,3.8,1.8,8.8,6.4,8.8C344.4,491.2,346.6,488.9,346.6,484.2 M349.8,483.2c0,5.3-3.7,9.4-8.9,9.4c-5.2,0-8.9-3.6-8.9-8.9
			c0-5.4,3.7-9.4,8.9-9.4C346.2,474.2,349.8,477.9,349.8,483.2"/>
		<path clip-path="url(#SVGID_6_)" fill="#FFEB00" d="M381.1,484.2c0-4.8-2.5-8.7-6.3-8.7c-3.2,0-5.1,2.8-5.1,6.9
			c0,3.8,1.8,8.8,6.4,8.8C378.9,491.2,381.1,488.9,381.1,484.2 M384.4,483.2c0,5.3-3.7,9.4-8.9,9.4c-5.2,0-8.9-3.6-8.9-8.9
			c0-5.4,3.7-9.4,8.9-9.4C380.7,474.2,384.4,477.9,384.4,483.2"/>
	</g>
	<polygon fill="#FFEB00" points="413.9,474.7 413.9,475.8 416.9,476.8 416.9,487 405.9,474.7 401.6,474.7 401.6,475.8 404,476.8 
		404,490.2 401.7,490.8 401.7,492 408.6,492 408.6,490.9 405.6,490 405.6,478.8 417.7,492.3 418.6,491.9 418.5,489.2 418.5,476.5 
		420.8,475.8 420.8,474.7 	"/>
</g>
<g id="Layer_2">
</g>
<g id="Layer_3">
</g>
<g id="Layer_4">
</g>
</svg>
