<?xml version="1.0" encoding="utf-8"?>
<!-- Generator: Adobe Illustrator 18.0.0, SVG Export Plug-In . SVG Version: 6.00 Build 0)  -->
<!DOCTYPE svg PUBLIC "-//W3C//DTD SVG 1.1//EN" "http://www.w3.org/Graphics/SVG/1.1/DTD/svg11.dtd">
<svg version="1.1" id="Layer_1" xmlns="http://www.w3.org/2000/svg" xmlns:xlink="http://www.w3.org/1999/xlink" x="0px" y="0px"
	 viewBox="0 0 842 653" enable-background="new 0 0 842 653" xml:space="preserve">
<rect x="663.5" y="542.9" fill="#00A6EB" stroke="#00A6EB" stroke-miterlimit="10" width="19.2" height="74.1"/>
<rect x="799.7" y="542.9" fill="#00A6EB" stroke="#00A6EB" stroke-miterlimit="10" width="19.2" height="74.1"/>
<rect x="80.8" y="320.9" fill="#00A6EB" stroke="#00A6EB" stroke-miterlimit="10" width="19.2" height="295.9"/>
<rect x="314.9" y="394.8" fill="#00A6EB" stroke="#00A6EB" stroke-miterlimit="10" width="19.2" height="222"/>
<rect x="450" y="246.8" fill="#00A6EB" stroke="#00A6EB" stroke-miterlimit="10" width="19.2" height="370"/>
<rect x="565.4" y="505.9" fill="#00A6EB" stroke="#00A6EB" stroke-miterlimit="10" width="19.2" height="110.9"/>
<rect x="605.7" y="575.2" fill="#FFEC00" stroke="#FFEC00" stroke-miterlimit="10" width="19.2" height="41.6"/>
<rect x="625" y="524.3" fill="#E50083" stroke="#E50083" stroke-miterlimit="10" width="19.2" height="92.5"/>
<rect x="644.2" y="548.3" fill="#E50004" stroke="#E50004" stroke-miterlimit="10" width="19.2" height="68.5"/>
<rect x="682.7" y="462.3" fill="#60B01F" stroke="#60B01F" stroke-miterlimit="10" width="19.2" height="154.5"/>
<g>
	<path fill="#CCCCCC" d="M625,637.5c0-0.2,0.2-0.3,0.3-0.3h4.6c2.3,0,4.2,1.6,4.2,3.6c0,1.5-1.3,2.6-2.3,3.1c1,0.5,2.6,1.5,2.6,3.3
		c0,2.1-2,3.8-4.2,3.8h-4.9c-0.2,0-0.3-0.2-0.3-0.3V637.5z M629.6,642.7c0.8,0,1.3-0.7,1.3-1.5c0-0.8-0.7-1.3-1.3-1.3h-1.5v2.8
		H629.6L629.6,642.7z M629.9,648.1c0.8,0,1.5-0.7,1.5-1.5c0-0.8-0.8-1.3-1.6-1.3h-1.6v2.8L629.9,648.1L629.9,648.1z"/>
	<path fill="#CCCCCC" d="M639,637.5c0-0.2,0.2-0.3,0.3-0.3h2.3c0.2,0,0.3,0.2,0.3,0.3v10.4h4.7c0.2,0,0.3,0.2,0.3,0.3v2.1
		c0,0.2-0.2,0.3-0.3,0.3h-7.3c-0.2,0-0.3-0.2-0.3-0.3V637.5z"/>
	<path fill="#CCCCCC" d="M650.8,637.5c0-0.2,0.2-0.3,0.3-0.3h2.4c0.2,0,0.3,0.2,0.3,0.3v8c0,1.3,1,2.4,2.4,2.4s2.4-1.1,2.4-2.4v-8
		c0-0.2,0.2-0.3,0.3-0.3h2.4c0.2,0,0.3,0.2,0.3,0.3v8.2c0,2.9-2.4,5.4-5.5,5.4c-3.1,0-5.5-2.4-5.5-5.4L650.8,637.5L650.8,637.5z"/>
	<path fill="#CCCCCC" d="M666.9,637.5c0-0.2,0.2-0.3,0.3-0.3h8.2c0.2,0,0.3,0.2,0.3,0.3v2.1c0,0.2-0.2,0.3-0.3,0.3H670v2.4h4.4
		c0.2,0,0.3,0.2,0.3,0.3v2.1c0,0.2-0.2,0.3-0.3,0.3H670v2.6h5.4c0.2,0,0.3,0.2,0.3,0.3v2.1c0,0.2-0.2,0.3-0.3,0.3h-8.2
		c-0.2,0-0.3-0.2-0.3-0.3V637.5z"/>
	<path fill="#CCCCCC" d="M679.6,648.9l1-1.6c0.2-0.3,0.5-0.2,0.7-0.2c0,0,1.5,1.1,2.8,1.1c0.8,0,1.3-0.5,1.3-1.1c0-0.8-0.7-1.5-2-2
		c-1.6-0.7-3.8-2-3.8-4.4c0-2,1.5-3.9,4.6-3.9c2,0,3.6,1,4.2,1.5c0.2,0.2,0.2,0.5,0.2,0.7l-1,1.5c-0.2,0.2-0.5,0.3-0.7,0.3
		c-0.2-0.2-1.6-1.1-2.8-1.1c-0.7,0-1.3,0.5-1.3,1c0,0.7,0.7,1.3,2.1,2s3.9,1.8,3.9,4.4c0,2-1.8,4.1-4.6,4.1c-2.6,0-3.9-1-4.4-1.5
		C679.5,649.2,679.5,649.2,679.6,648.9z"/>
</g>
<rect x="722.7" y="462.3" fill="#940084" stroke="#940084" stroke-miterlimit="10" width="19.2" height="154.5"/>
<rect x="742" y="575.2" fill="#FFEC00" stroke="#FFEC00" stroke-miterlimit="10" width="19.2" height="41.6"/>
<rect x="761.2" y="478.3" fill="#E50083" stroke="#E50083" stroke-miterlimit="10" width="19.2" height="138.7"/>
<rect x="780.3" y="548.3" fill="#E50004" stroke="#E50004" stroke-miterlimit="10" width="19.2" height="68.5"/>
<rect x="818.9" y="309" fill="#60B01F" stroke="#60B01F" stroke-miterlimit="10" width="19.2" height="308"/>
<g>
	<path fill="#CCCCCC" d="M747,638.1c0-0.2,0.2-0.3,0.3-0.3h0.5l7.8,7.5l0,0v-7c0-0.2,0.2-0.3,0.3-0.3h2.3c0.2,0,0.3,0.2,0.3,0.3
		v13.2c0,0.2-0.2,0.3-0.3,0.3h-0.3c0,0-0.2,0-0.3-0.2l-7.7-7.8l0,0v7.3c0,0.2-0.2,0.3-0.3,0.3h-2.3c-0.2,0-0.3-0.2-0.3-0.3
		L747,638.1z"/>
	<path fill="#CCCCCC" d="M770,637.8c3.9,0,7,3.1,7,7s-3.1,7-7,7c-3.9,0-7-3.1-7-7S766.1,637.8,770,637.8z M770,648.7
		c2.1,0,3.9-1.8,3.9-3.9c0-2.1-1.8-3.9-3.9-3.9c-2.1,0-3.9,1.8-3.9,3.9C766.3,646.9,767.9,648.7,770,648.7z"/>
	<path fill="#CCCCCC" d="M781.4,638.1c0-0.2,0.2-0.3,0.3-0.3h0.5l7.8,7.5l0,0v-7c0-0.2,0.2-0.3,0.3-0.3h2.3c0.2,0,0.3,0.2,0.3,0.3
		v13.2c0,0.2-0.2,0.3-0.3,0.3h-0.3c0,0-0.2,0-0.3-0.2l-7.7-7.8l0,0v7.3c0,0.2-0.2,0.3-0.3,0.3h-2.3c-0.2,0-0.3-0.2-0.3-0.3
		L781.4,638.1z"/>
	<path fill="#CCCCCC" d="M798.6,638.3c0-0.2,0.2-0.3,0.3-0.3h8.2c0.2,0,0.3,0.2,0.3,0.3v2.1c0,0.2-0.2,0.3-0.3,0.3h-5.4v2.4h4.4
		c0.2,0,0.3,0.2,0.3,0.3v2.1c0,0.2-0.2,0.3-0.3,0.3h-4.4v2.6h5.4c0.2,0,0.3,0.2,0.3,0.3v2.1c0,0.2-0.2,0.3-0.3,0.3h-8.2
		c-0.2,0-0.3-0.2-0.3-0.3V638.3z"/>
</g>
<rect x="3.8" y="462.3" fill="#940084" stroke="#940084" stroke-miterlimit="10" width="19.2" height="154.5"/>
<rect x="23.1" y="238.5" fill="#FFEC00" stroke="#FFEC00" stroke-miterlimit="10" width="19.2" height="378.3"/>
<rect x="42.3" y="293.1" fill="#E50083" stroke="#E50083" stroke-miterlimit="10" width="19.2" height="323.6"/>
<rect x="61.5" y="274.5" fill="#E50004" stroke="#E50004" stroke-miterlimit="10" width="19.2" height="342.2"/>
<g>
	<path fill="#CCCCCC" d="M24.7,638.5c0-0.2,0.2-0.3,0.3-0.3h2.3c0.2,0,0.3,0.2,0.3,0.3v12.9c0,0.2-0.2,0.3-0.3,0.3H25
		c-0.2,0-0.3-0.2-0.3-0.3V638.5z"/>
	<path fill="#CCCCCC" d="M33.2,638.1c0-0.2,0.2-0.3,0.3-0.3H34l7.8,7.5l0,0v-6.9c0-0.2,0.2-0.3,0.3-0.3h2.4c0.2,0,0.3,0.2,0.3,0.3
		v13.2c0,0.2-0.2,0.3-0.3,0.3h-0.3c0,0-0.2,0-0.3-0.2l-7.7-7.8l0,0v7.3c0,0.2-0.2,0.3-0.3,0.3h-2.3c-0.2,0-0.3-0.2-0.3-0.3
		L33.2,638.1z"/>
	<path fill="#CCCCCC" d="M50.3,638.5c0-0.2,0.2-0.3,0.3-0.3h4.7c3.8,0,6.9,3.1,6.9,6.9c0,3.8-3.1,6.9-6.9,6.9h-4.7
		c-0.2,0-0.3-0.2-0.3-0.3C50.3,651.5,50.3,638.5,50.3,638.5z M55.2,648.9c2.3,0,3.8-1.8,3.8-3.9c0-2.3-1.6-3.9-3.8-3.9h-2v8h2V648.9
		z"/>
	<path fill="#CCCCCC" d="M66.6,638.5c0-0.2,0.2-0.3,0.3-0.3h2.3c0.2,0,0.3,0.2,0.3,0.3v12.9c0,0.2-0.2,0.3-0.3,0.3h-2.3
		c-0.2,0-0.3-0.2-0.3-0.3V638.5z"/>
	<path fill="#CCCCCC" d="M74.9,638.5c0-0.2,0.2-0.3,0.3-0.3h8.2c0.2,0,0.3,0.2,0.3,0.3v2.1c0,0.2-0.2,0.3-0.3,0.3H78v2.4h4.4
		c0.2,0,0.3,0.2,0.3,0.3v2.1c0,0.2-0.2,0.3-0.3,0.3H78v2.6h5.4c0.2,0,0.3,0.2,0.3,0.3v2.1c0,0.2-0.2,0.3-0.3,0.3h-8.2
		c-0.2,0-0.3-0.2-0.3-0.3V638.5z"/>
</g>
<rect x="121.7" y="532.6" fill="#FFEC00" stroke="#FFEC00" stroke-miterlimit="10" width="19.2" height="84.2"/>
<rect x="141" y="524.3" fill="#E50083" stroke="#E50083" stroke-miterlimit="10" width="19.2" height="92.5"/>
<rect x="160.2" y="582.5" fill="#E50004" width="19.2" height="34.3"/>
<rect x="179.5" y="542.7" fill="#00A6EB" stroke="#00A6EB" stroke-miterlimit="10" width="19.2" height="74.1"/>
<rect x="198.6" y="462.3" fill="#60B01F" stroke="#60B01F" stroke-miterlimit="10" width="19.2" height="154.5"/>
<g>
	<path fill="#CCCCCC" d="M145.6,650l1.3-1.3c0.2-0.2,0.3-0.2,0.5,0s0.5,0.5,1,0.5c0.5,0,1.1-0.5,1.1-1.5v-9.3c0-0.2,0.2-0.3,0.3-0.3
		h2.4c0.2,0,0.3,0.2,0.3,0.3v9.3c0,2.8-2,4.2-4.2,4.2c-1.6,0-2.6-1-2.9-1.5C145.4,650.4,145.6,650.2,145.6,650z"/>
	<path fill="#CCCCCC" d="M156,651.2l6.2-13.2c0-0.2,0.2-0.2,0.3-0.2h0.2c0.2,0,0.3,0.2,0.3,0.2l6.2,13.2c0.2,0.3,0,0.5-0.3,0.5h-2.1
		c-0.3,0-0.5-0.2-0.7-0.5l-0.7-1.5h-5.4l-0.7,1.6c-0.2,0.2-0.3,0.5-0.7,0.5h-2.1C156,651.7,155.8,651.5,156,651.2z M164,647.1
		l-1.5-3.3l0,0l-1.5,3.3H164z"/>
	<path fill="#CCCCCC" d="M171.5,651l5.2-10.1l0,0h-4.2c-0.2,0-0.3-0.2-0.3-0.3v-2.1c0-0.2,0.2-0.3,0.3-0.3h8.3
		c0.2,0,0.3,0.2,0.3,0.3v0.3l-5.1,10.1l0,0h4.2c0.2,0,0.3,0.2,0.3,0.3v2.1c0,0.2-0.2,0.3-0.3,0.3h-8.5c-0.2,0-0.3-0.2-0.3-0.3V651z"
		/>
	<path fill="#CCCCCC" d="M184.1,651l5.2-10.1l0,0H185c-0.2,0-0.3-0.2-0.3-0.3v-2.1c0-0.2,0.2-0.3,0.3-0.3h8.3c0.2,0,0.3,0.2,0.3,0.3
		v0.3l-5.1,10.1l0,0h4.2c0.2,0,0.3,0.2,0.3,0.3v2.1c0,0.2-0.2,0.3-0.3,0.3h-8.5c-0.2,0-0.3-0.2-0.3-0.3V651z"/>
</g>
<rect x="237.9" y="308.5" fill="#940084" stroke="#940084" stroke-miterlimit="10" width="19.2" height="308"/>
<rect x="257.1" y="364.3" fill="#FFEC00" stroke="#FFEC00" stroke-miterlimit="10" width="19.2" height="252.5"/>
<rect x="276.4" y="385.5" fill="#E50083" stroke="#E50083" stroke-miterlimit="10" width="19.2" height="231.2"/>
<rect x="295.6" y="479.9" fill="#E50004" stroke="#E50004" stroke-miterlimit="10" width="19.2" height="136.9"/>
<rect x="334.1" y="462.3" fill="#60B01F" stroke="#60B01F" stroke-miterlimit="10" width="19.2" height="154.5"/>
<g>
	<path fill="#CCCCCC" d="M277,638.3c0-0.2,0.2-0.3,0.3-0.3h4.7c2.4,0,4.4,2,4.4,4.4s-2,4.4-4.4,4.4H280v4.6c0,0.2-0.2,0.3-0.3,0.3
		h-2.3c-0.2,0-0.3-0.2-0.3-0.3V638.3z M282.1,643.7c0.8,0,1.5-0.7,1.5-1.5c0-0.8-0.7-1.5-1.5-1.5h-1.8v2.9H282.1z"/>
	<path fill="#CCCCCC" d="M296.6,637.6c3.9,0,7,3.1,7,7c0,3.9-3.1,7-7,7s-7-3.1-7-7C289.6,640.7,292.7,637.6,296.6,637.6z
		 M296.6,648.6c2.1,0,3.9-1.8,3.9-3.9c0-2.1-1.8-3.9-3.9-3.9c-2.1,0-3.9,1.8-3.9,3.9C292.7,646.9,294.5,648.6,296.6,648.6z"/>
	<path fill="#CCCCCC" d="M308,638.3c0-0.2,0.2-0.3,0.3-0.3h4.7c2.4,0,4.4,2,4.4,4.4s-2,4.4-4.4,4.4H311v4.6c0,0.2-0.2,0.3-0.3,0.3
		h-2.3c-0.2,0-0.3-0.2-0.3-0.3V638.3z M312.9,643.7c0.8,0,1.5-0.7,1.5-1.5c0-0.8-0.7-1.5-1.5-1.5h-1.8v2.9H312.9z"/>
</g>
<g>
	<path fill="#CCCCCC" d="M393.7,638.5c0-0.2,0.2-0.3,0.3-0.3h5.9c2.3,0,4.2,2,4.2,4.2c0,1.8-1.1,3.3-2.9,3.9l2.6,4.9
		c0.2,0.3,0,0.5-0.3,0.5h-2.6c-0.2,0-0.3-0.2-0.3-0.2l-2.6-5.2h-1.3v5.1c0,0.2-0.2,0.3-0.3,0.3H394c-0.2,0-0.3-0.2-0.3-0.3V638.5
		L393.7,638.5z M399.7,643.8c0.8,0,1.5-0.8,1.5-1.6c0-0.8-0.7-1.5-1.5-1.5h-2.9v3.1H399.7z"/>
	<path fill="#CCCCCC" d="M414.9,637.8c3.9,0,7,3.1,7,7s-3.1,7-7,7c-3.9,0-7-3.1-7-7S411,637.8,414.9,637.8z M414.9,648.7
		c2.1,0,3.9-1.8,3.9-3.9c0-2.1-1.8-3.9-3.9-3.9c-2.1,0-3.9,1.8-3.9,3.9C411,647.1,412.8,648.7,414.9,648.7z"/>
	<path fill="#CCCCCC" d="M432.3,637.8c2,0,3.4,0.7,4.7,1.8c0.2,0.2,0.2,0.3,0,0.5l-1.5,1.6c-0.2,0.2-0.3,0.2-0.5,0
		c-0.7-0.7-1.6-1-2.6-1c-2.3,0-3.8,1.8-3.8,4.1c0,2.1,1.6,3.9,3.9,3.9c1,0,2-0.3,2.6-1c0.2-0.2,0.3-0.2,0.5,0l1.5,1.6
		c0.2,0.2,0.2,0.3,0,0.5c-1.3,1.3-2.9,2-4.7,2c-3.9,0-7-3.1-7-7S428.4,637.8,432.3,637.8z"/>
	<path fill="#CCCCCC" d="M441.3,638.5c0-0.3,0.2-0.5,0.5-0.5h2.3c0.3,0,0.5,0.2,0.5,0.5v5.2l4.4-5.4c0-0.2,0.3-0.2,0.3-0.2h2.4
		c0.3,0,0.5,0.5,0.3,0.7l-4.6,5.7l5.1,6.5c0.2,0.3,0,0.7-0.3,0.7h-2.8c-0.2,0-0.3,0-0.3-0.2l-4.6-6.2v5.9c0,0.3-0.2,0.5-0.5,0.5
		h-2.3c-0.3,0-0.5-0.2-0.5-0.5L441.3,638.5L441.3,638.5z"/>
</g>
<rect x="373" y="462.5" fill="#940084" stroke="#940084" stroke-miterlimit="10" width="19.2" height="154.5"/>
<rect x="392.2" y="238" fill="#FFEC00" stroke="#FFEC00" stroke-miterlimit="10" width="19.2" height="378.8"/>
<rect x="411.5" y="293.1" fill="#E50083" stroke="#E50083" stroke-miterlimit="10" width="19.2" height="323.6"/>
<rect x="430.7" y="206.2" fill="#E50004" stroke="#E50004" stroke-miterlimit="10" width="19.2" height="410.6"/>
<g>
	<path fill="#CCCCCC" d="M512.8,638.5c0-0.2,0.2-0.3,0.3-0.3h5.9c2.3,0,4.2,2,4.2,4.2c0,1.8-1.1,3.3-2.9,3.9l2.6,4.9
		c0.2,0.3,0,0.5-0.3,0.5h-2.6c-0.2,0-0.3-0.2-0.3-0.2l-2.6-5.2h-1.3v5.1c0,0.2-0.2,0.3-0.3,0.3h-2.3c-0.2,0-0.3-0.2-0.3-0.3V638.5z
		 M518.6,643.8c0.8,0,1.5-0.8,1.5-1.6c0-0.8-0.7-1.5-1.5-1.5h-2.9v3.1H518.6z"/>
	<path fill="#CCCCCC" d="M536.4,644.3L536.4,644.3l-0.3-0.5c-0.8-0.8-1.3-1.6-1.3-2.8c0-1.5,1.3-3.1,3.8-3.1c2.3,0,3.9,1.5,3.9,3.3
		c0,2.1-2.1,3.3-2.1,3.4l1.8,1.8c0.3-0.5,0.5-1,0.7-1.5s0.2-0.7,0.8-0.5l1.5,0.5c0.5,0.2,0.3,0.7,0.3,1c-0.5,1.3-1.3,2.4-1.3,2.4
		l1.6,1.5c0.3,0.2,0.5,0.5,0,1l-1.1,1.1c-0.2,0.2-0.5,0.3-0.8,0l-1.3-1.3c0,0-1.3,1.5-4.2,1.5c-2.4,0-4.2-1.6-4.2-3.8
		C533.8,645.5,536.4,644.3,536.4,644.3z M538.4,649.6c1.5,0,2.1-1,2.1-1l-2.6-2.8c0,0-1.5,0.5-1.5,2.1
		C536.6,648.7,537.4,649.6,538.4,649.6z M540,641.2c0-0.7-0.7-1.3-1.5-1.3c-0.7,0-1.1,0.5-1.1,1c0,0.7,0.3,1,1,1.5l0.5,0.5
		C538.7,643,540,642.4,540,641.2z"/>
	<path fill="#CCCCCC" d="M556,638.5c0-0.2,0.2-0.3,0.3-0.3h4.6c2.3,0,4.2,1.6,4.2,3.6c0,1.5-1.3,2.6-2.3,3.1c1,0.5,2.6,1.5,2.6,3.3
		c0,2.1-2,3.8-4.2,3.8h-4.9c-0.2,0-0.3-0.2-0.3-0.3V638.5z M560.6,643.7c0.8,0,1.3-0.7,1.3-1.5c0-0.8-0.7-1.3-1.3-1.3h-1.5v2.8
		L560.6,643.7L560.6,643.7z M560.9,648.9c0.8,0,1.5-0.7,1.5-1.5c0-0.8-0.8-1.3-1.6-1.3h-1.6v2.8L560.9,648.9L560.9,648.9z"/>
</g>
<rect x="488.6" fill="#940084" stroke="#940084" stroke-miterlimit="10" width="19.2" height="616.8"/>
<rect x="507.7" y="532.6" fill="#FFEC00" stroke="#940084" stroke-miterlimit="10" width="19.2" height="84.2"/>
<rect x="527" y="524.3" fill="#E50083" stroke="#E50083" stroke-miterlimit="10" width="19.2" height="92.5"/>
<rect x="546.2" y="582.7" fill="#E50004" stroke="#E50004" stroke-miterlimit="10" width="19.2" height="34.3"/>
</svg>
