<?xml version="1.0" encoding="utf-8"?>
<!-- Generator: Adobe Illustrator 18.0.0, SVG Export Plug-In . SVG Version: 6.00 Build 0)  -->
<!DOCTYPE svg PUBLIC "-//W3C//DTD SVG 1.1//EN" "http://www.w3.org/Graphics/SVG/1.1/DTD/svg11.dtd">
<svg version="1.1" id="Layer_1" xmlns="http://www.w3.org/2000/svg" xmlns:xlink="http://www.w3.org/1999/xlink" x="0px" y="0px"
	 viewBox="0 0 842 653" enable-background="new 0 0 842 653" xml:space="preserve">
<rect x="1228.4" y="-385.1" fill="#231F20" width="2241.3" height="1804"/>
<g>
	<circle fill="#FFFFFF" cx="421" cy="326.7" r="295.3"/>
	<g>
		<line fill="none" stroke="#231F20" stroke-width="0.5" x1="421" y1="643.5" x2="421" y2="9.9"/>
		<line fill="none" stroke="#231F20" stroke-width="0.5" x1="454.1" y1="641.8" x2="387.9" y2="11.6"/>
		<line fill="none" stroke="#231F20" stroke-width="0.5" x1="486.8" y1="636.6" x2="355.2" y2="16.8"/>
		<line fill="none" stroke="#231F20" stroke-width="0.5" x1="518.9" y1="628.1" x2="323.1" y2="25.3"/>
		<line fill="none" stroke="#231F20" stroke-width="0.5" x1="549.8" y1="616.1" x2="292.2" y2="37.2"/>
		<line fill="none" stroke="#231F20" stroke-width="0.5" x1="579.4" y1="601" x2="262.6" y2="52.3"/>
		<line fill="none" stroke="#231F20" stroke-width="0.5" x1="607.3" y1="583" x2="234.7" y2="70.3"/>
		<line fill="none" stroke="#231F20" stroke-width="0.5" x1="632.9" y1="562.1" x2="209.1" y2="91.3"/>
		<line fill="none" stroke="#231F20" stroke-width="0.5" x1="656.4" y1="538.8" x2="185.6" y2="114.7"/>
		<line fill="none" stroke="#231F20" stroke-width="0.5" x1="677.4" y1="513" x2="164.6" y2="140.4"/>
		<line fill="none" stroke="#231F20" stroke-width="0.5" x1="695.4" y1="485.1" x2="146.6" y2="168.3"/>
		<line fill="none" stroke="#231F20" stroke-width="0.5" x1="710.5" y1="455.5" x2="131.5" y2="197.8"/>
		<line fill="none" stroke="#231F20" stroke-width="0.5" x1="722.4" y1="424.6" x2="119.6" y2="228.7"/>
		<line fill="none" stroke="#231F20" stroke-width="0.5" x1="730.9" y1="392.5" x2="111.1" y2="260.9"/>
		<line fill="none" stroke="#231F20" stroke-width="0.5" x1="736.1" y1="359.8" x2="105.9" y2="293.6"/>
		<line fill="none" stroke="#231F20" stroke-width="0.5" x1="737.8" y1="326.7" x2="104.2" y2="326.7"/>
		<line fill="none" stroke="#231F20" stroke-width="0.5" x1="736.1" y1="293.6" x2="105.9" y2="359.8"/>
		<line fill="none" stroke="#231F20" stroke-width="0.5" x1="730.9" y1="260.9" x2="111.1" y2="392.5"/>
		<line fill="none" stroke="#231F20" stroke-width="0.5" x1="722.4" y1="228.7" x2="119.6" y2="424.6"/>
		<line fill="none" stroke="#231F20" stroke-width="0.5" x1="710.5" y1="197.8" x2="131.5" y2="455.5"/>
		<line fill="none" stroke="#231F20" stroke-width="0.5" x1="695.4" y1="168.3" x2="146.6" y2="485.1"/>
		<line fill="none" stroke="#231F20" stroke-width="0.5" x1="677.4" y1="140.4" x2="164.6" y2="513"/>
		<line fill="none" stroke="#231F20" stroke-width="0.5" x1="656.4" y1="114.7" x2="185.6" y2="538.6"/>
		<line fill="none" stroke="#231F20" stroke-width="0.5" x1="633.1" y1="91.3" x2="208.9" y2="562.1"/>
		<line fill="none" stroke="#231F20" stroke-width="0.5" x1="607.3" y1="70.3" x2="234.7" y2="583"/>
		<line fill="none" stroke="#231F20" stroke-width="0.5" x1="579.4" y1="52.3" x2="262.6" y2="601"/>
		<line fill="none" stroke="#231F20" stroke-width="0.5" x1="549.8" y1="37.2" x2="292.2" y2="616.1"/>
		<line fill="none" stroke="#231F20" stroke-width="0.5" x1="518.9" y1="25.3" x2="323.1" y2="628.1"/>
		<line fill="none" stroke="#231F20" stroke-width="0.5" x1="486.8" y1="16.8" x2="355.2" y2="636.6"/>
		<line fill="none" stroke="#231F20" stroke-width="0.5" x1="454.1" y1="11.6" x2="387.9" y2="641.8"/>
	</g>
	<g>
		<line fill="none" stroke="#231F20" stroke-width="2" x1="421" y1="653" x2="421" y2="0.4"/>
		<line fill="none" stroke="#231F20" stroke-width="2" x1="584.2" y1="609.3" x2="257.8" y2="44"/>
		<line fill="none" stroke="#231F20" stroke-width="2" x1="703.6" y1="489.8" x2="138.4" y2="163.5"/>
		<line fill="none" stroke="#231F20" stroke-width="2" x1="747.3" y1="326.7" x2="94.7" y2="326.7"/>
		<line fill="none" stroke="#231F20" stroke-width="2" x1="703.6" y1="163.5" x2="138.4" y2="489.8"/>
		<line fill="none" stroke="#231F20" stroke-width="2" x1="584.2" y1="44" x2="257.8" y2="609.3"/>
	</g>
	<path fill="#FFFFFF" d="M139.2,326.7c0-155.6,126.2-281.8,281.8-281.8s281.8,126.2,281.8,281.8S576.6,608.5,421,608.5
		S139.2,482.3,139.2,326.7z M421,622.7c163.5,0,296-132.5,296-296s-132.5-296-296-296s-296,132.5-296,296
		C125,490.2,257.5,622.7,421,622.7z"/>
	<circle fill="#231F20" cx="421" cy="326.7" r="7.1"/>
	<circle fill="#FFFFFF" cx="421" cy="326.7" r="259.5"/>
	<circle fill="#FFFFFF" cx="476.6" cy="134.8" r="15.8"/>
	<circle fill="#FFFFFF" cx="522.5" cy="261.2" r="19"/>
	<circle fill="#FFFFFF" cx="260" cy="158.8" r="86.3"/>
	<circle fill="#FFFFFF" cx="580.6" cy="134.8" r="13.7"/>
	<circle fill="#FFFFFF" cx="273.8" cy="507.6" r="6.9"/>
	<circle fill="#FFFFFF" cx="558.2" cy="172.5" r="8.6"/>
	<circle fill="#FFFFFF" cx="358" cy="167.4" r="57.4"/>
	<circle fill="#FFFFFF" cx="300.5" cy="239.1" r="44.7"/>
	<circle fill="#FFFFFF" cx="184.6" cy="239.1" r="43.1"/>
	<circle fill="#FFFFFF" cx="310.8" cy="110" r="27.6"/>
	<circle fill="#FFFFFF" cx="369.9" cy="68.4" r="15.8"/>
	<circle fill="#FFE400" cx="476.6" cy="134.8" r="15.8"/>
	<circle fill="#E60004" cx="522.5" cy="261.2" r="19"/>
	<circle fill="#60B01F" cx="260" cy="158.8" r="86.3"/>
	<circle fill="#00A6EB" cx="580.6" cy="134.8" r="13.7"/>
	<circle fill="#00A6EB" cx="273.8" cy="507.6" r="6.9"/>
	<circle fill="#E50083" cx="558.2" cy="172.5" r="8.6"/>
	<circle fill="#940084" cx="358" cy="167.4" r="57.4"/>
	<circle fill="#E60004" cx="300.5" cy="239.1" r="44.7"/>
	<circle fill="#E50083" cx="184.6" cy="239.1" r="43.1"/>
	<circle fill="#00A6EB" cx="310.8" cy="110" r="27.6"/>
	<circle fill="#FFE400" cx="369.9" cy="68.4" r="15.8"/>
</g>
</svg>
