<?xml version="1.0" encoding="utf-8"?>
<!-- Generator: Adobe Illustrator 18.0.0, SVG Export Plug-In . SVG Version: 6.00 Build 0)  -->
<!DOCTYPE svg PUBLIC "-//W3C//DTD SVG 1.1//EN" "http://www.w3.org/Graphics/SVG/1.1/DTD/svg11.dtd">
<svg version="1.1" id="Layer_1" xmlns="http://www.w3.org/2000/svg" xmlns:xlink="http://www.w3.org/1999/xlink" x="0px" y="0px"
	 viewBox="0 0 842 653" enable-background="new 0 0 842 653" xml:space="preserve">
<rect x="1228.4" y="-385.1" fill="#231F20" width="2241.3" height="1804"/>
<g>
	<circle fill="#1C1C1C" cx="422" cy="326.7" r="295.3"/>
	<g>
		<line fill="none" stroke="#FFFFFF" stroke-width="0.5" x1="420.6" y1="619.1" x2="420.6" y2="34.3"/>
		<line fill="none" stroke="#FFFFFF" stroke-width="0.5" x1="451.2" y1="617.5" x2="390.1" y2="35.9"/>
		<line fill="none" stroke="#FFFFFF" stroke-width="0.5" x1="481.3" y1="612.6" x2="359.8" y2="40.8"/>
		<line fill="none" stroke="#FFFFFF" stroke-width="0.5" x1="510.9" y1="604.7" x2="330.2" y2="48.7"/>
		<line fill="none" stroke="#FFFFFF" stroke-width="0.5" x1="539.5" y1="593.7" x2="301.6" y2="59.6"/>
		<line fill="none" stroke="#FFFFFF" stroke-width="0.5" x1="566.8" y1="579.9" x2="274.4" y2="73.5"/>
		<line fill="none" stroke="#FFFFFF" stroke-width="0.5" x1="592.4" y1="563.2" x2="248.7" y2="90.2"/>
		<line fill="none" stroke="#FFFFFF" stroke-width="0.5" x1="616.3" y1="544" x2="225" y2="109.4"/>
		<line fill="none" stroke="#FFFFFF" stroke-width="0.5" x1="637.9" y1="522.3" x2="203.3" y2="131"/>
		<line fill="none" stroke="#FFFFFF" stroke-width="0.5" x1="657.2" y1="498.5" x2="184.1" y2="154.9"/>
		<line fill="none" stroke="#FFFFFF" stroke-width="0.5" x1="673.8" y1="472.9" x2="167.4" y2="180.6"/>
		<line fill="none" stroke="#FFFFFF" stroke-width="0.5" x1="687.7" y1="445.6" x2="153.6" y2="207.8"/>
		<line fill="none" stroke="#FFFFFF" stroke-width="0.5" x1="698.6" y1="417.1" x2="142.6" y2="236.3"/>
		<line fill="none" stroke="#FFFFFF" stroke-width="0.5" x1="706.6" y1="387.5" x2="134.6" y2="265.8"/>
		<line fill="none" stroke="#FFFFFF" stroke-width="0.5" x1="711.4" y1="357.2" x2="129.8" y2="296.1"/>
		<line fill="none" stroke="#FFFFFF" stroke-width="0.5" x1="713" y1="326.7" x2="128.3" y2="326.7"/>
		<line fill="none" stroke="#FFFFFF" stroke-width="0.5" x1="711.4" y1="296.1" x2="129.8" y2="357.2"/>
		<line fill="none" stroke="#FFFFFF" stroke-width="0.5" x1="706.6" y1="265.8" x2="134.6" y2="387.5"/>
		<line fill="none" stroke="#FFFFFF" stroke-width="0.5" x1="698.6" y1="236.3" x2="142.6" y2="417.1"/>
		<line fill="none" stroke="#FFFFFF" stroke-width="0.5" x1="687.7" y1="207.8" x2="153.6" y2="445.6"/>
		<line fill="none" stroke="#FFFFFF" stroke-width="0.5" x1="673.8" y1="180.6" x2="167.4" y2="472.8"/>
		<line fill="none" stroke="#FFFFFF" stroke-width="0.5" x1="657.2" y1="154.9" x2="184.1" y2="498.5"/>
		<line fill="none" stroke="#FFFFFF" stroke-width="0.5" x1="637.9" y1="131" x2="203.3" y2="522.3"/>
		<line fill="none" stroke="#FFFFFF" stroke-width="0.5" x1="616.3" y1="109.4" x2="225" y2="544"/>
		<line fill="none" stroke="#FFFFFF" stroke-width="0.5" x1="592.4" y1="90.2" x2="248.7" y2="563.2"/>
		<line fill="none" stroke="#FFFFFF" stroke-width="0.5" x1="566.8" y1="73.5" x2="274.4" y2="579.9"/>
		<line fill="none" stroke="#FFFFFF" stroke-width="0.5" x1="539.5" y1="59.6" x2="301.6" y2="593.7"/>
		<line fill="none" stroke="#FFFFFF" stroke-width="0.5" x1="510.9" y1="48.7" x2="330.2" y2="604.7"/>
		<line fill="none" stroke="#FFFFFF" stroke-width="0.5" x1="481.3" y1="40.8" x2="359.8" y2="612.6"/>
		<line fill="none" stroke="#FFFFFF" stroke-width="0.5" x1="451.2" y1="35.9" x2="390.1" y2="617.5"/>
	</g>
	<g>
		<line fill="none" stroke="#FFFFFF" stroke-width="2" x1="674.6" y1="180.1" x2="166.8" y2="473.3"/>
	</g>
	<g>
		<line fill="none" stroke="#FFFFFF" stroke-width="2" x1="420.8" y1="618.3" x2="420.8" y2="35"/>
		<line fill="none" stroke="#FFFFFF" stroke-width="2" x1="566.5" y1="579.3" x2="274.9" y2="74.1"/>
		<line fill="none" stroke="#FFFFFF" stroke-width="2" x1="673.3" y1="472.6" x2="168.2" y2="180.9"/>
		<line fill="none" stroke="#FFFFFF" stroke-width="2" x1="712.4" y1="326.7" x2="129.1" y2="326.7"/>
		<line fill="none" stroke="#FFFFFF" stroke-width="2" x1="566.5" y1="74.1" x2="274.9" y2="579.3"/>
	</g>
	<circle fill="#231F20" stroke="#FFFFFF" cx="420.8" cy="326.7" r="7.1"/>
	<g>
		<path fill="#1C1C1C" d="M420.8,30.7c-163.5,0-296,132.5-296,296s132.5,296,296,296s296-132.5,296-296S584.2,30.7,420.8,30.7z
			 M420.8,608.5C265.1,608.5,139,482.3,139,326.7c0-155.6,126.2-281.8,281.8-281.8s281.8,126.2,281.8,281.8
			C702.4,482.3,576.4,608.5,420.8,608.5z"/>
		<circle fill="#1C1C1C" cx="422" cy="326.7" r="259.5"/>
	</g>
</g>
<circle fill="#FFE400" cx="337.4" cy="399.1" r="47.1"/>
<circle fill="#FFE400" cx="290.3" cy="119.1" r="7.8"/>
<circle fill="#60B01F" cx="290.3" cy="224.8" r="28.8"/>
<circle fill="#00A6EB" cx="270.3" cy="514.4" r="34.4"/>
<circle fill="#00A6EB" cx="271.5" cy="169.1" r="34.4"/>
<circle fill="#E50083" cx="665.8" cy="312.8" r="8.6"/>
<path fill="#E50083" d="M515.8,412.9c6.8,22.8-6.1,46.8-28.8,53.7c-22.8,6.8-46.8-6.1-53.7-28.8c-6.8-22.8,6.1-46.8,28.8-53.7
	C484.9,377.2,509,390.1,515.8,412.9z"/>
<path fill="#E50083" d="M389.1,463.1c0,23.8-19.3,43.1-43.1,43.1c-23.8,0-43.1-19.3-43.1-43.1c0-23.8,19.3-43.1,43.1-43.1
	S389.1,439.2,389.1,463.1z"/>
<circle fill="#E50083" cx="209.9" cy="230.1" r="25.9"/>
<path fill="#940084" d="M661.4,221.3c0,63.5-51.5,115-115,115s-115-51.5-115-115s51.5-115,115-115
	C610,106.3,661.4,157.8,661.4,221.3z"/>
<path fill="#FFE400" d="M525.5,169.1c0,34.7-28.1,62.8-62.8,62.8S400,203.8,400,169.1s28.1-62.8,62.8-62.8S525.5,134.4,525.5,169.1z
	"/>
<circle fill="#E60004" cx="539.4" cy="408" r="38.3"/>
<circle fill="#E60004" cx="209.9" cy="459.7" r="12.8"/>
<circle fill="#E60004" cx="326.7" cy="147.5" r="31.9"/>
<circle fill="#60B01F" cx="496.8" cy="491.9" r="28.8"/>
<circle fill="#FFE400" cx="594.9" cy="483.1" r="23.5"/>
<circle fill="#00A6EB" cx="645.7" cy="435.5" r="13.7"/>
<circle fill="#60B01F" cx="632" cy="280.2" r="28.8"/>
<circle fill="#E60004" cx="539.5" cy="181.2" r="25.6"/>
<circle fill="#00A6EB" cx="493.5" cy="94.1" r="41.4"/>
</svg>
