<?xml version="1.0" encoding="utf-8"?>
<!-- Generator: Adobe Illustrator 18.0.0, SVG Export Plug-In . SVG Version: 6.00 Build 0)  -->
<!DOCTYPE svg PUBLIC "-//W3C//DTD SVG 1.1//EN" "http://www.w3.org/Graphics/SVG/1.1/DTD/svg11.dtd">
<svg version="1.1" id="Layer_1" xmlns="http://www.w3.org/2000/svg" xmlns:xlink="http://www.w3.org/1999/xlink" x="0px" y="0px"
	 viewBox="0 0 1142 556" enable-background="new 0 0 1142 556" xml:space="preserve">
<g>
	<g>
		<path fill="#E50083" d="M94.4,401.2h-6.9l0.3-8.9c0-4.2-3.4-7.6-7.6-7.6H36.5c-4.2,0-7.6,3.4-7.6,7.6l1.9,53.4
			c0,3.5,2.3,6.4,5.5,7.3c0.1,1.8,1.5,3.3,3.4,3.3h37.7c1.9,0,3.4-1.5,3.4-3.4c0,0,0,0,0,0c3-1,5.1-3.9,5.1-7.2l0.4-11.4h8.1
			c4.2,0,7.6-3.4,7.6-7.6v-17.8C102,404.6,98.6,401.2,94.4,401.2z M95.8,422.3c0,2.2-1.8,3.9-3.9,3.9h-5.2c0,0-0.1,0-0.1,0l0.6-16.9
			h4.7c2.2,0,3.9,1.8,3.9,3.9V422.3z"/>
		<path fill="#E50083" d="M183.6,402.5h-6.9l0.4-10.2c0-4.2-3.4-7.6-7.6-7.6h-9c0-2.8-2.3-5.1-5.1-5.1h-16.9c-2.8,0-5.1,2.3-5.1,5.1
			h-7.5c-4.2,0-7.6,3.4-7.6,7.6l0.4,11.1c-1.7-1.9-2.8-3.4-2.8-3.4c-4-9.6-11.4-8.6-11.4-8.6c-4,0.2-5.6,4-5.6,4
			c-1.1,1.9,2.1,2.8,2.1,2.8c11.4,6.2,8.9,20.8,8.9,20.8c-0.6,10.4,4.6,15,10,17l0.3,9.7c0,3.5,2.3,6.4,5.5,7.3
			c0.1,1.8,1.5,3.3,3.4,3.3h37.7c1.9,0,3.4-1.5,3.4-3.4c0,0,0,0,0,0c3-1,5.1-3.9,5.1-7.2l0.4-10.2h8.1c4.2,0,7.6-3.4,7.6-7.6v-17.8
			C191.2,405.9,187.8,402.5,183.6,402.5z M185,423.6c0,2.2-1.8,3.9-3.9,3.9h-5.2c0,0-0.1,0-0.1,0l0.6-16.9h4.7
			c2.2,0,3.9,1.8,3.9,3.9V423.6z"/>
		<path fill="#E50083" d="M272.8,402.5h-6.9l0.4-10.2c0-4.2-3.4-7.6-7.6-7.6h-9c0-2.8-2.3-5.1-5.1-5.1h-16.9c-2.8,0-5.1,2.3-5.1,5.1
			h-7.5c-4.2,0-7.6,3.4-7.6,7.6l0.4,11.1c-1.7-1.9-2.8-3.4-2.8-3.4c-4-9.6-11.4-8.6-11.4-8.6c-4,0.2-5.6,4-5.6,4
			c-1.1,1.9,2.1,2.8,2.1,2.8c11.4,6.2,8.9,20.8,8.9,20.8c-0.6,10.4,4.6,15,10,17l0.3,9.7c0,3.5,2.3,6.4,5.5,7.3
			c0.1,1.8,1.5,3.3,3.4,3.3h37.7c1.9,0,3.4-1.5,3.4-3.4c0,0,0,0,0,0c3-1,5.1-3.9,5.1-7.2l0.4-10.2h8.1c4.2,0,7.6-3.4,7.6-7.6v-17.8
			C280.4,405.9,277,402.5,272.8,402.5z M274.2,423.6c0,2.2-1.8,3.9-3.9,3.9h-5.2c0,0-0.1,0-0.1,0l0.6-16.9h4.7
			c2.2,0,3.9,1.8,3.9,3.9V423.6z"/>
	</g>
	<g>
	</g>
	<g>
	</g>
	<g>
	</g>
	<g>
	</g>
	<g>
		<path fill="#E50083" d="M314.1,384.6h-16.2c-0.6,0-1,0.4-1,1v20.6c0,0.6,0.4,1,1,1h16.2c0.6,0,1-0.4,1-1v-20.6
			C315.1,385.1,314.6,384.6,314.1,384.6z"/>
		<path fill="#E50083" d="M334.4,384.6h-16.2c-0.6,0-1,0.4-1,1v20.6c0,0.6,0.4,1,1,1h16.2c0.6,0,1-0.4,1-1v-20.6
			C335.4,385.1,335,384.6,334.4,384.6z"/>
		<path fill="#E50083" d="M354.8,384.6h-16.2c-0.6,0-1,0.4-1,1v20.6c0,0.6,0.4,1,1,1h16.2c0.6,0,1-0.4,1-1v-20.6
			C355.8,385.1,355.3,384.6,354.8,384.6z"/>
		<path fill="#E50083" d="M314.1,409.4h-16.2c-0.6,0-1,0.4-1,1v20.6c0,0.6,0.4,1,1,1h16.2c0.6,0,1-0.4,1-1v-20.6
			C315.1,409.8,314.6,409.4,314.1,409.4z"/>
		<path fill="#E50083" d="M334.4,409.4h-16.2c-0.6,0-1,0.4-1,1v20.6c0,0.6,0.4,1,1,1h16.2c0.6,0,1-0.4,1-1v-20.6
			C335.4,409.8,335,409.4,334.4,409.4z"/>
		<path fill="#E50083" d="M354.8,409.4h-16.2c-0.6,0-1,0.4-1,1v20.6c0,0.6,0.4,1,1,1h16.2c0.6,0,1-0.4,1-1v-20.6
			C355.8,409.8,355.3,409.4,354.8,409.4z"/>
		<path fill="#E50083" d="M314,434.1h-16.2c-0.6,0-1,0.4-1,1v20.6c0,0.6,0.4,1,1,1H314c0.6,0,1-0.4,1-1v-20.6
			C315,434.6,314.5,434.1,314,434.1z"/>
		<path fill="#E50083" d="M334.3,434.1h-16.2c-0.6,0-1,0.4-1,1v20.6c0,0.6,0.4,1,1,1h16.2c0.6,0,1-0.4,1-1v-20.6
			C335.3,434.6,334.9,434.1,334.3,434.1z"/>
		<path fill="#E50083" d="M354.7,434.1h-16.2c-0.6,0-1,0.4-1,1v20.6c0,0.6,0.4,1,1,1h16.2c0.6,0,1-0.4,1-1v-20.6
			C355.7,434.6,355.3,434.1,354.7,434.1z"/>
	</g>
</g>
<g>
	<g>
		<path fill="#E60004" d="M94.4,212.4h-6.9l0.3-8.9c0-4.2-3.4-7.6-7.6-7.6H36.5c-4.2,0-7.6,3.4-7.6,7.6l1.9,53.4
			c0,3.5,2.3,6.4,5.5,7.3c0.1,1.8,1.5,3.3,3.4,3.3h37.7c1.9,0,3.4-1.5,3.4-3.4c0,0,0,0,0,0c3-1,5.1-3.9,5.1-7.2l0.4-11.4h8.1
			c4.2,0,7.6-3.4,7.6-7.6V220C102,215.8,98.6,212.4,94.4,212.4z M95.8,233.5c0,2.2-1.8,3.9-3.9,3.9h-5.2c0,0-0.1,0-0.1,0l0.6-16.9
			h4.7c2.2,0,3.9,1.8,3.9,3.9V233.5z"/>
		<path fill="#E60004" d="M183.6,212.4h-6.9l0.3-8.9c0-4.2-3.4-7.6-7.6-7.6h-43.7c-4.2,0-7.6,3.4-7.6,7.6l1.9,53.4
			c0,3.5,2.3,6.4,5.5,7.3c0.1,1.8,1.5,3.3,3.4,3.3h37.7c1.9,0,3.4-1.5,3.4-3.4c0,0,0,0,0,0c3-1,5.1-3.9,5.1-7.2l0.4-11.4h8.1
			c4.2,0,7.6-3.4,7.6-7.6V220C191.2,215.8,187.8,212.4,183.6,212.4z M185,233.5c0,2.2-1.8,3.9-3.9,3.9h-5.2c0,0-0.1,0-0.1,0
			l0.6-16.9h4.7c2.2,0,3.9,1.8,3.9,3.9V233.5z"/>
		<path fill="#E60004" d="M272.8,213.6h-6.9l0.4-10.2c0-4.2-3.4-7.6-7.6-7.6h-9c0-2.8-2.3-5.1-5.1-5.1h-16.9c-2.8,0-5.1,2.3-5.1,5.1
			h-7.5c-4.2,0-7.6,3.4-7.6,7.6l0.4,11.1c-1.7-1.9-2.8-3.4-2.8-3.4c-4-9.6-11.4-8.6-11.4-8.6c-4,0.2-5.6,4-5.6,4
			c-1.1,1.9,2.1,2.8,2.1,2.8c11.4,6.2,8.9,20.8,8.9,20.8c-0.6,10.4,4.6,15,10,17l0.3,9.7c0,3.5,2.3,6.4,5.5,7.3
			c0.1,1.8,1.5,3.3,3.4,3.3h37.7c1.9,0,3.4-1.5,3.4-3.4c0,0,0,0,0,0c3-1,5.1-3.9,5.1-7.2l0.4-10.2h8.1c4.2,0,7.6-3.4,7.6-7.6v-17.8
			C280.4,217,277,213.6,272.8,213.6z M193.5,202.5c0,0,0.1,0,0.2,0C193.7,202.5,193.6,202.5,193.5,202.5z M274.2,234.7
			c0,2.2-1.8,3.9-3.9,3.9h-5.2c0,0-0.1,0-0.1,0l0.6-16.9h4.7c2.2,0,3.9,1.8,3.9,3.9V234.7z"/>
		<path fill="#E60004" d="M362,213.6h-6.9l0.4-10.2c0-4.2-3.4-7.6-7.6-7.6h-9c0-2.8-2.3-5.1-5.1-5.1h-16.9c-2.8,0-5.1,2.3-5.1,5.1
			h-7.5c-4.2,0-7.6,3.4-7.6,7.6l0.4,11.1c-1.7-1.9-2.8-3.4-2.8-3.4c-4-9.6-11.4-8.6-11.4-8.6c-4,0.2-5.6,4-5.6,4
			c-1.1,1.9,2.1,2.8,2.1,2.8c11.4,6.2,8.9,20.8,8.9,20.8c-0.6,10.4,4.6,15,10,17l0.3,9.7c0,3.5,2.3,6.4,5.5,7.3
			c0.1,1.8,1.5,3.3,3.4,3.3h37.7c1.9,0,3.4-1.5,3.4-3.4c0,0,0,0,0,0c3-1,5.1-3.9,5.1-7.2l0.4-10.2h8.1c4.2,0,7.6-3.4,7.6-7.6v-17.8
			C369.7,217,366.2,213.6,362,213.6z M282.8,202.5c0,0,0.1,0,0.2,0C282.9,202.5,282.8,202.5,282.8,202.5z M363.5,234.7
			c0,2.2-1.8,3.9-3.9,3.9h-5.2c0,0-0.1,0-0.1,0l0.6-16.9h4.7c2.2,0,3.9,1.8,3.9,3.9V234.7z"/>
	</g>
	<g>
		<path fill="#E60004" d="M404,195.6h-16.2c-0.6,0-1,0.4-1,1v20.6c0,0.6,0.4,1,1,1H404c0.6,0,1-0.4,1-1v-20.6
			C405,196,404.6,195.6,404,195.6z"/>
		<path fill="#E60004" d="M424.4,195.6h-16.2c-0.6,0-1,0.4-1,1v20.6c0,0.6,0.4,1,1,1h16.2c0.6,0,1-0.4,1-1v-20.6
			C425.4,196,424.9,195.6,424.4,195.6z"/>
		<path fill="#E60004" d="M444.7,195.6h-16.2c-0.6,0-1,0.4-1,1v20.6c0,0.6,0.4,1,1,1h16.2c0.6,0,1-0.4,1-1v-20.6
			C445.7,196,445.3,195.6,444.7,195.6z"/>
		<path fill="#E60004" d="M404,220.3h-16.2c-0.6,0-1,0.4-1,1v20.6c0,0.6,0.4,1,1,1H404c0.6,0,1-0.4,1-1v-20.6
			C405,220.8,404.6,220.3,404,220.3z"/>
		<path fill="#E60004" d="M424.4,220.3h-16.2c-0.6,0-1,0.4-1,1v20.6c0,0.6,0.4,1,1,1h16.2c0.6,0,1-0.4,1-1v-20.6
			C425.4,220.8,424.9,220.3,424.4,220.3z"/>
		<path fill="#E60004" d="M444.7,220.3h-16.2c-0.6,0-1,0.4-1,1v20.6c0,0.6,0.4,1,1,1h16.2c0.6,0,1-0.4,1-1v-20.6
			C445.7,220.8,445.3,220.3,444.7,220.3z"/>
		<path fill="#E60004" d="M404,245.1h-16.2c-0.6,0-1,0.4-1,1v20.6c0,0.6,0.4,1,1,1H404c0.6,0,1-0.4,1-1v-20.6
			C405,245.5,404.5,245.1,404,245.1z"/>
		<path fill="#E60004" d="M424.3,245.1h-16.2c-0.6,0-1,0.4-1,1v20.6c0,0.6,0.4,1,1,1h16.2c0.6,0,1-0.4,1-1v-20.6
			C425.3,245.5,424.9,245.1,424.3,245.1z"/>
		<path fill="#E60004" d="M444.7,245.1h-16.2c-0.6,0-1,0.4-1,1v20.6c0,0.6,0.4,1,1,1h16.2c0.6,0,1-0.4,1-1v-20.6
			C445.7,245.5,445.2,245.1,444.7,245.1z"/>
	</g>
	<g>
	</g>
	<g>
	</g>
	<g>
	</g>
</g>
<g>
	<g>
		<path fill="#FFE400" d="M942.1,5.1H926c-0.6,0-1,0.4-1,1v20.6c0,0.6,0.4,1,1,1h16.2c0.6,0,1-0.4,1-1V6.1
			C943.1,5.6,942.7,5.1,942.1,5.1z"/>
		<path fill="#FFE400" d="M962.5,5.1h-16.2c-0.6,0-1,0.4-1,1v20.6c0,0.6,0.4,1,1,1h16.2c0.6,0,1-0.4,1-1V6.1
			C963.5,5.6,963.1,5.1,962.5,5.1z"/>
		<path fill="#FFE400" d="M982.9,5.1h-16.2c-0.6,0-1,0.4-1,1v20.6c0,0.6,0.4,1,1,1h16.2c0.6,0,1-0.4,1-1V6.1
			C983.9,5.6,983.4,5.1,982.9,5.1z"/>
		<path fill="#FFE400" d="M942.1,29.9H926c-0.6,0-1,0.4-1,1v20.6c0,0.6,0.4,1,1,1h16.2c0.6,0,1-0.4,1-1V30.9
			C943.1,30.3,942.7,29.9,942.1,29.9z"/>
		<path fill="#FFE400" d="M962.5,29.9h-16.2c-0.6,0-1,0.4-1,1v20.6c0,0.6,0.4,1,1,1h16.2c0.6,0,1-0.4,1-1V30.9
			C963.5,30.3,963.1,29.9,962.5,29.9z"/>
		<path fill="#FFE400" d="M982.9,29.9h-16.2c-0.6,0-1,0.4-1,1v20.6c0,0.6,0.4,1,1,1h16.2c0.6,0,1-0.4,1-1V30.9
			C983.9,30.3,983.4,29.9,982.9,29.9z"/>
		<path fill="#FFE400" d="M942.1,54.6h-16.2c-0.6,0-1,0.4-1,1v20.6c0,0.6,0.4,1,1,1h16.2c0.6,0,1-0.4,1-1V55.6
			C943.1,55.1,942.6,54.6,942.1,54.6z"/>
		<path fill="#FFE400" d="M962.4,54.6h-16.2c-0.6,0-1,0.4-1,1v20.6c0,0.6,0.4,1,1,1h16.2c0.6,0,1-0.4,1-1V55.6
			C963.4,55.1,963,54.6,962.4,54.6z"/>
		<path fill="#FFE400" d="M982.8,54.6h-16.2c-0.6,0-1,0.4-1,1v20.6c0,0.6,0.4,1,1,1h16.2c0.6,0,1-0.4,1-1V55.6
			C983.8,55.1,983.3,54.6,982.8,54.6z"/>
	</g>
	<g>
		<path fill="#FFE400" d="M94.4,21.5h-6.9l0.3-8.9c0-4.2-3.4-7.6-7.6-7.6H36.5c-4.2,0-7.6,3.4-7.6,7.6L30.8,66
			c0,3.5,2.3,6.4,5.5,7.3c0.1,1.8,1.5,3.3,3.4,3.3h37.7c1.9,0,3.4-1.5,3.4-3.4c0,0,0,0,0,0c3-1,5.1-3.9,5.1-7.2l0.4-11.4h8.1
			c4.2,0,7.6-3.4,7.6-7.6V29.1C102,24.9,98.6,21.5,94.4,21.5z M95.8,42.6c0,2.2-1.8,3.9-3.9,3.9h-5.2c0,0-0.1,0-0.1,0l0.6-16.9h4.7
			c2.2,0,3.9,1.8,3.9,3.9V42.6z"/>
		<path fill="#FFE400" d="M183.6,21.5h-6.9l0.3-8.9c0-4.2-3.4-7.6-7.6-7.6h-43.7c-4.2,0-7.6,3.4-7.6,7.6L120,66
			c0,3.5,2.3,6.4,5.5,7.3c0.1,1.8,1.5,3.3,3.4,3.3h37.7c1.9,0,3.4-1.5,3.4-3.4c0,0,0,0,0,0c3-1,5.1-3.9,5.1-7.2l0.4-11.4h8.1
			c4.2,0,7.6-3.4,7.6-7.6V29.1C191.2,24.9,187.8,21.5,183.6,21.5z M185,42.6c0,2.2-1.8,3.9-3.9,3.9h-5.2c0,0-0.1,0-0.1,0l0.6-16.9
			h4.7c2.2,0,3.9,1.8,3.9,3.9V42.6z"/>
		<path fill="#FFE400" d="M272.8,21.5h-6.9l0.3-8.9c0-4.2-3.4-7.6-7.6-7.6h-43.7c-4.2,0-7.6,3.4-7.6,7.6l1.9,53.4
			c0,3.5,2.3,6.4,5.5,7.3c0.1,1.8,1.5,3.3,3.4,3.3h37.7c1.9,0,3.4-1.5,3.4-3.4c0,0,0,0,0,0c3-1,5.1-3.9,5.1-7.2l0.4-11.4h8.1
			c4.2,0,7.6-3.4,7.6-7.6V29.1C280.4,24.9,277,21.5,272.8,21.5z M274.2,42.6c0,2.2-1.8,3.9-3.9,3.9h-5.2c0,0-0.1,0-0.1,0l0.6-16.9
			h4.7c2.2,0,3.9,1.8,3.9,3.9V42.6z"/>
		<path fill="#FFE400" d="M362,21.5h-6.9l0.3-8.9c0-4.2-3.4-7.6-7.6-7.6h-43.7c-4.2,0-7.6,3.4-7.6,7.6l1.9,53.4
			c0,3.5,2.3,6.4,5.5,7.3c0.1,1.8,1.5,3.3,3.4,3.3h37.7c1.9,0,3.4-1.5,3.4-3.4c0,0,0,0,0,0c3-1,5.1-3.9,5.1-7.2l0.4-11.4h8.1
			c4.2,0,7.6-3.4,7.6-7.6V29.1C369.7,24.9,366.2,21.5,362,21.5z M363.5,42.6c0,2.2-1.8,3.9-3.9,3.9h-5.2c0,0-0.1,0-0.1,0l0.6-16.9
			h4.7c2.2,0,3.9,1.8,3.9,3.9V42.6z"/>
		<path fill="#FFE400" d="M451.2,21.5h-6.9l0.3-8.9c0-4.2-3.4-7.6-7.6-7.6h-43.7c-4.2,0-7.6,3.4-7.6,7.6l1.9,53.4
			c0,3.5,2.3,6.4,5.5,7.3c0.1,1.8,1.5,3.3,3.4,3.3h37.7c1.9,0,3.4-1.5,3.4-3.4c0,0,0,0,0,0c3-1,5.1-3.9,5.1-7.2l0.4-11.4h8.1
			c4.2,0,7.6-3.4,7.6-7.6V29.1C458.9,24.9,455.5,21.5,451.2,21.5z M452.7,42.6c0,2.2-1.8,3.9-3.9,3.9h-5.2c0,0-0.1,0-0.1,0l0.6-16.9
			h4.7c2.2,0,3.9,1.8,3.9,3.9V42.6z"/>
		<path fill="#FFE400" d="M540.5,21.5h-6.9l0.3-8.9c0-4.2-3.4-7.6-7.6-7.6h-43.7c-4.2,0-7.6,3.4-7.6,7.6l1.9,53.4
			c0,3.5,2.3,6.4,5.5,7.3c0.1,1.8,1.5,3.3,3.4,3.3h37.7c1.9,0,3.4-1.5,3.4-3.4c0,0,0,0,0,0c3-1,5.1-3.9,5.1-7.2l0.4-11.4h8.1
			c4.2,0,7.6-3.4,7.6-7.6V29.1C548.1,24.9,544.7,21.5,540.5,21.5z M541.9,42.6c0,2.2-1.8,3.9-3.9,3.9h-5.2c0,0-0.1,0-0.1,0l0.6-16.9
			h4.7c2.2,0,3.9,1.8,3.9,3.9V42.6z"/>
		<path fill="#FFE400" d="M629.7,22.8h-6.9l0.4-10.2c0-4.2-3.4-7.6-7.6-7.6h-9c0-2.8-2.3-5.1-5.1-5.1h-16.9c-2.8,0-5.1,2.3-5.1,5.1
			h-7.5c-4.2,0-7.6,3.4-7.6,7.6l0.4,11.1c-1.7-1.9-2.8-3.4-2.8-3.4c-4-9.6-11.4-8.6-11.4-8.6s0.5,0,0,0c-4,0.2-5.6,4-5.6,4
			c-1.1,1.9,2.1,2.8,2.1,2.8c11.4,6.2,8.9,20.8,8.9,20.8c-0.6,10.4,4.6,15,10,17l0.3,9.7c0,3.5,2.3,6.4,5.5,7.3
			c0.1,1.8,1.5,3.3,3.4,3.3h37.7c1.9,0,3.4-1.5,3.4-3.4c0,0,0,0,0,0c3-1,5.1-3.9,5.1-7.2l0.4-10.2h8.1c4.2,0,7.6-3.4,7.6-7.6V30.4
			C637.3,26.2,633.9,22.8,629.7,22.8z M631.1,43.9c0,2.2-1.8,3.9-3.9,3.9H622c0,0-0.1,0-0.1,0l0.6-16.9h4.7c2.2,0,3.9,1.8,3.9,3.9
			V43.9z"/>
		<path fill="#FFE400" d="M718.9,22.8H712l0.4-10.2c0-4.2-3.4-7.6-7.6-7.6h-9c0-2.8-2.3-5.1-5.1-5.1h-16.9c-2.8,0-5.1,2.3-5.1,5.1
			h-7.5c-4.2,0-7.6,3.4-7.6,7.6l0.4,11.1c-1.7-1.9-2.8-3.4-2.8-3.4c-4-9.6-11.4-8.6-11.4-8.6s0.5,0,0,0c-4,0.2-5.6,4-5.6,4
			c-1.1,1.9,2.1,2.8,2.1,2.8c11.4,6.2,8.9,20.8,8.9,20.8c-0.6,10.4,4.6,15,10,17l0.3,9.7c0,3.5,2.3,6.4,5.5,7.3
			c0.1,1.8,1.5,3.3,3.4,3.3H702c1.9,0,3.4-1.5,3.4-3.4c0,0,0,0,0,0c3-1,5.1-3.9,5.1-7.2l0.4-10.2h8.1c4.2,0,7.6-3.4,7.6-7.6V30.4
			C726.5,26.2,723.1,22.8,718.9,22.8z M720.3,43.9c0,2.2-1.8,3.9-3.9,3.9h-5.2c0,0-0.1,0-0.1,0l0.6-16.9h4.7c2.2,0,3.9,1.8,3.9,3.9
			V43.9z"/>
		<path fill="#FFE400" d="M804.6,24.1h-6.9l0.4-10.1c0-4.2-3.4-7.6-7.6-7.6h-9c0-2.8-2.3-5.1-5.1-5.1h-16.8c-2.8,0-5.1,2.3-5.1,5.1
			h-7.4c-4.2,0-7.6,3.4-7.6,7.6l0.4,11c-1.7-1.9-2.7-3.4-2.7-3.4C733.3,12,726,13,726,13s0.1,0,0.2,0c0,0-0.1,0-0.2,0
			c-3.9,0.2-5.6,4-5.6,4c-1.1,1.9,2.1,2.8,2.1,2.8c11.3,6.1,8.8,20.7,8.8,20.7c-0.6,10.3,4.6,14.9,9.9,16.9l0.3,9.6
			c0,3.5,2.3,6.4,5.5,7.3c0.1,1.8,1.5,3.2,3.4,3.2h37.4c1.9,0,3.4-1.5,3.4-3.4c0,0,0,0,0,0c2.9-1,5-3.8,5-7.1l0.4-10.1h8
			c4.2,0,7.6-3.4,7.6-7.6V31.6C812.2,27.4,808.8,24.1,804.6,24.1z M806,45c0,2.1-1.7,3.9-3.9,3.9H797c0,0-0.1,0-0.1,0l0.6-16.8h4.7
			c2.1,0,3.9,1.7,3.9,3.9V45z"/>
		<path fill="#FFE400" d="M900.9,22.8H894l0.4-10.2c0-4.2-3.4-7.6-7.6-7.6h-9c0-2.8-2.3-5.1-5.1-5.1h-16.9c-2.8,0-5.1,2.3-5.1,5.1
			h-7.5c-4.2,0-7.6,3.4-7.6,7.6l0.4,11.1c-1.7-1.9-2.8-3.4-2.8-3.4c-4-9.6-11.4-8.6-11.4-8.6c-4,0.2-5.6,4-5.6,4
			c-1.1,1.9,2.1,2.8,2.1,2.8c11.4,6.2,8.9,20.8,8.9,20.8c-0.6,10.4,4.6,15,10,17l0.3,9.7c0,3.5,2.3,6.4,5.5,7.3
			c0.1,1.8,1.5,3.3,3.4,3.3H884c1.9,0,3.4-1.5,3.4-3.4c0,0,0,0,0,0c3-1,5.1-3.9,5.1-7.2l0.4-10.2h8.1c4.2,0,7.6-3.4,7.6-7.6V30.4
			C908.5,26.2,905.1,22.8,900.9,22.8z M821.7,11.6C821.7,11.6,822,11.6,821.7,11.6L821.7,11.6z M902.3,43.9c0,2.2-1.8,3.9-3.9,3.9
			h-5.2c0,0-0.1,0-0.1,0l0.6-16.9h4.7c2.2,0,3.9,1.8,3.9,3.9V43.9z"/>
	</g>
</g>
<g>
	<g>
		<path fill="#60B01F" d="M493,99.2h-16.2c-0.6,0-1,0.4-1,1v20.6c0,0.6,0.4,1,1,1H493c0.6,0,1-0.4,1-1v-20.6
			C494,99.6,493.6,99.2,493,99.2z"/>
		<path fill="#60B01F" d="M513.4,99.2h-16.2c-0.6,0-1,0.4-1,1v20.6c0,0.6,0.4,1,1,1h16.2c0.6,0,1-0.4,1-1v-20.6
			C514.4,99.6,514,99.2,513.4,99.2z"/>
		<path fill="#60B01F" d="M533.8,99.2h-16.2c-0.6,0-1,0.4-1,1v20.6c0,0.6,0.4,1,1,1h16.2c0.6,0,1-0.4,1-1v-20.6
			C534.8,99.6,534.3,99.2,533.8,99.2z"/>
		<path fill="#60B01F" d="M493,123.9h-16.2c-0.6,0-1,0.4-1,1v20.6c0,0.6,0.4,1,1,1H493c0.6,0,1-0.4,1-1v-20.6
			C494,124.4,493.6,123.9,493,123.9z"/>
		<path fill="#60B01F" d="M513.4,123.9h-16.2c-0.6,0-1,0.4-1,1v20.6c0,0.6,0.4,1,1,1h16.2c0.6,0,1-0.4,1-1v-20.6
			C514.4,124.4,514,123.9,513.4,123.9z"/>
		<path fill="#60B01F" d="M533.8,123.9h-16.2c-0.6,0-1,0.4-1,1v20.6c0,0.6,0.4,1,1,1h16.2c0.6,0,1-0.4,1-1v-20.6
			C534.8,124.4,534.3,123.9,533.8,123.9z"/>
		<path fill="#60B01F" d="M493,148.7h-16.2c-0.6,0-1,0.4-1,1v20.6c0,0.6,0.4,1,1,1H493c0.6,0,1-0.4,1-1v-20.6
			C494,149.1,493.5,148.7,493,148.7z"/>
		<path fill="#60B01F" d="M513.3,148.7h-16.2c-0.6,0-1,0.4-1,1v20.6c0,0.6,0.4,1,1,1h16.2c0.6,0,1-0.4,1-1v-20.6
			C514.3,149.1,513.9,148.7,513.3,148.7z"/>
		<path fill="#60B01F" d="M533.7,148.7h-16.2c-0.6,0-1,0.4-1,1v20.6c0,0.6,0.4,1,1,1h16.2c0.6,0,1-0.4,1-1v-20.6
			C534.7,149.1,534.3,148.7,533.7,148.7z"/>
	</g>
	<g>
		<path fill="#60B01F" d="M272.8,117.7h-6.9l0.4-10.2c0-4.2-3.4-7.6-7.6-7.6h-9c0-2.8-2.3-5.1-5.1-5.1h-16.9c-2.8,0-5.1,2.3-5.1,5.1
			h-7.5c-4.2,0-7.6,3.4-7.6,7.6l0.4,11.1c-1.7-1.9-2.8-3.4-2.8-3.4c-4-9.6-11.4-8.6-11.4-8.6c-4,0.2-5.6,4-5.6,4
			c-1.1,1.9,2.1,2.8,2.1,2.8c11.4,6.2,8.9,20.8,8.9,20.8c-0.6,10.4,4.6,15,10,17l0.3,9.7c0,3.5,2.3,6.4,5.5,7.3
			c0.1,1.8,1.5,3.3,3.4,3.3h37.7c1.9,0,3.4-1.5,3.4-3.4c0,0,0,0,0,0c3-1,5.1-3.9,5.1-7.2l0.4-10.2h8.1c4.2,0,7.6-3.4,7.6-7.6v-17.8
			C280.4,121.1,277,117.7,272.8,117.7z M193.7,106.6C193.7,106.6,193.7,106.6,193.7,106.6L193.7,106.6z M274.2,138.8
			c0,2.2-1.8,3.9-3.9,3.9h-5.2c0,0-0.1,0-0.1,0l0.6-16.9h4.7c2.2,0,3.9,1.8,3.9,3.9V138.8z"/>
		<path fill="#60B01F" d="M362,117.7h-6.9l0.4-10.2c0-4.2-3.4-7.6-7.6-7.6h-9c0-2.8-2.3-5.1-5.1-5.1h-16.9c-2.8,0-5.1,2.3-5.1,5.1
			h-7.5c-4.2,0-7.6,3.4-7.6,7.6l0.4,11.1c-1.7-1.9-2.8-3.4-2.8-3.4c-4-9.6-11.4-8.6-11.4-8.6c-4,0.2-5.6,4-5.6,4
			c-1.1,1.9,2.1,2.8,2.1,2.8c11.4,6.2,8.9,20.8,8.9,20.8c-0.6,10.4,4.6,15,10,17l0.3,9.7c0,3.5,2.3,6.4,5.5,7.3
			c0.1,1.8,1.5,3.3,3.4,3.3h37.7c1.9,0,3.4-1.5,3.4-3.4c0,0,0,0,0,0c3-1,5.1-3.9,5.1-7.2l0.4-10.2h8.1c4.2,0,7.6-3.4,7.6-7.6v-17.8
			C369.7,121.1,366.2,117.7,362,117.7z M282.9,106.6C283,106.6,283,106.6,282.9,106.6L282.9,106.6z M363.5,138.8
			c0,2.2-1.8,3.9-3.9,3.9h-5.2c0,0-0.1,0-0.1,0l0.6-16.9h4.7c2.2,0,3.9,1.8,3.9,3.9V138.8z"/>
		<path fill="#60B01F" d="M451.2,117.7h-6.9l0.4-10.2c0-4.2-3.4-7.6-7.6-7.6h-9c0-2.8-2.3-5.1-5.1-5.1H406c-2.8,0-5.1,2.3-5.1,5.1
			h-7.5c-4.2,0-7.6,3.4-7.6,7.6l0.4,11.1c-1.7-1.9-2.8-3.4-2.8-3.4c-4-9.6-11.4-8.6-11.4-8.6c-4,0.2-5.6,4-5.6,4
			c-1.1,1.9,2.1,2.8,2.1,2.8c11.4,6.2,8.9,20.8,8.9,20.8c-0.6,10.4,4.6,15,10,17l0.3,9.7c0,3.5,2.3,6.4,5.5,7.3
			c0.1,1.8,1.5,3.3,3.4,3.3h37.7c1.9,0,3.4-1.5,3.4-3.4c0,0,0,0,0,0c3-1,5.1-3.9,5.1-7.2l0.4-10.2h8.1c4.2,0,7.6-3.4,7.6-7.6v-17.8
			C458.9,121.1,455.5,117.7,451.2,117.7z M372.2,106.6C372.2,106.6,372.2,106.6,372.2,106.6L372.2,106.6z M452.7,138.8
			c0,2.2-1.8,3.9-3.9,3.9h-5.2c0,0-0.1,0-0.1,0l0.6-16.9h4.7c2.2,0,3.9,1.8,3.9,3.9V138.8z"/>
		<path fill="#60B01F" d="M94.4,116.4h-6.9l0.3-8.9c0-4.2-3.4-7.6-7.6-7.6H36.5c-4.2,0-7.6,3.4-7.6,7.6l1.9,53.4
			c0,3.5,2.3,6.4,5.5,7.3c0.1,1.8,1.5,3.3,3.4,3.3h37.7c1.9,0,3.4-1.5,3.4-3.4c0,0,0,0,0,0c3-1,5.1-3.9,5.1-7.2l0.4-11.4h8.1
			c4.2,0,7.6-3.4,7.6-7.6v-17.8C102,119.9,98.6,116.4,94.4,116.4z M95.8,137.5c0,2.2-1.8,3.9-3.9,3.9h-5.2c0,0-0.1,0-0.1,0l0.6-16.9
			h4.7c2.2,0,3.9,1.8,3.9,3.9V137.5z"/>
		<path fill="#60B01F" d="M183.6,116.4h-6.9l0.3-8.9c0-4.2-3.4-7.6-7.6-7.6h-43.7c-4.2,0-7.6,3.4-7.6,7.6l1.9,53.4
			c0,3.5,2.3,6.4,5.5,7.3c0.1,1.8,1.5,3.3,3.4,3.3h37.7c1.9,0,3.4-1.5,3.4-3.4c0,0,0,0,0,0c3-1,5.1-3.9,5.1-7.2l0.4-11.4h8.1
			c4.2,0,7.6-3.4,7.6-7.6v-17.8C191.2,119.9,187.8,116.4,183.6,116.4z M185,137.5c0,2.2-1.8,3.9-3.9,3.9h-5.2c0,0-0.1,0-0.1,0
			l0.6-16.9h4.7c2.2,0,3.9,1.8,3.9,3.9V137.5z"/>
	</g>
	<g>
	</g>
	<g>
	</g>
</g>
<g>
	<g>
	</g>
	<g>
	</g>
	<g>
	</g>
	<g>
	</g>
	<g>
	</g>
	<g>
	</g>
	<g>
	</g>
	<g>
		<path fill="#940084" d="M94.4,495.7h-6.9l0.4-10.2c0-4.2-3.4-7.6-7.6-7.6h-9c0-2.8-2.3-5.1-5.1-5.1H49.1c-2.8,0-5.1,2.3-5.1,5.1
			h-7.5c-4.2,0-7.6,3.4-7.6,7.6l0.4,11.1c-1.7-1.9-2.8-3.4-2.8-3.4c-4-9.6-11.4-8.6-11.4-8.6s0.1,0,0.1,0c0,0-0.1,0-0.1,0
			c-4,0.2-5.6,4-5.6,4c-1.1,1.9,2.1,2.8,2.1,2.8c11.4,6.2,8.9,20.8,8.9,20.8c-0.6,10.4,4.6,15,10,17l0.3,9.7c0,3.5,2.3,6.4,5.5,7.3
			c0.1,1.8,1.5,3.3,3.4,3.3h37.7c1.9,0,3.4-1.5,3.4-3.4c0,0,0,0,0,0c3-1,5.1-3.9,5.1-7.2l0.4-10.2h8.1c4.2,0,7.6-3.4,7.6-7.6v-17.8
			C102,499.1,98.6,495.7,94.4,495.7z M95.8,516.8c0,2.2-1.8,3.9-3.9,3.9h-5.2c0,0-0.1,0-0.1,0l0.6-16.9h4.7c2.2,0,3.9,1.8,3.9,3.9
			V516.8z"/>
		<path fill="#940084" d="M135.3,477.8h-16.2c-0.6,0-1,0.4-1,1v20.6c0,0.6,0.4,1,1,1h16.2c0.6,0,1-0.4,1-1v-20.6
			C136.3,478.2,135.8,477.8,135.3,477.8z"/>
		<path fill="#940084" d="M155.6,477.8h-16.2c-0.6,0-1,0.4-1,1v20.6c0,0.6,0.4,1,1,1h16.2c0.6,0,1-0.4,1-1v-20.6
			C156.6,478.2,156.2,477.8,155.6,477.8z"/>
		<path fill="#940084" d="M176,477.8h-16.2c-0.6,0-1,0.4-1,1v20.6c0,0.6,0.4,1,1,1H176c0.6,0,1-0.4,1-1v-20.6
			C177,478.2,176.6,477.8,176,477.8z"/>
		<path fill="#940084" d="M135.3,502.5h-16.2c-0.6,0-1,0.4-1,1v20.6c0,0.6,0.4,1,1,1h16.2c0.6,0,1-0.4,1-1v-20.6
			C136.3,503,135.8,502.5,135.3,502.5z"/>
		<path fill="#940084" d="M155.6,502.5h-16.2c-0.6,0-1,0.4-1,1v20.6c0,0.6,0.4,1,1,1h16.2c0.6,0,1-0.4,1-1v-20.6
			C156.6,503,156.2,502.5,155.6,502.5z"/>
		<path fill="#940084" d="M176,502.5h-16.2c-0.6,0-1,0.4-1,1v20.6c0,0.6,0.4,1,1,1H176c0.6,0,1-0.4,1-1v-20.6
			C177,503,176.6,502.5,176,502.5z"/>
		<path fill="#940084" d="M135.2,527.3H119c-0.6,0-1,0.4-1,1v20.6c0,0.6,0.4,1,1,1h16.2c0.6,0,1-0.4,1-1v-20.6
			C136.2,527.7,135.8,527.3,135.2,527.3z"/>
		<path fill="#940084" d="M155.6,527.3h-16.2c-0.6,0-1,0.4-1,1v20.6c0,0.6,0.4,1,1,1h16.2c0.6,0,1-0.4,1-1v-20.6
			C156.6,527.7,156.1,527.3,155.6,527.3z"/>
		<path fill="#940084" d="M175.9,527.3h-16.2c-0.6,0-1,0.4-1,1v20.6c0,0.6,0.4,1,1,1h16.2c0.6,0,1-0.4,1-1v-20.6
			C176.9,527.7,176.5,527.3,175.9,527.3z"/>
	</g>
</g>
<g>
	<g>
		<path fill="#00A6EB" d="M183.6,307.5h-6.9l0.4-10.2c0-4.2-3.4-7.6-7.6-7.6h-9c0-2.8-2.3-5.1-5.1-5.1h-16.9c-2.8,0-5.1,2.3-5.1,5.1
			h-7.5c-4.2,0-7.6,3.4-7.6,7.6l0.4,11.1c-1.7-1.9-2.8-3.4-2.8-3.4c-4-9.6-11.4-8.6-11.4-8.6s0,0,0,0c0,0,0,0,0,0
			c-4,0.2-5.6,4-5.6,4c-1.1,1.9,2.1,2.8,2.1,2.8c11.4,6.2,8.9,20.8,8.9,20.8c-0.6,10.4,4.6,15,10,17l0.3,9.7c0,3.5,2.3,6.4,5.5,7.3
			c0.1,1.8,1.5,3.3,3.4,3.3h37.7c1.9,0,3.4-1.5,3.4-3.4c0,0,0,0,0,0c3-1,5.1-3.9,5.1-7.2l0.4-10.2h8.1c4.2,0,7.6-3.4,7.6-7.6v-17.8
			C191.2,311,187.8,307.5,183.6,307.5z M104.4,296.4c0,0,0.1,0,0.1,0C104.5,296.4,104.4,296.4,104.4,296.4z M185,328.6
			c0,2.2-1.8,3.9-3.9,3.9h-5.2c0,0-0.1,0-0.1,0l0.6-16.9h4.7c2.2,0,3.9,1.7,3.9,3.9V328.6z"/>
		<path fill="#00A6EB" d="M272.8,307.5h-6.9l0.4-10.2c0-4.2-3.4-7.6-7.6-7.6h-9c0-2.8-2.3-5.1-5.1-5.1h-16.9c-2.8,0-5.1,2.3-5.1,5.1
			h-7.5c-4.2,0-7.6,3.4-7.6,7.6l0.4,11.1c-1.7-1.9-2.8-3.4-2.8-3.4c-4-9.6-11.4-8.6-11.4-8.6s0,0,0,0c0,0,0,0,0,0
			c-4,0.2-5.6,4-5.6,4c-1.1,1.9,2.1,2.8,2.1,2.8c11.4,6.2,8.9,20.8,8.9,20.8c-0.6,10.4,4.6,15,10,17l0.3,9.7c0,3.5,2.3,6.4,5.5,7.3
			c0.1,1.8,1.5,3.3,3.4,3.3h37.7c1.9,0,3.4-1.5,3.4-3.4c0,0,0,0,0,0c3-1,5.1-3.9,5.1-7.2l0.4-10.2h8.1c4.2,0,7.6-3.4,7.6-7.6v-17.8
			C280.4,311,277,307.5,272.8,307.5z M193.6,296.4c0,0,0.1,0,0.1,0C193.7,296.4,193.7,296.4,193.6,296.4z M274.2,328.6
			c0,2.2-1.8,3.9-3.9,3.9h-5.2c0,0-0.1,0-0.1,0l0.6-16.9h4.7c2.2,0,3.9,1.7,3.9,3.9V328.6z"/>
		<path fill="#00A6EB" d="M94.4,306.3h-6.9l0.3-8.9c0-4.2-3.4-7.6-7.6-7.6H36.5c-4.2,0-7.6,3.4-7.6,7.6l1.9,53.4
			c0,3.5,2.3,6.4,5.5,7.3c0.1,1.8,1.5,3.3,3.4,3.3h37.7c1.9,0,3.4-1.5,3.4-3.4c0,0,0,0,0,0c3-1,5.1-3.9,5.1-7.2l0.4-11.4h8.1
			c4.2,0,7.6-3.4,7.6-7.6v-17.8C102,309.7,98.6,306.3,94.4,306.3z M95.8,327.4c0,2.2-1.8,3.9-3.9,3.9h-5.2c0,0-0.1,0-0.1,0l0.6-16.9
			h4.7c2.2,0,3.9,1.8,3.9,3.9V327.4z"/>
	</g>
	<g>
	</g>
	<g>
	</g>
	<g>
		<path fill="#00A6EB" d="M314.3,289.6h-16.2c-0.6,0-1,0.4-1,1v20.6c0,0.6,0.4,1,1,1h16.2c0.6,0,1-0.4,1-1v-20.6
			C315.3,290,314.8,289.6,314.3,289.6z"/>
		<path fill="#00A6EB" d="M334.6,289.6h-16.2c-0.6,0-1,0.4-1,1v20.6c0,0.6,0.4,1,1,1h16.2c0.6,0,1-0.4,1-1v-20.6
			C335.6,290,335.2,289.6,334.6,289.6z"/>
		<path fill="#00A6EB" d="M355,289.6h-16.2c-0.6,0-1,0.4-1,1v20.6c0,0.6,0.4,1,1,1H355c0.6,0,1-0.4,1-1v-20.6
			C356,290,355.5,289.6,355,289.6z"/>
		<path fill="#00A6EB" d="M314.3,314.3h-16.2c-0.6,0-1,0.4-1,1v20.6c0,0.6,0.4,1,1,1h16.2c0.6,0,1-0.4,1-1v-20.6
			C315.3,314.8,314.8,314.3,314.3,314.3z"/>
		<path fill="#00A6EB" d="M334.6,314.3h-16.2c-0.6,0-1,0.4-1,1v20.6c0,0.6,0.4,1,1,1h16.2c0.6,0,1-0.4,1-1v-20.6
			C335.6,314.8,335.2,314.3,334.6,314.3z"/>
		<path fill="#00A6EB" d="M355,314.3h-16.2c-0.6,0-1,0.4-1,1v20.6c0,0.6,0.4,1,1,1H355c0.6,0,1-0.4,1-1v-20.6
			C356,314.8,355.5,314.3,355,314.3z"/>
		<path fill="#00A6EB" d="M314.2,339.1H298c-0.6,0-1,0.4-1,1v20.6c0,0.6,0.4,1,1,1h16.2c0.6,0,1-0.4,1-1v-20.6
			C315.2,339.5,314.8,339.1,314.2,339.1z"/>
		<path fill="#00A6EB" d="M334.6,339.1h-16.2c-0.6,0-1,0.4-1,1v20.6c0,0.6,0.4,1,1,1h16.2c0.6,0,1-0.4,1-1v-20.6
			C335.6,339.5,335.1,339.1,334.6,339.1z"/>
		<path fill="#00A6EB" d="M354.9,339.1h-16.2c-0.6,0-1,0.4-1,1v20.6c0,0.6,0.4,1,1,1h16.2c0.6,0,1-0.4,1-1v-20.6
			C355.9,339.5,355.5,339.1,354.9,339.1z"/>
	</g>
</g>
<g>
</g>
<g>
</g>
<g>
	<rect x="1014.5" y="11.2" fill="#FFE400" width="8.1" height="1.7"/>
	<rect x="1014.5" y="5" fill="#FFE400" width="8.1" height="1.7"/>
	<rect x="1014.5" y="8.1" fill="#FFE400" width="8.1" height="1.7"/>
	<rect x="1014.5" y="56.9" fill="#FFE400" width="8.1" height="20.3"/>
	<rect x="1014.5" y="17.5" fill="#FFE400" width="8.1" height="36.9"/>
	<rect x="1027.1" y="11.2" fill="#FFE400" width="8.1" height="1.7"/>
	<rect x="1027.1" y="5" fill="#FFE400" width="8.1" height="1.7"/>
	<rect x="1027.1" y="8.1" fill="#FFE400" width="8.1" height="1.7"/>
	<rect x="1027.1" y="17.5" fill="#FFE400" width="8.1" height="36.9"/>
	<rect x="1027.1" y="56.9" fill="#FFE400" width="8.1" height="20.3"/>
	<rect x="1039.7" y="11.2" fill="#FFE400" width="8.1" height="1.7"/>
	<rect x="1039.7" y="5" fill="#FFE400" width="8.1" height="1.7"/>
	<rect x="1039.7" y="8.1" fill="#FFE400" width="8.1" height="1.7"/>
	<rect x="1039.7" y="56.9" fill="#FFE400" width="8.1" height="20.3"/>
	<rect x="1039.7" y="17.5" fill="#FFE400" width="8.1" height="36.9"/>
	<rect x="1052.3" y="11.2" fill="#FFE400" width="8.1" height="1.7"/>
	<rect x="1052.3" y="5" fill="#FFE400" width="8.1" height="1.7"/>
	<rect x="1052.3" y="8.1" fill="#FFE400" width="8.1" height="1.7"/>
	<rect x="1052.3" y="56.9" fill="#FFE400" width="8.1" height="20.3"/>
	<rect x="1052.3" y="17.5" fill="#FFE400" width="8.1" height="36.9"/>
	<rect x="1064.9" y="11.2" fill="#FFE400" width="8.1" height="1.7"/>
	<rect x="1064.9" y="5" fill="#FFE400" width="8.1" height="1.7"/>
	<rect x="1064.9" y="8.1" fill="#FFE400" width="8.1" height="1.7"/>
	<rect x="1064.9" y="56.9" fill="#FFE400" width="8.1" height="20.3"/>
	<rect x="1064.9" y="17.5" fill="#FFE400" width="8.1" height="36.9"/>
</g>
<g>
	<rect x="1103.9" y="11.2" fill="#FFE400" width="8.1" height="1.7"/>
	<rect x="1103.9" y="5" fill="#FFE400" width="8.1" height="1.7"/>
	<rect x="1103.9" y="8.1" fill="#FFE400" width="8.1" height="1.7"/>
	<rect x="1103.9" y="56.9" fill="#FFE400" width="8.1" height="20.3"/>
	<rect x="1103.9" y="17.5" fill="#FFE400" width="8.1" height="36.9"/>
	<rect x="1116.5" y="11.2" fill="#FFE400" width="8.1" height="1.7"/>
	<rect x="1116.5" y="5" fill="#FFE400" width="8.1" height="1.7"/>
	<rect x="1116.5" y="8.1" fill="#FFE400" width="8.1" height="1.7"/>
	<rect x="1116.5" y="56.9" fill="#FFE400" width="8.1" height="20.3"/>
	<rect x="1116.5" y="17.5" fill="#FFE400" width="8.1" height="36.9"/>
	<rect x="1129.1" y="11.2" fill="#FFE400" width="8.1" height="1.7"/>
	<rect x="1129.1" y="5" fill="#FFE400" width="8.1" height="1.7"/>
	<rect x="1129.1" y="8.1" fill="#FFE400" width="8.1" height="1.7"/>
	<rect x="1129.1" y="56.9" fill="#FFE400" width="8.1" height="20.3"/>
	<rect x="1129.1" y="17.5" fill="#FFE400" width="8.1" height="36.9"/>
</g>
<g>
	<rect x="557.6" y="106.2" fill="#60B01F" width="8.1" height="1.7"/>
	<rect x="557.6" y="100" fill="#60B01F" width="8.1" height="1.7"/>
	<rect x="557.6" y="103.1" fill="#60B01F" width="8.1" height="1.7"/>
	<rect x="557.6" y="151.9" fill="#60B01F" width="8.1" height="20.3"/>
	<rect x="557.6" y="112.5" fill="#60B01F" width="8.1" height="36.9"/>
	<rect x="570.2" y="106.2" fill="#60B01F" width="8.1" height="1.7"/>
	<rect x="570.2" y="100" fill="#60B01F" width="8.1" height="1.7"/>
	<rect x="570.2" y="103.1" fill="#60B01F" width="8.1" height="1.7"/>
	<rect x="570.2" y="112.5" fill="#60B01F" width="8.1" height="36.9"/>
	<rect x="570.2" y="151.9" fill="#60B01F" width="8.1" height="20.3"/>
	<rect x="582.8" y="106.2" fill="#60B01F" width="8.1" height="1.7"/>
	<rect x="582.8" y="100" fill="#60B01F" width="8.1" height="1.7"/>
	<rect x="582.8" y="103.1" fill="#60B01F" width="8.1" height="1.7"/>
	<rect x="582.8" y="151.9" fill="#60B01F" width="8.1" height="20.3"/>
	<rect x="582.8" y="112.5" fill="#60B01F" width="8.1" height="36.9"/>
	<rect x="595.4" y="106.2" fill="#60B01F" width="8.1" height="1.7"/>
	<rect x="595.4" y="100" fill="#60B01F" width="8.1" height="1.7"/>
	<rect x="595.4" y="103.1" fill="#60B01F" width="8.1" height="1.7"/>
	<rect x="595.4" y="151.9" fill="#60B01F" width="8.1" height="20.3"/>
	<rect x="595.4" y="112.5" fill="#60B01F" width="8.1" height="36.9"/>
	<rect x="608" y="106.2" fill="#60B01F" width="8.1" height="1.7"/>
	<rect x="608" y="100" fill="#60B01F" width="8.1" height="1.7"/>
	<rect x="608" y="103.1" fill="#60B01F" width="8.1" height="1.7"/>
	<rect x="608" y="151.9" fill="#60B01F" width="8.1" height="20.3"/>
	<rect x="608" y="112.5" fill="#60B01F" width="8.1" height="36.9"/>
</g>
<g>
	<rect x="476.1" y="201.8" fill="#E60004" width="8.1" height="1.7"/>
	<rect x="476.1" y="195.5" fill="#E60004" width="8.1" height="1.7"/>
	<rect x="476.1" y="198.6" fill="#E60004" width="8.1" height="1.7"/>
	<rect x="476.1" y="247.4" fill="#E60004" width="8.1" height="20.3"/>
	<rect x="476.1" y="208" fill="#E60004" width="8.1" height="36.9"/>
	<rect x="488.7" y="201.8" fill="#E60004" width="8.1" height="1.7"/>
	<rect x="488.7" y="195.5" fill="#E60004" width="8.1" height="1.7"/>
	<rect x="488.7" y="198.6" fill="#E60004" width="8.1" height="1.7"/>
	<rect x="488.7" y="208" fill="#E60004" width="8.1" height="36.9"/>
	<rect x="488.7" y="247.4" fill="#E60004" width="8.1" height="20.3"/>
	<rect x="501.3" y="201.8" fill="#E60004" width="8.1" height="1.7"/>
	<rect x="501.3" y="195.5" fill="#E60004" width="8.1" height="1.7"/>
	<rect x="501.3" y="198.6" fill="#E60004" width="8.1" height="1.7"/>
	<rect x="501.3" y="247.4" fill="#E60004" width="8.1" height="20.3"/>
	<rect x="501.3" y="208" fill="#E60004" width="8.1" height="36.9"/>
	<rect x="513.9" y="201.8" fill="#E60004" width="8.1" height="1.7"/>
	<rect x="513.9" y="195.5" fill="#E60004" width="8.1" height="1.7"/>
	<rect x="513.9" y="198.6" fill="#E60004" width="8.1" height="1.7"/>
	<rect x="513.9" y="247.4" fill="#E60004" width="8.1" height="20.3"/>
	<rect x="513.9" y="208" fill="#E60004" width="8.1" height="36.9"/>
	<rect x="526.5" y="201.8" fill="#E60004" width="8.1" height="1.7"/>
	<rect x="526.5" y="195.5" fill="#E60004" width="8.1" height="1.7"/>
	<rect x="526.5" y="198.6" fill="#E60004" width="8.1" height="1.7"/>
	<rect x="526.5" y="247.4" fill="#E60004" width="8.1" height="20.3"/>
	<rect x="526.5" y="208" fill="#E60004" width="8.1" height="36.9"/>
</g>
<g>
	<rect x="375.2" y="296.7" fill="#00A6EB" width="8.1" height="1.7"/>
	<rect x="375.2" y="290.4" fill="#00A6EB" width="8.1" height="1.7"/>
	<rect x="375.2" y="293.5" fill="#00A6EB" width="8.1" height="1.7"/>
	<rect x="375.2" y="342.3" fill="#00A6EB" width="8.1" height="20.3"/>
	<rect x="375.2" y="302.9" fill="#00A6EB" width="8.1" height="36.9"/>
	<rect x="387.8" y="296.7" fill="#00A6EB" width="8.1" height="1.7"/>
	<rect x="387.8" y="290.4" fill="#00A6EB" width="8.1" height="1.7"/>
	<rect x="387.8" y="293.5" fill="#00A6EB" width="8.1" height="1.7"/>
	<rect x="387.8" y="302.9" fill="#00A6EB" width="8.1" height="36.9"/>
	<rect x="387.8" y="342.3" fill="#00A6EB" width="8.1" height="20.3"/>
	<rect x="400.4" y="296.7" fill="#00A6EB" width="8.1" height="1.7"/>
	<rect x="400.4" y="290.4" fill="#00A6EB" width="8.1" height="1.7"/>
	<rect x="400.4" y="293.5" fill="#00A6EB" width="8.1" height="1.7"/>
	<rect x="400.4" y="342.3" fill="#00A6EB" width="8.1" height="20.3"/>
	<rect x="400.4" y="302.9" fill="#00A6EB" width="8.1" height="36.9"/>
	<rect x="413" y="296.7" fill="#00A6EB" width="8.1" height="1.7"/>
	<rect x="413" y="290.4" fill="#00A6EB" width="8.1" height="1.7"/>
	<rect x="413" y="293.5" fill="#00A6EB" width="8.1" height="1.7"/>
	<rect x="413" y="342.3" fill="#00A6EB" width="8.1" height="20.3"/>
	<rect x="413" y="302.9" fill="#00A6EB" width="8.1" height="36.9"/>
	<rect x="425.6" y="296.7" fill="#00A6EB" width="8.1" height="1.7"/>
	<rect x="425.6" y="290.4" fill="#00A6EB" width="8.1" height="1.7"/>
	<rect x="425.6" y="293.5" fill="#00A6EB" width="8.1" height="1.7"/>
	<rect x="425.6" y="342.3" fill="#00A6EB" width="8.1" height="20.3"/>
	<rect x="425.6" y="302.9" fill="#00A6EB" width="8.1" height="36.9"/>
</g>
<g>
	<rect x="464.7" y="296.7" fill="#00A6EB" width="8.1" height="1.7"/>
	<rect x="464.7" y="290.4" fill="#00A6EB" width="8.1" height="1.7"/>
	<rect x="464.7" y="293.5" fill="#00A6EB" width="8.1" height="1.7"/>
	<rect x="464.7" y="342.3" fill="#00A6EB" width="8.1" height="20.3"/>
	<rect x="464.7" y="302.9" fill="#00A6EB" width="8.1" height="36.9"/>
	<rect x="477.3" y="296.7" fill="#00A6EB" width="8.1" height="1.7"/>
	<rect x="477.3" y="290.4" fill="#00A6EB" width="8.1" height="1.7"/>
	<rect x="477.3" y="293.5" fill="#00A6EB" width="8.1" height="1.7"/>
	<rect x="477.3" y="342.3" fill="#00A6EB" width="8.1" height="20.3"/>
	<rect x="477.3" y="302.9" fill="#00A6EB" width="8.1" height="36.9"/>
	<rect x="489.9" y="296.7" fill="#00A6EB" width="8.1" height="1.7"/>
	<rect x="489.9" y="290.4" fill="#00A6EB" width="8.1" height="1.7"/>
	<rect x="489.9" y="293.5" fill="#00A6EB" width="8.1" height="1.7"/>
	<rect x="489.9" y="342.3" fill="#00A6EB" width="8.1" height="20.3"/>
	<rect x="489.9" y="302.9" fill="#00A6EB" width="8.1" height="36.9"/>
</g>
<g>
	<rect x="376.5" y="389.9" fill="#E50083" width="8.1" height="1.7"/>
	<rect x="376.5" y="383.6" fill="#E50083" width="8.1" height="1.7"/>
	<rect x="376.5" y="386.7" fill="#E50083" width="8.1" height="1.7"/>
	<rect x="376.5" y="435.5" fill="#E50083" width="8.1" height="20.3"/>
	<rect x="376.5" y="396.1" fill="#E50083" width="8.1" height="36.9"/>
	<rect x="389.1" y="389.9" fill="#E50083" width="8.1" height="1.7"/>
	<rect x="389.1" y="383.6" fill="#E50083" width="8.1" height="1.7"/>
	<rect x="389.1" y="386.7" fill="#E50083" width="8.1" height="1.7"/>
	<rect x="389.1" y="435.5" fill="#E50083" width="8.1" height="20.3"/>
	<rect x="389.1" y="396.1" fill="#E50083" width="8.1" height="36.9"/>
	<rect x="401.7" y="389.9" fill="#E50083" width="8.1" height="1.7"/>
	<rect x="401.7" y="383.6" fill="#E50083" width="8.1" height="1.7"/>
	<rect x="401.7" y="386.7" fill="#E50083" width="8.1" height="1.7"/>
	<rect x="401.7" y="435.5" fill="#E50083" width="8.1" height="20.3"/>
	<rect x="401.7" y="396.1" fill="#E50083" width="8.1" height="36.9"/>
</g>
</svg>
