<?xml version="1.0" encoding="utf-8"?>
<!-- Generator: Adobe Illustrator 18.0.0, SVG Export Plug-In . SVG Version: 6.00 Build 0)  -->
<!DOCTYPE svg PUBLIC "-//W3C//DTD SVG 1.1//EN" "http://www.w3.org/Graphics/SVG/1.1/DTD/svg11.dtd">
<svg version="1.1" id="Layer_1" xmlns="http://www.w3.org/2000/svg" xmlns:xlink="http://www.w3.org/1999/xlink" x="0px" y="0px"
	 viewBox="0 343.6 842 81.4" enable-background="new 0 343.6 842 81.4" xml:space="preserve">
<rect x="0" y="343.6" fill="#FFE400" width="116.1" height="18.6"/>
<rect x="145.2" y="343.6" fill="#00A6EB" width="116.1" height="18.6"/>
<rect x="290.3" y="343.6" fill="#E60004" width="116.1" height="18.6"/>
<rect x="435.5" y="343.6" fill="#E50083" width="116.1" height="18.6"/>
<rect x="580.7" y="343.6" fill="#60B01F" width="116.1" height="18.6"/>
<rect x="725.9" y="343.6" fill="#940084" width="116.1" height="18.6"/>
<g>
	<path fill="#CCCCCC" d="M9,381c0-0.2,0.2-0.3,0.3-0.3l8.1,0c0.2,0,0.3,0.2,0.3,0.3l0,2.1c0,0.2-0.2,0.3-0.3,0.3H12l0,2.7h4.4
		c0.2,0,0.3,0.2,0.3,0.3l0,2.1c0,0.2-0.2,0.3-0.3,0.3H12l0,4.7c0,0.2-0.2,0.3-0.3,0.3l-2.3,0c-0.2,0-0.3-0.2-0.3-0.3l0-12.6H9z"/>
	<path fill="#CCCCCC" d="M21.5,381c0-0.2,0.2-0.3,0.3-0.3l2.3,0c0.2,0,0.3,0.2,0.3,0.3l0,12.7c0,0.2-0.2,0.3-0.3,0.3h-2.3
		c-0.2,0-0.3-0.2-0.3-0.3L21.5,381z"/>
	<path fill="#CCCCCC" d="M29.6,380.7c0-0.2,0.2-0.3,0.3-0.3h0.5l7.7,7.4l0,0l0-6.9c0-0.2,0.2-0.3,0.3-0.3h2.4c0.2,0,0.3,0.2,0.3,0.3
		l0,13.1c0,0.2-0.2,0.3-0.3,0.3h-0.3c0,0-0.2,0-0.3-0.2l-7.6-7.7l0,0l0,7.3c0,0.2-0.2,0.3-0.3,0.3h-2.3c-0.2,0-0.3-0.2-0.3-0.3
		L29.6,380.7z"/>
	<path fill="#CCCCCC" d="M46.4,381c0-0.2,0.2-0.3,0.3-0.3h8.1c0.2,0,0.3,0.2,0.3,0.3l0,2.1c0,0.2-0.2,0.3-0.3,0.3h-5.3l0,2.4h4.4
		c0.2,0,0.3,0.2,0.3,0.3l0,2.1c0,0.2-0.2,0.3-0.3,0.3h-4.4l0,2.6h5.3c0.2,0,0.3,0.2,0.3,0.3l0,2.1c0,0.2-0.2,0.3-0.3,0.3h-8.1
		c-0.2,0-0.3-0.2-0.3-0.3C46.4,393.6,46.4,381,46.4,381z"/>
	<path fill="#CCCCCC" d="M64.1,393.6l6.1-13.1c0-0.2,0.2-0.2,0.3-0.2h0.2c0.2,0,0.3,0.2,0.3,0.2l6.1,13.1c0.2,0.3,0,0.5-0.3,0.5
		h-2.1c-0.3,0-0.5-0.2-0.6-0.5l-0.6-1.5h-5.3l-0.6,1.6c-0.2,0.2-0.3,0.5-0.6,0.5h-2.1C64.1,394.1,63.9,393.9,64.1,393.6z M72,389.5
		l-1.5-3.2l0,0l-1.5,3.2H72z"/>
	<path fill="#CCCCCC" d="M80.5,381c0-0.2,0.2-0.3,0.3-0.3h5.8c2.3,0,4.2,1.9,4.2,4.2c0,1.8-1.1,3.2-2.9,3.9l2.6,4.8
		c0.2,0.3,0,0.5-0.3,0.5h-2.6c-0.2,0-0.3-0.2-0.3-0.2l-2.6-5.2h-1.3l0,5c0,0.2-0.2,0.3-0.3,0.3l-2.3,0c-0.2,0-0.3-0.2-0.3-0.3
		C80.5,393.7,80.5,381,80.5,381z M86.3,386.3c0.8,0,1.5-0.8,1.5-1.6c0-0.8-0.6-1.5-1.5-1.5h-2.9l0,3.1H86.3z"/>
	<path fill="#CCCCCC" d="M97.1,383.4h-2.7c-0.2,0-0.3-0.2-0.3-0.3l0-2.1c0-0.2,0.2-0.3,0.3-0.3l8.5,0c0.2,0,0.3,0.2,0.3,0.3v2.1
		c0,0.2-0.2,0.3-0.3,0.3l-2.7,0l0,10.3c0,0.2-0.2,0.3-0.3,0.3h-2.3c-0.2,0-0.3-0.2-0.3-0.3l0-10.3H97.1z"/>
</g>
<g>
	<path fill="#CCCCCC" d="M162.9,380.4c1.6,0,3.4,0.6,4.7,1.8c0.2,0.2,0.2,0.3,0,0.5l-1.5,1.6c-0.2,0.2-0.3,0.2-0.5,0
		c-0.8-0.6-1.6-1-2.6-1c-2.1,0-3.9,1.8-3.9,3.9c0,2.1,1.8,3.9,3.9,3.9c0.5,0,1.1,0,1.8-0.3v-1.1l-1.1,0c-0.2,0-0.3-0.2-0.3-0.3v-1.9
		c0-0.2,0.2-0.3,0.3-0.3h3.9c0.2,0,0.3,0.2,0.3,0.3l0,5.2c0,0.2,0,0.3-0.2,0.3c0,0-1.9,1.3-4.8,1.3c-3.9,0-6.9-3.1-6.9-6.9
		C156,383.4,159,380.4,162.9,380.4z"/>
	<path fill="#CCCCCC" d="M172.6,381c0-0.2,0.2-0.3,0.3-0.3l5.8,0c2.3,0,4.2,1.9,4.2,4.2c0,1.8-1.1,3.2-2.9,3.9l2.6,4.8
		c0.2,0.3,0,0.5-0.3,0.5l-2.6,0c-0.2,0-0.3-0.2-0.3-0.2l-2.6-5.2h-1.3l0,5c0,0.2-0.2,0.3-0.3,0.3h-2.3c-0.2,0-0.3-0.2-0.3-0.3V381
		L172.6,381z M178.4,386.3c0.8,0,1.5-0.8,1.5-1.6s-0.6-1.5-1.5-1.5h-2.9v3.1L178.4,386.3z"/>
	<path fill="#CCCCCC" d="M185.8,393.6l6.1-13.1c0-0.2,0.2-0.2,0.3-0.2h0.2c0.2,0,0.3,0.2,0.3,0.2l6.1,13.1c0.2,0.3,0,0.5-0.3,0.5
		h-2.1c-0.3,0-0.5-0.2-0.6-0.5l-0.6-1.5h-5.3l-0.6,1.6c-0.2,0.2-0.3,0.5-0.6,0.5h-2.1C185.9,394.1,185.8,393.9,185.8,393.6z
		 M193.8,389.5l-1.5-3.2l0,0l-1.5,3.2H193.8z"/>
	<path fill="#CCCCCC" d="M202.2,381c0-0.2,0.2-0.3,0.3-0.3h4.7c2.4,0,4.4,1.9,4.4,4.4c0,2.4-1.9,4.4-4.4,4.4h-2.1l0,4.5
		c0,0.2-0.2,0.3-0.3,0.3h-2.3c-0.2,0-0.3-0.2-0.3-0.3L202.2,381z M207.1,386.3c0.8,0,1.5-0.6,1.5-1.5c0-0.8-0.6-1.5-1.5-1.5h-1.8
		l0,2.9H207.1z"/>
	<path fill="#CCCCCC" d="M215.3,381c0-0.2,0.2-0.3,0.3-0.3h2.3c0.2,0,0.3,0.2,0.3,0.3l0,4.8l5.5,0l0-4.8c0-0.2,0.2-0.3,0.3-0.3h2.3
		c0.2,0,0.3,0.2,0.3,0.3l0,12.7c0,0.2-0.2,0.3-0.3,0.3H224c-0.2,0-0.3-0.2-0.3-0.3l0-5.2h-5.5l0,5.2c0,0.2-0.2,0.3-0.3,0.3h-2.3
		c-0.2,0-0.3-0.2-0.3-0.3L215.3,381z"/>
	<path fill="#CCCCCC" d="M231.9,381c0-0.2,0.2-0.3,0.3-0.3l2.3,0c0.2,0,0.3,0.2,0.3,0.3l0,12.7c0,0.2-0.2,0.3-0.3,0.3h-2.3
		c-0.2,0-0.3-0.2-0.3-0.3L231.9,381z"/>
	<path fill="#CCCCCC" d="M246.1,380.4c1.9,0,3.4,0.6,4.7,1.8c0.2,0.2,0.2,0.3,0,0.5l-1.5,1.6c-0.2,0.2-0.3,0.2-0.5,0
		c-0.6-0.6-1.6-1-2.6-1c-2.3,0-3.9,1.8-3.9,4c0,2.1,1.6,3.9,3.9,3.9c1,0,1.9-0.3,2.6-1c0.2-0.2,0.3-0.2,0.5,0l1.5,1.6
		c0.2,0.2,0.2,0.3,0,0.5c-1.3,1.3-2.9,1.9-4.7,1.9c-3.9,0-6.9-3.1-6.9-6.9C239.1,383.4,242.2,380.4,246.1,380.4z"/>
	<path fill="#CCCCCC" d="M164.8,404.2c0-0.2,0.2-0.3,0.3-0.3l4.7,0c3.7,0,6.8,3.1,6.8,6.8c0,3.7-3.1,6.8-6.8,6.8h-4.7
		c-0.2,0-0.3-0.2-0.3-0.3L164.8,404.2z M169.7,414.5c2.3,0,3.7-1.8,3.7-3.9c0-2.3-1.6-3.9-3.7-3.9h-1.9l0,7.9l1.9,0V414.5z"/>
	<path fill="#CCCCCC" d="M180.8,404.2c0-0.2,0.2-0.3,0.3-0.3h8.1c0.2,0,0.3,0.2,0.3,0.3v2.1c0,0.2-0.2,0.3-0.3,0.3h-5.3v2.4h4.4
		c0.2,0,0.3,0.2,0.3,0.3l0,2.1c0,0.2-0.2,0.3-0.3,0.3h-4.4v2.6h5.3c0.2,0,0.3,0.2,0.3,0.3v2.1c0,0.2-0.2,0.3-0.3,0.3h-8.1
		c-0.2,0-0.3-0.2-0.3-0.3L180.8,404.2z"/>
	<path fill="#CCCCCC" d="M193.4,415.5l1-1.6c0.2-0.3,0.5-0.2,0.6-0.2c0,0,1.5,1.1,2.7,1.1c0.8,0,1.3-0.5,1.3-1.1
		c0-0.8-0.6-1.5-1.9-1.9c-1.6-0.6-3.7-1.9-3.7-4.4c0-1.9,1.5-3.9,4.5-3.9c1.9,0,3.5,1,4.2,1.5c0.2,0.2,0.2,0.5,0.2,0.6l-1,1.5
		c-0.2,0.2-0.5,0.3-0.6,0.3c-0.2-0.2-1.6-1.1-2.7-1.1c-0.6,0-1.3,0.5-1.3,1c0,0.6,0.6,1.3,2.1,1.9c1.5,0.6,3.9,1.8,3.9,4.4
		c0,1.9-1.8,4-4.5,4c-2.6,0-3.9-1-4.4-1.5C193.4,415.8,193.2,415.8,193.4,415.5z"/>
	<path fill="#CCCCCC" d="M206.6,404.2c0-0.2,0.2-0.3,0.3-0.3h2.3c0.2,0,0.3,0.2,0.3,0.3l0,12.7c0,0.2-0.2,0.3-0.3,0.3l-2.3,0
		c-0.2,0-0.3-0.2-0.3-0.3L206.6,404.2z"/>
	<path fill="#CCCCCC" d="M220.8,403.6c1.6,0,3.4,0.6,4.7,1.8c0.2,0.2,0.2,0.3,0,0.5l-1.5,1.6c-0.2,0.2-0.3,0.2-0.5,0
		c-0.8-0.6-1.6-1-2.6-1c-2.1,0-3.9,1.8-3.9,3.9c0,2.1,1.8,3.9,3.9,3.9c0.5,0,1.1,0,1.8-0.3v-1.1h-1.3c-0.2,0-0.3-0.2-0.3-0.3v-1.9
		c0-0.2,0.2-0.3,0.3-0.3h3.9c0.2,0,0.3,0.2,0.3,0.3l0,5.2c0,0.2,0,0.3-0.2,0.3c0,0-1.9,1.3-4.8,1.3c-3.9,0-6.9-3.1-6.9-6.9
		C213.8,406.6,216.9,403.6,220.8,403.6z"/>
	<path fill="#CCCCCC" d="M230.3,403.9c0-0.2,0.2-0.3,0.3-0.3h0.5l7.7,7.4l0,0l0-6.9c0-0.2,0.2-0.3,0.3-0.3l2.3,0
		c0.2,0,0.3,0.2,0.3,0.3l0,13.1c0,0.2-0.2,0.3-0.3,0.3h-0.3c0,0-0.2,0-0.3-0.2l-7.6-7.7l0,0l0,7.3c0,0.2-0.2,0.3-0.3,0.3h-2.3
		c-0.2,0-0.3-0.2-0.3-0.3V403.9z"/>
</g>
<g>
	<path fill="#CCCCCC" d="M298.6,381c0-0.2,0.2-0.3,0.3-0.3h4.7c2.4,0,4.4,1.9,4.4,4.4c0,2.4-1.9,4.4-4.4,4.4h-1.9l0,4.5
		c0,0.2-0.2,0.3-0.3,0.3h-2.3c-0.2,0-0.3-0.2-0.3-0.3l0-12.9H298.6z M303.4,386.3c0.8,0,1.5-0.6,1.5-1.5c0-0.8-0.6-1.5-1.5-1.5h-1.8
		v2.9H303.4z"/>
	<path fill="#CCCCCC" d="M311.7,381c0-0.2,0.2-0.3,0.3-0.3h5.8c2.3,0,4.2,1.9,4.2,4.2c0,1.8-1.1,3.2-2.9,3.9l2.6,4.8
		c0.2,0.3,0,0.5-0.3,0.5h-2.6c-0.2,0-0.3-0.2-0.3-0.2l-2.6-5.2h-1.3v5c0,0.2-0.2,0.3-0.3,0.3H312c-0.2,0-0.3-0.2-0.3-0.3L311.7,381
		L311.7,381z M317.6,386.3c0.8,0,1.5-0.8,1.5-1.6c0-0.8-0.6-1.5-1.5-1.5h-2.9l0,3.1H317.6z"/>
	<path fill="#CCCCCC" d="M332.3,380.4c3.9,0,6.9,3.1,6.9,6.9c0,3.9-3.1,6.9-6.9,6.9c-3.9,0-6.9-3.1-6.9-6.9
		C325.4,383.4,328.4,380.4,332.3,380.4z M332.3,391.2c2.1,0,3.9-1.8,3.9-3.9s-1.8-3.9-3.9-3.9s-3.9,1.8-3.9,3.9
		C328.4,389.5,330.2,391.2,332.3,391.2z"/>
	<path fill="#CCCCCC" d="M343.4,381c0-0.2,0.2-0.3,0.3-0.3h4.7c3.7,0,6.8,3.1,6.8,6.8c0,3.7-3.1,6.8-6.8,6.8h-4.7
		c-0.2,0-0.3-0.2-0.3-0.3L343.4,381z M348.3,391.3c2.3,0,3.7-1.8,3.7-3.9c0-2.3-1.6-3.9-3.7-3.9h-1.9l0,7.9h1.9V391.3z"/>
	<path fill="#CCCCCC" d="M359.2,381c0-0.2,0.2-0.3,0.3-0.3h2.4c0.2,0,0.3,0.2,0.3,0.3l0,7.9c0,1.3,1,2.4,2.4,2.4s2.4-1.1,2.4-2.4
		V381c0-0.2,0.2-0.3,0.3-0.3h2.4c0.2,0,0.3,0.2,0.3,0.3l0,8.1c0,2.9-2.4,5.3-5.5,5.3c-3.1,0-5.5-2.4-5.5-5.3L359.2,381L359.2,381z"
		/>
	<path fill="#CCCCCC" d="M381.1,380.4c1.9,0,3.4,0.6,4.7,1.8c0.2,0.2,0.2,0.3,0,0.5l-1.5,1.6c-0.2,0.2-0.3,0.2-0.5,0
		c-0.6-0.6-1.6-1-2.6-1c-2.3,0-3.9,1.8-3.9,4c0,2.1,1.6,3.9,3.9,3.9c1,0,1.9-0.3,2.6-1c0.2-0.2,0.3-0.2,0.5,0l1.5,1.6
		c0.2,0.2,0.2,0.3,0,0.5c-1.3,1.3-2.9,1.9-4.7,1.9c-3.9,0-6.9-3.1-6.9-6.9S377.3,380.4,381.1,380.4z"/>
	<path fill="#CCCCCC" d="M392.1,383.4h-2.7c-0.2,0-0.3-0.2-0.3-0.3V381c0-0.2,0.2-0.3,0.3-0.3h8.5c0.2,0,0.3,0.2,0.3,0.3v2.1
		c0,0.2-0.2,0.3-0.3,0.3h-2.7l0,10.3c0,0.2-0.2,0.3-0.3,0.3l-2.3,0c-0.2,0-0.3-0.2-0.3-0.3l0-10.3H392.1z"/>
	<path fill="#CCCCCC" d="M309.2,404.2c0-0.2,0.2-0.3,0.3-0.3l4.7,0c3.7,0,6.8,3.1,6.8,6.8c0,3.7-3.1,6.8-6.8,6.8h-4.7
		c-0.2,0-0.3-0.2-0.3-0.3V404.2L309.2,404.2z M314.1,414.5c2.3,0,3.7-1.8,3.7-3.9c0-2.3-1.6-3.9-3.7-3.9h-1.9v7.9h1.9V414.5z"/>
	<path fill="#CCCCCC" d="M325.2,404.2c0-0.2,0.2-0.3,0.3-0.3l8.1,0c0.2,0,0.3,0.2,0.3,0.3v2.1c0,0.2-0.2,0.3-0.3,0.3l-5.3,0v2.4
		l4.4,0c0.2,0,0.3,0.2,0.3,0.3v2.1c0,0.2-0.2,0.3-0.3,0.3l-4.4,0v2.6l5.3,0c0.2,0,0.3,0.2,0.3,0.3v2.1c0,0.2-0.2,0.3-0.3,0.3l-8.1,0
		c-0.2,0-0.3-0.2-0.3-0.3L325.2,404.2z"/>
	<path fill="#CCCCCC" d="M337.8,415.5l1-1.6c0.2-0.3,0.5-0.2,0.6-0.2c0,0,1.5,1.1,2.7,1.1c0.8,0,1.3-0.5,1.3-1.1
		c0-0.8-0.6-1.5-1.9-1.9c-1.6-0.6-3.7-1.9-3.7-4.4c0-1.9,1.5-3.9,4.5-3.9c1.9,0,3.5,1,4.2,1.5c0.2,0.2,0.2,0.5,0.2,0.6l-1,1.5
		c-0.2,0.2-0.5,0.3-0.6,0.3c-0.2-0.2-1.6-1.1-2.7-1.1c-0.6,0-1.3,0.5-1.3,1c0,0.6,0.6,1.3,2.1,1.9s3.9,1.8,3.9,4.4
		c0,1.9-1.8,4-4.5,4c-2.6,0-3.9-1-4.4-1.5C337.8,415.8,337.6,415.8,337.8,415.5z"/>
	<path fill="#CCCCCC" d="M351,404.2c0-0.2,0.2-0.3,0.3-0.3h2.3c0.2,0,0.3,0.2,0.3,0.3l0,12.7c0,0.2-0.2,0.3-0.3,0.3h-2.3
		c-0.2,0-0.3-0.2-0.3-0.3L351,404.2z"/>
	<path fill="#CCCCCC" d="M365.2,403.6c1.6,0,3.4,0.6,4.7,1.8c0.2,0.2,0.2,0.3,0,0.5l-1.5,1.6c-0.2,0.2-0.3,0.2-0.5,0
		c-0.8-0.6-1.6-1-2.6-1c-2.1,0-3.9,1.8-3.9,3.9c0,2.1,1.8,3.9,3.9,3.9c0.5,0,1.1,0,1.8-0.3v-1.1h-1.3c-0.2,0-0.3-0.2-0.3-0.3v-1.9
		c0-0.2,0.2-0.3,0.3-0.3h3.9c0.2,0,0.3,0.2,0.3,0.3v5.2c0,0.2,0,0.3-0.2,0.3c0,0-1.9,1.3-4.8,1.3c-3.9,0-6.9-3.1-6.9-6.9
		C358.2,406.6,361.3,403.6,365.2,403.6z"/>
	<path fill="#CCCCCC" d="M374.7,403.9c0-0.2,0.2-0.3,0.3-0.3h0.5l7.7,7.4l0,0v-6.9c0-0.2,0.2-0.3,0.3-0.3h2.3c0.2,0,0.3,0.2,0.3,0.3
		l0,13.1c0,0.2-0.2,0.3-0.3,0.3h-0.3c0,0-0.2,0-0.3-0.2l-7.6-7.7l0,0v7.3c0,0.2-0.2,0.3-0.3,0.3H375c-0.2,0-0.3-0.2-0.3-0.3
		L374.7,403.9z"/>
</g>
<g>
	<path fill="#CCCCCC" d="M442.8,381c0-0.2,0.2-0.3,0.3-0.3h2.3c0.2,0,0.3,0.2,0.3,0.3l0,12.7c0,0.2-0.2,0.3-0.3,0.3l-2.3,0
		c-0.2,0-0.3-0.2-0.3-0.3L442.8,381z"/>
	<path fill="#CCCCCC" d="M450.9,380.7c0-0.2,0.2-0.3,0.3-0.3h0.5l7.7,7.4l0,0l0-6.9c0-0.2,0.2-0.3,0.3-0.3h2.3
		c0.2,0,0.3,0.2,0.3,0.3l0,13.1c0,0.2-0.2,0.3-0.3,0.3h-0.3c0,0-0.2,0-0.3-0.2l-7.6-7.7l0,0l0,7.3c0,0.2-0.2,0.3-0.3,0.3h-2.3
		c-0.2,0-0.3-0.2-0.3-0.3L450.9,380.7z"/>
	<path fill="#CCCCCC" d="M469.3,383.4h-2.7c-0.2,0-0.3-0.2-0.3-0.3V381c0-0.2,0.2-0.3,0.3-0.3l8.5,0c0.2,0,0.3,0.2,0.3,0.3v2.1
		c0,0.2-0.2,0.3-0.3,0.3h-2.7l0,10.3c0,0.2-0.2,0.3-0.3,0.3h-2.3c-0.2,0-0.3-0.2-0.3-0.3l0-10.3H469.3z"/>
	<path fill="#CCCCCC" d="M479,381c0-0.2,0.2-0.3,0.3-0.3l8.1,0c0.2,0,0.3,0.2,0.3,0.3v2.1c0,0.2-0.2,0.3-0.3,0.3l-5.3,0v2.4l4.4,0
		c0.2,0,0.3,0.2,0.3,0.3l0,2.1c0,0.2-0.2,0.3-0.3,0.3l-4.4,0l0,2.6l5.3,0c0.2,0,0.3,0.2,0.3,0.3v2.1c0,0.2-0.2,0.3-0.3,0.3l-8.1,0
		c-0.2,0-0.3-0.2-0.3-0.3L479,381z"/>
	<path fill="#CCCCCC" d="M492.3,381c0-0.2,0.2-0.3,0.3-0.3l5.8,0c2.3,0,4.2,1.9,4.2,4.2c0,1.8-1.1,3.2-2.9,3.9l2.6,4.8
		c0.2,0.3,0,0.5-0.3,0.5h-2.6c-0.2,0-0.3-0.2-0.3-0.2l-2.6-5.2h-1.3v5c0,0.2-0.2,0.3-0.3,0.3h-2.3c-0.2,0-0.3-0.2-0.3-0.3L492.3,381
		z M498.1,386.3c0.8,0,1.5-0.8,1.5-1.6c0-0.8-0.6-1.5-1.5-1.5h-2.9l0,3.1H498.1z"/>
	<path fill="#CCCCCC" d="M507,381c0-0.2,0.2-0.3,0.3-0.3h2.3c0.2,0,0.3,0.2,0.3,0.3l0,12.7c0,0.2-0.2,0.3-0.3,0.3h-2.3
		c-0.2,0-0.3-0.2-0.3-0.3L507,381z"/>
	<path fill="#CCCCCC" d="M521.2,380.4c3.9,0,6.9,3.1,6.9,6.9s-3.1,6.9-6.9,6.9c-3.9,0-6.9-3.1-6.9-6.9S517.3,380.4,521.2,380.4z
		 M521.2,391.2c2.1,0,3.9-1.8,3.9-3.9c0-2.1-1.8-3.9-3.9-3.9c-2.1,0-3.9,1.8-3.9,3.9C517.3,389.5,519.1,391.2,521.2,391.2z"/>
	<path fill="#CCCCCC" d="M532.3,381c0-0.2,0.2-0.3,0.3-0.3h5.8c2.3,0,4.2,1.9,4.2,4.2c0,1.8-1.1,3.2-2.9,3.9l2.6,4.8
		c0.2,0.3,0,0.5-0.3,0.5h-2.6c-0.2,0-0.3-0.2-0.3-0.2l-2.6-5.2h-1.3v5c0,0.2-0.2,0.3-0.3,0.3h-2.3c-0.2,0-0.3-0.2-0.3-0.3V381z
		 M538.1,386.3c0.8,0,1.5-0.8,1.5-1.6c0-0.8-0.6-1.5-1.5-1.5h-2.9v3.1H538.1z"/>
	<path fill="#CCCCCC" d="M453.8,404.2c0-0.2,0.2-0.3,0.3-0.3h4.7c3.7,0,6.8,3.1,6.8,6.8c0,3.7-3.1,6.8-6.8,6.8l-4.7,0
		c-0.2,0-0.3-0.2-0.3-0.3L453.8,404.2z M458.6,414.5c2.3,0,3.7-1.8,3.7-3.9c0-2.3-1.6-3.9-3.7-3.9h-1.9l0,7.9h1.9V414.5z"/>
	<path fill="#CCCCCC" d="M469.8,404.2c0-0.2,0.2-0.3,0.3-0.3l8.1,0c0.2,0,0.3,0.2,0.3,0.3v2.1c0,0.2-0.2,0.3-0.3,0.3l-5.3,0v2.4
		l4.4,0c0.2,0,0.3,0.2,0.3,0.3l0,2.1c0,0.2-0.2,0.3-0.3,0.3l-4.4,0v2.6l5.3,0c0.2,0,0.3,0.2,0.3,0.3v2.1c0,0.2-0.2,0.3-0.3,0.3
		l-8.1,0c-0.2,0-0.3-0.2-0.3-0.3L469.8,404.2z"/>
	<path fill="#CCCCCC" d="M482.3,415.5l1-1.6c0.2-0.3,0.5-0.2,0.6-0.2c0,0,1.5,1.1,2.7,1.1c0.8,0,1.3-0.5,1.3-1.1
		c0-0.8-0.6-1.5-1.9-1.9c-1.6-0.6-3.7-1.9-3.7-4.4c0-1.9,1.5-3.9,4.5-3.9c1.9,0,3.5,1,4.2,1.5c0.2,0.2,0.2,0.5,0.2,0.6l-1,1.5
		c-0.2,0.2-0.5,0.3-0.6,0.3c-0.2-0.2-1.6-1.1-2.7-1.1c-0.6,0-1.3,0.5-1.3,1c0,0.6,0.6,1.3,2.1,1.9c1.5,0.6,3.9,1.8,3.9,4.4
		c0,1.9-1.8,4-4.5,4c-2.6,0-3.9-1-4.4-1.5C482.3,415.8,482.2,415.8,482.3,415.5z"/>
	<path fill="#CCCCCC" d="M495.6,404.2c0-0.2,0.2-0.3,0.3-0.3l2.3,0c0.2,0,0.3,0.2,0.3,0.3l0,12.7c0,0.2-0.2,0.3-0.3,0.3h-2.3
		c-0.2,0-0.3-0.2-0.3-0.3L495.6,404.2z"/>
	<path fill="#CCCCCC" d="M509.7,403.6c1.6,0,3.4,0.6,4.7,1.8c0.2,0.2,0.2,0.3,0,0.5l-1.5,1.6c-0.2,0.2-0.3,0.2-0.5,0
		c-0.8-0.6-1.6-1-2.6-1c-2.1,0-3.9,1.8-3.9,3.9s1.8,3.9,3.9,3.9c0.5,0,1.1,0,1.8-0.3v-1.1h-1.3c-0.2,0-0.3-0.2-0.3-0.3v-1.9
		c0-0.2,0.2-0.3,0.3-0.3l3.9,0c0.2,0,0.3,0.2,0.3,0.3v5.2c0,0.2,0,0.3-0.2,0.3c0,0-1.9,1.3-4.8,1.3c-3.9,0-6.9-3.1-6.9-6.9
		C502.8,406.6,505.9,403.6,509.7,403.6z"/>
	<path fill="#CCCCCC" d="M519.3,403.9c0-0.2,0.2-0.3,0.3-0.3h0.5l7.7,7.4l0,0v-6.9c0-0.2,0.2-0.3,0.3-0.3h2.3c0.2,0,0.3,0.2,0.3,0.3
		v13.1c0,0.2-0.2,0.3-0.3,0.3h-0.3c0,0-0.2,0-0.3-0.2l-7.6-7.7l0,0v7.3c0,0.2-0.2,0.3-0.3,0.3h-2.3c-0.2,0-0.3-0.2-0.3-0.3
		L519.3,403.9z"/>
</g>
<g>
	<path fill="#CCCCCC" d="M577.5,381c-0.2-0.3,0-0.5,0.3-0.5h2.6c0.2,0,0.3,0.2,0.3,0.2l3.2,7.1h0.2l3.2-7.1c0-0.2,0.2-0.2,0.3-0.2
		h2.6c0.3,0,0.5,0.3,0.3,0.5l-6.1,13.1c0,0.2-0.2,0.2-0.3,0.2H584c-0.2,0-0.3-0.2-0.3-0.2L577.5,381z"/>
	<path fill="#CCCCCC" d="M593.8,381c0-0.2,0.2-0.3,0.3-0.3h2.3c0.2,0,0.3,0.2,0.3,0.3v12.7c0,0.2-0.2,0.3-0.3,0.3h-2.1
		c-0.2,0-0.3-0.2-0.3-0.3l0-12.7H593.8z"/>
	<path fill="#CCCCCC" d="M601.4,392.3l1-1.6c0.2-0.3,0.5-0.2,0.6-0.2c0,0,1.5,1.1,2.7,1.1c0.8,0,1.3-0.5,1.3-1.1
		c0-0.8-0.6-1.5-1.9-1.9c-1.6-0.6-3.7-1.9-3.7-4.4c0-1.9,1.5-3.9,4.5-3.9c1.9,0,3.5,1,4.2,1.5c0.2,0.2,0.2,0.5,0.2,0.6l-1,1.5
		c-0.2,0.2-0.5,0.3-0.6,0.3c-0.2-0.2-1.6-1.1-2.7-1.1c-0.6,0-1.3,0.5-1.3,1c0,0.6,0.6,1.3,2.1,1.9c1.5,0.6,3.9,1.8,3.9,4.4
		c0,1.9-1.8,4-4.5,4c-2.6,0-3.9-1-4.4-1.5C601.2,392.6,601.2,392.6,601.4,392.3z"/>
	<path fill="#CCCCCC" d="M614.3,381c0-0.2,0.2-0.3,0.3-0.3l2.4,0c0.2,0,0.3,0.2,0.3,0.3v7.9c0,1.3,1,2.4,2.4,2.4s2.4-1.1,2.4-2.4
		V381c0-0.2,0.2-0.3,0.3-0.3h2.4c0.2,0,0.3,0.2,0.3,0.3v8.1c0,2.9-2.4,5.3-5.5,5.3c-3.1,0-5.5-2.4-5.5-5.3L614.3,381L614.3,381z"/>
	<path fill="#CCCCCC" d="M628,393.6l6.1-13.1c0-0.2,0.2-0.2,0.3-0.2h0.2c0.2,0,0.3,0.2,0.3,0.2l6.1,13.1c0.2,0.3,0,0.5-0.3,0.5h-2.1
		c-0.3,0-0.5-0.2-0.6-0.5l-0.6-1.5l-5.3,0l-0.6,1.6c-0.2,0.2-0.3,0.5-0.6,0.5h-2.1C628,394.1,627.8,393.9,628,393.6z M635.9,389.5
		l-1.5-3.2l0,0l-1.5,3.2L635.9,389.5z"/>
	<path fill="#CCCCCC" d="M644.3,381c0-0.2,0.2-0.3,0.3-0.3h2.3c0.2,0,0.3,0.2,0.3,0.3l0,10.3h4.7c0.2,0,0.3,0.2,0.3,0.3v2.1
		c0,0.2-0.2,0.3-0.3,0.3l-7.3,0c-0.2,0-0.3-0.2-0.3-0.3L644.3,381z"/>
	<path fill="#CCCCCC" d="M660.6,393.6l6.1-13.1c0-0.2,0.2-0.2,0.3-0.2h0.2c0.2,0,0.3,0.2,0.3,0.2l6.1,13.1c0.2,0.3,0,0.5-0.3,0.5
		h-2.1c-0.3,0-0.5-0.2-0.6-0.5l-0.6-1.5l-5.3,0l-0.6,1.6c-0.2,0.2-0.3,0.5-0.6,0.5h-2.1C660.6,394.1,660.4,393.9,660.6,393.6z
		 M668.6,389.5l-1.5-3.2l0,0l-1.5,3.2L668.6,389.5z"/>
	<path fill="#CCCCCC" d="M677,381c0-0.2,0.2-0.3,0.3-0.3h5.8c2.3,0,4.2,1.9,4.2,4.2c0,1.8-1.1,3.2-2.9,3.9l2.6,4.8
		c0.2,0.3,0,0.5-0.3,0.5l-2.6,0c-0.2,0-0.3-0.2-0.3-0.2l-2.6-5.2h-1.3v5c0,0.2-0.2,0.3-0.3,0.3h-2.3c-0.2,0-0.3-0.2-0.3-0.3L677,381
		L677,381z M682.8,386.3c0.8,0,1.5-0.8,1.5-1.6s-0.6-1.5-1.5-1.5h-2.9v3.1H682.8z"/>
	<path fill="#CCCCCC" d="M693.6,383.4h-2.7c-0.2,0-0.3-0.2-0.3-0.3V381c0-0.2,0.2-0.3,0.3-0.3l8.5,0c0.2,0,0.3,0.2,0.3,0.3v2.1
		c0,0.2-0.2,0.3-0.3,0.3h-2.7v10.3c0,0.2-0.2,0.3-0.3,0.3h-2.3c-0.2,0-0.3-0.2-0.3-0.3l0-10.3H693.6z"/>
</g>
<g>
	<path fill="#CCCCCC" d="M742.4,381c0-0.2,0.2-0.3,0.3-0.3l4.7,0c3.7,0,6.8,3.1,6.8,6.8c0,3.7-3.1,6.8-6.8,6.8l-4.7,0
		c-0.2,0-0.3-0.2-0.3-0.3L742.4,381z M747.3,391.3c2.3,0,3.7-1.8,3.7-3.9c0-2.3-1.6-3.9-3.7-3.9l-1.9,0l0,7.9h1.9V391.3z"/>
	<path fill="#CCCCCC" d="M758.4,381c0-0.2,0.2-0.3,0.3-0.3h2.3c0.2,0,0.3,0.2,0.3,0.3l0,12.7c0,0.2-0.2,0.3-0.3,0.3h-2.3
		c-0.2,0-0.3-0.2-0.3-0.3V381z"/>
	<path fill="#CCCCCC" d="M765.8,392.3l1-1.6c0.2-0.3,0.5-0.2,0.6-0.2c0,0,1.5,1.1,2.7,1.1c0.8,0,1.3-0.5,1.3-1.1
		c0-0.8-0.6-1.5-1.9-1.9c-1.6-0.6-3.7-1.9-3.7-4.4c0-1.9,1.5-3.9,4.5-3.9c1.9,0,3.5,1,4.2,1.5c0.2,0.2,0.2,0.5,0.2,0.6l-1,1.5
		c-0.2,0.2-0.5,0.3-0.6,0.3c-0.2-0.2-1.6-1.1-2.7-1.1c-0.6,0-1.3,0.5-1.3,1c0,0.6,0.6,1.3,2.1,1.9c1.5,0.6,3.9,1.8,3.9,4.4
		c0,1.9-1.8,4-4.5,4c-2.6,0-3.9-1-4.4-1.5C765.8,392.6,765.7,392.6,765.8,392.3z"/>
	<path fill="#CCCCCC" d="M779,381c0-0.2,0.2-0.3,0.3-0.3l4.7,0c2.4,0,4.4,1.9,4.4,4.4s-1.9,4.4-4.4,4.4h-2.1v4.5
		c0,0.2-0.2,0.3-0.3,0.3h-2.3c-0.2,0-0.3-0.2-0.3-0.3L779,381z M783.9,386.3c0.8,0,1.5-0.6,1.5-1.5c0-0.8-0.6-1.5-1.5-1.5h-1.8v2.9
		H783.9z"/>
	<path fill="#CCCCCC" d="M792.1,381c0-0.2,0.2-0.3,0.3-0.3h2.3c0.2,0,0.3,0.2,0.3,0.3l0,10.3l4.7,0c0.2,0,0.3,0.2,0.3,0.3v2.1
		c0,0.2-0.2,0.3-0.3,0.3l-7.3,0c-0.2,0-0.3-0.2-0.3-0.3L792.1,381L792.1,381z"/>
	<path fill="#CCCCCC" d="M802.7,393.6l6.1-13.1c0-0.2,0.2-0.2,0.3-0.2h0.2c0.2,0,0.3,0.2,0.3,0.2l6.1,13.1c0.2,0.3,0,0.5-0.3,0.5
		h-2.1c-0.3,0-0.5-0.2-0.6-0.5l-0.6-1.5l-5.3,0l-0.6,1.6c-0.2,0.2-0.3,0.5-0.6,0.5h-2.1C802.9,394.1,802.7,393.9,802.7,393.6z
		 M810.8,389.5l-1.5-3.2l0,0l-1.5,3.2H810.8z"/>
	<path fill="#CCCCCC" d="M820.5,387.6l-4.4-6.4c-0.2-0.3,0-0.5,0.3-0.5h2.6c0.2,0,0.3,0.2,0.3,0.2l2.7,4l2.7-4c0,0,0.2-0.2,0.3-0.2
		h2.6c0.3,0,0.5,0.3,0.3,0.5l-4.4,6.4v6.1c0,0.2-0.2,0.3-0.3,0.3l-2.3,0c-0.2,0-0.3-0.2-0.3-0.3v-6.1H820.5z"/>
	<path fill="#CCCCCC" d="M745.7,404.2c0-0.2,0.2-0.3,0.3-0.3l4.7,0c3.7,0,6.8,3.1,6.8,6.8c0,3.7-3.1,6.8-6.8,6.8H746
		c-0.2,0-0.3-0.2-0.3-0.3V404.2z M750.5,414.5c2.3,0,3.7-1.8,3.7-3.9c0-2.3-1.6-3.9-3.7-3.9h-1.9v7.9l1.9,0V414.5z"/>
	<path fill="#CCCCCC" d="M761.6,404.2c0-0.2,0.2-0.3,0.3-0.3h8.1c0.2,0,0.3,0.2,0.3,0.3v2.1c0,0.2-0.2,0.3-0.3,0.3h-5.3v2.4h4.4
		c0.2,0,0.3,0.2,0.3,0.3v2.1c0,0.2-0.2,0.3-0.3,0.3h-4.4l0,2.6h5.3c0.2,0,0.3,0.2,0.3,0.3v2.1c0,0.2-0.2,0.3-0.3,0.3h-8.1
		c-0.2,0-0.3-0.2-0.3-0.3L761.6,404.2z"/>
	<path fill="#CCCCCC" d="M774.2,415.5l1-1.6c0.2-0.3,0.5-0.2,0.6-0.2c0,0,1.5,1.1,2.7,1.1c0.8,0,1.3-0.5,1.3-1.1
		c0-0.8-0.6-1.5-1.9-1.9c-1.6-0.6-3.7-1.9-3.7-4.4c0-1.9,1.5-3.9,4.5-3.9c1.9,0,3.5,1,4.2,1.5c0.2,0.2,0.2,0.5,0.2,0.6l-1,1.5
		c-0.2,0.2-0.5,0.3-0.6,0.3c-0.2-0.2-1.6-1.1-2.7-1.1c-0.6,0-1.3,0.5-1.3,1c0,0.6,0.6,1.3,2.1,1.9c1.5,0.6,3.9,1.8,3.9,4.4
		c0,1.9-1.8,4-4.5,4c-2.6,0-3.9-1-4.4-1.5C774.2,415.8,774,415.8,774.2,415.5z"/>
	<path fill="#CCCCCC" d="M787.4,404.2c0-0.2,0.2-0.3,0.3-0.3h2.3c0.2,0,0.3,0.2,0.3,0.3l0,12.7c0,0.2-0.2,0.3-0.3,0.3h-2.3
		c-0.2,0-0.3-0.2-0.3-0.3L787.4,404.2z"/>
	<path fill="#CCCCCC" d="M801.6,403.6c1.6,0,3.4,0.6,4.7,1.8c0.2,0.2,0.2,0.3,0,0.5l-1.5,1.6c-0.2,0.2-0.3,0.2-0.5,0
		c-0.8-0.6-1.6-1-2.6-1c-2.1,0-3.9,1.8-3.9,3.9c0,2.1,1.8,3.9,3.9,3.9c0.5,0,1.1,0,1.8-0.3v-1.1h-1.3c-0.2,0-0.3-0.2-0.3-0.3v-1.9
		c0-0.2,0.2-0.3,0.3-0.3h3.9c0.2,0,0.3,0.2,0.3,0.3v5.2c0,0.2,0,0.3-0.2,0.3c0,0-1.9,1.3-4.8,1.3c-3.9,0-6.9-3.1-6.9-6.9
		C794.7,406.6,797.7,403.6,801.6,403.6z"/>
	<path fill="#CCCCCC" d="M811.1,403.9c0-0.2,0.2-0.3,0.3-0.3h0.5l7.7,7.4l0,0l0-6.9c0-0.2,0.2-0.3,0.3-0.3l2.3,0
		c0.2,0,0.3,0.2,0.3,0.3v13.1c0,0.2-0.2,0.3-0.3,0.3h-0.3c0,0-0.2,0-0.3-0.2l-7.6-7.7l0,0l0,7.3c0,0.2-0.2,0.3-0.3,0.3h-2.3
		c-0.2,0-0.3-0.2-0.3-0.3L811.1,403.9z"/>
</g>
</svg>
