<?xml version="1.0" encoding="utf-8"?>
<!-- Generator: Adobe Illustrator 17.1.0, SVG Export Plug-In . SVG Version: 6.00 Build 0)  -->
<!DOCTYPE svg PUBLIC "-//W3C//DTD SVG 1.1//EN" "http://www.w3.org/Graphics/SVG/1.1/DTD/svg11.dtd">
<svg version="1.1" id="Layer_1" xmlns="http://www.w3.org/2000/svg" xmlns:xlink="http://www.w3.org/1999/xlink" x="0px" y="0px"
	 viewBox="0 0 38 38" enable-background="new 0 0 38 38" xml:space="preserve">
<path fill="#FFFFFF" d="M23.271,19.072L36.194,6.318c1.179-1.164,1.191-3.063,0.028-4.243c-1.164-1.18-3.064-1.191-4.243-0.028
	L19,14.857L6.021,2.047C4.842,0.884,2.942,0.896,1.779,2.075S0.627,5.154,1.806,6.318l12.923,12.754L1.806,31.826
	c-1.179,1.164-1.191,3.063-0.028,4.243c0.587,0.595,1.361,0.893,2.135,0.893c0.761,0,1.523-0.288,2.107-0.865L19,23.287
	l12.979,12.809c0.584,0.577,1.346,0.865,2.107,0.865c0.774,0,1.548-0.298,2.135-0.893c1.164-1.179,1.151-3.079-0.028-4.243
	L23.271,19.072z"/>
</svg>
