<?xml version="1.0" encoding="utf-8"?>
<!-- Generator: Adobe Illustrator 17.1.0, SVG Export Plug-In . SVG Version: 6.00 Build 0)  -->
<!DOCTYPE svg PUBLIC "-//W3C//DTD SVG 1.1//EN" "http://www.w3.org/Graphics/SVG/1.1/DTD/svg11.dtd">
<svg version="1.1" id="Layer_1" xmlns="http://www.w3.org/2000/svg" xmlns:xlink="http://www.w3.org/1999/xlink" x="0px" y="0px"
	 viewBox="0 0 30 30" enable-background="new 0 0 30 30" xml:space="preserve">
<path fill="#FFFFFF" d="M19.51,15.292l8.715-8.602c1.179-1.164,1.191-3.063,0.028-4.243c-1.164-1.18-3.064-1.191-4.243-0.028
	l-8.771,8.657L6.467,2.42C5.288,1.256,3.388,1.269,2.225,2.448S1.073,5.526,2.253,6.69l8.715,8.602l-8.715,8.602
	c-1.179,1.164-1.191,3.063-0.028,4.243c0.587,0.595,1.361,0.893,2.135,0.893c0.761,0,1.523-0.288,2.107-0.865l8.771-8.657
	l8.771,8.657c0.584,0.577,1.346,0.865,2.107,0.865c0.774,0,1.548-0.298,2.135-0.893c1.164-1.179,1.151-3.079-0.028-4.243
	L19.51,15.292z"/>
</svg>
