<?xml version="1.0" encoding="utf-8"?>
<!-- Generator: Adobe Illustrator 17.1.0, SVG Export Plug-In . SVG Version: 6.00 Build 0)  -->
<!DOCTYPE svg PUBLIC "-//W3C//DTD SVG 1.1//EN" "http://www.w3.org/Graphics/SVG/1.1/DTD/svg11.dtd">
<svg version="1.1" id="Layer_1" xmlns="http://www.w3.org/2000/svg" xmlns:xlink="http://www.w3.org/1999/xlink" x="0px" y="0px"
	 viewBox="0 0 51 51" enable-background="new 0 0 51 51" xml:space="preserve">
<path fill="#333333" d="M46.821,22.729l-18.199,0.008L28.62,4.481c0-1.657-1.343-3-3-3c-1.657,0-3,1.343-3,3l0.001,18.26
	L4.428,22.749c0,0-0.001,0-0.001,0c-1.656,0-2.999,1.316-3,2.972c-0.001,1.657,1.342,2.974,2.999,2.975l18.197,0.023l0.001,18.155
	c0,1.657,1.343,3,3,3c1.657,0,3-1.343,3-3l-0.001-18.147l18.196,0.023c0,0,0.001,0,0.001,0c1.656,0,2.999-1.352,3-3.008
	C49.82,24.084,48.478,22.73,46.821,22.729z"/>
</svg>
