<?xml version="1.0" encoding="utf-8"?>
<!-- Generator: Adobe Illustrator 17.1.0, SVG Export Plug-In . SVG Version: 6.00 Build 0)  -->
<!DOCTYPE svg PUBLIC "-//W3C//DTD SVG 1.1//EN" "http://www.w3.org/Graphics/SVG/1.1/DTD/svg11.dtd">
<svg version="1.1" id="Layer_1" xmlns="http://www.w3.org/2000/svg" xmlns:xlink="http://www.w3.org/1999/xlink" x="0px" y="0px"
	 viewBox="0 0 239.179 12.793" enable-background="new 0 0 239.179 12.793" xml:space="preserve">
<path fill="#CCCCCC" d="M231.138,8.18c-8.442,0.301-16.883,0.677-25.327,0.877c-5.561,0.132-11.128-0.01-16.693,0.009
	c-5.453,0.019-10.906,0.085-16.359,0.134c-7.909,0.071-15.817,0.197-23.725,0.2c-5.688,0.002-11.375-0.177-17.063-0.243
	c-8.625-0.101-17.251-0.157-25.875-0.267c-4.251-0.054-8.501-0.221-12.753-0.274c-4.306-0.054-8.613-0.041-12.92-0.038
	c-4.072,0.002-8.147-0.064-12.215,0.068c-5.266,0.171-10.526,0.532-15.791,0.765c-4.069,0.179-8.142,0.259-12.211,0.432
	c-4.419,0.188-8.837,0.418-13.255,0.655c-3.465,0.186-6.932,0.365-10.391,0.632c-3.147,0.243-6.286,0.586-9.425,0.919
	c-0.582,0.062-1.167,0.236-1.716,0.448c-2.28,0.882-4.556-0.278-5.122-2.649c-0.336-1.407-0.5-2.846,0.114-4.195
	c0.83-1.824,1.734-2.216,3.698-1.983c0.997,0.118,2.015,0.15,3.018,0.104c3.636-0.167,7.269-0.409,10.906-0.577
	c9.993-0.462,19.988-0.878,29.981-1.359c4.307-0.207,8.608-0.539,12.914-0.792c0.896-0.053,1.802,0.043,2.697-0.014
	c8.804-0.561,17.612-0.203,26.418-0.103c8.391,0.096,16.782,0.216,25.172,0.38c7.307,0.143,14.612,0.464,21.919,0.52
	c7.183,0.055,14.368-0.144,21.552-0.191c3.594-0.023,7.188,0.074,10.782,0.064c7.43-0.022,14.859-0.07,22.289-0.127
	c5.634-0.044,11.269-0.061,16.901-0.199c5.448-0.133,10.894-0.397,16.34-0.617c2.387-0.096,4.773-0.211,7.157-0.352
	c0.648-0.038,1.295-0.174,1.932-0.312c1.711-0.37,3.635,0.346,4.44,1.679c1.017,1.683,0.82,4.272-0.458,5.533
	c-0.766,0.757-1.73,1.024-2.799,0.996c-1.378-0.036-2.757-0.041-4.135-0.059C231.138,8.224,231.138,8.202,231.138,8.18z"/>
</svg>
