<?xml version="1.0" encoding="utf-8"?>
<!-- Generator: Adobe Illustrator 17.1.0, SVG Export Plug-In . SVG Version: 6.00 Build 0)  -->
<!DOCTYPE svg PUBLIC "-//W3C//DTD SVG 1.1//EN" "http://www.w3.org/Graphics/SVG/1.1/DTD/svg11.dtd">
<svg version="1.1" id="Layer_1" xmlns="http://www.w3.org/2000/svg" xmlns:xlink="http://www.w3.org/1999/xlink" x="0px" y="0px"
	 viewBox="0 0 70 70" enable-background="new 0 0 70 70" xml:space="preserve">
<path fill="#333333" d="M2.579,25.552l2.633,3.453c0,0,5.432-4.28,7.243-2.141c1.811,2.141,8.721,27.984,11.028,32.753
	c2.014,4.182,7.57,9.712,13.66,5.762c6.089-3.949,26.333-21.232,29.956-41.641C70.72,3.333,42.736,7.605,39.775,25.384
	c7.406-4.448,11.36,1.808,7.571,8.888c-3.784,7.075-7.242,11.688-9.052,11.688c-1.807,0-3.199-4.733-5.268-13.008
	c-2.141-8.555-2.128-23.965-11.026-22.219C13.607,12.381,2.579,25.552,2.579,25.552z"/>
</svg>
