<?xml version="1.0" encoding="utf-8"?>
<!-- Generator: Adobe Illustrator 17.1.0, SVG Export Plug-In . SVG Version: 6.00 Build 0)  -->
<!DOCTYPE svg PUBLIC "-//W3C//DTD SVG 1.1//EN" "http://www.w3.org/Graphics/SVG/1.1/DTD/svg11.dtd">
<svg version="1.1" id="Layer_1" xmlns="http://www.w3.org/2000/svg" xmlns:xlink="http://www.w3.org/1999/xlink" x="0px" y="0px"
	 viewBox="0 0 70 70" enable-background="new 0 0 70 70" xml:space="preserve">
<path fill="#333333" d="M67.273,17.935c-2.373,1.054-4.926,1.766-7.606,2.085c2.735-1.638,4.834-4.233,5.823-7.327
	c-2.559,1.518-5.392,2.62-8.409,3.215c-2.415-2.574-5.857-4.182-9.665-4.182c-7.313,0-13.242,5.929-13.242,13.242
	c0,1.038,0.117,2.048,0.343,3.017C23.51,27.434,13.752,22.162,7.221,14.15c-1.14,1.955-1.793,4.23-1.793,6.657
	c0,4.594,2.338,8.647,5.891,11.022c-2.17-0.07-4.213-0.665-5.998-1.657C5.32,30.228,5.32,30.283,5.32,30.34
	c0,6.415,4.565,11.767,10.623,12.985c-1.111,0.302-2.281,0.464-3.489,0.464c-0.854,0-1.683-0.083-2.492-0.238
	c1.686,5.261,6.576,9.09,12.37,9.197C17.8,56.3,12.09,58.417,5.885,58.417c-1.068,0-2.122-0.063-3.158-0.185
	c5.861,3.758,12.821,5.95,20.3,5.95c24.358,0,37.677-20.179,37.677-37.678c0-0.573-0.012-1.146-0.037-1.713
	C63.253,22.924,65.499,20.591,67.273,17.935z"/>
</svg>
