<?xml version="1.0" encoding="utf-8"?>
<!-- Generator: Adobe Illustrator 18.0.0, SVG Export Plug-In . SVG Version: 6.00 Build 0)  -->
<!DOCTYPE svg PUBLIC "-//W3C//DTD SVG 1.1//EN" "http://www.w3.org/Graphics/SVG/1.1/DTD/svg11.dtd">
<svg version="1.1" id="Layer_1" xmlns="http://www.w3.org/2000/svg" xmlns:xlink="http://www.w3.org/1999/xlink" x="0px" y="0px"
	 viewBox="0 0 842 653" enable-background="new 0 0 842 653" xml:space="preserve">
<polyline fill="#3C0091" points="843.5,653 -1.5,653 -1.5,0 843.5,0 843.5,653 "/>
<rect x="374.8" y="458.6" fill="#3C0091" width="10.2" height="3.4"/>
<g>
	<g>
		<defs>
			<rect id="SVGID_1_" x="328.3" y="135.7" width="200.7" height="385.1"/>
		</defs>
		<clipPath id="SVGID_2_">
			<use xlink:href="#SVGID_1_"  overflow="visible"/>
		</clipPath>
		<path clip-path="url(#SVGID_2_)" fill="#ED2D32" d="M521.2,438.3H508c-3.6,0-6.6,2.9-6.6,6.6v5.7v8.4c0,3.6-3,6.6-6.6,6.6h-20v2.8
			H509h12.3c3.6,0,6.6-3,6.6-6.6v-16.9C527.8,441.2,524.8,438.3,521.2,438.3"/>
	</g>
	<g>
		<defs>
			<rect id="SVGID_3_" x="328.3" y="135.7" width="200.7" height="385.1"/>
		</defs>
		<clipPath id="SVGID_4_">
			<use xlink:href="#SVGID_3_"  overflow="visible"/>
		</clipPath>
		<path clip-path="url(#SVGID_4_)" fill="#FFEB00" d="M529,232c0,87.1-100.3,124-100.3,124s-100.3-36.2-100.3-124
			c0-53.2,44.9-96.3,100.3-96.3S529,178.8,529,232"/>
	</g>
	<g>
		<defs>
			<rect id="SVGID_5_" x="328.3" y="135.7" width="200.7" height="385.1"/>
		</defs>
		<clipPath id="SVGID_6_">
			<use xlink:href="#SVGID_5_"  overflow="visible"/>
		</clipPath>
		<path clip-path="url(#SVGID_6_)" fill="#ED2D32" d="M428.7,135.7c55.4,0,100.3,43.1,100.3,96.3c0,87.1-100.3,124-100.3,124V135.7z
			"/>
	</g>
	<g>
		<defs>
			<rect id="SVGID_7_" x="328.3" y="135.7" width="200.7" height="385.1"/>
		</defs>
		<clipPath id="SVGID_8_">
			<use xlink:href="#SVGID_7_"  overflow="visible"/>
		</clipPath>
		<path clip-path="url(#SVGID_8_)" fill="#ED2D32" d="M366.7,247.8l20.7,12.5l20.7-12.5l20.6,12.5V230L408,217.5L387.3,230
			l-20.7-12.5L346,230l-16.9-10.2c-0.5,4-0.8,8.1-0.8,12.2c0,6.5,0.5,12.6,1.5,18.6l16.2,9.8L366.7,247.8z"/>
	</g>
	<g>
		<defs>
			<rect id="SVGID_9_" x="328.3" y="135.7" width="200.7" height="385.1"/>
		</defs>
		<clipPath id="SVGID_10_">
			<use xlink:href="#SVGID_9_"  overflow="visible"/>
		</clipPath>
		<path clip-path="url(#SVGID_10_)" fill="#FFEB00" d="M528.2,219.8L511.3,230l-20.7-12.5L470,230l-20.7-12.5L428.7,230v30.3
			l20.7-12.5l20.7,12.5l20.7-12.5l20.7,12.5l16.1-9.8c1-5.9,1.6-12.1,1.6-18.6C529,227.8,528.7,223.8,528.2,219.8"/>
	</g>
	<g>
		<defs>
			<rect id="SVGID_11_" x="328.3" y="135.7" width="200.7" height="385.1"/>
		</defs>
		<clipPath id="SVGID_12_">
			<use xlink:href="#SVGID_11_"  overflow="visible"/>
		</clipPath>
		<path clip-path="url(#SVGID_12_)" fill="#ED2D32" d="M368.6,503.9c-1.4,0-2.8-1.9-2.8-7.2c0-7.5,2.2-18.9,2.2-30h0.6h0.6
			c0,11.1,2.2,22.5,2.2,30C371.4,502,370,503.9,368.6,503.9"/>
	</g>
	<g>
		<defs>
			<rect id="SVGID_13_" x="328.3" y="135.7" width="200.7" height="385.1"/>
		</defs>
		<clipPath id="SVGID_14_">
			<use xlink:href="#SVGID_13_"  overflow="visible"/>
		</clipPath>
		<path clip-path="url(#SVGID_14_)" fill="#ED2D32" d="M368.6,429.6c-1.4,0-2.8,1.9-2.8,7.2c0,7.5,2.2,18.9,2.2,30h0.6h0.6
			c0-11.1,2.2-22.5,2.2-30C371.4,431.5,370,429.6,368.6,429.6"/>
	</g>
	<g>
		<defs>
			<rect id="SVGID_15_" x="328.3" y="135.7" width="200.7" height="385.1"/>
		</defs>
		<clipPath id="SVGID_16_">
			<use xlink:href="#SVGID_15_"  overflow="visible"/>
		</clipPath>
		<path clip-path="url(#SVGID_16_)" fill="#ED2D32" d="M472.4,485.2c0,2.9-2.4,5.3-5.4,5.3h-76.7c-3,0-5.4-2.4-5.4-5.3v-45
			c0-2.9,2.4-5.3,5.4-5.3H467c2.9,0,5.4,2.4,5.4,5.3V485.2z"/>
	</g>
	<g>
		<defs>
			<rect id="SVGID_17_" x="328.3" y="135.7" width="200.7" height="385.1"/>
		</defs>
		<clipPath id="SVGID_18_">
			<use xlink:href="#SVGID_17_"  overflow="visible"/>
		</clipPath>
		<path clip-path="url(#SVGID_18_)" fill="#FFEB00" d="M428.7,434.8h-38.4c-3,0-5.4,2.4-5.4,5.3v45c0,2.9,2.4,5.3,5.4,5.3h38.4
			V434.8z"/>
	</g>
	<g>
		<defs>
			<rect id="SVGID_19_" x="328.3" y="135.7" width="200.7" height="385.1"/>
		</defs>
		<clipPath id="SVGID_20_">
			<use xlink:href="#SVGID_19_"  overflow="visible"/>
		</clipPath>
		<path clip-path="url(#SVGID_20_)" fill="#FFEB00" d="M365.3,467.1c0,3.3-0.4,6-2.9,6s-6.2-2.7-6.2-6s3.7-6,6.2-6
			C365,461.1,365.3,463.8,365.3,467.1"/>
	</g>
	<g>
		<defs>
			<rect id="SVGID_21_" x="328.3" y="135.7" width="200.7" height="385.1"/>
		</defs>
		<clipPath id="SVGID_22_">
			<use xlink:href="#SVGID_21_"  overflow="visible"/>
		</clipPath>
		<path clip-path="url(#SVGID_22_)" fill="#FFEB00" d="M520.6,452c0,3.6-3,6.6-6.6,6.6c-3.7,0-6.6-3-6.6-6.6s3-6.6,6.6-6.6
			C517.6,445.4,520.6,448.4,520.6,452"/>
	</g>
	<g>
		<defs>
			<rect id="SVGID_23_" x="328.3" y="135.7" width="200.7" height="385.1"/>
		</defs>
		<clipPath id="SVGID_24_">
			<use xlink:href="#SVGID_23_"  overflow="visible"/>
		</clipPath>
		<path clip-path="url(#SVGID_24_)" fill="#FFEB00" d="M448.9,490.5c0,11.1-9.1,20.2-20.3,20.2c-11.2,0-20.3-9-20.3-20.2
			c0-11.1,9.1-20.2,20.3-20.2C439.9,470.3,448.9,479.4,448.9,490.5"/>
	</g>
	<g>
		<defs>
			<rect id="SVGID_25_" x="328.3" y="135.7" width="200.7" height="385.1"/>
		</defs>
		<clipPath id="SVGID_26_">
			<use xlink:href="#SVGID_25_"  overflow="visible"/>
		</clipPath>
		<path clip-path="url(#SVGID_26_)" fill="#ED2D32" d="M457.5,490.5h-1.6c0,7.5-3.1,14.3-8,19.2s-11.7,7.9-19.3,7.9
			c-7.5,0-14.3-3-19.3-7.9c-4.9-4.9-8-11.7-8-19.2s3.1-14.3,8-19.2c4.9-4.9,11.7-7.9,19.3-7.9c7.5,0,14.3,3,19.3,7.9
			c4.9,4.9,8,11.7,8,19.2L457.5,490.5l1.6,0c0-16.7-13.6-30.3-30.5-30.3c-16.8,0-30.5,13.6-30.5,30.3c0,16.7,13.6,30.3,30.5,30.3
			c16.8,0,30.5-13.6,30.5-30.3L457.5,490.5L457.5,490.5z"/>
	</g>
	<g>
		<defs>
			<rect id="SVGID_27_" x="328.3" y="135.7" width="200.7" height="385.1"/>
		</defs>
		<clipPath id="SVGID_28_">
			<use xlink:href="#SVGID_27_"  overflow="visible"/>
		</clipPath>
		<path clip-path="url(#SVGID_28_)" fill="#ED2D32" d="M428.7,428.1l1.4-0.8l-82.4-138.9l-1.4,0.8l-0.6,1.5c0.1,0,31.5,11.8,83,11.8
			s82.1-11.8,82.2-11.8l-0.6-1.5l-1.4-0.8l-81.6,138.9L428.7,428.1l1.4-0.8L428.7,428.1l1.4,0.8L511.7,290c0.3-0.6,0.3-1.3-0.2-1.9
			c-0.4-0.5-1.2-0.7-1.8-0.5l0,0c-0.8,0.3-30.8,11.6-81,11.6c-25.5,0-46-2.9-60.1-5.8c-7.1-1.5-12.5-2.9-16.2-4
			c-1.8-0.5-3.2-1-4.2-1.3c-0.5-0.2-0.8-0.3-1-0.4c-0.1,0-0.2-0.1-0.3-0.1h-0.1l0,0c-0.6-0.2-1.4,0-1.8,0.5s-0.5,1.3-0.2,1.8
			l82.4,138.9c0.3,0.5,0.8,0.8,1.4,0.8s1.1-0.3,1.4-0.8L428.7,428.1z"/>
	</g>
	<g>
		<defs>
			<rect id="SVGID_29_" x="328.3" y="135.7" width="200.7" height="385.1"/>
		</defs>
		<clipPath id="SVGID_30_">
			<use xlink:href="#SVGID_29_"  overflow="visible"/>
		</clipPath>
		<path clip-path="url(#SVGID_30_)" fill="#ED2D32" d="M373.9,297.5l53.3,131.2c0.3,0.8,1.3,1.2,2.1,0.9c0.8-0.3,1.2-1.3,0.9-2.1
			l-53.3-131.2c-0.3-0.8-1.3-1.2-2.1-0.9C374,295.8,373.6,296.7,373.9,297.5"/>
	</g>
	<g>
		<defs>
			<rect id="SVGID_31_" x="328.3" y="135.7" width="200.7" height="385.1"/>
		</defs>
		<clipPath id="SVGID_32_">
			<use xlink:href="#SVGID_31_"  overflow="visible"/>
		</clipPath>
		<path clip-path="url(#SVGID_32_)" fill="#ED2D32" d="M403.4,300.5L427,428.4c0.2,0.9,1,1.4,1.9,1.3c0.9-0.2,1.5-1,1.3-1.9
			l-23.7-127.9c-0.2-0.9-1-1.4-1.9-1.3C403.9,298.8,403.3,299.6,403.4,300.5"/>
	</g>
	<g>
		<defs>
			<rect id="SVGID_33_" x="328.3" y="135.7" width="200.7" height="385.1"/>
		</defs>
		<clipPath id="SVGID_34_">
			<use xlink:href="#SVGID_33_"  overflow="visible"/>
		</clipPath>
		<path clip-path="url(#SVGID_34_)" fill="#ED2D32" d="M450.8,299.9l-23.7,127.9c-0.2,0.9,0.4,1.7,1.3,1.9c0.9,0.2,1.7-0.4,1.9-1.3
			L454,300.5c0.2-0.9-0.4-1.7-1.3-1.9C451.8,298.5,450.9,299,450.8,299.9"/>
	</g>
	<g>
		<defs>
			<rect id="SVGID_35_" x="328.3" y="135.7" width="200.7" height="385.1"/>
		</defs>
		<clipPath id="SVGID_36_">
			<use xlink:href="#SVGID_35_"  overflow="visible"/>
		</clipPath>
		<path clip-path="url(#SVGID_36_)" fill="#ED2D32" d="M480.6,296.3l-53.4,131.2c-0.3,0.8,0.1,1.7,0.9,2.1c0.8,0.3,1.7-0.1,2.1-0.9
			l53.4-131.2c0.3-0.8-0.1-1.7-0.9-2.1C481.9,295.1,480.9,295.5,480.6,296.3"/>
	</g>
</g>
<rect x="371.9" y="465.2" fill="#ED2D32" width="10.3" height="3.5"/>
</svg>
